<svg width="31" height="36" viewBox="0 0 31 36" fill="none" xmlns="http://www.w3.org/2000/svg">
<mask id="mask0_1661_1460" style="mask-type:alpha" maskUnits="userSpaceOnUse" x="0" y="0" width="31" height="36">
<rect x="30.6079" y="36" width="30.6079" height="36" transform="rotate(180 30.6079 36)" fill="#D9D9D9"/>
</mask>
<g mask="url(#mask0_1661_1460)">
<mask id="mask1_1661_1460" style="mask-type:alpha" maskUnits="userSpaceOnUse" x="-13" y="-6" width="51" height="44">
<path d="M10.7577 25.3867L8.23069 31.1988L32.995 37.7689L37.0381 15.7842L26.5512 1.38051L24.0243 5.67636L10.7577 25.3867Z" fill="#828282"/>
<path d="M5.95641 16.6687L6.33546 28.4191H-8.70001L-12.6168 4.91827L0.523426 -5.31596L18.5913 -3.67343L15.6852 3.40208L13.9164 4.41287L5.95641 16.6687Z" fill="#828282"/>
</mask>
<g mask="url(#mask1_1661_1460)">
<path d="M26.8855 13.8011L26.1966 14.2315L26.303 15.8134L26.8855 13.8011ZM25.3856 9.4564L24.7114 9.92953L25.3869 11.2757L25.3856 9.4564ZM26.0678 10.8159L25.3869 11.2757L25.8866 12.7143L26.0678 10.8159ZM26.993 15.3987L26.303 15.8134L26.1966 17.3953L26.993 15.3987ZM26.5724 12.2688L25.8866 12.7143L26.1966 14.2315L26.5724 12.2688ZM0.834801 13.4288L0.401928 13.8629L0.270704 15.8134L0.834801 13.4288ZM26.8855 16.9963L26.1966 17.3953L25.8866 18.9125L26.8855 16.9963ZM0.702272 15.3987L0.270704 15.8134L0.401928 17.764L0.702272 15.3987ZM0.834801 17.3686L0.401928 17.764L0.784176 19.6348L0.834801 17.3686ZM26.5724 18.5286L25.8866 18.9125L25.3869 20.3512L26.5724 18.5286ZM1.22084 19.258L0.784176 19.6348L1.40033 21.4087L1.22084 19.258ZM1.84311 21.0495L1.40033 21.4087L2.23325 23.0685L1.84311 21.0495ZM26.0678 19.9815L25.3869 20.3512L24.7114 21.6973L26.0678 19.9815ZM2.6843 22.7258L2.23325 23.0685L3.26582 24.5973L2.6843 22.7258ZM3.72712 24.2697L3.26582 24.5973L4.48091 25.9778L3.72712 24.2697ZM25.3856 21.341L24.7114 21.6973L23.874 22.9372L25.3856 21.341ZM4.95427 25.6639L4.48091 25.9778L5.86139 27.1929L4.95427 25.6639ZM6.34845 26.8911L5.86139 27.1929L7.39014 28.2254L6.34845 26.8911ZM24.5398 22.5931L23.874 22.9372L22.8885 24.0567L24.5398 22.5931ZM7.89237 27.9339L7.39014 28.2254L9.05002 29.0584L7.89237 27.9339ZM9.56873 28.7751L9.05002 29.0584L10.8239 29.6745L9.56873 28.7751ZM23.5446 23.7238L22.8885 24.0567L21.769 25.0422L23.5446 23.7238ZM11.3602 29.3973L10.8239 29.6745L12.6947 30.0567L11.3602 29.3973ZM13.2496 29.7834L12.6947 30.0567L14.6452 30.188L13.2496 29.7834ZM22.4139 24.719L21.769 25.0422L20.5291 25.8796L22.4139 24.719ZM15.2195 29.9159L14.6452 30.188L16.5958 30.0567L15.2195 29.9159ZM17.1894 29.7834L16.5958 30.0567L18.4666 29.6745L17.1894 29.7834ZM21.1618 25.5648L20.5291 25.8796L19.183 26.5551L21.1618 25.5648ZM19.0787 29.3973L18.4666 29.6745L20.2405 29.0584L19.0787 29.3973ZM4.95427 5.13349L4.48091 5.64911L3.26582 7.02959L4.95427 5.13349ZM6.89437 7.07358L6.40194 7.57014L7.52151 6.5847L6.89437 7.07358ZM3.72712 6.52767L3.26582 7.02959L2.23325 8.55834L3.72712 6.52767ZM2.6843 8.07159L2.23325 8.55834L1.40033 10.2182L2.6843 8.07159ZM1.84311 9.74795L1.40033 10.2182L0.784176 11.9921L1.84311 9.74795ZM8.02505 6.07836L7.52151 6.5847L8.76133 5.74728L8.02505 6.07836ZM1.22084 11.5395L0.784176 11.9921L0.401928 13.8629L1.22084 11.5395ZM24.5398 8.20427L23.874 8.68971L24.7114 9.92953L24.5398 8.20427ZM23.5446 7.07358L22.8885 7.57014L23.874 8.68971L23.5446 7.07358ZM9.27718 5.23263L8.76133 5.74728L10.1075 5.07178L9.27718 5.23263ZM22.4139 6.07836L21.769 6.5847L22.8885 7.57014L22.4139 6.07836ZM21.1618 5.23263L20.5291 5.74728L21.769 6.5847L21.1618 5.23263ZM19.8023 4.55043L19.183 5.07178L20.5291 5.74728L19.8023 4.55043ZM10.6367 4.55043L10.1075 5.07178L11.5461 4.57208L10.6367 4.55043ZM18.3493 4.04577L17.7443 4.57208L19.183 5.07178L18.3493 4.04577ZM16.8171 3.73269L16.2271 4.26208L17.7443 4.57208L16.8171 3.73269ZM15.2195 3.62521L14.6452 4.15565L16.2271 4.26208L15.2195 3.62521ZM12.0896 4.04577L11.5461 4.57208L13.0633 4.26208L12.0896 4.04577ZM13.6219 3.73269L13.0633 4.26208L14.6452 4.15565L13.6219 3.73269ZM22.4139 6.07836L21.1618 5.23263L21.769 6.5847L22.4139 6.07836ZM25.3856 9.4564L24.5398 8.20427L24.7114 9.92953L25.3856 9.4564ZM15.2195 3.62521L13.6219 3.73269L14.6452 4.15565L15.2195 3.62521ZM26.0678 10.8159L25.3856 9.4564L25.3869 11.2757L26.0678 10.8159ZM26.5724 12.2688L26.0678 10.8159L25.8866 12.7143L26.5724 12.2688ZM16.8171 3.73269L15.2195 3.62521L16.2271 4.26208L16.8171 3.73269ZM26.8855 13.8011L26.5724 12.2688L26.1966 14.2315L26.8855 13.8011ZM18.3493 4.04577L16.8171 3.73269L17.7443 4.57208L18.3493 4.04577ZM12.0896 4.04577L10.6367 4.55043L11.5461 4.57208L12.0896 4.04577ZM19.8023 4.55043L18.3493 4.04577L19.183 5.07178L19.8023 4.55043ZM21.1618 5.23263L19.8023 4.55043L20.5291 5.74728L21.1618 5.23263ZM13.6219 3.73269L12.0896 4.04577L13.0633 4.26208L13.6219 3.73269ZM10.6367 4.55043L9.27718 5.23263L10.1075 5.07178L10.6367 4.55043ZM23.5446 7.07358L22.4139 6.07836L22.8885 7.57014L23.5446 7.07358ZM24.5398 8.20427L23.5446 7.07358L23.874 8.68971L24.5398 8.20427ZM0.834801 13.4288L1.22084 11.5395L0.401928 13.8629L0.834801 13.4288ZM9.27718 5.23263L8.02505 6.07836L8.76133 5.74728L9.27718 5.23263ZM1.22084 11.5395L1.84311 9.74795L0.784176 11.9921L1.22084 11.5395ZM3.72712 6.52767L4.95427 5.13349L3.26582 7.02959L3.72712 6.52767ZM8.02505 6.07836L6.89437 7.07358L7.52151 6.5847L8.02505 6.07836ZM2.6843 8.07159L3.72712 6.52767L2.23325 8.55834L2.6843 8.07159ZM1.84311 9.74795L2.6843 8.07159L1.40033 10.2182L1.84311 9.74795ZM4.95427 25.6639L3.72712 24.2697L4.48091 25.9778L4.95427 25.6639ZM19.8023 26.247L21.1618 25.5648L19.183 26.5551L19.8023 26.247ZM24.5398 22.5931L25.3856 21.341L23.874 22.9372L24.5398 22.5931ZM6.34845 26.8911L4.95427 25.6639L5.86139 27.1929L6.34845 26.8911ZM0.834801 17.3686L0.702272 15.3987L0.401928 17.764L0.834801 17.3686ZM1.22084 19.258L0.834801 17.3686L0.784176 19.6348L1.22084 19.258ZM7.89237 27.9339L6.34845 26.8911L7.39014 28.2254L7.89237 27.9339ZM23.5446 23.7238L24.5398 22.5931L22.8885 24.0567L23.5446 23.7238ZM9.56873 28.7751L7.89237 27.9339L9.05002 29.0584L9.56873 28.7751ZM26.8855 16.9963L26.993 15.3987L26.1966 17.3953L26.8855 16.9963ZM11.3602 29.3973L9.56873 28.7751L10.8239 29.6745L11.3602 29.3973ZM22.4139 24.719L23.5446 23.7238L21.769 25.0422L22.4139 24.719ZM13.2496 29.7834L11.3602 29.3973L12.6947 30.0567L13.2496 29.7834ZM26.993 15.3987L26.8855 13.8011L26.303 15.8134L26.993 15.3987ZM15.2195 29.9159L13.2496 29.7834L14.6452 30.188L15.2195 29.9159ZM21.1618 25.5648L22.4139 24.719L20.5291 25.8796L21.1618 25.5648ZM17.1894 29.7834L15.2195 29.9159L16.5958 30.0567L17.1894 29.7834ZM0.702272 15.3987L0.834801 13.4288L0.270704 15.8134L0.702272 15.3987ZM26.0678 19.9815L26.5724 18.5286L25.3869 20.3512L26.0678 19.9815ZM19.0787 29.3973L17.1894 29.7834L18.4666 29.6745L19.0787 29.3973ZM20.8702 28.7751L19.0787 29.3973L20.2405 29.0584L20.8702 28.7751ZM1.84311 21.0495L1.22084 19.258L1.40033 21.4087L1.84311 21.0495ZM2.6843 22.7258L1.84311 21.0495L2.23325 23.0685L2.6843 22.7258ZM26.5724 18.5286L26.8855 16.9963L25.8866 18.9125L26.5724 18.5286ZM25.3856 21.341L26.0678 19.9815L24.7114 21.6973L25.3856 21.341ZM3.72712 24.2697L2.6843 22.7258L3.26582 24.5973L3.72712 24.2697ZM7.39667 6.56707L6.89437 7.07358L8.02505 6.07836L7.39667 6.56707ZM12.644 3.5089L12.0896 4.04577L13.6219 3.73269L12.644 3.5089ZM4.19766 6.01568L3.72712 6.52767L2.6843 8.07159L4.19766 6.01568ZM3.14439 7.57508L2.6843 8.07159L1.84311 9.74795L3.14439 7.57508ZM14.1916 3.19268L13.6219 3.73269L15.2195 3.62521L14.1916 3.19268ZM26.0732 8.97377L25.3856 9.4564L26.0678 10.8159L26.0732 8.97377ZM5.43712 4.60752L4.95427 5.13349L3.72712 6.52767L5.43712 4.60752ZM26.7623 10.3469L26.0678 10.8159L26.5724 12.2688L26.7623 10.3469ZM15.8052 3.08413L15.2195 3.62521L16.8171 3.73269L15.8052 3.08413ZM27.272 11.8144L26.5724 12.2688L26.8855 13.8011L27.272 11.8144ZM2.29477 9.26825L1.84311 9.74795L1.22084 11.5395L2.29477 9.26825ZM11.1765 4.01862L10.6367 4.55043L12.0896 4.04577L11.1765 4.01862ZM17.4189 3.19268L16.8171 3.73269L18.3493 4.04577L17.4189 3.19268ZM18.9665 3.5089L18.3493 4.04577L19.8023 4.55043L18.9665 3.5089ZM20.434 4.01862L19.8023 4.55043L21.1618 5.23263L20.434 4.01862ZM9.80337 4.70767L9.27718 5.23263L10.6367 4.55043L9.80337 4.70767ZM1.66626 11.0777L1.22084 11.5395L0.834801 13.4288L1.66626 11.0777ZM21.8071 4.70767L21.1618 5.23263L22.4139 6.07836L21.8071 4.70767ZM23.0718 5.56188L22.4139 6.07836L23.5446 7.07358L23.0718 5.56188ZM25.219 7.7091L24.5398 8.20427L25.3856 9.4564L25.219 7.7091ZM24.2138 6.56707L23.5446 7.07358L24.5398 8.20427L24.2138 6.56707ZM8.53869 5.56188L8.02505 6.07836L9.27718 5.23263L8.53869 5.56188ZM1.66626 18.8736L1.22084 19.258L1.84311 21.0495L1.66626 18.8736ZM11.9073 29.1146L11.3602 29.3973L13.2496 29.7834L11.9073 29.1146ZM10.0978 28.4861L9.56873 28.7751L11.3602 29.3973L10.0978 28.4861ZM24.2138 23.3842L23.5446 23.7238L22.4139 24.719L24.2138 23.3842ZM25.219 22.2422L24.5398 22.5931L23.5446 23.7238L25.219 22.2422ZM8.40468 27.6365L7.89237 27.9339L9.56873 28.7751L8.40468 27.6365ZM27.5882 13.362L26.8855 13.8011L26.993 15.3987L27.5882 13.362ZM21.8071 25.2436L21.1618 25.5648L19.8023 26.247L21.8071 25.2436ZM19.7032 29.1146L19.0787 29.3973L20.8702 28.7751L19.7032 29.1146ZM6.84528 26.5832L6.34845 26.8911L7.89237 27.9339L6.84528 26.5832ZM13.8156 29.5046L13.2496 29.7834L15.2195 29.9159L13.8156 29.5046ZM26.0732 20.9775L25.3856 21.341L24.5398 22.5931L26.0732 20.9775ZM5.43712 25.3438L4.95427 25.6639L6.34845 26.8911L5.43712 25.3438ZM27.6968 14.9757L26.993 15.3987L26.8855 16.9963L27.6968 14.9757ZM1.27635 12.986L0.834801 13.4288L0.702272 15.3987L1.27635 12.986ZM4.19766 23.9356L3.72712 24.2697L4.95427 25.6639L4.19766 23.9356ZM15.8052 29.6384L15.2195 29.9159L17.1894 29.7834L15.8052 29.6384ZM26.7623 19.6044L26.0678 19.9815L25.3856 21.341L26.7623 19.6044ZM3.14439 22.3762L2.6843 22.7258L3.72712 24.2697L3.14439 22.3762ZM17.7949 29.5046L17.1894 29.7834L19.0787 29.3973L17.7949 29.5046ZM23.0718 24.3894L22.4139 24.719L21.1618 25.5648L23.0718 24.3894ZM2.29477 20.6831L1.84311 21.0495L2.6843 22.7258L2.29477 20.6831ZM1.1425 14.9757L0.702272 15.3987L0.834801 17.3686L1.1425 14.9757ZM27.272 18.1369L26.5724 18.5286L26.0678 19.9815L27.272 18.1369ZM27.5882 16.5893L26.8855 16.9963L26.5724 18.5286L27.5882 16.5893ZM1.27635 16.9653L0.834801 17.3686L1.22084 19.258L1.27635 16.9653ZM26.0732 8.97377L25.219 7.7091L25.3856 9.4564L26.0732 8.97377ZM1.66626 11.0777L2.29477 9.26825L1.22084 11.5395L1.66626 11.0777ZM18.9665 3.5089L17.4189 3.19268L18.3493 4.04577L18.9665 3.5089ZM25.219 7.7091L24.2138 6.56707L24.5398 8.20427L25.219 7.7091ZM11.1765 4.01862L9.80337 4.70767L10.6367 4.55043L11.1765 4.01862ZM21.8071 4.70767L20.434 4.01862L21.1618 5.23263L21.8071 4.70767ZM14.1916 3.19268L12.644 3.5089L13.6219 3.73269L14.1916 3.19268ZM1.27635 12.986L1.66626 11.0777L0.834801 13.4288L1.27635 12.986ZM17.4189 3.19268L15.8052 3.08413L16.8171 3.73269L17.4189 3.19268ZM3.14439 7.57508L4.19766 6.01568L2.6843 8.07159L3.14439 7.57508ZM27.5882 13.362L27.272 11.8144L26.8855 13.8011L27.5882 13.362ZM20.434 4.01862L18.9665 3.5089L19.8023 4.55043L20.434 4.01862ZM24.2138 6.56707L23.0718 5.56188L23.5446 7.07358L24.2138 6.56707ZM12.644 3.5089L11.1765 4.01862L12.0896 4.04577L12.644 3.5089ZM27.272 11.8144L26.7623 10.3469L26.5724 12.2688L27.272 11.8144ZM8.53869 5.56188L7.39667 6.56707L8.02505 6.07836L8.53869 5.56188ZM15.8052 3.08413L14.1916 3.19268L15.2195 3.62521L15.8052 3.08413ZM9.80337 4.70767L8.53869 5.56188L9.27718 5.23263L9.80337 4.70767ZM26.7623 10.3469L26.0732 8.97377L26.0678 10.8159L26.7623 10.3469ZM4.19766 6.01568L5.43712 4.60752L3.72712 6.52767L4.19766 6.01568ZM2.29477 9.26825L3.14439 7.57508L1.84311 9.74795L2.29477 9.26825ZM23.0718 5.56188L21.8071 4.70767L22.4139 6.07836L23.0718 5.56188ZM27.6968 14.9757L27.5882 13.362L26.993 15.3987L27.6968 14.9757ZM8.40468 27.6365L6.84528 26.5832L7.89237 27.9339L8.40468 27.6365ZM1.66626 18.8736L1.27635 16.9653L1.22084 19.258L1.66626 18.8736ZM21.8071 25.2436L23.0718 24.3894L21.1618 25.5648L21.8071 25.2436ZM15.8052 29.6384L13.8156 29.5046L15.2195 29.9159L15.8052 29.6384ZM26.0732 20.9775L26.7623 19.6044L25.3856 21.341L26.0732 20.9775ZM1.27635 16.9653L1.1425 14.9757L0.834801 17.3686L1.27635 16.9653ZM6.84528 26.5832L5.43712 25.3438L6.34845 26.8911L6.84528 26.5832ZM24.2138 23.3842L25.219 22.2422L23.5446 23.7238L24.2138 23.3842ZM21.5127 28.4861L19.7032 29.1146L20.8702 28.7751L21.5127 28.4861ZM1.1425 14.9757L1.27635 12.986L0.702272 15.3987L1.1425 14.9757ZM13.8156 29.5046L11.9073 29.1146L13.2496 29.7834L13.8156 29.5046ZM5.43712 25.3438L4.19766 23.9356L4.95427 25.6639L5.43712 25.3438ZM27.5882 16.5893L27.6968 14.9757L26.8855 16.9963L27.5882 16.5893ZM20.434 25.9327L21.8071 25.2436L19.8023 26.247L20.434 25.9327ZM26.7623 19.6044L27.272 18.1369L26.0678 19.9815L26.7623 19.6044ZM4.19766 23.9356L3.14439 22.3762L3.72712 24.2697L4.19766 23.9356ZM11.9073 29.1146L10.0978 28.4861L11.3602 29.3973L11.9073 29.1146ZM19.7032 29.1146L17.7949 29.5046L19.0787 29.3973L19.7032 29.1146ZM27.272 18.1369L27.5882 16.5893L26.5724 18.5286L27.272 18.1369ZM3.14439 22.3762L2.29477 20.6831L2.6843 22.7258L3.14439 22.3762ZM23.0718 24.3894L24.2138 23.3842L22.4139 24.719L23.0718 24.3894ZM10.0978 28.4861L8.40468 27.6365L9.56873 28.7751L10.0978 28.4861ZM25.219 22.2422L26.0732 20.9775L24.5398 22.5931L25.219 22.2422ZM2.29477 20.6831L1.66626 18.8736L1.84311 21.0495L2.29477 20.6831ZM17.7949 29.5046L15.8052 29.6384L17.1894 29.7834L17.7949 29.5046Z" fill="url(#paint0_linear_1661_1460)"/>
<path d="M26.7623 10.3469L30.468 14.9756L23.2058 2.31479L26.7623 10.3469ZM3.14441 7.57508L2.29478 9.26824L1.66628 11.0777L3.14441 7.57508ZM3.91374 14.9756L4.02229 13.362L1.14251 14.9756H3.91374ZM1.14251 14.9756L4.33851 18.1369L4.02229 16.5893L1.14251 14.9756ZM4.02229 13.362L4.33851 11.8144L1.14251 14.9756L4.02229 13.362ZM1.14251 14.9756L4.84823 19.6044L4.33851 18.1369L1.14251 14.9756ZM4.33851 11.8144L4.84823 10.3469L1.14251 14.9756L4.33851 11.8144ZM1.14251 14.9756L8.4047 27.6365L4.84823 19.6044L1.14251 14.9756ZM4.84823 10.3469L5.53728 8.97376L1.14251 14.9756L4.84823 10.3469ZM8.4047 27.6365L5.53728 20.9775L4.84823 19.6044L8.4047 27.6365ZM5.53728 8.97376L6.39149 7.70909L1.14251 14.9756L5.53728 8.97376ZM8.4047 27.6365L6.39149 22.2422L5.53728 20.9775L8.4047 27.6365ZM6.39149 7.70909L8.4047 2.31479L1.14251 14.9756L6.39149 7.70909ZM8.4047 27.6365L7.39668 23.3842L6.39149 22.2422L8.4047 27.6365ZM6.39149 7.70909L7.39668 6.56706L8.4047 2.31479L6.39149 7.70909ZM8.4047 27.6365L8.53871 24.3894L7.39668 23.3842L8.4047 27.6365ZM7.39668 6.56706L8.53871 5.56186L8.4047 2.31479L7.39668 6.56706ZM8.4047 27.6365L9.80338 25.2436L8.53871 24.3894L8.4047 27.6365ZM8.53871 5.56186L9.80338 4.70766L8.4047 2.31479L8.53871 5.56186ZM8.4047 27.6365L11.1765 25.9327L9.80338 25.2436L8.4047 27.6365ZM9.80338 4.70766L11.1765 4.01861L8.4047 2.31479L9.80338 4.70766ZM8.4047 27.6365L12.644 26.4424L11.1765 25.9327L8.4047 27.6365ZM11.1765 4.01861L12.644 3.50889L8.4047 2.31479L11.1765 4.01861ZM8.4047 27.6365L14.1917 26.7586L12.644 26.4424L8.4047 27.6365ZM12.644 3.50889L14.1917 3.19267L8.4047 2.31479L12.644 3.50889ZM8.4047 27.6365H23.2058L14.1917 26.7586L8.4047 27.6365ZM14.1917 3.19267L15.8053 3.08412L8.4047 2.31479L14.1917 3.19267ZM23.2058 27.6365L15.8053 26.8672L14.1917 26.7586L23.2058 27.6365ZM15.8053 3.08412L17.4189 3.19267L8.4047 2.31479L15.8053 3.08412ZM23.2058 27.6365L17.4189 26.7586L15.8053 26.8672L23.2058 27.6365ZM17.4189 3.19267L23.2058 2.31479H8.4047L17.4189 3.19267ZM23.2058 27.6365L18.9665 26.4424L17.4189 26.7586L23.2058 27.6365ZM17.4189 3.19267L18.9665 3.50889L23.2058 2.31479L17.4189 3.19267ZM23.2058 27.6365L20.434 25.9327L18.9665 26.4424L23.2058 27.6365ZM18.9665 3.50889L20.434 4.01861L23.2058 2.31479L18.9665 3.50889ZM23.2058 27.6365L21.8071 25.2436L20.434 25.9327L23.2058 27.6365ZM20.434 4.01861L21.8071 4.70766L23.2058 2.31479L20.434 4.01861ZM23.2058 27.6365L23.0718 24.3894L21.8071 25.2436L23.2058 27.6365ZM21.8071 4.70766L23.0718 5.56186L23.2058 2.31479L21.8071 4.70766ZM23.2058 27.6365L24.2138 23.3842L23.0718 24.3894L23.2058 27.6365ZM23.0718 5.56186L24.2138 6.56706L23.2058 2.31479L23.0718 5.56186ZM23.2058 27.6365L25.219 22.2422L24.2138 23.3842L23.2058 27.6365ZM24.2138 6.56706L25.219 7.70909L23.2058 2.31479L24.2138 6.56706ZM23.2058 27.6365L30.468 14.9756L25.219 22.2422L23.2058 27.6365ZM25.219 7.70909L26.0733 8.97376L23.2058 2.31479L25.219 7.70909ZM30.468 14.9756L26.0733 20.9775L25.219 22.2422L30.468 14.9756ZM26.0733 8.97376L26.7623 10.3469L23.2058 2.31479L26.0733 8.97376ZM30.468 14.9756L26.7623 19.6044L26.0733 20.9775L30.468 14.9756ZM1.14251 14.9756L4.02229 16.5893L3.91374 14.9756H1.14251ZM1.14251 14.9756L3.14441 22.3762L8.4047 27.6365L1.14251 14.9756ZM8.4047 27.6365L15.8053 29.6384L23.2058 27.6365H8.4047ZM23.2058 27.6365L28.4661 22.3762L30.468 14.9756L23.2058 27.6365ZM30.468 14.9756L27.272 18.1369L26.7623 19.6044L30.468 14.9756ZM26.7623 10.3469L27.272 11.8144L30.468 14.9756L26.7623 10.3469ZM30.468 14.9756L28.4661 7.57508L23.2058 2.31479L30.468 14.9756ZM23.2058 2.31479L15.8053 0.312893L8.4047 2.31479H23.2058ZM8.4047 2.31479L3.14441 7.57508L1.14251 14.9756L8.4047 2.31479ZM1.14251 14.9756L1.66628 18.8736L3.14441 22.3762L1.14251 14.9756ZM3.14441 22.3762L5.43713 25.3438L8.4047 27.6365L3.14441 22.3762ZM8.4047 27.6365L11.9073 29.1146L15.8053 29.6384L8.4047 27.6365ZM15.8053 29.6384L19.7032 29.1146L23.2058 27.6365L15.8053 29.6384ZM23.2058 27.6365L26.1734 25.3438L28.4661 22.3762L23.2058 27.6365ZM28.4661 22.3762L29.9443 18.8736L30.468 14.9756L28.4661 22.3762ZM30.468 14.9756L27.5882 16.5893L27.272 18.1369L30.468 14.9756ZM27.272 11.8144L27.5882 13.362L30.468 14.9756L27.272 11.8144ZM30.468 14.9756L29.9443 11.0777L28.4661 7.57508L30.468 14.9756ZM28.4661 7.57508L26.1734 4.60751L23.2058 2.31479L28.4661 7.57508ZM23.2058 2.31479L19.7032 0.83666L15.8053 0.312893L23.2058 2.31479ZM15.8053 0.312893L11.9073 0.83666L8.4047 2.31479L15.8053 0.312893ZM8.4047 2.31479L5.43713 4.60751L3.14441 7.57508L8.4047 2.31479ZM3.14441 7.57508L1.66628 11.0777L1.14251 14.9756L3.14441 7.57508ZM1.14251 14.9756L1.27637 16.9653L1.66628 18.8736L1.14251 14.9756ZM1.66628 18.8736L2.29478 20.6831L3.14441 22.3762L1.66628 18.8736ZM3.14441 22.3762L4.19768 23.9356L5.43713 25.3438L3.14441 22.3762ZM5.43713 25.3438L6.84529 26.5832L8.4047 27.6365L5.43713 25.3438ZM8.4047 27.6365L10.0979 28.4861L11.9073 29.1146L8.4047 27.6365ZM11.9073 29.1146L13.8156 29.5045L15.8053 29.6384L11.9073 29.1146ZM15.8053 29.6384L17.7949 29.5045L19.7032 29.1146L15.8053 29.6384ZM19.7032 29.1146L21.5127 28.4861L23.2058 27.6365L19.7032 29.1146ZM23.2058 27.6365L24.7652 26.5832L26.1734 25.3438L23.2058 27.6365ZM26.1734 25.3438L27.4128 23.9356L28.4661 22.3762L26.1734 25.3438ZM28.4661 22.3762L29.3157 20.6831L29.9443 18.8736L28.4661 22.3762ZM29.9443 18.8736L30.3342 16.9653L30.468 14.9756L29.9443 18.8736ZM30.468 14.9756H27.6968L27.5882 16.5893L30.468 14.9756ZM27.5882 13.362L27.6968 14.9756H30.468L27.5882 13.362ZM30.468 14.9756L30.3342 12.986L29.9443 11.0777L30.468 14.9756ZM29.9443 11.0777L29.3157 9.26824L28.4661 7.57508L29.9443 11.0777ZM28.4661 7.57508L27.4128 6.01567L26.1734 4.60751L28.4661 7.57508ZM26.1734 4.60751L24.7652 3.36806L23.2058 2.31479L26.1734 4.60751ZM23.2058 2.31479L21.5127 1.46516L19.7032 0.83666L23.2058 2.31479ZM19.7032 0.83666L17.7949 0.446747L15.8053 0.312893L19.7032 0.83666ZM15.8053 0.312893L13.8156 0.446747L11.9073 0.83666L15.8053 0.312893ZM11.9073 0.83666L10.0979 1.46516L8.4047 2.31479L11.9073 0.83666ZM8.4047 2.31479L6.84529 3.36806L5.43713 4.60751L8.4047 2.31479ZM5.43713 4.60751L4.19768 6.01567L3.14441 7.57508L5.43713 4.60751ZM1.66628 11.0777L1.27637 12.986L1.14251 14.9756L1.66628 11.0777Z" fill="url(#paint1_linear_1661_1460)"/>
</g>
<path fill-rule="evenodd" clip-rule="evenodd" d="M6.48405 9.54764L7.67282 34.1038L10.2086 30.9522L9.18003 6.586C8.49742 7.1118 7.08497 8.59653 6.48405 9.54764Z" fill="url(#paint2_linear_1661_1460)"/>
<path fill-rule="evenodd" clip-rule="evenodd" d="M9.91193 25.1661H11.5036C11.6997 25.1661 11.9075 25.3337 11.867 25.5295L11.0796 29.3352C11.0391 29.531 10.9159 29.6961 10.7161 29.6987L7.66557 29.7388C7.15109 29.7456 9.1301 25.1661 9.91193 25.1661Z" fill="#A20000"/>
<path fill-rule="evenodd" clip-rule="evenodd" d="M8.66289 35.7904C8.20576 36.2448 7.55967 35.9038 7.55288 35.3059L7.48928 29.7096L22.4788 0.321518C22.5632 0.15593 22.7706 0.0186615 22.9363 0.0186615H27.2172C27.3826 0.0186615 27.4507 0.155144 27.3655 0.321518L11.689 30.918C10.5002 32.9994 9.50024 34.4994 8.66289 35.7904Z" fill="#FC3110"/>
<path fill-rule="evenodd" clip-rule="evenodd" d="M8.69622 35.7718C8.23909 36.2261 7.59299 35.8851 7.5862 35.2872L7.52261 29.691L22.5121 0.302856C22.5965 0.137268 22.8039 0 22.9696 0H27.2506C27.4159 0 27.4841 0.136482 27.3988 0.302856L11.7223 30.8993C11.5001 31.4994 9.15335 35.3174 8.69622 35.7718Z" fill="#FC3110"/>
<mask id="mask2_1661_1460" style="mask-type:alpha" maskUnits="userSpaceOnUse" x="7" y="0" width="21" height="36">
<path fill-rule="evenodd" clip-rule="evenodd" d="M8.69622 35.7718C8.23909 36.2261 7.59299 35.8851 7.5862 35.2872L7.52261 29.691L22.5121 0.302856C22.5965 0.137268 22.8039 0 22.9696 0H27.2506C27.4159 0 27.4841 0.136482 27.3988 0.302856L11.7223 30.8993C10.5001 32.9994 9.15335 35.3174 8.69622 35.7718Z" fill="#FC3110"/>
</mask>
<g mask="url(#mask2_1661_1460)">
<path d="M6.36762 32.7841L24.5766 -2.73201L24.6374 -2.70094L6.42844 32.8151L6.36762 32.7841Z" fill="#F8B670"/>
<path d="M5.29775 35.8495L26.4352 -5.37843L26.496 -5.34737L5.35857 35.8806L5.29775 35.8495Z" fill="#E5097F"/>
<path d="M4.22785 38.915L28.2938 -8.02487L28.3546 -7.99381L4.28866 38.946L4.22785 38.915Z" fill="#009846"/>
<path d="M3.15791 41.9804L30.1523 -10.6713L30.2131 -10.6403L3.21873 42.0115L3.15791 41.9804Z" fill="#9089B0"/>
<path d="M2.08804 45.0459L32.0109 -13.3177L32.0717 -13.2867L2.14886 45.077L2.08804 45.0459Z" fill="#CB5499"/>
<path d="M1.01813 48.1113L33.8695 -15.9642L33.9303 -15.9331L1.07895 48.1424L1.01813 48.1113Z" fill="#F08683"/>
<path d="M-0.0517731 51.1768L35.728 -18.6106L35.7888 -18.5795L0.00904465 51.2078L-0.0517731 51.1768Z" fill="#A8D4AF"/>
<path d="M-1.12169 54.2422L37.5866 -21.257L37.6474 -21.226L-1.06087 54.2733L-1.12169 54.2422Z" fill="#F08143"/>
<path d="M-2.19158 57.3077L39.4452 -23.9035L39.506 -23.8725L-2.13076 57.3387L-2.19158 57.3077Z" fill="#A79ECD"/>
<path d="M-3.2615 60.3731L41.3037 -26.5499L41.3646 -26.5189L-3.20068 60.4042L-3.2615 60.3731Z" fill="#57A7B3"/>
<path d="M-4.33141 63.4386L43.1623 -29.1964L43.2231 -29.1653L-4.27059 63.4696L-4.33141 63.4386Z" fill="#CE82B5"/>
<path d="M-5.40131 66.504L45.0208 -31.8428L45.0817 -31.8118L-5.34049 66.5351L-5.40131 66.504Z" fill="#A79ECD"/>
<path d="M-6.47121 69.5695L46.8794 -34.4893L46.9402 -34.4582L-6.41039 69.6005L-6.47121 69.5695Z" fill="#F8B670"/>
<path d="M-7.54111 72.6349L48.738 -37.1357L48.7988 -37.1047L-7.4803 72.666L-7.54111 72.6349Z" fill="#A79ECD"/>
</g>
</g>
<defs>
<linearGradient id="paint0_linear_1661_1460" x1="3.15958" y1="3.08424" x2="8.46117" y2="32.8054" gradientUnits="userSpaceOnUse">
<stop stop-color="#6B4500"/>
<stop offset="0.322917" stop-color="#D5B26B"/>
<stop offset="0.546875" stop-color="#F8F9D0"/>
<stop offset="1" stop-color="#997A3D"/>
</linearGradient>
<linearGradient id="paint1_linear_1661_1460" x1="4.2197" y1="8.16493" x2="26.2056" y2="24.816" gradientUnits="userSpaceOnUse">
<stop stop-color="#110303"/>
<stop offset="1" stop-color="#616161"/>
</linearGradient>
<linearGradient id="paint2_linear_1661_1460" x1="8.35127" y1="34.1038" x2="8.35127" y2="6.58612" gradientUnits="userSpaceOnUse">
<stop stop-color="#FF0000"/>
<stop offset="1"/>
</linearGradient>
</defs>
</svg>
