<svg width="26" height="25" viewBox="0 0 26 25" fill="none" xmlns="http://www.w3.org/2000/svg">
<path d="M6.9625 6.09354C3.1375 8.00603 1 9.16854 1 9.35604C1 9.52479 1.825 10.0498 3.04375 10.6685L5.0875 11.681L5.1625 14.0998C5.21875 16.3685 5.25625 16.556 5.725 17.156C6.86875 18.6748 9.7 19.6498 13 19.6498C16.3 19.6498 19.1313 18.6748 20.275 17.156C20.7438 16.556 20.7812 16.3685 20.8375 14.0998L20.9125 11.6998L21.4375 11.4185C21.7375 11.2685 22.0188 11.1373 22.0938 11.1373C22.15 11.1373 22.1875 11.906 22.1875 12.8435C22.1875 14.4373 22.15 14.5873 21.7188 14.9998C21.1188 15.5623 21.0813 16.6498 21.625 17.231L22.0188 17.6435L21.4563 19.106C20.725 20.9998 20.8 21.1123 22.825 21.0373C24.6438 20.9623 24.7 20.8873 23.95 19.0123L23.4438 17.7185L23.8563 17.2123C24.4 16.5185 24.3625 15.6185 23.7812 15.0748C23.3313 14.6623 23.3125 14.531 23.3125 12.5435V10.4623L24.1562 10.0498C24.625 9.82479 25 9.50603 25 9.35604C25 9.16854 22.9 8.02479 19 6.07479C15.7 4.42479 12.9813 3.07479 12.9625 3.09353C12.925 3.09353 10.225 4.44353 6.9625 6.09354ZM18.25 6.82479C22.8063 9.11228 23.35 9.43104 22.8813 9.54354C22.6 9.61854 20.2563 9.48728 17.6875 9.26229C13.2625 8.86854 12.4375 8.86854 12.4375 9.20603C12.4563 9.73104 12.9062 9.84353 15.925 10.106C17.6688 10.256 19.4688 10.4435 19.9375 10.4998L20.7812 10.6123L16.9 12.5623L13 14.5123L7.84375 11.9435L2.6875 9.35604L7.7875 6.78728C10.6 5.38103 12.9438 4.21853 13 4.21853C13.0563 4.21853 15.4188 5.38103 18.25 6.82479ZM9.625 13.9498L13 15.6373L16.375 13.9498C18.2313 13.031 19.7875 12.2623 19.8625 12.2623C19.9188 12.2623 19.9375 13.1435 19.9 14.2123C19.8438 15.9935 19.8063 16.2185 19.375 16.6685C17.3688 18.8248 11.3125 19.331 7.975 17.6248C6.3625 16.7998 6.15625 16.4623 6.1 14.2123C6.0625 13.1435 6.08125 12.2623 6.1375 12.2623C6.2125 12.2623 7.76875 13.031 9.625 13.9498ZM23.2563 15.9373C23.3313 16.1435 23.2375 16.3498 23.0312 16.5185C22.7313 16.7248 22.6375 16.7248 22.4125 16.4998C22.2625 16.3498 22.1875 16.0873 22.2438 15.9373C22.3938 15.5435 23.1063 15.5435 23.2563 15.9373ZM23.125 19.706C23.125 19.8373 22.9188 19.9498 22.675 19.9498C22.225 19.9498 22.225 19.9123 22.4125 19.3498C22.6 18.806 22.6375 18.7873 22.8813 19.106C23.0125 19.3123 23.125 19.5748 23.125 19.706Z" fill="#2F3B42" stroke="#2F3B42" stroke-width="0.5"/>
</svg>
