<svg width="24" height="24" viewBox="0 0 24 24" fill="none" xmlns="http://www.w3.org/2000/svg">
<path d="M18.5842 1.07343H5.41582C4.40082 1.07343 3.57507 1.90867 3.57507 2.93527V18.3046C3.57507 19.1404 4.12237 19.8492 4.87347 20.084V21.3127C4.87347 22.2835 5.65443 23.0734 6.61429 23.0734C7.57415 23.0734 8.35511 22.2835 8.35511 21.3127V20.1665H15.652V21.3127C15.652 22.2835 16.4329 23.0734 17.3928 23.0734C18.3526 23.0734 19.1336 22.2835 19.1336 21.3127V20.0818C19.8811 19.8449 20.425 19.1377 20.425 18.3046V2.93527C20.425 1.90867 19.5992 1.07343 18.5842 1.07343ZM4.64152 5.63975H12.2434L8.76372 9.15946C8.55549 9.37008 8.55549 9.7116 8.76372 9.92227C8.86786 10.0276 9.00431 10.0802 9.14076 10.0802C9.27721 10.0802 9.41372 10.0276 9.5178 9.92227L13.7516 5.63981H17.213L8.9311 14.0169H6.1995L4.64152 12.441V5.63975ZM7.28866 21.3127C7.28866 21.6888 6.98616 21.9947 6.61429 21.9947C6.24242 21.9947 5.93992 21.6887 5.93992 21.3127V20.1665H7.28866V21.3127ZM18.0671 21.3127C18.0671 21.6888 17.7646 21.9947 17.3928 21.9947C17.0209 21.9947 16.7184 21.6887 16.7184 21.3127V20.1665H18.0671V21.3127ZM19.3585 18.3046C19.3585 18.7365 19.0112 19.0878 18.5842 19.0878H5.41582C4.98886 19.0878 4.64152 18.7364 4.64152 18.3046V13.9666L5.60154 14.9377C5.70152 15.0388 5.83717 15.0957 5.97858 15.0957H18.0175C18.1589 15.0957 18.2945 15.0388 18.3945 14.9377L19.3585 13.9626V18.3046ZM19.3585 12.437L17.7966 14.0169H10.4393L18.7213 5.63981H19.3585V12.437ZM19.3586 4.5611H4.64152V2.93527C4.64152 2.50341 4.98886 2.15213 5.41582 2.15213H18.5843C19.0112 2.15213 19.3586 2.50347 19.3586 2.93533V4.5611Z" fill="#2F3B42" stroke="#2F3B42" stroke-width="0.5"/>
<path d="M7.03479 10.4953C6.9053 10.395 6.72568 10.3373 6.54258 10.3373C6.35948 10.3373 6.17986 10.3949 6.05036 10.4953C5.92087 10.5956 5.84637 10.7347 5.84637 10.8766C5.84637 11.0185 5.92087 11.1576 6.05036 11.2579C6.17986 11.3588 6.35948 11.416 6.54258 11.416C6.72568 11.416 6.9053 11.3588 7.03479 11.2579C7.16429 11.1576 7.23878 11.0185 7.23878 10.8766C7.23878 10.7347 7.16429 10.5956 7.03479 10.4953Z" fill="#2F3B42"/>
<path d="M14.9304 16.514H9.07416C8.68965 16.514 8.37796 16.7555 8.37796 17.0533C8.37796 17.3512 8.68965 17.5927 9.07416 17.5927H14.9304C15.3149 17.5927 15.6266 17.3512 15.6266 17.0533C15.6266 16.7556 15.3149 16.514 14.9304 16.514Z" fill="#2F3B42"/>
<path d="M5.96057 16.6719C5.83108 16.5716 5.65146 16.5139 5.46836 16.5139C5.28456 16.5139 5.10494 16.5716 4.97545 16.6719C4.84595 16.7723 4.77216 16.9114 4.77216 17.0533C4.77216 17.1951 4.84595 17.3343 4.97545 17.4346C5.10494 17.5349 5.28456 17.5926 5.46836 17.5926C5.65146 17.5926 5.83108 17.5349 5.96057 17.4346C6.09007 17.3343 6.16456 17.1951 6.16456 17.0533C6.16456 16.9114 6.09007 16.7723 5.96057 16.6719Z" fill="#2F3B42"/>
<path d="M19.0193 16.6719C18.8898 16.5716 18.7101 16.5139 18.527 16.5139C18.3439 16.5139 18.1643 16.5716 18.0348 16.6719C17.9053 16.7723 17.8308 16.9114 17.8308 17.0533C17.8308 17.1951 17.9053 17.3343 18.0348 17.4346C18.1643 17.5349 18.3439 17.5926 18.527 17.5926C18.7101 17.5926 18.8898 17.5349 19.0193 17.4346C19.1488 17.3343 19.2232 17.1951 19.2232 17.0533C19.2232 16.9114 19.1488 16.7723 19.0193 16.6719Z" fill="#2F3B42"/>
</svg>
