<svg width="24" height="22" viewBox="0 0 24 22" fill="none" xmlns="http://www.w3.org/2000/svg">
<path d="M3.99268 3.81641C5.69969 2.00527 8.44536 2.00527 10.1524 3.81641L11.3842 5.12343C11.5441 5.29306 11.7669 5.38923 12 5.38923C12.2331 5.38923 12.4559 5.29306 12.6158 5.12343L13.8476 3.81641C15.5546 2.00527 18.3003 2.00527 20.0073 3.81641C21.7412 5.65602 21.7412 8.6582 20.0073 10.4978C19.6868 10.8379 19.7026 11.3734 20.0427 11.6939C20.3828 12.0144 20.9183 11.9986 21.2388 11.6585C23.5871 9.16705 23.5871 5.14717 21.2388 2.6557C18.8638 0.135764 14.9911 0.135764 12.6161 2.6557L12 3.30939L11.3839 2.6557C9.00885 0.135764 5.13621 0.135764 2.76116 2.6557C0.412945 5.14717 0.412947 9.16705 2.76116 11.6585L11.3842 20.8076C11.5441 20.9773 11.7669 21.0734 12 21.0734C12.2331 21.0734 12.4559 20.9773 12.6158 20.8076L14.3081 19.0121C14.6286 18.672 14.6127 18.1365 14.2727 17.816C13.9326 17.4955 13.3971 17.5113 13.0765 17.8514L12 18.9936L3.99268 10.4978C2.25885 8.6582 2.25885 5.65602 3.99268 3.81641Z" fill="#2F3B42"/>
<path d="M14.4734 8.90184C14.3377 8.57611 14.014 8.36881 13.6614 8.3817C13.3088 8.39458 13.0012 8.62495 12.8896 8.95972L11.3902 13.4581H10.3077C9.84037 13.4581 9.46154 13.8369 9.46154 14.3042C9.46154 14.7715 9.84037 15.1504 10.3077 15.1504H12.0001C12.3643 15.1504 12.6876 14.9173 12.8028 14.5718L13.7804 11.6388L17.142 19.7066C17.2693 20.0121 17.5631 20.2154 17.8939 20.2268C18.2248 20.2382 18.5319 20.0556 18.6799 19.7595L20.9845 15.1504H22.1538C22.6212 15.1504 23 14.7715 23 14.3042C23 13.8369 22.6212 13.4581 22.1538 13.4581H20.4616C20.1411 13.4581 19.8481 13.6391 19.7048 13.9258L17.9931 17.3491L14.4734 8.90184Z" fill="#2F3B42"/>
</svg>
