<svg width="24" height="25" viewBox="0 0 24 25" fill="none" xmlns="http://www.w3.org/2000/svg">
<g clip-path="url(#clip0_1661_1582)">
<path d="M11.1162 4.42265C11.1331 4.16429 10.9373 3.9412 10.6789 3.92437C10.4205 3.90755 10.1974 4.10335 10.1806 4.36172C10.1638 4.62008 10.3596 4.84317 10.618 4.86C10.8763 4.87682 11.0994 4.68102 11.1162 4.42265Z" fill="#2F3B42"/>
<path d="M21.7587 10.8725C21.9339 10.6819 21.9216 10.3854 21.731 10.2101C21.5405 10.0348 21.2439 10.0472 21.0687 10.2378C20.8934 10.4283 20.9058 10.7248 21.0963 10.9001C21.2869 11.0754 21.5834 11.063 21.7587 10.8725Z" fill="#2F3B42"/>
<path d="M2.56315 10.0608C2.30449 10.0715 2.10349 10.2899 2.11428 10.5486C2.12501 10.8072 2.3434 11.0082 2.60206 10.9975C2.86071 10.9867 3.06171 10.7684 3.05093 10.5097C3.0402 10.251 2.82181 10.05 2.56315 10.0608Z" fill="#2F3B42"/>
<path d="M23.9528 10.854L20.6918 4.12737C20.5786 3.89398 20.2977 3.79648 20.0643 3.90964L17.0309 5.3802C16.9188 5.43453 16.8329 5.53119 16.7921 5.64884C16.7811 5.68044 16.7739 5.71287 16.7699 5.74559H14.297L12.9163 4.69634C12.7098 4.5394 12.4152 4.57958 12.2582 4.78611C12.1013 4.99264 12.1415 5.28729 12.348 5.44423L15.3319 7.71186C15.458 7.81737 15.5626 7.95687 15.5845 8.12379C15.6056 8.28523 15.5467 8.44648 15.4554 8.57773C15.2455 8.8797 14.8491 9.00129 14.5209 8.80859L12.1108 7.39583C11.9238 7.28623 11.6925 7.32101 11.5449 7.46576L4.53824 11.4476L6.69828 5.85228C7.54555 5.21211 8.52702 5.13186 8.55969 5.1297C8.81703 5.12736 9.02492 4.91797 9.02492 4.66006C9.02492 4.40065 8.81464 4.19037 8.55523 4.19037C8.29799 4.19037 7.20683 4.33836 6.23169 5.03004L3.33102 3.91029C3.08891 3.81683 2.81708 3.93734 2.7237 4.17931L0.0314848 11.1531C-0.0133746 11.2693 -0.010234 11.3986 0.0402035 11.5124C0.090641 11.6263 0.18425 11.7155 0.300454 11.7604L3.01283 12.8075C2.89114 13.1937 2.91809 13.6053 3.09074 13.9736C3.35605 14.5422 3.9223 14.9017 4.54672 14.9035C4.52413 15.019 4.51372 15.1364 4.51808 15.2542C4.52544 15.4536 4.5717 15.6457 4.65561 15.8254C4.919 16.3882 5.50447 16.7109 6.13944 16.7109C6.14249 16.7109 6.14553 16.7106 6.14858 16.7106C6.10686 17.015 6.15289 17.3254 6.2863 17.6106C6.48692 18.0384 6.86324 18.3558 7.31835 18.4813C7.49689 18.5307 7.68308 18.5486 7.86777 18.5347C7.844 18.815 7.8957 19.0992 8.01486 19.3539C8.15483 19.6538 8.38011 19.9005 8.6653 20.0667C9.11656 20.3318 9.68117 20.3556 10.1544 20.1343L13.1982 18.6884L13.6201 19.1486C13.9338 19.4908 14.3637 19.6644 14.795 19.6644C15.1796 19.6644 15.5654 19.5262 15.8707 19.2464C16.196 18.9482 16.3688 18.545 16.3851 18.1354C16.3873 18.1355 16.3895 18.1358 16.3918 18.1359C16.4154 18.1369 16.439 18.1374 16.4625 18.1374C16.8618 18.1374 17.2411 17.9902 17.5373 17.7187C17.8466 17.4351 18.0284 17.0494 18.0511 16.631C18.0689 16.6316 18.0868 16.6322 18.1045 16.6322C18.5038 16.6322 18.8831 16.485 19.1793 16.2135C19.4929 15.926 19.6758 15.5335 19.6943 15.1084C19.6944 15.1064 19.6943 15.1045 19.6944 15.1025C19.6963 15.1026 19.6983 15.1028 19.7003 15.1029C19.724 15.1039 19.7475 15.1045 19.7711 15.1045C20.1704 15.1045 20.5497 14.9572 20.8458 14.6857C21.1595 14.3982 21.3424 14.0058 21.3609 13.5807C21.374 13.2792 21.3029 12.9872 21.1581 12.7308L23.7349 11.4816C23.9685 11.3683 24.066 11.0874 23.9528 10.854ZM3.43086 4.95575L5.69942 5.83151L3.3455 11.929L1.07694 11.0532L3.43086 4.95575ZM9.75402 19.2846C9.41764 19.4419 9.01124 19.2812 8.86114 18.9454C8.78192 18.7682 8.78244 18.563 8.86363 18.3865C8.94017 18.2201 9.06627 18.1342 9.21899 18.0462L11.1656 16.9214C11.3845 16.795 11.4634 16.5067 11.3406 16.2864C11.2179 16.066 10.9314 15.9814 10.7087 16.1008L8.02255 17.5408C7.68327 17.6925 7.27297 17.533 7.12747 17.1908C7.05294 17.0155 7.05641 16.8147 7.13661 16.642C7.21306 16.4773 7.33902 16.3865 7.49225 16.301L10.2122 14.777C10.4338 14.6528 10.5161 14.3637 10.3941 14.1413C10.2721 13.9188 9.98347 13.8334 9.75988 13.9537L6.55653 15.679C6.27866 15.8053 5.91388 15.8228 5.66361 15.6244C5.40228 15.4172 5.41175 15.0575 5.58655 14.798C5.69867 14.6314 5.852 14.535 6.0238 14.4404L9.22677 12.681C9.44891 12.559 9.53389 12.2716 9.41474 12.0484C9.29563 11.8252 9.00931 11.7358 8.78441 11.8525L4.82863 13.9041C4.50031 14.0542 4.10277 13.9077 3.94588 13.5845C3.85925 13.406 3.85592 13.1964 3.93688 13.0152C4.01328 12.8443 4.142 12.753 4.29908 12.664L11.8855 8.35268L14.0456 9.61887C14.6221 9.95731 15.371 9.90209 15.8899 9.48036C16.3755 9.08567 16.6429 8.42829 16.4787 7.81264C16.3905 7.48226 16.1798 7.17739 15.9081 6.97011L15.533 6.68501H17.1415L18.9113 10.3355C18.6965 10.2149 18.455 10.145 18.2016 10.1341C17.7767 10.1157 17.3697 10.2638 17.056 10.5513C16.8417 10.7478 16.6886 10.9932 16.6071 11.2646C16.4352 11.1923 16.2501 11.1502 16.0583 11.1419C15.633 11.1234 15.2264 11.2716 14.9127 11.5591C14.599 11.8467 14.4162 12.2391 14.3977 12.6642C14.3856 12.9411 14.4448 13.2101 14.5666 13.4508C14.339 13.5188 14.128 13.6377 13.9478 13.803C13.6341 14.0905 13.4512 14.483 13.4328 14.9081C13.4164 15.285 13.5313 15.6474 13.7579 15.9434C13.5418 16.011 13.3368 16.1255 13.1591 16.2884C12.7043 16.7053 12.5478 17.3274 12.7003 17.8852L9.75402 19.2846ZM15.236 18.554C14.9704 18.7975 14.5561 18.7795 14.3125 18.5139L13.7536 17.9042C13.5101 17.6386 13.5281 17.2243 13.7938 16.9807C13.919 16.8659 14.0773 16.8092 14.2352 16.8092C14.4121 16.8092 14.5885 16.8805 14.7172 17.0209L15.2761 17.6306C15.5197 17.8962 15.5016 18.3105 15.236 18.554ZM16.9026 17.0262C16.637 17.2698 16.2227 17.2517 15.9792 16.9861L14.5424 15.4188C14.3395 15.1975 14.3153 14.8546 14.4853 14.607C14.6854 14.3158 15.0942 14.2371 15.3876 14.4344C15.3876 14.4344 16.9898 16.1789 17.0218 16.2086C17.0873 16.3174 17.1196 16.443 17.114 16.5728C17.1064 16.7472 17.0313 16.9082 16.9026 17.0262ZM18.5446 15.5209C18.4159 15.639 18.2482 15.6996 18.0746 15.6922C17.9448 15.6866 17.8225 15.6434 17.7198 15.5688C17.693 15.5343 15.5073 13.1749 15.5073 13.1749C15.2668 12.9126 15.2844 12.4918 15.5474 12.2515C15.8105 12.011 16.2298 12.0286 16.4709 12.2916L18.5848 14.5975C18.7027 14.7262 18.7635 14.8932 18.756 15.0676C18.7484 15.242 18.6733 15.403 18.5446 15.5209ZM20.2113 13.9932C19.9486 14.2339 19.5285 14.2156 19.2878 13.953L17.6507 12.1671C17.4102 11.9047 17.4278 11.484 17.6908 11.2437C17.9539 11.0032 18.3732 11.0208 18.6142 11.2838L20.2514 13.0698C20.4922 13.3324 20.4739 13.7524 20.2113 13.9932ZM20.7146 11.9019L17.8633 6.02056L20.0514 4.95978L22.9027 10.8411L20.7146 11.9019Z" fill="#2F3B42"/>
<path d="M19.977 3.72965C20.3098 3.5683 20.7104 3.70732 20.8717 4.0401L24.1328 10.7667C24.2941 11.0996 24.155 11.5001 23.8221 11.6615L21.4256 12.8234C21.5253 13.0629 21.5722 13.3231 21.5607 13.5893C21.5398 14.0674 21.3337 14.5098 20.9809 14.8331C20.6741 15.1144 20.2871 15.2775 19.8767 15.3014C19.8173 15.7081 19.6213 16.0795 19.3144 16.3609C19.0128 16.6373 18.6338 16.7996 18.2311 16.8278C18.1682 17.2261 17.974 17.5896 17.6724 17.8661C17.3654 18.1476 16.9779 18.3107 16.5671 18.3344C16.5093 18.7276 16.3213 19.1046 16.0058 19.3938C15.6621 19.7088 15.2275 19.8644 14.7949 19.8644C14.3101 19.8644 13.8259 19.6691 13.4726 19.2837L13.1506 18.9324L10.2402 20.315L10.2391 20.3155C9.70684 20.5643 9.07264 20.5379 8.56398 20.2392C8.24392 20.0524 7.99079 19.7752 7.83368 19.4386C7.73089 19.2189 7.67272 18.9796 7.66341 18.7374C7.52901 18.7312 7.39532 18.7101 7.26511 18.6741C6.75365 18.533 6.33063 18.1762 6.10519 17.6955C5.98702 17.4428 5.92968 17.1719 5.93388 16.9005C5.312 16.8378 4.746 16.4904 4.47443 15.9101C4.28633 15.4054 4.39476 15.2438 4.47853 15.119C4.49644 15.0923 4.51323 15.0673 4.52575 15.041C4.51814 15.1117 4.51536 15.1829 4.518 15.2542C4.52536 15.4536 4.57162 15.6457 4.65553 15.8253C4.91892 16.3882 5.50439 16.7109 6.13936 16.7108L6.1485 16.7106C6.10678 17.015 6.15281 17.3253 6.28622 17.6106C6.48684 18.0383 6.86316 18.3557 7.31827 18.4813C7.49681 18.5307 7.683 18.5486 7.86769 18.5347C7.84392 18.815 7.89562 19.0992 8.01478 19.3538C8.15475 19.6538 8.38003 19.9005 8.66522 20.0667C9.11648 20.3317 9.68109 20.3556 10.1543 20.1343L13.1981 18.6884L13.62 19.1486C13.9337 19.4908 14.3636 19.6644 14.7949 19.6644C15.1795 19.6644 15.5654 19.5262 15.8706 19.2464C16.1959 18.9482 16.3688 18.5449 16.385 18.1354L16.3917 18.1358C16.4153 18.1369 16.4389 18.1374 16.4625 18.1374C16.8617 18.1374 17.241 17.9902 17.5372 17.7187C17.8465 17.4351 18.0284 17.0494 18.0511 16.631L18.0548 16.6311C18.0714 16.6317 18.0879 16.6322 18.1044 16.6322C18.5037 16.6322 18.883 16.485 19.1792 16.2135C19.4928 15.9259 19.6757 15.5335 19.6942 15.1084L19.6943 15.1025L19.7002 15.1029C19.7239 15.1039 19.7475 15.1044 19.771 15.1044C20.1703 15.1044 20.5496 14.9572 20.8457 14.6857C21.1594 14.3982 21.3423 14.0057 21.3608 13.5806C21.3739 13.2792 21.3028 12.9871 21.1581 12.7308L23.7348 11.4816C23.9684 11.3683 24.0659 11.0874 23.9528 10.854L20.6917 4.12734C20.5785 3.89395 20.2976 3.79645 20.0642 3.90961L17.0308 5.38017C16.9187 5.4345 16.8328 5.53115 16.792 5.64881C16.781 5.6804 16.7738 5.71284 16.7698 5.74556H14.2969L12.9163 4.69631C12.7097 4.53937 12.4151 4.57955 12.2581 4.78608C12.1012 4.99261 12.1414 5.28726 12.3479 5.4442L15.3318 7.71183C15.458 7.81734 15.5625 7.95684 15.5844 8.12376C15.6055 8.2852 15.5466 8.44645 15.4553 8.5777C15.2454 8.87967 14.849 9.00126 14.5208 8.80856L12.1107 7.3958C11.9237 7.2862 11.6925 7.32098 11.5448 7.46573L4.53816 11.4475L6.6982 5.85225C7.54547 5.21208 8.52694 5.13183 8.55961 5.12967C8.81695 5.12733 9.02484 4.91794 9.02484 4.66003C9.02484 4.40062 8.81456 4.19034 8.55515 4.19034C8.2979 4.19034 7.20675 4.33833 6.23161 5.03001L3.33094 3.91026C3.08883 3.8168 2.817 3.93731 2.72362 4.17928L0.0314051 11.1531C0.00943174 11.21 -0.00102493 11.27 -4.75571e-05 11.3299C-0.0633557 11.2061 -0.107315 11.086 -0.0781828 11.0106L2.53114 4.06913C2.66429 3.72413 3.05784 3.59043 3.40302 3.72369L4.29787 4.06913L6.205 4.80534C7.19618 4.13803 8.27283 3.99035 8.5552 3.99035C8.92507 3.99035 9.22489 4.29017 9.22489 4.66003C9.22489 5.02527 8.93249 5.32228 8.56892 5.32956L8.56137 5.33024C8.55359 5.33097 8.54237 5.3321 8.52799 5.33376C8.49922 5.33709 8.45793 5.34248 8.40622 5.35088C8.30271 5.36768 8.15805 5.39638 7.98878 5.44418C7.66193 5.53648 7.24924 5.69834 6.86394 5.97838L4.92661 10.9968L11.4255 7.30355C11.6361 7.11384 11.9533 7.0717 12.2119 7.22325L13.8941 8.20937L14.1107 8.04991L14.4939 7.3262L12.227 5.60345C11.9325 5.37967 11.8752 4.95953 12.0989 4.66508C12.3228 4.37062 12.7428 4.31331 13.0373 4.53707L14.3643 5.54556H16.6174C16.6801 5.3949 16.7959 5.27179 16.9436 5.20021L19.977 3.72965Z" fill="#2F3B42"/>
<path d="M3.01275 12.8075L2.82204 12.7474C2.53114 13.175 2.72918 13.6717 2.90946 14.0581C3.17467 14.6266 3.54339 15.2435 4.53917 14.9443C4.53956 14.9421 4.53994 14.9398 4.54033 14.9376L4.48333 14.9021C3.88416 14.8771 3.34697 14.5229 3.09066 13.9736C2.9524 13.6786 2.90758 13.3559 2.95771 13.0407L2.82204 12.7474L2.94077 12.994L3.01275 12.8075C3.01282 12.8072 3.01268 12.8077 3.01275 12.8075Z" fill="#2F3B42"/>
</g>
<defs>
<clipPath id="clip0_1661_1582">
<rect width="24" height="24" fill="white" transform="translate(0 0.0734253)"/>
</clipPath>
</defs>
</svg>
