<svg width="24" height="25" viewBox="0 0 24 25" fill="none" xmlns="http://www.w3.org/2000/svg">
<path fill-rule="evenodd" clip-rule="evenodd" d="M11.9342 6.45031C10.6951 5.81698 10.5161 5.58292 11.0944 5.34887C11.2596 5.28003 12.0857 5.22495 12.9117 5.25249C14.2473 5.28003 14.5226 5.3351 15.2661 5.66553C16.2849 6.13365 16.932 6.78074 18.0885 8.51552C18.5704 9.23146 18.9972 9.85102 19.0385 9.89233C19.2588 10.0851 20.8284 12.5083 20.8284 12.6459C20.8284 12.7285 20.6356 13.0865 20.4016 13.4307C19.8371 14.2293 19.9885 14.4082 20.9661 14.0916C21.6545 13.8713 21.682 13.8713 21.9023 14.1191C23.0588 15.4133 23.1414 16.1706 22.2327 16.7764C21.9574 16.9691 21.6958 17.1619 21.6545 17.2032C21.6132 17.2445 21.0624 17.63 20.4153 18.0568C19.2313 18.8553 18.9422 18.9517 18.5016 18.7039C18.2125 18.5524 17.3864 17.3271 17.3864 17.0655C17.3864 16.9691 17.5378 16.6937 17.7306 16.4459C18.3639 15.6198 18.1298 15.2756 17.1385 15.551C16.5603 15.7162 16.4914 15.7024 16.2987 15.4409C16.0784 15.1655 16.0371 15.1793 14.0132 16.5698C12.8842 17.3408 10.9016 18.6901 9.60742 19.5575C8.32699 20.4387 7.21177 21.2097 7.12917 21.2785C6.48207 21.843 2.94368 24.0734 2.68208 24.0734C2.31034 24.0734 1.74585 23.5365 1.34658 22.793C0.850931 21.8568 1.00238 21.6916 5.33932 18.759C6.09656 18.2358 6.74366 17.7814 6.78496 17.7401C6.82627 17.685 7.44583 17.2582 8.16177 16.7764C8.87771 16.2945 9.52481 15.8401 9.60742 15.7713C9.7451 15.6474 12.4161 13.7887 13.5588 13.0177C13.9168 12.7698 14.2197 12.5083 14.2197 12.4394C14.2197 12.3568 14.0958 12.1503 13.9444 11.9575C13.7929 11.7648 13.669 11.5307 13.669 11.4206C13.669 11.3242 13.9444 10.8423 14.2886 10.3467L14.9219 9.45175L14.6052 8.83219C14.1922 8.0061 13.1183 7.04234 11.9342 6.45031ZM17.5516 8.92856C16.0646 6.75321 15.5139 6.31263 13.8755 5.95466C13.0494 5.77568 12.4299 5.7206 12.4299 5.81698C12.4299 5.84452 12.7328 6.06481 13.0907 6.29886C13.9306 6.83582 14.9219 7.88219 15.3074 8.62566C15.5965 9.19016 15.6929 9.82349 15.5001 9.91986C15.3074 10.0025 14.4951 11.2416 14.4951 11.4343C14.4951 11.5307 14.619 11.7648 14.7704 11.9575C15.2248 12.5496 15.1146 12.7974 14.1096 13.472C13.6002 13.8025 13.1596 14.1191 13.1183 14.1742C13.077 14.2155 12.4574 14.6423 11.7415 15.1242C11.0255 15.6061 10.3784 16.0604 10.2958 16.1293C10.1581 16.2394 8.23061 17.5887 5.65598 19.3647C4.4857 20.1633 4.03135 20.6314 4.41686 20.6314C4.47193 20.6314 4.62338 20.7966 4.76106 21.0031C4.85399 21.1684 4.97016 21.3491 5.05148 21.4756C5.07859 21.5177 5.10182 21.5539 5.11903 21.5814C5.22917 21.7466 5.46323 21.6227 6.39946 20.9481C7.03279 20.4937 8.4096 19.5437 9.46974 18.8416C10.5299 18.1256 11.4248 17.5061 11.4661 17.4648C11.5037 17.4271 12.204 16.944 13.0673 16.3482L13.3248 16.1706C13.5239 16.0375 13.7062 15.9159 13.8731 15.8046L13.8736 15.8043L13.8736 15.8043C15.2905 14.8593 15.5935 14.6571 15.5807 14.4777C15.5771 14.4289 15.5502 14.3818 15.516 14.3218C15.5024 14.2979 15.4876 14.272 15.4726 14.243C15.3625 14.064 15.3349 13.8438 15.3762 13.7612C15.569 13.4583 15.8719 13.6235 16.2849 14.2293C16.7255 14.8626 16.9596 14.959 17.5791 14.7111C18.0472 14.5322 18.2125 14.6148 18.598 15.193C18.9835 15.7988 18.9697 15.8952 18.5016 16.5698L18.1161 17.1068L18.4603 17.63C18.6393 17.9191 18.8596 18.1532 18.9284 18.1532C19.2038 18.1532 22.2052 15.9916 22.2052 15.7851C22.2052 15.7162 22.04 15.4133 21.8335 15.138L21.4617 14.6148L20.8008 14.8764C20.4291 15.014 20.0849 15.1242 20.0161 15.1242C19.961 15.1242 19.7407 14.8764 19.5342 14.5735L19.1624 14.009L19.5893 13.4032C19.8095 13.0727 20.0023 12.7285 20.0023 12.6459C20.0023 12.5496 19.6443 11.9713 19.2175 11.3655C18.7907 10.7459 18.0335 9.6445 17.5516 8.92856ZM4.58207 22.1046C4.58207 22.0358 4.38932 21.7053 4.1415 21.3749C3.90744 21.0445 3.67338 20.7691 3.63208 20.7829C3.43933 20.8104 1.82846 22.0358 1.82846 22.1597C1.82846 22.3524 2.53063 23.385 2.66831 23.385C2.86107 23.385 4.58207 22.2285 4.58207 22.1046ZM9.12549 4.3851C9.68998 3.82061 11.5624 2.20975 11.7414 2.14091C12.1958 1.94816 12.774 2.20975 13.7102 3.03583C15.3349 4.46771 16.0921 5.21119 15.9131 5.21119C15.8305 5.21119 15.7204 5.15611 15.6791 5.08727C15.6378 5.0322 15.3349 4.89452 15.0182 4.81191C14.6052 4.688 14.1095 4.3438 13.3936 3.68293C12.8291 3.15974 12.2646 2.73293 12.1545 2.73293C12.0443 2.73293 11.6313 3.03583 11.2595 3.3938C10.874 3.75177 10.0342 4.50901 9.40085 5.07351C8.75375 5.63799 8.13419 6.20249 8.02404 6.31263C7.9139 6.42278 7.29433 6.98726 6.64724 7.55176C6.23606 7.91824 5.72623 8.38337 5.30236 8.77009C5.07334 8.97903 4.86942 9.16507 4.71971 9.3003C4.30667 9.69957 3.92116 10.03 3.86609 10.03C3.79725 10.03 3.75594 12.0264 3.75594 14.4771V18.9242L3.41174 19.2271L3.06754 19.53L3.04 15.1655L2.9987 10.801L2.62696 11.1728C2.18638 11.6133 1.69073 11.6684 1.69073 11.2829C1.69073 11.1315 1.80088 10.9249 1.95233 10.8286C2.09001 10.7322 2.77841 10.1264 3.49435 9.47928C3.88194 9.1221 4.32825 8.71876 4.71289 8.37117L4.713 8.37107C5.02514 8.08899 5.29666 7.84363 5.46318 7.68944C5.84869 7.34523 6.26173 6.9735 6.37187 6.86335C6.48202 6.75321 7.10158 6.18872 7.74868 5.62423C8.39578 5.05974 9.01534 4.49525 9.12549 4.3851ZM16.9733 4.05467C16.9733 2.7054 17.0146 2.18221 17.1523 2.14091C17.2664 2.21773 17.3725 2.28832 17.4714 2.35403L17.4714 2.35406L17.4718 2.35433C18.0321 2.72687 18.356 2.94216 18.5431 3.2426C18.7994 3.65398 18.7994 4.22499 18.7994 5.57785V7.61188C18.8862 7.68743 18.9793 7.76796 19.0739 7.8499L19.074 7.84996L19.0741 7.85001L19.0742 7.8501C19.4076 8.13862 19.7611 8.44456 19.9335 8.61189L19.9505 8.62798C20.1169 8.77418 20.6194 9.22226 21.9299 10.4017C22.3843 10.8148 22.756 11.2416 22.756 11.3517C22.756 11.6409 22.1502 11.5858 21.8611 11.2691C21.5031 10.8699 21.4067 10.9249 21.3517 11.5032L21.3103 12.0264L21.0075 11.5307C20.8285 11.2554 20.6908 10.8423 20.6908 10.6083C20.6908 10.2641 20.5393 10.0713 19.9473 9.54812C19.2589 8.96986 17.648 6.86335 17.8821 6.86335L17.8862 6.86353L17.3863 6.35393L16.9733 5.91336V4.05467ZM16.6016 9.76841C16.4777 9.89233 16.6016 10.1677 17.0698 10.8699C17.6893 11.8061 18.006 12.0126 18.1574 11.6133C18.2538 11.3655 17.1661 9.61696 16.9183 9.61696C16.8219 9.61696 16.6842 9.6858 16.6016 9.76841ZM3.20519 22.4901C3.09504 22.4901 2.9849 22.3524 2.95736 22.1734C2.91606 21.9394 2.9849 21.8705 3.20519 21.8705C3.42548 21.8705 3.49432 21.9394 3.45301 22.1734C3.42548 22.3524 3.31533 22.4901 3.20519 22.4901ZM10.5574 8.72204C10.3508 9.25899 10.5711 9.3416 12.1269 9.3416C13.2834 9.3416 13.669 9.3003 13.8066 9.13508C13.9443 8.98363 13.9305 8.88726 13.7653 8.72204C13.4624 8.41914 10.6675 8.41914 10.5574 8.72204ZM6.81239 12.9351C6.78486 12.2054 6.82616 11.8749 6.95007 11.7923C7.04645 11.7372 7.74862 11.6959 8.50586 11.7097L9.88267 11.751V12.8525V13.9539H8.36818H6.8537L6.81239 12.9351ZM9.26311 13.472V12.9213V12.3706H8.43702H7.61094V12.9213V13.472H8.43702H9.26311ZM5.68347 16.2256C5.68347 16.9829 5.72478 17.6024 5.76608 17.6024C6.02767 17.6024 6.22043 17.1206 6.26173 16.3495L6.30303 15.4684L7.70738 15.3995C8.80882 15.3445 9.16679 15.2756 9.35954 15.0829C9.57983 14.8626 9.49722 14.8488 7.63854 14.8488H5.68347V16.2256ZM20.6908 19.3372C20.6908 18.8553 20.7596 18.6763 21.0074 18.4974L21.3103 18.2908L21.3517 20.3836C21.3792 21.9531 21.3379 22.4901 21.214 22.5865C21.1176 22.6415 17.7169 22.6966 13.6691 22.6966H6.30316L6.81258 22.3524C7.28069 22.0358 7.44591 22.0082 8.90532 22.0082H10.5024V20.9205C10.5024 19.943 10.53 19.7916 10.8191 19.5988C11.1082 19.3923 11.122 19.4061 11.1633 19.6676C11.2046 19.943 11.2872 19.943 15.9546 19.943H20.6908V19.3372ZM20.6908 22.0082V21.3198V20.6314H15.9408H11.1908V21.3198V22.0082H15.9408H20.6908Z" fill="#2F3B42"/>
<path d="M11.0944 5.34887L11.1905 5.57965L11.1882 5.5806L11.0944 5.34887ZM11.9342 6.45031L11.8224 6.67393L11.8204 6.67292L11.9342 6.45031ZM12.9117 5.25249L12.9066 5.50246L12.9034 5.50235L12.9117 5.25249ZM15.2661 5.66553L15.3676 5.43706L15.3705 5.43836L15.2661 5.66553ZM18.0885 8.51552L17.8811 8.65512L17.8805 8.65419L18.0885 8.51552ZM19.0385 9.89233L18.8739 10.0805L18.8676 10.075L18.8618 10.0691L19.0385 9.89233ZM20.4016 13.4307L20.6083 13.5713L20.6057 13.575L20.4016 13.4307ZM20.9661 14.0916L20.889 13.8537L20.8899 13.8535L20.9661 14.0916ZM21.9023 14.1191L21.7159 14.2857L21.7154 14.2852L21.9023 14.1191ZM22.2327 16.7764L22.0893 16.5715L22.094 16.5683L22.2327 16.7764ZM20.4153 18.0568L20.2755 17.8495L20.2777 17.8481L20.4153 18.0568ZM18.5016 18.7039L18.6176 18.4823L18.6241 18.486L18.5016 18.7039ZM17.7306 16.4459L17.929 16.598L17.9279 16.5994L17.7306 16.4459ZM17.1385 15.551L17.0699 15.3106L17.0716 15.3101L17.1385 15.551ZM16.2987 15.4409L16.4941 15.2846L16.5 15.2926L16.2987 15.4409ZM14.0132 16.5698L14.1548 16.7759L14.1542 16.7763L14.0132 16.5698ZM9.60742 19.5575L9.46568 19.3515L9.46823 19.3498L9.60742 19.5575ZM7.12917 21.2785L6.96478 21.0901L6.96912 21.0865L7.12917 21.2785ZM1.34658 22.793L1.12633 22.9113L1.12563 22.91L1.34658 22.793ZM5.33932 18.759L5.48143 18.9646L5.47935 18.9661L5.33932 18.759ZM6.78496 17.7401L6.98496 17.8901L6.9743 17.9043L6.96174 17.9169L6.78496 17.7401ZM9.60742 15.7713L9.77478 15.9572L9.76746 15.9633L9.60742 15.7713ZM13.5588 13.0177L13.7012 13.2232L13.6987 13.2249L13.5588 13.0177ZM13.9444 11.9575L13.7478 12.112L13.7478 12.112L13.9444 11.9575ZM14.2886 10.3467L14.0832 10.2041L14.0845 10.2023L14.2886 10.3467ZM14.9219 9.45175L15.1445 9.33797L15.2133 9.47268L15.126 9.59617L14.9219 9.45175ZM14.6052 8.83219L14.3826 8.94597L14.3816 8.94399L14.6052 8.83219ZM13.8755 5.95466L13.9285 5.71033L13.9289 5.71042L13.8755 5.95466ZM17.5516 8.92856L17.758 8.78748L17.759 8.78897L17.5516 8.92856ZM13.0907 6.29886L12.9561 6.5095L12.9539 6.5081L13.0907 6.29886ZM15.3074 8.62566L15.5293 8.51058L15.5299 8.5117L15.3074 8.62566ZM15.5001 9.91986L15.6119 10.1435L15.6054 10.1468L15.5986 10.1496L15.5001 9.91986ZM14.7704 11.9575L14.967 11.8031L14.9688 11.8053L14.7704 11.9575ZM14.1096 13.472L14.2489 13.6796L14.2456 13.6818L14.1096 13.472ZM13.1183 14.1742L13.3183 14.3242L13.3076 14.3384L13.295 14.351L13.1183 14.1742ZM11.7415 15.1242L11.8811 15.3316V15.3316L11.7415 15.1242ZM10.2958 16.1293L10.4559 16.3214L10.452 16.3245L10.2958 16.1293ZM5.65598 19.3647L5.79794 19.5705L5.79689 19.5713L5.65598 19.3647ZM4.76106 21.0031L4.96907 20.8645L4.97432 20.8723L4.97895 20.8806L4.76106 21.0031ZM5.05148 21.4756L5.26177 21.3404L5.05148 21.4756ZM5.11903 21.5814L4.91093 21.7201L4.90703 21.7139L5.11903 21.5814ZM6.39946 20.9481L6.2533 20.7452L6.25373 20.7449L6.39946 20.9481ZM9.46974 18.8416L9.60966 19.0488L9.60779 19.05L9.46974 18.8416ZM11.4661 17.4648L11.2893 17.288L11.2893 17.288L11.4661 17.4648ZM13.0673 16.3482L13.2093 16.554L13.2093 16.554L13.0673 16.3482ZM13.3248 16.1706L13.1828 15.9648L13.1859 15.9627L13.3248 16.1706ZM13.8731 15.8046L14.012 16.0124L14.0118 16.0126L13.8731 15.8046ZM13.8736 15.8043L14.0503 15.981L14.033 15.9984L14.0125 16.0121L13.8736 15.8043ZM13.8736 15.8043L13.6968 15.6275L13.7143 15.61L13.7349 15.5963L13.8736 15.8043ZM15.5807 14.4777L15.3313 14.4957V14.4957L15.5807 14.4777ZM15.516 14.3218L15.7332 14.1979L15.7332 14.1979L15.516 14.3218ZM15.4726 14.243L15.6855 14.112L15.6904 14.1199L15.6947 14.1282L15.4726 14.243ZM15.3762 13.7612L15.1526 13.6493L15.1584 13.6378L15.1653 13.6269L15.3762 13.7612ZM16.2849 14.2293L16.0797 14.372L16.0784 14.3701L16.2849 14.2293ZM17.5791 14.7111L17.4863 14.479L17.4898 14.4776L17.5791 14.7111ZM18.598 15.193L18.806 15.0543L18.8089 15.0588L18.598 15.193ZM18.5016 16.5698L18.707 16.7124L18.7047 16.7156L18.5016 16.5698ZM18.1161 17.1068L17.9072 17.2442L17.8128 17.1006L17.913 16.961L18.1161 17.1068ZM18.4603 17.63L18.6692 17.4925L18.6728 17.4984L18.4603 17.63ZM21.8335 15.138L21.6334 15.288L21.6297 15.2828L21.8335 15.138ZM21.4617 14.6148L21.3697 14.3823L21.552 14.3102L21.6655 14.47L21.4617 14.6148ZM20.8008 14.8764L20.8929 15.1089L20.8877 15.1108L20.8008 14.8764ZM19.5342 14.5735L19.3276 14.7143L19.3254 14.711L19.5342 14.5735ZM19.1624 14.009L18.9537 14.1465L18.86 14.0042L18.9581 13.865L19.1624 14.009ZM19.5893 13.4032L19.7973 13.5419L19.7936 13.5472L19.5893 13.4032ZM19.2175 11.3655L19.0131 11.5095L19.0116 11.5073L19.2175 11.3655ZM4.1415 21.3749L3.94142 21.5249L3.93749 21.5194L4.1415 21.3749ZM3.63208 20.7829L3.71113 21.02L3.68975 21.0272L3.66743 21.0303L3.63208 20.7829ZM11.7414 2.14091L11.8391 2.37119L11.8312 2.37425L11.7414 2.14091ZM9.12549 4.3851L8.94871 4.20833L8.94871 4.20832L9.12549 4.3851ZM13.7102 3.03583L13.5449 3.22338L13.5448 3.22329L13.7102 3.03583ZM15.6791 5.08727L15.8791 4.93727L15.8868 4.94759L15.8935 4.95865L15.6791 5.08727ZM15.0182 4.81191L14.9551 5.05398L14.9464 5.05137L15.0182 4.81191ZM13.3936 3.68293L13.224 3.86663L13.2236 3.86629L13.3936 3.68293ZM11.2595 3.3938L11.433 3.57391L11.4296 3.577L11.2595 3.3938ZM9.40085 5.07351L9.5672 5.26014L9.56519 5.2619L9.40085 5.07351ZM8.02404 6.31263L7.84726 6.13585L7.84727 6.13585L8.02404 6.31263ZM6.64724 7.55176L6.48088 7.36512L6.48289 7.36336L6.64724 7.55176ZM5.30236 8.77009L5.47086 8.95477L5.30236 8.77009ZM4.71971 9.3003L4.54585 9.12045L4.55214 9.11477L4.71971 9.3003ZM3.75594 18.9242H4.00594V19.0372L3.9211 19.1118L3.75594 18.9242ZM3.41174 19.2271L3.24658 19.0394H3.24659L3.41174 19.2271ZM3.06754 19.53L3.2327 19.7176L2.82101 20.0799L2.81755 19.5315L3.06754 19.53ZM3.04 15.1655L3.28999 15.1631L3.29 15.1639L3.04 15.1655ZM2.9987 10.801L2.82192 10.6242L3.24305 10.2031L3.24869 10.7987L2.9987 10.801ZM2.62696 11.1728L2.45019 10.996H2.45019L2.62696 11.1728ZM1.95233 10.8286L2.09583 11.0336L2.08655 11.0395L1.95233 10.8286ZM3.49435 9.47928L3.66378 9.66313L3.66199 9.66475L3.49435 9.47928ZM4.71289 8.37117L4.88143 8.55582L4.88051 8.55665L4.71289 8.37117ZM4.713 8.37107L4.54446 8.18642L4.54538 8.18559L4.713 8.37107ZM5.46318 7.68944L5.2933 7.50597L5.29668 7.50295L5.46318 7.68944ZM6.37187 6.86335L6.1951 6.68658L6.1951 6.68657L6.37187 6.86335ZM7.74868 5.62423L7.91302 5.81262H7.91302L7.74868 5.62423ZM17.1523 2.14091L17.0804 1.90145L17.1938 1.86745L17.2919 1.93353L17.1523 2.14091ZM17.4714 2.35403L17.6098 2.14585L17.61 2.14602L17.4714 2.35403ZM17.4718 2.35433L17.3334 2.56252L17.3331 2.56234L17.4718 2.35433ZM18.5431 3.2426L18.7553 3.11042L18.5431 3.2426ZM18.7994 7.61188L18.6353 7.80048L18.5494 7.72574V7.61188H18.7994ZM19.0739 7.8499L18.9124 8.04075L18.9104 8.03894L19.0739 7.8499ZM19.074 7.84996L18.9157 8.04347L18.9125 8.04081L19.074 7.84996ZM19.0741 7.85001L19.2325 7.65636L19.2402 7.66316L19.0741 7.85001ZM19.0742 7.8501L18.9106 8.03916L18.9081 8.03695L19.0742 7.8501ZM19.9335 8.61189L19.7614 8.79317L19.7594 8.79129L19.9335 8.61189ZM19.9505 8.62798L19.7854 8.81595L19.7783 8.80924L19.9505 8.62798ZM21.9299 10.4017L22.0972 10.2159L22.0981 10.2168L21.9299 10.4017ZM21.8611 11.2691L21.6764 11.4377L21.6749 11.436L21.8611 11.2691ZM21.3517 11.5032L21.1024 11.4835L21.1028 11.4795L21.3517 11.5032ZM21.3103 12.0264L21.5596 12.046L21.4989 12.8144L21.097 12.1567L21.3103 12.0264ZM21.0075 11.5307L21.2171 11.3944L21.2208 11.4004L21.0075 11.5307ZM19.9473 9.54812L20.1082 9.35664L20.1129 9.36079L19.9473 9.54812ZM17.8821 6.86335V6.61311L17.893 6.61359L17.8821 6.86335ZM17.8862 6.86353L18.0647 6.68847L18.5084 7.14083L17.8753 7.11329L17.8862 6.86353ZM17.3863 6.35393L17.2078 6.52904L17.2039 6.52492L17.3863 6.35393ZM16.9733 5.91336L16.7909 6.08434L16.7233 6.01222V5.91336H16.9733ZM17.0698 10.8699L17.2778 10.7312L17.2782 10.7319L17.0698 10.8699ZM16.6016 9.76841L16.4249 9.59164L16.4249 9.59163L16.6016 9.76841ZM18.1574 11.6133L17.9237 11.5247L17.9244 11.5227L18.1574 11.6133ZM2.95736 22.1734L3.20362 22.13L3.20446 22.1354L2.95736 22.1734ZM3.45301 22.1734L3.20586 22.1354L3.20682 22.13L3.45301 22.1734ZM10.5574 8.72204L10.7924 8.80749L10.7907 8.81178L10.5574 8.72204ZM13.8066 9.13508L13.6144 8.97489L13.6216 8.96691L13.8066 9.13508ZM13.7653 8.72204L13.9421 8.54526V8.54526L13.7653 8.72204ZM6.95007 11.7923L6.8114 11.5843L6.81856 11.5795L6.82604 11.5753L6.95007 11.7923ZM6.81239 12.9351L6.5626 12.9452L6.56257 12.9445L6.81239 12.9351ZM8.50586 11.7097L8.51041 11.4597L8.51336 11.4598L8.50586 11.7097ZM9.88267 11.751L9.89017 11.5011L10.1327 11.5084V11.751H9.88267ZM9.88267 13.9539H10.1327V14.2039H9.88267V13.9539ZM6.8537 13.9539V14.2039H6.61363L6.6039 13.964L6.8537 13.9539ZM9.26311 13.472H9.51311V13.722H9.26311V13.472ZM9.26311 12.3706V12.1206H9.51311V12.3706H9.26311ZM7.61094 12.3706H7.36094V12.1206H7.61094V12.3706ZM7.61094 13.472V13.722H7.36094V13.472H7.61094ZM6.26173 16.3495L6.51146 16.3613L6.51137 16.3629L6.26173 16.3495ZM6.30303 15.4684L6.05331 15.4567L6.06394 15.2298L6.29079 15.2187L6.30303 15.4684ZM7.70738 15.3995L7.71986 15.6492L7.71962 15.6493L7.70738 15.3995ZM5.68347 14.8488H5.43347V14.5988H5.68347V14.8488ZM21.0074 18.4974L20.861 18.2946L20.8666 18.2908L21.0074 18.4974ZM21.3103 18.2908L21.1695 18.0843L21.5512 17.8241L21.5603 18.2859L21.3103 18.2908ZM21.3517 20.3836L21.6016 20.3787L21.6016 20.3792L21.3517 20.3836ZM21.214 22.5865L21.3675 22.7838L21.3534 22.7947L21.338 22.8035L21.214 22.5865ZM6.30316 22.6966V22.9466H5.48662L6.1632 22.4895L6.30316 22.6966ZM6.81258 22.3524L6.95266 22.5595L6.95254 22.5596L6.81258 22.3524ZM10.5024 22.0082H10.7524V22.2582H10.5024V22.0082ZM10.8191 19.5988L10.9645 19.8023L10.9578 19.8068L10.8191 19.5988ZM11.1633 19.6676L11.4102 19.6287L11.4105 19.6306L11.1633 19.6676ZM20.6908 19.943H20.9408V20.193H20.6908V19.943ZM20.6908 22.0082H20.9408V22.2582H20.6908V22.0082ZM20.6908 20.6314V20.3814H20.9408V20.6314H20.6908ZM11.1908 20.6314H10.9408V20.3814H11.1908V20.6314ZM11.1908 22.0082V22.2582H10.9408V22.0082H11.1908ZM11.1882 5.5806C11.0447 5.63868 11.0116 5.67489 11.0124 5.67369C11.0203 5.6624 11.0312 5.63657 11.0277 5.60561C11.0251 5.58158 11.0161 5.57804 11.0315 5.59823C11.0662 5.64365 11.1534 5.71981 11.3322 5.83242C11.5046 5.94106 11.7403 6.07043 12.048 6.2277L11.8204 6.67292C11.5086 6.51353 11.2572 6.37613 11.0657 6.25546C10.8804 6.13874 10.7267 6.02301 10.634 5.90149C10.5857 5.83822 10.5415 5.75744 10.5308 5.66086C10.5193 5.55735 10.5493 5.46365 10.6024 5.3876C10.6935 5.2569 10.8549 5.17608 11.0006 5.11713L11.1882 5.5806ZM12.9034 5.50235C12.498 5.48884 12.0925 5.49563 11.7695 5.51413C11.6079 5.52339 11.4694 5.53544 11.3633 5.54891C11.3102 5.55565 11.2675 5.56246 11.2353 5.56893C11.1998 5.57606 11.1881 5.58065 11.1905 5.57964L10.9982 5.1181C11.0751 5.08608 11.1901 5.06688 11.3004 5.05288C11.4215 5.03752 11.5721 5.02462 11.7409 5.01495C12.0789 4.99559 12.4995 4.98861 12.9201 5.00263L12.9034 5.50235ZM15.1646 5.89399C14.7992 5.73163 14.5662 5.6448 14.2671 5.59156C13.9602 5.53692 13.5759 5.51624 12.9066 5.50244L12.9169 5.00254C13.5831 5.01628 14.0043 5.0369 14.3547 5.09929C14.7131 5.16308 14.9895 5.269 15.3676 5.43708L15.1646 5.89399ZM17.8805 8.65419C16.7315 6.93069 16.1163 6.33129 15.1617 5.8927L15.3705 5.43836C16.4536 5.936 17.1325 6.6308 18.2966 8.37685L17.8805 8.65419ZM18.8618 10.0691C18.8407 10.048 18.8174 10.0166 18.805 9.99978C18.7868 9.97541 18.7637 9.94338 18.7367 9.90527C18.6823 9.82879 18.6093 9.724 18.523 9.59884C18.3502 9.34832 18.1224 9.01363 17.8811 8.65511L18.2959 8.37593C18.5365 8.73335 18.7631 9.06641 18.9346 9.31498C19.0203 9.43937 19.0919 9.54196 19.1442 9.61564C19.1705 9.65261 19.1913 9.68135 19.2063 9.70156C19.2269 9.72934 19.226 9.72628 19.2153 9.71555L18.8618 10.0691ZM20.5784 12.6459C20.5784 12.6705 20.5823 12.6884 20.5837 12.6944C20.5855 12.7021 20.5872 12.707 20.5875 12.708C20.5882 12.7098 20.5873 12.7071 20.5832 12.6981C20.5752 12.6805 20.5614 12.6532 20.5408 12.6153C20.5001 12.5404 20.4402 12.4375 20.3657 12.3139C20.2169 12.0674 20.0154 11.7481 19.8064 11.4259C19.5973 11.1038 19.382 10.7808 19.2058 10.5272C19.1176 10.4002 19.0403 10.2921 18.979 10.2107C18.9483 10.17 18.9228 10.1375 18.9027 10.1134C18.8803 10.0864 18.8718 10.0787 18.8739 10.0805L19.2032 9.70418C19.2538 9.74852 19.318 9.8298 19.3784 9.90993C19.4451 9.99854 19.5266 10.1125 19.6165 10.2419C19.7965 10.5011 20.0149 10.8287 20.2258 11.1537C20.4366 11.4786 20.6413 11.8029 20.7937 12.0555C20.8698 12.1815 20.9342 12.2919 20.9802 12.3767C21.003 12.4186 21.0231 12.4577 21.0382 12.4908C21.0457 12.5072 21.0536 12.5259 21.0602 12.5449C21.0641 12.5562 21.0784 12.5968 21.0784 12.6459H20.5784ZM20.1948 13.2901C20.3076 13.1242 20.4099 12.9558 20.483 12.8211C20.5197 12.7534 20.5473 12.6974 20.5649 12.6563C20.5738 12.6356 20.5787 12.6221 20.581 12.6148C20.5849 12.6023 20.5784 12.6172 20.5784 12.6459H21.0784C21.0784 12.6953 21.0659 12.7395 21.0583 12.7637C21.0491 12.7932 21.0371 12.8239 21.0243 12.8537C20.9985 12.9138 20.9633 12.9843 20.9225 13.0594C20.8407 13.2103 20.7296 13.393 20.6083 13.5713L20.1948 13.2901ZM21.0431 14.3294C20.7942 14.4101 20.5817 14.4647 20.4127 14.4828C20.3282 14.4918 20.2419 14.4932 20.1614 14.4776C20.0802 14.4619 19.9863 14.4248 19.9153 14.3415C19.8421 14.2556 19.8215 14.1539 19.8245 14.0657C19.8274 13.9813 19.8517 13.8981 19.8822 13.8221C19.9433 13.6702 20.0535 13.49 20.1974 13.2864L20.6057 13.575C20.4674 13.7707 20.3848 13.9124 20.3461 14.0087C20.3268 14.0568 20.3243 14.0793 20.3242 14.0828C20.3242 14.0832 20.3246 14.0754 20.3207 14.0624C20.3166 14.0484 20.3086 14.0322 20.2958 14.0172C20.2696 13.9864 20.2445 13.9844 20.2567 13.9868C20.2696 13.9893 20.3012 13.9919 20.3595 13.9856C20.4761 13.9732 20.6492 13.9314 20.889 13.8538L21.0431 14.3294ZM21.7154 14.2852C21.657 14.2195 21.6324 14.1954 21.6153 14.1833C21.6108 14.18 21.6128 14.18 21.6026 14.1797C21.5796 14.1791 21.5333 14.1841 21.4355 14.2098C21.3402 14.235 21.216 14.2741 21.0423 14.3297L20.8899 13.8535C21.0603 13.7989 21.1977 13.7554 21.3081 13.7264C21.4159 13.6979 21.5194 13.6771 21.6169 13.6799C21.7271 13.6831 21.8204 13.7157 21.9044 13.7753C21.976 13.826 22.0374 13.8949 22.0891 13.953L21.7154 14.2852ZM22.094 16.5683C22.3015 16.4301 22.4341 16.2949 22.5106 16.1625C22.5845 16.0347 22.6133 15.8976 22.5938 15.7359C22.5521 15.3917 22.2907 14.929 21.7159 14.2857L22.0887 13.9525C22.6704 14.6035 23.0285 15.1664 23.0902 15.6759C23.1222 15.941 23.0736 16.1876 22.9435 16.4127C22.8162 16.6331 22.6183 16.8198 22.3714 16.9844L22.094 16.5683ZM21.4777 17.0264C21.5012 17.0029 21.5384 16.9733 21.5702 16.9487C21.6071 16.9201 21.6541 16.8847 21.7074 16.8454C21.8143 16.7665 21.9503 16.6689 22.0894 16.5715L22.3761 16.9812C22.2398 17.0765 22.1073 17.1717 22.0042 17.2477C21.9526 17.2858 21.9092 17.3185 21.8768 17.3436C21.8393 17.3727 21.8284 17.3828 21.8312 17.3799L21.4777 17.0264ZM20.2777 17.8481C20.5997 17.6357 20.8976 17.4337 21.1198 17.2799C21.2309 17.2029 21.3225 17.1384 21.3884 17.091C21.4214 17.0673 21.4471 17.0484 21.4651 17.0348C21.4895 17.0163 21.4873 17.0168 21.4777 17.0264L21.8312 17.3799C21.8113 17.3999 21.7828 17.4214 21.7667 17.4336C21.7442 17.4506 21.715 17.472 21.6805 17.4969C21.6112 17.5467 21.5169 17.613 21.4044 17.691C21.1791 17.8469 20.8781 18.0511 20.553 18.2655L20.2777 17.8481ZM18.6241 18.486C18.7186 18.5391 18.7873 18.5636 18.8507 18.5715C18.9126 18.5792 18.9887 18.5733 19.0997 18.5359C19.3373 18.4557 19.6773 18.253 20.2756 17.8495L20.5551 18.2641C19.9694 18.6591 19.5727 18.9039 19.2596 19.0096C19.0953 19.065 18.9424 19.0867 18.7892 19.0677C18.6376 19.0489 18.5049 18.9926 18.379 18.9218L18.6241 18.486ZM17.6364 17.0655C17.6364 17.0478 17.6333 17.058 17.6551 17.1132C17.6735 17.16 17.7022 17.2208 17.7407 17.2931C17.8173 17.4372 17.9246 17.6118 18.0425 17.7857C18.1603 17.9595 18.2854 18.1277 18.3966 18.2598C18.4523 18.3259 18.5022 18.3803 18.5443 18.4209C18.5652 18.4411 18.5827 18.4564 18.5966 18.4674C18.6111 18.4789 18.6179 18.4826 18.6176 18.4824L18.3856 18.9253C18.3172 18.8895 18.252 18.8337 18.197 18.7806C18.1386 18.7242 18.0765 18.6559 18.0141 18.5818C17.8891 18.4333 17.7535 18.2504 17.6286 18.0663C17.5038 17.8822 17.3865 17.692 17.2993 17.528C17.2558 17.4463 17.2177 17.3672 17.1898 17.2963C17.1652 17.2339 17.1364 17.1486 17.1364 17.0655H17.6364ZM17.9279 16.5994C17.8389 16.7139 17.7601 16.8339 17.7049 16.9336C17.6772 16.9837 17.6574 17.0249 17.6453 17.0553C17.63 17.0939 17.6364 17.0918 17.6364 17.0655H17.1364C17.1364 16.991 17.1617 16.9183 17.1808 16.8704C17.2031 16.8143 17.2332 16.7532 17.2675 16.6914C17.3362 16.5673 17.4295 16.4258 17.5332 16.2924L17.9279 16.5994ZM17.0716 15.3101C17.3309 15.2381 17.5601 15.2007 17.749 15.2087C17.9311 15.2165 18.1343 15.2705 18.2518 15.4467C18.3688 15.6223 18.3417 15.8308 18.28 16.0032C18.2159 16.1821 18.0945 16.3821 17.929 16.598L17.5322 16.2938C17.6833 16.0967 17.7701 15.9439 17.8093 15.8346C17.8508 15.7186 17.822 15.7034 17.8358 15.7241C17.85 15.7454 17.8484 15.7134 17.7277 15.7083C17.6136 15.7034 17.4418 15.7262 17.2055 15.7919L17.0716 15.3101ZM16.5 15.2926C16.5967 15.4238 16.6073 15.4082 16.6078 15.4083C16.6243 15.4105 16.6615 15.4109 16.7422 15.395C16.8216 15.3794 16.9254 15.3519 17.0699 15.3106L17.2072 15.7914C17.0626 15.8327 16.9409 15.8655 16.8387 15.8856C16.7379 15.9054 16.6374 15.9169 16.5403 15.9037C16.3136 15.8728 16.1935 15.7195 16.0974 15.5892L16.5 15.2926ZM13.8716 16.3638C14.8733 15.6756 15.4102 15.3094 15.7221 15.1562C15.8729 15.0822 16.0323 15.0248 16.1907 15.0622C16.354 15.1008 16.4481 15.2274 16.4939 15.2847L16.1035 15.597C16.0392 15.5167 16.0455 15.5417 16.0758 15.5488C16.1012 15.5549 16.0826 15.5362 15.9425 15.605C15.6727 15.7375 15.177 16.0735 14.1548 16.7759L13.8716 16.3638ZM9.46823 19.3498C10.7615 18.4831 12.7433 17.1343 13.8722 16.3634L14.1542 16.7763C13.0251 17.5474 11.0418 18.8971 9.7466 19.7652L9.46823 19.3498ZM6.96912 21.0865C7.02163 21.0427 7.3362 20.8226 7.77664 20.5172C8.2262 20.2054 8.82541 19.7922 9.46569 19.3516L9.74914 19.7634C9.109 20.204 8.51038 20.6168 8.06157 20.9281C7.83712 21.0837 7.65048 21.2137 7.51496 21.309C7.44714 21.3567 7.39261 21.3953 7.35274 21.424C7.33277 21.4383 7.31701 21.4498 7.30535 21.4584C7.29222 21.4681 7.28827 21.4714 7.28921 21.4706L6.96912 21.0865ZM2.68208 23.8234C2.65374 23.8234 2.63747 23.8295 2.64538 23.8272C2.64887 23.8262 2.65785 23.8232 2.67372 23.8167C2.70523 23.8039 2.75022 23.783 2.80911 23.7533C2.92616 23.6942 3.08381 23.6075 3.27159 23.4994C3.64635 23.2837 4.13038 22.9892 4.6279 22.6761C5.63157 22.0444 6.65913 21.3568 6.96482 21.0901L7.29351 21.4669C6.9521 21.7647 5.88692 22.4745 4.89421 23.0992C4.39355 23.4143 3.9035 23.7126 3.52101 23.9328C3.33017 24.0426 3.16341 24.1346 3.03435 24.1997C2.9702 24.2321 2.9117 24.2597 2.86233 24.2798C2.83775 24.2898 2.81194 24.2994 2.78665 24.3068C2.7658 24.313 2.72677 24.3234 2.68208 24.3234V23.8234ZM1.56683 22.6747C1.75603 23.027 1.98179 23.3251 2.19746 23.5314C2.30531 23.6345 2.40621 23.7105 2.49421 23.7594C2.58437 23.8095 2.64673 23.8234 2.68208 23.8234V24.3234C2.53156 24.3234 2.38396 24.2702 2.25125 24.1964C2.11639 24.1214 1.9815 24.0167 1.85185 23.8927C1.59252 23.6446 1.3364 23.3024 1.12633 22.9113L1.56683 22.6747ZM5.47935 18.9661C4.39456 19.6996 3.57489 20.2578 2.96191 20.6979C2.34626 21.1399 1.95149 21.4542 1.70867 21.7002C1.46476 21.9474 1.4075 22.0929 1.40096 22.196C1.39374 22.3095 1.44079 22.4366 1.56753 22.676L1.12563 22.91C1.00455 22.6812 0.884658 22.4366 0.901965 22.1642C0.919943 21.8813 1.07867 21.6268 1.35279 21.349C1.62799 21.0701 2.05328 20.7347 2.6703 20.2917C3.28999 19.8468 4.1156 19.2846 5.19928 18.5519L5.47935 18.9661ZM6.96174 17.9169C6.94125 17.9374 6.90983 17.9609 6.89234 17.9741C6.86733 17.9929 6.83421 18.0172 6.79456 18.0458C6.71502 18.1033 6.60563 18.181 6.47452 18.2733C6.21213 18.458 5.86039 18.7028 5.48143 18.9646L5.19721 18.5533C5.57548 18.2919 5.92592 18.048 6.18671 17.8644C6.3172 17.7725 6.42466 17.6962 6.50173 17.6405C6.54038 17.6126 6.57051 17.5905 6.59175 17.5745C6.62052 17.5529 6.61835 17.5532 6.60819 17.5633L6.96174 17.9169ZM8.30136 16.9838C7.9438 17.2244 7.6112 17.4507 7.36327 17.6234C7.2391 17.7099 7.13751 17.782 7.06508 17.8354C7.02865 17.8622 7.00142 17.8829 6.98305 17.8977C6.97375 17.9051 6.96858 17.9096 6.9664 17.9115C6.96043 17.9169 6.97166 17.9079 6.98496 17.8901L6.58496 17.5901C6.60343 17.5655 6.62434 17.5467 6.63234 17.5395C6.64412 17.5289 6.65719 17.5181 6.67019 17.5076C6.6964 17.4866 6.72995 17.4612 6.7686 17.4328C6.84632 17.3755 6.95211 17.3005 7.07749 17.2132C7.32865 17.0382 7.6638 16.8102 8.02218 16.569L8.30136 16.9838ZM9.76746 15.9633C9.67243 16.0425 9.01155 16.5057 8.30136 16.9838L8.02218 16.569C8.74387 16.0832 9.37719 15.6377 9.44737 15.5792L9.76746 15.9633ZM13.6987 13.2249C13.1288 13.6094 12.1766 14.266 11.3491 14.8423C10.9355 15.1304 10.5536 15.398 10.2667 15.6012C10.1232 15.7028 10.004 15.788 9.91671 15.8513C9.87298 15.8831 9.83796 15.9088 9.81218 15.9282C9.78308 15.9501 9.77364 15.958 9.77466 15.9571L9.44017 15.5855C9.46972 15.5589 9.54034 15.5067 9.62302 15.4467C9.71261 15.3817 9.8336 15.2952 9.97771 15.1932C10.2661 14.9889 10.6492 14.7205 11.0634 14.432C11.8915 13.8552 12.8461 13.197 13.419 12.8104L13.6987 13.2249ZM14.4697 12.4394C14.4697 12.5238 14.4301 12.5873 14.4174 12.6073C14.3981 12.6379 14.3749 12.6663 14.3533 12.6904C14.3094 12.7396 14.2516 12.7943 14.1878 12.8499C14.0588 12.9623 13.8859 13.0953 13.7012 13.2232L13.4165 12.8121C13.5898 12.6922 13.7473 12.5705 13.8593 12.4729C13.9159 12.4236 13.9562 12.3844 13.9803 12.3575C13.9927 12.3436 13.9959 12.3383 13.9946 12.3404C13.9939 12.3416 13.9892 12.349 13.9841 12.3616C13.9798 12.3726 13.9697 12.4005 13.9697 12.4394H14.4697ZM14.1409 11.8031C14.2222 11.9065 14.2981 12.0161 14.3551 12.1144C14.3835 12.1633 14.4095 12.2134 14.4292 12.2613C14.4461 12.3023 14.4697 12.3681 14.4697 12.4394H13.9697C13.9697 12.4695 13.9779 12.4784 13.9668 12.4515C13.9585 12.4314 13.9441 12.4024 13.9226 12.3652C13.8797 12.2914 13.8179 12.2013 13.7478 12.112L14.1409 11.8031ZM13.919 11.4206C13.919 11.4076 13.9167 11.4124 13.927 11.4422C13.936 11.4681 13.9508 11.5024 13.9719 11.5431C14.0141 11.6246 14.0742 11.7182 14.1409 11.8031L13.7478 12.112C13.663 12.0042 13.5855 11.8843 13.5279 11.773C13.4991 11.7174 13.4734 11.6604 13.4544 11.6055C13.4368 11.5544 13.419 11.4886 13.419 11.4206H13.919ZM14.4939 10.4893C14.3252 10.7322 14.1742 10.9706 14.0664 11.158C14.0123 11.2521 13.9708 11.3303 13.9437 11.388C13.93 11.4172 13.9218 11.4375 13.9174 11.4499C13.9103 11.47 13.919 11.4539 13.919 11.4206H13.419C13.419 11.3632 13.4363 11.3109 13.4456 11.2843C13.4576 11.25 13.4736 11.213 13.4911 11.1756C13.5264 11.1004 13.5753 11.0091 13.633 10.9087C13.7489 10.7072 13.9077 10.4568 14.0832 10.2041L14.4939 10.4893ZM15.126 9.59617L14.4926 10.4911L14.0845 10.2023L14.7178 9.30733L15.126 9.59617ZM14.8278 8.71841L15.1445 9.33797L14.6993 9.56553L14.3826 8.94596L14.8278 8.71841ZM12.046 6.22671C13.2593 6.83334 14.3835 7.82974 14.8288 8.72038L14.3816 8.94399C14.0009 8.18246 12.9772 7.25133 11.8224 6.67392L12.046 6.22671ZM13.9289 5.71042C14.7647 5.89305 15.3555 6.10362 15.9274 6.56562C16.4878 7.01829 17.0155 7.70124 17.758 8.78749L17.3452 9.06964C16.6007 7.98053 16.1096 7.35552 15.6132 6.95457C15.1285 6.56295 14.6247 6.37424 13.8222 6.1989L13.9289 5.71042ZM12.1799 5.81698C12.1799 5.64058 12.327 5.57097 12.3658 5.55553C12.4194 5.53424 12.4766 5.52685 12.5199 5.52344C12.6125 5.51615 12.7326 5.52118 12.8661 5.53364C13.1375 5.55897 13.5094 5.61954 13.9285 5.71033L13.8226 6.19899C13.4155 6.1108 13.0646 6.05434 12.8197 6.03148C12.6951 6.01985 12.6087 6.018 12.5592 6.02189C12.5316 6.02407 12.5339 6.02679 12.5504 6.02024C12.5521 6.01954 12.6799 5.96928 12.6799 5.81698H12.1799ZM12.9539 6.5081C12.7724 6.3894 12.6035 6.27338 12.4788 6.18254C12.417 6.13749 12.3631 6.09651 12.3232 6.06343C12.304 6.04746 12.2832 6.02945 12.2655 6.01145C12.2571 6.00298 12.2438 5.98888 12.2309 5.97102C12.2244 5.96211 12.2143 5.94707 12.2049 5.92724C12.1969 5.9105 12.1799 5.87065 12.1799 5.81698H12.6799C12.6799 5.76504 12.6634 5.72728 12.6566 5.713C12.6484 5.69563 12.64 5.68343 12.6358 5.6777C12.6311 5.67123 12.6273 5.66674 12.6254 5.66457C12.6233 5.66221 12.622 5.66082 12.6217 5.66053C12.6212 5.66009 12.6226 5.66148 12.6266 5.66504C12.6304 5.66842 12.6356 5.6729 12.6424 5.67852C12.6704 5.7018 12.7146 5.73569 12.7733 5.77842C12.8895 5.86311 13.0511 5.97427 13.2275 6.08962L12.9539 6.5081ZM15.0855 8.74074C14.9077 8.39796 14.5808 7.96984 14.1883 7.5571C13.797 7.14571 13.3546 6.76429 12.9561 6.50949L13.2254 6.08823C13.6667 6.37039 14.1399 6.78063 14.5506 7.21253C14.9601 7.64309 15.3216 8.10989 15.5293 8.51058L15.0855 8.74074ZM15.3883 9.69626C15.3267 9.72709 15.3358 9.77298 15.3454 9.71548C15.353 9.66941 15.3533 9.59223 15.3372 9.48539C15.3056 9.27454 15.2187 9.00091 15.0849 8.73963L15.5299 8.5117C15.6852 8.81491 15.7911 9.14019 15.8317 9.41122C15.8518 9.54533 15.8581 9.67983 15.8386 9.79726C15.8211 9.90325 15.77 10.0644 15.6119 10.1435L15.3883 9.69626ZM14.2451 11.4343C14.2451 11.3853 14.2567 11.3412 14.2651 11.3136C14.2747 11.2821 14.2873 11.2497 14.3007 11.2185C14.3277 11.1559 14.3643 11.0837 14.4057 11.0079C14.4891 10.8557 14.6005 10.6741 14.7167 10.4981C14.8328 10.3221 14.9566 10.1473 15.0656 10.0093C15.1198 9.94066 15.173 9.87766 15.2217 9.82722C15.2608 9.78662 15.3258 9.7226 15.4017 9.69008L15.5986 10.1496C15.6263 10.1378 15.6237 10.1306 15.5816 10.1743C15.5489 10.2082 15.5071 10.257 15.458 10.3192C15.3604 10.4427 15.245 10.6053 15.134 10.7735C15.023 10.9417 14.9192 11.1112 14.8443 11.2481C14.8066 11.3169 14.7782 11.3738 14.76 11.4161C14.7508 11.4374 14.7458 11.4515 14.7434 11.4593C14.7398 11.4711 14.7451 11.4593 14.7451 11.4343H14.2451ZM14.5739 12.112C14.4891 12.0042 14.412 11.8848 14.3548 11.7764C14.3263 11.7222 14.3008 11.6672 14.2818 11.615C14.2648 11.5682 14.2451 11.5026 14.2451 11.4343H14.7451C14.7451 11.4143 14.7408 11.4141 14.7518 11.4443C14.7608 11.4691 14.7758 11.5027 14.7971 11.5432C14.8398 11.6241 14.9003 11.7181 14.967 11.8031L14.5739 12.112ZM13.9702 13.2644C14.2193 13.0973 14.4036 12.9626 14.5355 12.8464C14.6692 12.7286 14.7315 12.6447 14.7582 12.5836C14.7933 12.5034 14.7961 12.4016 14.5721 12.1097L14.9688 11.8053C15.1991 12.1055 15.374 12.4237 15.2163 12.784C15.1467 12.9432 15.0214 13.0847 14.866 13.2216C14.7088 13.3601 14.5024 13.5095 14.2489 13.6796L13.9702 13.2644ZM12.9183 14.0242C12.9422 13.9923 12.974 13.9649 12.9891 13.952C13.0106 13.9336 13.0368 13.9125 13.066 13.89C13.1247 13.8445 13.2025 13.7874 13.2934 13.7227C13.4756 13.593 13.7161 13.4292 13.9735 13.2623L14.2456 13.6818C13.9936 13.8452 13.7591 14.005 13.5833 14.1301C13.4952 14.1927 13.4233 14.2457 13.3719 14.2855C13.346 14.3055 13.3271 14.3208 13.3146 14.3315C13.2957 14.3478 13.3047 14.3423 13.3183 14.3242L12.9183 14.0242ZM11.6019 14.9168C11.9593 14.6762 12.2924 14.4496 12.5409 14.2782C12.6653 14.1924 12.7679 14.1209 12.8416 14.0685C12.8786 14.0422 12.9073 14.0215 12.9275 14.0064C12.9553 13.9858 12.9522 13.9867 12.9415 13.9974L13.295 14.351C13.274 14.372 13.2425 14.3953 13.2257 14.4078C13.2014 14.4259 13.1693 14.449 13.1312 14.4761C13.0547 14.5304 12.9499 14.6035 12.8248 14.6898C12.5743 14.8626 12.2396 15.0903 11.8811 15.3316L11.6019 14.9168ZM10.1358 15.9372C10.2308 15.858 10.8917 15.3948 11.6019 14.9168L11.8811 15.3316C11.1594 15.8173 10.526 16.2628 10.4559 16.3213L10.1358 15.9372ZM5.51402 19.159C8.09543 17.3782 10.0111 16.0369 10.1396 15.934L10.452 16.3245C10.3052 16.4419 8.36579 17.7991 5.79794 19.5705L5.51402 19.159ZM4.41686 20.8814C4.35367 20.8814 4.25918 20.8737 4.17557 20.8196C4.12881 20.7893 4.08562 20.7444 4.05885 20.6834C4.03265 20.6237 4.02926 20.5649 4.035 20.5164C4.04547 20.4279 4.08868 20.3525 4.12461 20.3C4.16414 20.2423 4.21563 20.1828 4.27411 20.1229C4.50454 19.8868 4.92872 19.5583 5.51507 19.1582L5.79689 19.5713C5.21296 19.9697 4.82482 20.2745 4.63189 20.4722C4.58453 20.5207 4.55449 20.5572 4.53727 20.5824C4.51647 20.6128 4.52773 20.6073 4.53153 20.5752C4.53393 20.5549 4.53352 20.5208 4.5167 20.4825C4.49929 20.4428 4.47185 20.4158 4.44726 20.3999C4.40803 20.3745 4.38367 20.3814 4.41686 20.3814V20.8814ZM4.55305 21.1418C4.48979 21.0469 4.42547 20.9649 4.37428 20.9094C4.34814 20.8811 4.33017 20.8649 4.32115 20.8579C4.31652 20.8543 4.31929 20.8571 4.32853 20.8618C4.33389 20.8645 4.36677 20.8814 4.41686 20.8814V20.3814C4.48071 20.3814 4.53038 20.4035 4.5551 20.4161C4.5837 20.4306 4.60841 20.4479 4.62787 20.463C4.66704 20.4934 4.70587 20.5315 4.74168 20.5703C4.8144 20.649 4.89465 20.7528 4.96907 20.8645L4.55305 21.1418ZM4.84118 21.6108C4.76059 21.4854 4.64033 21.2985 4.54317 21.1257L4.97895 20.8806C5.06765 21.0383 5.17973 21.2128 5.26177 21.3404L4.84118 21.6108ZM4.90703 21.7139C4.89086 21.688 4.86864 21.6535 4.84118 21.6108L5.26177 21.3404C5.28853 21.382 5.31278 21.4197 5.33103 21.4489L4.90703 21.7139ZM6.54561 21.1509C6.08248 21.4846 5.77234 21.6978 5.56127 21.8033C5.45882 21.8545 5.34432 21.8994 5.22874 21.897C5.16489 21.8956 5.10001 21.88 5.03996 21.8445C4.98129 21.8097 4.94008 21.7637 4.91102 21.7201L5.32704 21.4427C5.32552 21.4404 5.31571 21.4266 5.29458 21.4141C5.27207 21.4008 5.25086 21.3973 5.23907 21.3971C5.22761 21.3968 5.25079 21.3995 5.33766 21.3561C5.50521 21.2723 5.78021 21.0862 6.2533 20.7452L6.54561 21.1509ZM9.60779 19.05C8.5498 19.7507 7.1756 20.699 6.54519 21.1512L6.25373 20.7449C6.88998 20.2885 8.26939 19.3367 9.33169 18.6331L9.60779 19.05ZM11.6429 17.6415C11.6267 17.6577 11.6072 17.6726 11.6009 17.6774C11.5895 17.6861 11.5754 17.6966 11.5595 17.7082C11.5274 17.7317 11.4836 17.763 11.4301 17.8008C11.3228 17.8766 11.1731 17.9809 10.992 18.1059C10.6298 18.356 10.1403 18.6904 9.60965 19.0487L9.32982 18.6344C9.85929 18.2768 10.3473 17.9434 10.7079 17.6944C10.8883 17.5699 11.0364 17.4668 11.1416 17.3924C11.1943 17.3552 11.2355 17.3257 11.2644 17.3046C11.279 17.294 11.2894 17.2862 11.2962 17.281C11.3081 17.2718 11.3004 17.2769 11.2893 17.288L11.6429 17.6415ZM13.2093 16.554C12.7775 16.852 12.387 17.1214 12.0998 17.3211C11.9561 17.4209 11.8388 17.5029 11.7554 17.5621C11.7136 17.5918 11.6812 17.6151 11.6584 17.6318C11.6264 17.6553 11.6308 17.6536 11.6429 17.6415L11.2893 17.288C11.3108 17.2665 11.3453 17.2414 11.3621 17.229C11.3883 17.2098 11.4235 17.1845 11.4661 17.1543C11.5516 17.0937 11.6704 17.0106 11.8144 16.9105C12.1025 16.7102 12.4938 16.4402 12.9253 16.1425L13.2093 16.554ZM13.4668 16.3763L13.2093 16.554L12.9253 16.1425L13.1828 15.9648L13.4668 16.3763ZM14.0118 16.0126C13.8449 16.1239 13.6627 16.2454 13.4637 16.3784L13.1859 15.9627C13.3851 15.8296 13.5675 15.7079 13.7344 15.5966L14.0118 16.0126ZM14.0125 16.0121L14.012 16.0124L13.7341 15.5968L13.7346 15.5964L14.0125 16.0121ZM14.0503 15.981L14.0503 15.981L13.6968 15.6275L13.6968 15.6275L14.0503 15.981ZM15.83 14.4598C15.8395 14.592 15.7833 14.7 15.7113 14.7871C15.6432 14.8694 15.5428 14.9554 15.4146 15.0529C15.1555 15.25 14.7167 15.5424 14.0123 16.0122L13.7349 15.5963C14.4473 15.1211 14.8686 14.84 15.112 14.6549C15.235 14.5613 15.2965 14.5041 15.3259 14.4685C15.3514 14.4377 15.3282 14.4532 15.3313 14.4957L15.83 14.4598ZM15.7332 14.1979C15.7581 14.2416 15.8216 14.3424 15.83 14.4598L15.3313 14.4957C15.3324 14.5112 15.3367 14.5172 15.3319 14.5067C15.3297 14.5017 15.3261 14.4945 15.3203 14.4839C15.3145 14.473 15.3077 14.4612 15.2989 14.4457L15.7332 14.1979ZM15.6947 14.1282C15.7069 14.1519 15.7193 14.1736 15.7332 14.1979L15.2989 14.4457C15.2855 14.4222 15.2682 14.392 15.2506 14.3579L15.6947 14.1282ZM15.5998 13.873C15.6116 13.8493 15.6089 13.8391 15.6081 13.8569C15.6076 13.8705 15.6086 13.8929 15.6138 13.9225C15.6244 13.9823 15.6485 14.0519 15.6855 14.112L15.2597 14.3741C15.1866 14.2552 15.1419 14.1252 15.1214 14.0094C15.1112 13.9512 15.1062 13.8919 15.1086 13.8354C15.1109 13.783 15.1202 13.7143 15.1526 13.6493L15.5998 13.873ZM16.0784 14.3701C15.8736 14.0698 15.7241 13.9241 15.6322 13.876C15.5936 13.8559 15.5919 13.8669 15.6099 13.8618C15.6262 13.8571 15.6151 13.8514 15.5871 13.8954L15.1653 13.6269C15.2337 13.5195 15.3328 13.4208 15.473 13.3809C15.6149 13.3405 15.7509 13.3739 15.8638 13.4329C16.0747 13.5431 16.2832 13.7829 16.4915 14.0884L16.0784 14.3701ZM17.672 14.9433C17.3531 15.0708 17.0614 15.1423 16.7764 15.0345C16.5054 14.9319 16.2985 14.6866 16.0797 14.372L16.4902 14.0865C16.7119 14.4052 16.8423 14.5248 16.9534 14.5668C17.0504 14.6035 17.1856 14.5993 17.4863 14.479L17.672 14.9433ZM18.3899 15.3317C18.192 15.0348 18.0886 14.9304 18.0119 14.8938C17.963 14.8704 17.8916 14.8593 17.6684 14.9447L17.4898 14.4776C17.7348 14.384 17.9801 14.3247 18.2271 14.4425C18.4464 14.547 18.6184 14.773 18.806 15.0544L18.3899 15.3317ZM18.2962 16.4273C18.4139 16.2577 18.4947 16.136 18.5483 16.0367C18.6009 15.9389 18.6173 15.8801 18.6206 15.837C18.6271 15.7497 18.5894 15.6452 18.387 15.3272L18.8089 15.0588C18.992 15.3466 19.1402 15.5932 19.1192 15.8743C19.1086 16.0153 19.0579 16.1449 18.9884 16.2739C18.9197 16.4013 18.8233 16.5447 18.707 16.7124L18.2962 16.4273ZM17.913 16.961L18.2985 16.424L18.7047 16.7156L18.3192 17.2526L17.913 16.961ZM18.2514 17.7674L17.9072 17.2442L18.3249 16.9694L18.6691 17.4926L18.2514 17.7674ZM18.9284 18.4032C18.8576 18.4032 18.8025 18.3762 18.7775 18.3628C18.7466 18.3462 18.7187 18.3261 18.6954 18.3074C18.6482 18.2697 18.5987 18.221 18.5507 18.1682C18.4536 18.0614 18.3447 17.9182 18.2477 17.7616L18.6728 17.4984C18.7548 17.6308 18.8456 17.7492 18.9206 17.8318C18.9586 17.8736 18.9883 17.9015 19.0074 17.9167C19.0172 17.9245 19.0192 17.925 19.0142 17.9223C19.0115 17.9209 19.0037 17.9169 18.9917 17.9129C18.9804 17.9092 18.9582 17.9032 18.9284 17.9032V18.4032ZM22.4552 15.7851C22.4552 15.8572 22.4261 15.9117 22.4146 15.9323C22.3993 15.9596 22.3812 15.9839 22.3655 16.0032C22.3337 16.0424 22.2926 16.0846 22.2483 16.1269C22.1585 16.2127 22.0341 16.319 21.8894 16.4364C21.5988 16.6721 21.2109 16.9646 20.8163 17.2493C20.4216 17.5341 20.0168 17.8134 19.6918 18.0225C19.5297 18.1267 19.3844 18.2155 19.2685 18.279C19.211 18.3106 19.1567 18.3382 19.1089 18.3587C19.0738 18.3737 19.0028 18.4032 18.9284 18.4032V17.9032C18.8885 17.9032 18.8731 17.9157 18.9122 17.899C18.9387 17.8877 18.9771 17.8686 19.028 17.8407C19.129 17.7853 19.2633 17.7036 19.4213 17.6019C19.7365 17.3992 20.1337 17.1253 20.5238 16.8438C20.914 16.5623 21.2937 16.2757 21.5744 16.048C21.7154 15.9337 21.8277 15.8372 21.903 15.7653C21.9413 15.7287 21.965 15.7033 21.9773 15.6882C21.9836 15.6803 21.9825 15.6807 21.9785 15.6878C21.9784 15.688 21.9552 15.7258 21.9552 15.7851H22.4552ZM22.0335 14.988C22.1433 15.1344 22.2421 15.288 22.3144 15.4159C22.3504 15.4797 22.3817 15.5403 22.4048 15.5926C22.4163 15.6186 22.4273 15.646 22.4358 15.6727C22.4426 15.694 22.4552 15.7364 22.4552 15.7851H21.9552C21.9552 15.8165 21.9626 15.8344 21.9595 15.8248C21.9582 15.8208 21.9547 15.811 21.9475 15.7946C21.9331 15.7622 21.9102 15.717 21.8791 15.662C21.8172 15.5524 21.7302 15.4169 21.6335 15.288L22.0335 14.988ZM21.6655 14.47L22.0372 14.9932L21.6297 15.2828L21.2579 14.7596L21.6655 14.47ZM20.7088 14.6439L21.3697 14.3823L21.5537 14.8472L20.8929 15.1088L20.7088 14.6439ZM20.0161 14.8742C19.9955 14.8742 19.9982 14.8771 20.0523 14.8629C20.0942 14.852 20.1508 14.8353 20.2193 14.8136C20.3558 14.7703 20.5309 14.7097 20.714 14.6419L20.8877 15.1108C20.699 15.1807 20.5162 15.244 20.3704 15.2902C20.2978 15.3132 20.2322 15.3327 20.1786 15.3467C20.1372 15.3575 20.0711 15.3742 20.0161 15.3742V14.8742ZM19.7407 14.4326C19.8392 14.577 19.9397 14.7064 20.0197 14.7973C20.0602 14.8434 20.0916 14.8752 20.1122 14.8935C20.1229 14.903 20.1255 14.9041 20.1213 14.9014C20.119 14.9 20.1107 14.8948 20.0973 14.8894C20.0858 14.8848 20.0565 14.8742 20.0161 14.8742V15.3742C19.933 15.3742 19.8712 15.3348 19.8548 15.3245C19.8271 15.307 19.8019 15.2865 19.781 15.268C19.7383 15.2303 19.6914 15.1812 19.6442 15.1275C19.5486 15.0188 19.4357 14.8728 19.3276 14.7143L19.7407 14.4326ZM19.3712 13.8715L19.743 14.436L19.3254 14.711L18.9537 14.1465L19.3712 13.8715ZM19.7936 13.5472L19.3668 14.153L18.9581 13.865L19.3849 13.2592L19.7936 13.5472ZM20.2523 12.6459C20.2523 12.6958 20.2396 12.74 20.2319 12.7643C20.2226 12.7936 20.2105 12.8239 20.1977 12.8531C20.172 12.9116 20.1371 12.9799 20.0974 13.0521C20.0176 13.1972 19.9105 13.372 19.7973 13.5419L19.3812 13.2645C19.4883 13.1039 19.5877 12.9414 19.6593 12.8111C19.6954 12.7456 19.7225 12.6918 19.7398 12.6522C19.7485 12.6323 19.7532 12.6196 19.7553 12.613C19.759 12.6014 19.7523 12.6167 19.7523 12.6459H20.2523ZM19.4219 11.2215C19.6375 11.5276 19.8367 11.828 19.9829 12.0658C20.0558 12.1843 20.1173 12.2902 20.1614 12.3749C20.1833 12.4169 20.203 12.4576 20.2178 12.4942C20.2278 12.519 20.2523 12.5797 20.2523 12.6459H19.7523C19.7523 12.6881 19.7656 12.7096 19.7544 12.682C19.748 12.6661 19.7363 12.6411 19.718 12.6059C19.6817 12.5362 19.627 12.4416 19.557 12.3277C19.4175 12.1008 19.2243 11.8092 19.0131 11.5095L19.4219 11.2215ZM17.759 8.78897C18.24 9.50361 18.9965 10.604 19.4234 11.2237L19.0116 11.5073C18.5849 10.8879 17.8269 9.78539 17.3442 9.06816L17.759 8.78897ZM4.3415 21.2249C4.47024 21.3965 4.58534 21.569 4.66934 21.7096C4.71113 21.7796 4.74712 21.8448 4.77356 21.9C4.78667 21.9274 4.79921 21.956 4.809 21.9837C4.81625 22.0042 4.83207 22.0508 4.83207 22.1046H4.33207C4.33207 22.1412 4.34188 22.1624 4.33762 22.1504C4.3359 22.1455 4.33144 22.1344 4.3226 22.116C4.30516 22.0795 4.27748 22.0286 4.2401 21.9661C4.16577 21.8416 4.06057 21.6837 3.9415 21.5249L4.3415 21.2249ZM3.55302 20.5457C3.62951 20.5202 3.69418 20.5375 3.7208 20.5463C3.75166 20.5566 3.77569 20.5705 3.79014 20.5797C3.81969 20.5984 3.84597 20.6211 3.86591 20.6395C3.90776 20.6782 3.95547 20.7301 4.00432 20.7871C4.10352 20.9028 4.2253 21.0607 4.3455 21.2304L3.93749 21.5194C3.82364 21.3587 3.71136 21.2136 3.62469 21.1125C3.5806 21.0611 3.54742 21.026 3.52646 21.0066C3.515 20.996 3.51438 20.9969 3.52231 21.0019C3.52596 21.0042 3.54049 21.0133 3.56327 21.0209C3.58181 21.027 3.63981 21.0438 3.71113 21.02L3.55302 20.5457ZM1.57846 22.1597C1.57846 22.0962 1.60154 22.0485 1.61065 22.0308C1.62256 22.0076 1.63609 21.9881 1.64663 21.9741C1.66798 21.9456 1.694 21.9171 1.71933 21.8913C1.77111 21.8383 1.84101 21.7748 1.91997 21.7068C2.07912 21.5696 2.29075 21.4007 2.50645 21.2363C2.7223 21.0718 2.94563 20.9093 3.12872 20.7852C3.21991 20.7234 3.30393 20.6693 3.37346 20.6288C3.40802 20.6087 3.44218 20.5901 3.47375 20.5752C3.49886 20.5634 3.54518 20.5427 3.59672 20.5354L3.66743 21.0303C3.69488 21.0264 3.70603 21.0185 3.68637 21.0278C3.67316 21.034 3.65295 21.0446 3.62502 21.0609C3.56955 21.0932 3.49611 21.1402 3.40917 21.1991C3.23601 21.3165 3.02049 21.4732 2.80952 21.634C2.59842 21.7948 2.39529 21.9572 2.24637 22.0855C2.1713 22.1502 2.11385 22.203 2.07678 22.2409C2.05769 22.2604 2.04891 22.271 2.04658 22.2741C2.04527 22.2759 2.04973 22.2703 2.05553 22.259C2.05853 22.2531 2.07846 22.2154 2.07846 22.1597H1.57846ZM2.66831 23.635C2.59075 23.635 2.532 23.6024 2.50774 23.5879C2.47682 23.5693 2.44939 23.5473 2.42715 23.5276C2.38209 23.4878 2.33469 23.4367 2.28884 23.383C2.1959 23.2741 2.0897 23.1312 1.99031 22.9856C1.89071 22.8398 1.79404 22.6856 1.72115 22.5527C1.68489 22.4866 1.65235 22.4219 1.62817 22.3639C1.60857 22.3169 1.57846 22.2386 1.57846 22.1597H2.07846C2.07846 22.1289 2.07029 22.125 2.08964 22.1714C2.10439 22.2068 2.12779 22.2544 2.15951 22.3122C2.22258 22.4272 2.31005 22.5672 2.40321 22.7036C2.49657 22.8403 2.59172 22.9676 2.66916 23.0584C2.70851 23.1045 2.73855 23.1355 2.75825 23.1529C2.76838 23.1619 2.77016 23.1622 2.76465 23.1589C2.76162 23.1571 2.75299 23.1521 2.73955 23.1472C2.7268 23.1426 2.7018 23.135 2.66831 23.135V23.635ZM4.83207 22.1046C4.83207 22.1728 4.80546 22.2231 4.79523 22.2414C4.78181 22.2653 4.76671 22.285 4.75524 22.2989C4.73195 22.327 4.70378 22.3546 4.67668 22.3795C4.62118 22.4304 4.54642 22.4909 4.46214 22.5554C4.29223 22.6855 4.06645 22.8449 3.8367 22.9989C3.60685 23.153 3.36917 23.3044 3.17499 23.4181C3.07834 23.4747 2.98905 23.524 2.91525 23.5599C2.8786 23.5777 2.84184 23.5942 2.80761 23.6067C2.78154 23.6163 2.7278 23.635 2.66831 23.635V23.135C2.63292 23.135 2.61522 23.1447 2.63554 23.1373C2.64769 23.1328 2.66767 23.1243 2.69653 23.1103C2.75373 23.0824 2.83052 23.0404 2.92232 22.9867C3.10505 22.8796 3.33376 22.7341 3.55826 22.5836C3.78285 22.433 3.99937 22.28 4.15817 22.1584C4.23825 22.0971 4.29945 22.047 4.33882 22.0109C4.35916 21.9923 4.36815 21.9824 4.37016 21.9799C4.37134 21.9785 4.36593 21.9847 4.35903 21.997C4.35533 22.0036 4.33207 22.0441 4.33207 22.1046H4.83207ZM11.8312 2.37425C11.8485 2.36756 11.8514 2.36338 11.827 2.37956C11.8086 2.39174 11.7831 2.40987 11.7502 2.43442C11.6846 2.48328 11.5975 2.55169 11.4938 2.63558C11.2869 2.803 11.0204 3.02673 10.7409 3.26679C10.1798 3.74868 9.5771 4.28704 9.30226 4.56188L8.94871 4.20832C9.23836 3.91868 9.85409 3.36936 10.4151 2.88749C10.6967 2.64566 10.9672 2.41849 11.1793 2.24687C11.2851 2.16124 11.3781 2.0881 11.4514 2.03349C11.4879 2.0063 11.5215 1.9822 11.5505 1.96295C11.5735 1.94769 11.6119 1.92286 11.6517 1.90757L11.8312 2.37425ZM13.5448 3.22329C13.0822 2.81507 12.7258 2.56293 12.4418 2.43394C12.1639 2.30777 11.9816 2.31057 11.8391 2.37105L11.6438 1.91076C11.9555 1.7785 12.2896 1.81571 12.6485 1.97867C13.0012 2.13882 13.4021 2.43052 13.8757 2.84837L13.5448 3.22329ZM15.9131 4.96119C15.8924 4.96119 15.7934 4.96591 15.7282 5.06317C15.6687 5.15178 15.6936 5.23659 15.6965 5.24648C15.7045 5.27367 15.7113 5.27236 15.6751 5.22559C15.6151 5.14787 15.4969 5.02029 15.3125 4.83848C14.9478 4.47883 14.3567 3.93886 13.5449 3.22338L13.8755 2.84828C14.6884 3.56469 15.2883 4.11239 15.6636 4.48245C15.8492 4.66549 15.9884 4.81326 16.0707 4.9197C16.1057 4.96501 16.1551 5.03296 16.1765 5.1064C16.1861 5.13942 16.2106 5.2416 16.1433 5.3418C16.0703 5.45065 15.9563 5.46119 15.9131 5.46119V4.96119ZM15.8935 4.95865C15.8899 4.95267 15.8868 4.94893 15.8852 4.94716C15.8837 4.94536 15.883 4.94485 15.8836 4.94536C15.8851 4.94662 15.8892 4.94973 15.896 4.95324C15.9026 4.9567 15.9091 4.95915 15.9141 4.96053C15.9164 4.96117 15.9177 4.96139 15.9179 4.96142C15.9182 4.96146 15.9165 4.96119 15.9131 4.96119V5.46119C15.8221 5.46119 15.7343 5.43276 15.6653 5.39685C15.5978 5.36174 15.5172 5.30331 15.4647 5.2159L15.8935 4.95865ZM15.0813 4.57001C15.2524 4.61465 15.4191 4.67388 15.5504 4.73013C15.6158 4.75818 15.676 4.78698 15.7252 4.81454C15.7496 4.82824 15.7745 4.8434 15.7973 4.8597C15.8157 4.8729 15.8504 4.899 15.8791 4.93727L15.4791 5.23727C15.4975 5.26177 15.5136 5.27153 15.5063 5.26633C15.5034 5.26424 15.4954 5.25896 15.4807 5.25072C15.4516 5.2344 15.4085 5.21329 15.3534 5.1897C15.2437 5.1427 15.1007 5.09179 14.9551 5.05382L15.0813 4.57001ZM13.5632 3.49923C14.2778 4.15886 14.7369 4.4665 15.0901 4.57246L14.9464 5.05137C14.4735 4.9095 13.9413 4.52873 13.224 3.86663L13.5632 3.49923ZM12.1545 2.48293C12.2286 2.48293 12.2938 2.51257 12.3223 2.52593C12.3619 2.54452 12.4046 2.56893 12.4475 2.5957C12.534 2.64969 12.6395 2.72458 12.7553 2.81302C12.988 2.9906 13.2763 3.23335 13.5635 3.49957L13.2236 3.86629C12.9464 3.60932 12.6702 3.37708 12.4519 3.21046C12.3424 3.1268 12.2507 3.06228 12.1828 3.0199C12.1485 2.99848 12.1246 2.98546 12.1101 2.97866C12.0844 2.96664 12.1078 2.98293 12.1545 2.98293V2.48293ZM11.0861 3.21372C11.2791 3.0279 11.4836 2.85546 11.6568 2.72787C11.743 2.66436 11.8254 2.60902 11.8972 2.56832C11.933 2.54807 11.9704 2.52902 12.0072 2.51438C12.0385 2.5019 12.0926 2.48293 12.1545 2.48293V2.98293C12.1888 2.98293 12.2059 2.97343 12.1921 2.97892C12.1838 2.98224 12.1679 2.98966 12.1436 3.0034C12.0955 3.03067 12.0307 3.07343 11.9534 3.13039C11.7996 3.24373 11.6117 3.40173 11.4329 3.57388L11.0861 3.21372ZM9.2345 4.88688C9.86765 4.32255 10.7059 3.56673 11.0894 3.2106L11.4296 3.577C11.0422 3.93681 10.2007 4.69548 9.56719 5.26013L9.2345 4.88688ZM7.84727 6.13585C7.96439 6.01873 8.59034 5.44879 9.23651 4.88511L9.56519 5.2619C8.91716 5.8272 8.30398 6.38624 8.20082 6.48941L7.84727 6.13585ZM6.48289 7.36336C7.13092 6.79806 7.7441 6.23902 7.84726 6.13585L8.20082 6.4894C8.0837 6.60653 7.45775 7.17647 6.81158 7.74015L6.48289 7.36336ZM5.13386 8.5854C5.55743 8.19897 6.06841 7.73277 6.48089 7.36513L6.81358 7.73838C6.40371 8.1037 5.89504 8.56778 5.47086 8.95477L5.13386 8.5854ZM4.55214 9.11477C4.70128 8.98007 4.90466 8.79452 5.13386 8.5854L5.47086 8.95477C5.24203 9.16354 5.03757 9.35008 4.88728 9.48582L4.55214 9.11477ZM3.86609 9.78001C3.81775 9.78001 3.78449 9.79524 3.78279 9.79596C3.77468 9.79939 3.77134 9.80164 3.7745 9.79977C3.78043 9.79627 3.79377 9.78754 3.81599 9.77111C3.85944 9.73899 3.92059 9.68955 3.99614 9.62492C4.14631 9.49644 4.34214 9.31757 4.54595 9.12055L4.89346 9.48005C4.68423 9.6823 4.48079 9.86829 4.32118 10.0048C4.24183 10.0727 4.17047 10.1309 4.11324 10.1732C4.08512 10.1939 4.05609 10.2142 4.02877 10.2303C4.01532 10.2382 3.99764 10.248 3.97764 10.2564C3.96403 10.2622 3.92131 10.28 3.86609 10.28V9.78001ZM3.50594 14.4771C3.50594 13.2507 3.51628 12.1368 3.53527 11.3287C3.54476 10.9251 3.55645 10.5953 3.57029 10.3652C3.57715 10.2511 3.58481 10.1566 3.59368 10.0883C3.5979 10.0559 3.60354 10.0199 3.61205 9.98823C3.61577 9.97436 3.62389 9.94613 3.64014 9.91627C3.64816 9.90155 3.6649 9.87368 3.6944 9.84677C3.72539 9.81849 3.78383 9.78001 3.86609 9.78001V10.28C3.94619 10.28 4.0025 10.2425 4.03137 10.2162C4.05874 10.1912 4.07337 10.1662 4.07929 10.1553C4.08619 10.1427 4.09007 10.1325 4.09178 10.1278C4.09369 10.1225 4.09468 10.1189 4.09496 10.1178C4.0953 10.1166 4.093 10.1259 4.0895 10.1528C4.08294 10.2033 4.07608 10.2839 4.06939 10.3952C4.05611 10.6161 4.04458 10.9386 4.03513 11.3404C4.01626 12.1431 4.00594 13.2528 4.00594 14.4771H3.50594ZM3.50594 18.9242V14.4771H4.00594V18.9242H3.50594ZM3.24659 19.0394L3.59079 18.7365L3.9211 19.1118L3.5769 19.4147L3.24659 19.0394ZM2.90238 19.3423L3.24658 19.0394L3.5769 19.4147L3.2327 19.7176L2.90238 19.3423ZM3.29 15.1639L3.31754 19.5284L2.81755 19.5315L2.79001 15.1671L3.29 15.1639ZM3.24869 10.7987L3.28999 15.1631L2.79002 15.1679L2.74871 10.8034L3.24869 10.7987ZM2.45019 10.996L2.82192 10.6242L3.17548 10.9778L2.80374 11.3495L2.45019 10.996ZM1.94073 11.2829C1.94073 11.3245 1.95192 11.3114 1.93008 11.2941C1.9142 11.2816 1.91541 11.295 1.96498 11.2893C2.06784 11.2774 2.25265 11.1935 2.45019 10.996L2.80374 11.3495C2.5607 11.5926 2.27739 11.7565 2.02229 11.786C1.89287 11.8009 1.74264 11.7833 1.62005 11.6864C1.4915 11.5848 1.44073 11.434 1.44073 11.2829H1.94073ZM2.08655 11.0395C2.05308 11.0608 2.01379 11.1023 1.98263 11.1576C1.95068 11.2144 1.94073 11.2617 1.94073 11.2829H1.44073C1.44073 11.1526 1.48586 11.0209 1.54684 10.9125C1.60863 10.8027 1.70012 10.6927 1.81811 10.6176L2.08655 11.0395ZM3.66199 9.66475C3.30336 9.98889 2.95129 10.303 2.67128 10.5484C2.3981 10.7879 2.17866 10.9753 2.09569 11.0334L1.80896 10.6237C1.86367 10.5854 2.05728 10.4218 2.3417 10.1724C2.6193 9.92911 2.9694 9.61677 3.32672 9.29381L3.66199 9.66475ZM4.88051 8.55665C4.49567 8.90443 4.05029 9.30691 3.66377 9.66312L3.32493 9.29544C3.71358 8.93728 4.16084 8.53309 4.54527 8.18569L4.88051 8.55665ZM4.88154 8.55572L4.88143 8.55582L4.54435 8.18652L4.54446 8.18642L4.88154 8.55572ZM5.63303 7.87288C5.46511 8.02836 5.19217 8.27501 4.88062 8.55656L4.54538 8.18559C4.85812 7.90297 5.12821 7.65889 5.29333 7.50599L5.63303 7.87288ZM6.54865 7.04013C6.43207 7.15671 6.0116 7.53493 5.62969 7.87592L5.29668 7.50295C5.68578 7.15554 6.09139 6.79028 6.1951 6.68658L6.54865 7.04013ZM7.91302 5.81262C7.26499 6.37792 6.65182 6.93696 6.54865 7.04013L6.1951 6.68657C6.31222 6.56945 6.93817 5.99951 7.58434 5.43583L7.91302 5.81262ZM9.30226 4.56188C9.18514 4.679 8.55919 5.24894 7.91302 5.81262L7.58434 5.43583C8.23237 4.87053 8.84554 4.31149 8.94871 4.20833L9.30226 4.56188ZM17.2241 2.38036C17.2786 2.36401 17.3051 2.33006 17.3113 2.32089C17.3169 2.31281 17.313 2.31544 17.3053 2.34076C17.2898 2.39136 17.2735 2.482 17.2601 2.62981C17.2337 2.92179 17.2233 3.37943 17.2233 4.05467H16.7233C16.7233 3.38063 16.7335 2.90205 16.7622 2.58479C16.7763 2.42798 16.7962 2.29575 16.8272 2.19448C16.8426 2.14386 16.8646 2.08829 16.8988 2.03842C16.9337 1.98747 16.9915 1.92813 17.0804 1.90145L17.2241 2.38036ZM17.333 2.56222C17.2342 2.49655 17.1274 2.42556 17.0126 2.34828L17.2919 1.93353C17.4053 2.00989 17.5109 2.0801 17.6098 2.14585L17.333 2.56222ZM17.3327 2.56207L17.3327 2.56204L17.61 2.14602L17.6101 2.14604L17.3327 2.56207ZM17.3331 2.56234L17.3327 2.56207L17.6101 2.14604L17.6105 2.14632L17.3331 2.56234ZM18.3309 3.37478C18.1791 3.13103 17.9123 2.9474 17.3334 2.56252L17.6102 2.14614C18.152 2.50633 18.5329 2.7533 18.7553 3.11042L18.3309 3.37478ZM18.5494 5.57785C18.5494 4.89645 18.5491 4.42877 18.5183 4.07913C18.4878 3.73319 18.4292 3.53254 18.3309 3.37478L18.7553 3.11042C18.9133 3.36404 18.9828 3.65458 19.0164 4.03521C19.0496 4.41214 19.0494 4.90639 19.0494 5.57785H18.5494ZM18.5494 7.61188V5.57785H19.0494V7.61188H18.5494ZM18.9104 8.03894C18.8157 7.95705 18.7224 7.87629 18.6353 7.80048L18.9635 7.42328C19.05 7.49856 19.1428 7.57886 19.2375 7.66085L18.9104 8.03894ZM18.9125 8.04081L18.9125 8.04074L19.2354 7.65905L19.2355 7.65911L18.9125 8.04081ZM18.9158 8.0435L18.9157 8.04345L19.2323 7.65647L19.2324 7.65652L18.9158 8.0435ZM18.9081 8.03695L18.908 8.03686L19.2402 7.66316L19.2403 7.66325L18.9081 8.03695ZM19.7594 8.79129C19.5936 8.6303 19.2472 8.33047 18.9106 8.03915L19.2378 7.66106C19.5679 7.94677 19.9287 8.25883 20.1077 8.4325L19.7594 8.79129ZM19.7783 8.80924L19.7614 8.79316L20.1057 8.43063L20.1226 8.44672L19.7783 8.80924ZM21.7627 10.5876C20.4518 9.40779 19.9506 8.96081 19.7855 8.8158L20.1155 8.44015C20.2833 8.58755 20.7869 9.03673 22.0972 10.2159L21.7627 10.5876ZM22.506 11.3517C22.506 11.3963 22.5211 11.4196 22.5138 11.4044C22.51 11.3966 22.501 11.3805 22.4838 11.3551C22.4497 11.3048 22.3963 11.2366 22.3247 11.1544C22.1825 10.991 21.9831 10.788 21.7617 10.5867L22.0981 10.2168C22.331 10.4285 22.5447 10.6455 22.7019 10.8262C22.7801 10.9161 22.848 11.0011 22.8978 11.0748C22.9226 11.1113 22.9462 11.1498 22.9645 11.188C22.9793 11.2189 23.006 11.2797 23.006 11.3517H22.506ZM22.0457 11.1006C22.1419 11.206 22.3043 11.2762 22.4398 11.2887C22.4713 11.2915 22.4971 11.2908 22.5165 11.2883C22.5261 11.287 22.5333 11.2854 22.5383 11.284C22.5433 11.2826 22.5454 11.2815 22.5453 11.2816C22.5349 11.2868 22.506 11.3154 22.506 11.3517H23.006C23.006 11.5327 22.9013 11.6628 22.7683 11.7291C22.6501 11.788 22.5134 11.7975 22.3941 11.7866C22.1544 11.7646 21.8693 11.6489 21.6764 11.4377L22.0457 11.1006ZM21.1028 11.4795C21.1168 11.3324 21.1347 11.2021 21.1633 11.0994C21.1867 11.0154 21.2388 10.8638 21.3851 10.794C21.5535 10.7136 21.7071 10.7993 21.7811 10.8508C21.8666 10.9103 21.9558 11.0003 22.0472 11.1022L21.6749 11.436C21.6327 11.3889 21.5965 11.3509 21.5654 11.321C21.5338 11.2907 21.5109 11.2719 21.4953 11.2611C21.4784 11.2493 21.4795 11.2535 21.4957 11.2576C21.5168 11.2629 21.557 11.2659 21.6005 11.2452C21.6398 11.2264 21.6558 11.2004 21.6572 11.1981C21.6583 11.1962 21.6529 11.2051 21.645 11.2337C21.6289 11.2914 21.6141 11.3848 21.6005 11.5269L21.1028 11.4795ZM21.0611 12.0067L21.1024 11.4835L21.6009 11.5229L21.5596 12.046L21.0611 12.0067ZM21.2208 11.4004L21.5237 11.896L21.097 12.1567L20.7941 11.6611L21.2208 11.4004ZM20.9408 10.6083C20.9408 10.686 20.9658 10.8182 21.0187 10.9735C21.0703 11.1252 21.1412 11.2777 21.2171 11.3945L20.7978 11.667C20.6948 11.5084 20.6073 11.3167 20.5453 11.1345C20.4846 10.956 20.4408 10.7645 20.4408 10.6083H20.9408ZM20.1129 9.36079C20.4063 9.62009 20.6136 9.81676 20.7445 10C20.8878 10.2006 20.9408 10.3861 20.9408 10.6083H20.4408C20.4408 10.4862 20.418 10.4032 20.3376 10.2906C20.2448 10.1606 20.0804 9.99934 19.7818 9.73545L20.1129 9.36079ZM17.8821 7.11335C17.9224 7.11335 17.9908 7.10064 18.0469 7.04141C18.0987 6.98682 18.1073 6.92661 18.1088 6.90143C18.1112 6.85912 18.0983 6.83856 18.1082 6.86386C18.1223 6.89978 18.1582 6.96793 18.2213 7.06919C18.344 7.26584 18.5395 7.53997 18.7671 7.83671C19.2264 8.43528 19.7868 9.08683 20.1081 9.3567L19.7865 9.73955C19.4194 9.43116 18.8302 8.74032 18.3704 8.14107C18.1386 7.83889 17.9322 7.55026 17.7971 7.33387C17.7315 7.2286 17.6745 7.12767 17.6426 7.04613C17.6295 7.0127 17.6054 6.94632 17.6096 6.87287C17.6119 6.83212 17.6247 6.76 17.6841 6.69741C17.7478 6.63017 17.8272 6.61335 17.8821 6.61335V7.11335ZM17.8753 7.11329L17.8712 7.11311L17.893 6.61359L17.897 6.61376L17.8753 7.11329ZM17.5648 6.17887L18.0647 6.68847L17.7077 7.03859L17.2079 6.529L17.5648 6.17887ZM17.1557 5.74237L17.5687 6.18295L17.2039 6.52492L16.7909 6.08434L17.1557 5.74237ZM17.2233 4.05467V5.91336H16.7233V4.05467H17.2233ZM16.8617 11.0085C16.6286 10.6589 16.4682 10.3969 16.384 10.201C16.3421 10.1035 16.3096 10.0015 16.3068 9.90099C16.3037 9.78925 16.3379 9.67857 16.4249 9.59164L16.7784 9.94519C16.7877 9.93591 16.7965 9.92293 16.8019 9.90803C16.807 9.89408 16.8065 9.88556 16.8066 9.8871C16.8068 9.89499 16.8113 9.92895 16.8434 10.0035C16.9072 10.1519 17.0428 10.3787 17.2778 10.7312L16.8617 11.0085ZM18.3912 11.702C18.3454 11.8227 18.2615 11.9718 18.0965 12.0321C17.9236 12.0952 17.7622 12.026 17.6491 11.9495C17.5317 11.8701 17.4113 11.7474 17.2868 11.596C17.16 11.442 17.0187 11.2457 16.8613 11.0078L17.2782 10.7319C17.4306 10.9621 17.5612 11.1427 17.6728 11.2783C17.7866 11.4165 17.871 11.496 17.9292 11.5353C17.9916 11.5775 17.9765 11.5436 17.9249 11.5624C17.8813 11.5784 17.8938 11.6036 17.9237 11.5247L18.3912 11.702ZM16.9183 9.36696C17.0007 9.36696 17.0663 9.40056 17.1023 9.422C17.1433 9.44648 17.1813 9.47716 17.2146 9.50737C17.2817 9.56818 17.3534 9.64876 17.4246 9.73711C17.5684 9.91538 17.7305 10.1508 17.8793 10.3903C18.0281 10.6298 18.1682 10.8808 18.2661 11.0916C18.3146 11.1962 18.3559 11.2975 18.3819 11.386C18.3948 11.43 18.4059 11.4774 18.4108 11.5244C18.4151 11.5664 18.4176 11.6342 18.3904 11.7039L17.9244 11.5227C17.9094 11.5615 17.9146 11.5866 17.9134 11.5758C17.9128 11.5699 17.9102 11.5543 17.9021 11.5268C17.8861 11.4723 17.8563 11.3963 17.8126 11.3021C17.7258 11.1153 17.5966 10.8827 17.4546 10.6542C17.3126 10.4255 17.1623 10.2083 17.0354 10.051C16.9714 9.97154 16.9182 9.91357 16.8787 9.87779C16.8588 9.85971 16.8481 9.85258 16.846 9.85133C16.8388 9.84703 16.8669 9.86696 16.9183 9.86696V9.36696ZM16.4249 9.59163C16.4886 9.52793 16.5675 9.47469 16.6457 9.43676C16.7208 9.40036 16.8181 9.36696 16.9183 9.36696V9.86696C16.9226 9.86696 16.9191 9.86643 16.907 9.86981C16.8956 9.87299 16.8808 9.87847 16.8639 9.88666C16.8285 9.9038 16.7973 9.92628 16.7784 9.94519L16.4249 9.59163ZM3.20446 22.1354C3.21242 22.1872 3.23152 22.2249 3.24667 22.2442C3.25399 22.2535 3.25689 22.254 3.25223 22.2513C3.24712 22.2482 3.23081 22.2401 3.20519 22.2401V22.7401C3.04407 22.7401 2.92424 22.6428 2.85392 22.5536C2.77958 22.4593 2.72984 22.3387 2.71027 22.2114L3.20446 22.1354ZM3.20519 22.1205C3.18387 22.1205 3.16747 22.1214 3.15502 22.1227C3.14248 22.1239 3.13601 22.1255 3.13398 22.126C3.13205 22.1265 3.13649 22.1256 3.1444 22.121C3.15285 22.1161 3.16347 22.1081 3.17349 22.0963C3.18351 22.0846 3.18971 22.0728 3.19317 22.0637C3.19641 22.0552 3.19659 22.0508 3.19634 22.0532C3.19609 22.0556 3.19564 22.0629 3.19655 22.0764C3.19745 22.0898 3.19956 22.1073 3.20356 22.13L2.71117 22.2169C2.68966 22.095 2.67304 21.9128 2.79287 21.7721C2.91196 21.6323 3.0926 21.6205 3.20519 21.6205V22.1205ZM3.20682 22.13C3.21081 22.1073 3.21292 22.0898 3.21383 22.0764C3.21474 22.0629 3.21428 22.0556 3.21403 22.0532C3.21379 22.0508 3.21397 22.0552 3.21721 22.0637C3.22067 22.0728 3.22686 22.0846 3.23689 22.0963C3.2469 22.1081 3.25752 22.1161 3.26597 22.121C3.27388 22.1256 3.27832 22.1265 3.2764 22.126C3.27436 22.1255 3.2679 22.1239 3.25535 22.1227C3.24291 22.1214 3.2265 22.1205 3.20519 22.1205V21.6205C3.31778 21.6205 3.49841 21.6323 3.61751 21.7721C3.73733 21.9128 3.72071 22.095 3.69921 22.2169L3.20682 22.13ZM3.20519 22.2401C3.17957 22.2401 3.16325 22.2482 3.15814 22.2513C3.15349 22.254 3.15639 22.2535 3.16371 22.2442C3.17886 22.2249 3.19796 22.1872 3.20592 22.1354L3.70011 22.2114C3.68053 22.3387 3.63079 22.4593 3.55645 22.5536C3.48614 22.6428 3.3663 22.7401 3.20519 22.7401V22.2401ZM12.1269 9.5916C11.7373 9.5916 11.4246 9.58648 11.1793 9.56972C10.9394 9.55334 10.7398 9.52468 10.59 9.46591C10.4278 9.40228 10.2884 9.28694 10.2512 9.09233C10.2208 8.93355 10.2716 8.76868 10.324 8.63229L10.7907 8.81178C10.7674 8.87231 10.7537 8.91759 10.7469 8.95174C10.74 8.98615 10.7423 8.99889 10.7423 8.99842C10.7369 8.97031 10.7111 8.97631 10.7726 9.00045C10.8465 9.02945 10.9808 9.055 11.2133 9.07089C11.4404 9.0864 11.7386 9.0916 12.1269 9.0916V9.5916ZM13.9987 9.29513C13.8619 9.45926 13.6394 9.51723 13.3786 9.54852C13.1036 9.58153 12.7038 9.5916 12.1269 9.5916V9.0916C12.7066 9.0916 13.0778 9.08103 13.3191 9.05208C13.5746 9.02141 13.6137 8.97612 13.6146 8.97504L13.9987 9.29513ZM13.9421 8.54526C14.0277 8.63083 14.1312 8.75001 14.1481 8.90685C14.1669 9.08059 14.0737 9.21293 13.9916 9.30325L13.6216 8.96691C13.6473 8.93867 13.6545 8.92516 13.6553 8.92344C13.6553 8.92342 13.6548 8.92443 13.6542 8.92642C13.6535 8.92844 13.6527 8.93133 13.652 8.935C13.6505 8.94282 13.6501 8.9517 13.651 8.96059C13.653 8.9785 13.659 8.98325 13.6508 8.97063C13.642 8.95698 13.6239 8.93414 13.5886 8.89882L13.9421 8.54526ZM10.3224 8.6366C10.3573 8.54062 10.4302 8.48512 10.476 8.45659C10.5266 8.42509 10.5836 8.40227 10.6373 8.38485C10.7457 8.34968 10.8821 8.32362 11.0292 8.30388C11.3263 8.26404 11.7073 8.24487 12.0891 8.24487C12.4712 8.24487 12.8632 8.26408 13.1825 8.30355C13.3415 8.32321 13.4887 8.34862 13.6099 8.38122C13.6706 8.39753 13.7295 8.41688 13.7824 8.44048C13.8326 8.46285 13.8924 8.49558 13.9421 8.54526L13.5886 8.89882C13.6004 8.91063 13.6029 8.90787 13.5788 8.89711C13.5574 8.88758 13.5251 8.87617 13.4801 8.86408C13.3902 8.83989 13.2684 8.81797 13.1211 8.79977C12.8277 8.76351 12.4573 8.74487 12.0891 8.74487C11.7204 8.74487 11.3632 8.76356 11.0957 8.79944C10.9606 8.81757 10.8582 8.83882 10.7915 8.86046C10.7577 8.87143 10.743 8.87937 10.7404 8.881C10.733 8.8856 10.7712 8.86559 10.7923 8.80748L10.3224 8.6366ZM7.08875 12.0003C7.117 11.9815 7.11649 11.9651 7.10561 11.9932C7.09519 12.0202 7.08256 12.0693 7.07262 12.1512C7.05275 12.3147 7.04854 12.5633 7.06222 12.9256L6.56257 12.9445C6.54871 12.5771 6.55139 12.2956 6.57627 12.0909C6.58869 11.9886 6.60791 11.894 6.63922 11.813C6.67007 11.7332 6.72119 11.6444 6.8114 11.5843L7.08875 12.0003ZM8.50132 11.9597C8.12801 11.9529 7.76929 11.9597 7.49384 11.9748C7.35574 11.9824 7.2416 11.9919 7.15835 12.0023C7.11645 12.0075 7.08589 12.0126 7.06565 12.0169C7.03683 12.023 7.04934 12.0235 7.07411 12.0094L6.82604 11.5753C6.8749 11.5473 6.93044 11.5345 6.96142 11.5279C7.00099 11.5195 7.04701 11.5123 7.09633 11.5062C7.19551 11.4938 7.3223 11.4835 7.46645 11.4756C7.75549 11.4597 8.12647 11.4528 8.51041 11.4598L8.50132 11.9597ZM9.87517 12.0009L8.49837 11.9596L8.51336 11.4598L9.89017 11.5011L9.87517 12.0009ZM9.63267 12.8525V11.751H10.1327V12.8525H9.63267ZM9.63267 13.9539V12.8525H10.1327V13.9539H9.63267ZM8.36818 13.7039H9.88267V14.2039H8.36818V13.7039ZM6.8537 13.7039H8.36818V14.2039H6.8537V13.7039ZM7.06219 12.9249L7.10349 13.9438L6.6039 13.964L6.5626 12.9452L7.06219 12.9249ZM9.51311 12.9213V13.472H9.01311V12.9213H9.51311ZM9.51311 12.3706V12.9213H9.01311V12.3706H9.51311ZM8.43702 12.1206H9.26311V12.6206H8.43702V12.1206ZM7.61094 12.1206H8.43702V12.6206H7.61094V12.1206ZM7.36094 12.9213V12.3706H7.86094V12.9213H7.36094ZM7.36094 13.472V12.9213H7.86094V13.472H7.36094ZM8.43702 13.722H7.61094V13.222H8.43702V13.722ZM9.26311 13.722H8.43702V13.222H9.26311V13.722ZM5.76608 17.8524C5.68123 17.8524 5.62211 17.8117 5.59225 17.784C5.56331 17.7572 5.54676 17.7295 5.53878 17.7148C5.52249 17.6849 5.51391 17.6562 5.50968 17.6408C5.50014 17.6063 5.49337 17.5661 5.48811 17.5281C5.47715 17.4489 5.46765 17.3405 5.45977 17.2135C5.44389 16.9577 5.43347 16.6082 5.43347 16.2256H5.93347C5.93347 16.6003 5.94371 16.9392 5.95881 17.1825C5.96641 17.305 5.97499 17.3988 5.98338 17.4595C5.98543 17.4743 5.98731 17.486 5.98895 17.4948C5.99066 17.5041 5.99168 17.5079 5.99167 17.5078C5.99163 17.5077 5.9909 17.505 5.98928 17.5006C5.98786 17.4967 5.98433 17.4875 5.97791 17.4757C5.97251 17.4658 5.95853 17.4417 5.93217 17.4173C5.90489 17.392 5.84835 17.3524 5.76608 17.3524V17.8524ZM6.51137 16.3629C6.48998 16.7622 6.42887 17.1054 6.32889 17.3573C6.27905 17.4829 6.21409 17.5999 6.12753 17.6892C6.03822 17.7812 5.91605 17.8524 5.76608 17.8524V17.3524C5.7469 17.3524 5.74693 17.3634 5.76862 17.341C5.79307 17.3158 5.82793 17.2642 5.86414 17.1729C5.93626 16.9912 5.99217 16.7079 6.01209 16.3362L6.51137 16.3629ZM6.55276 15.4801L6.51146 16.3613L6.012 16.3378L6.05331 15.4567L6.55276 15.4801ZM7.71962 15.6493L6.31527 15.7181L6.29079 15.2187L7.69514 15.1498L7.71962 15.6493ZM9.53632 15.2597C9.38905 15.4069 9.19449 15.486 8.92131 15.5384C8.65087 15.5902 8.27001 15.6217 7.71986 15.6492L7.69489 15.1499C8.24619 15.1223 8.59503 15.0918 8.82713 15.0473C9.05648 15.0033 9.13729 14.9516 9.18277 14.9061L9.53632 15.2597ZM7.63854 14.5988C8.55619 14.5988 9.06542 14.6016 9.31269 14.6356C9.37521 14.6442 9.44249 14.6572 9.50107 14.6825C9.55523 14.7059 9.66573 14.7688 9.69099 14.9091C9.71291 15.0309 9.65103 15.1231 9.62911 15.154C9.60041 15.1946 9.56392 15.2321 9.53632 15.2597L9.18277 14.9061C9.19523 14.8936 9.20452 14.884 9.21157 14.8762C9.21886 14.8681 9.22126 14.8648 9.22104 14.8651C9.22077 14.8655 9.2191 14.8679 9.21676 14.8721C9.21445 14.8762 9.21076 14.8834 9.2071 14.8933C9.1999 14.913 9.19039 14.9504 9.1989 14.9977C9.21835 15.1057 9.30208 15.1412 9.30272 15.1415C9.30779 15.1437 9.29483 15.1378 9.24462 15.1309C9.04098 15.1029 8.57957 15.0988 7.63854 15.0988V14.5988ZM5.68347 14.5988H7.63854V15.0988H5.68347V14.5988ZM5.43347 16.2256V14.8488H5.93347V16.2256H5.43347ZM21.1538 18.7C21.0569 18.77 21.016 18.8234 20.99 18.8922C20.9588 18.9747 20.9408 19.1014 20.9408 19.3372H20.4408C20.4408 19.0911 20.4572 18.8874 20.5224 18.7152C20.5927 18.5293 20.7102 18.4037 20.8611 18.2947L21.1538 18.7ZM21.4512 18.4974L21.1483 18.7039L20.8666 18.2908L21.1695 18.0843L21.4512 18.4974ZM21.1017 20.3885L21.0604 18.2958L21.5603 18.2859L21.6016 20.3787L21.1017 20.3885ZM21.0605 22.3891C21.0181 22.4221 21.0288 22.4477 21.0483 22.3649C21.0644 22.2967 21.0793 22.1877 21.0901 22.0212C21.1118 21.69 21.1155 21.1726 21.1017 20.388L21.6016 20.3792C21.6154 21.1642 21.6122 21.7 21.5891 22.0538C21.5776 22.2298 21.5606 22.3712 21.5349 22.4798C21.5127 22.5738 21.4718 22.7026 21.3675 22.7838L21.0605 22.3891ZM13.6691 22.4466C15.692 22.4466 17.5528 22.4329 18.9195 22.4122C19.6031 22.4019 20.162 22.3899 20.5555 22.3771C20.7525 22.3706 20.9063 22.364 21.0128 22.3575C21.0664 22.3542 21.1052 22.3511 21.1305 22.3483C21.1366 22.3476 21.1413 22.347 21.1449 22.3465C21.1467 22.3463 21.148 22.3461 21.149 22.3459C21.1499 22.3458 21.1503 22.3457 21.1503 22.3457C21.1503 22.3457 21.1494 22.3459 21.148 22.3462C21.1466 22.3465 21.144 22.3471 21.1404 22.3481C21.1376 22.3489 21.1159 22.3546 21.0899 22.3694L21.338 22.8035C21.2925 22.8295 21.2446 22.8368 21.2404 22.8375C21.2226 22.8408 21.2033 22.8433 21.1851 22.8453C21.148 22.8494 21.0999 22.8531 21.0435 22.8565C20.9298 22.8635 20.7704 22.8703 20.5718 22.8768C20.174 22.8898 19.6118 22.9018 18.9271 22.9122C17.5574 22.9328 15.694 22.9466 13.6691 22.9466V22.4466ZM6.30316 22.4466H13.6691V22.9466H6.30316V22.4466ZM6.95254 22.5596L6.44313 22.9038L6.1632 22.4895L6.67262 22.1453L6.95254 22.5596ZM8.90532 22.2582C8.16816 22.2582 7.78538 22.2658 7.52783 22.3082C7.29505 22.3466 7.17115 22.4117 6.95266 22.5595L6.6725 22.1453C6.92212 21.9765 7.11489 21.8695 7.4466 21.8149C7.75354 21.7644 8.18308 21.7582 8.90532 21.7582V22.2582ZM10.5024 22.2582H8.90532V21.7582H10.5024V22.2582ZM10.7524 20.9205V22.0082H10.2524V20.9205H10.7524ZM10.9578 19.8068C10.8952 19.8485 10.8653 19.8761 10.8463 19.901C10.8291 19.9234 10.8112 19.9564 10.7958 20.0223C10.7608 20.172 10.7524 20.4209 10.7524 20.9205H10.2524C10.2524 20.4426 10.2578 20.1271 10.3089 19.9085C10.3365 19.7902 10.3797 19.6881 10.449 19.5974C10.5165 19.5091 10.5984 19.4455 10.6804 19.3908L10.9578 19.8068ZM10.9163 19.7066C10.9112 19.6741 10.9071 19.6492 10.9032 19.6291C10.8991 19.6084 10.8964 19.5992 10.8956 19.5965C10.8942 19.5924 10.8989 19.6096 10.9167 19.632C10.9266 19.6444 10.941 19.6591 10.9611 19.6725C10.9816 19.6861 11.0043 19.6958 11.0279 19.7013C11.0736 19.7118 11.1072 19.703 11.1158 19.7004C11.1246 19.6978 11.1241 19.6966 11.1104 19.7042C11.0978 19.7112 11.0799 19.7223 11.0545 19.7393C11.0294 19.7562 10.9999 19.7769 10.9644 19.8022L10.6738 19.3954C10.7445 19.3449 10.8107 19.2987 10.8676 19.2671C10.8965 19.2511 10.9325 19.2333 10.9725 19.2213C11.0124 19.2094 11.0722 19.1984 11.1403 19.2141C11.2988 19.2507 11.353 19.3876 11.3699 19.4384C11.3894 19.4969 11.4008 19.569 11.4102 19.6287L10.9163 19.7066ZM15.9546 20.193C13.6262 20.193 12.4284 20.1931 11.8101 20.1582C11.5122 20.1414 11.3059 20.1155 11.1708 20.055C11.0913 20.0194 11.0208 19.9656 10.9735 19.8842C10.9316 19.8123 10.9211 19.7387 10.9161 19.7047L11.4105 19.6306C11.4158 19.6655 11.4169 19.6521 11.4057 19.6328C11.389 19.6042 11.3682 19.5956 11.3752 19.5987C11.4131 19.6156 11.5269 19.6414 11.8383 19.659C12.4383 19.6929 13.6155 19.693 15.9546 19.693V20.193ZM20.6908 20.193H15.9546V19.693H20.6908V20.193ZM20.9408 19.3372V19.943H20.4408V19.3372H20.9408ZM20.9408 21.3198V22.0082H20.4408V21.3198H20.9408ZM20.9408 20.6314V21.3198H20.4408V20.6314H20.9408ZM15.9408 20.3814H20.6908V20.8814H15.9408V20.3814ZM11.1908 20.3814H15.9408V20.8814H11.1908V20.3814ZM10.9408 21.3198V20.6314H11.4408V21.3198H10.9408ZM10.9408 22.0082V21.3198H11.4408V22.0082H10.9408ZM15.9408 22.2582H11.1908V21.7582H15.9408V22.2582ZM20.6908 22.2582H15.9408V21.7582H20.6908V22.2582Z" fill="#2F3B42"/>
</svg>
