<svg width="30" height="30" viewBox="0 0 30 30" fill="none" xmlns="http://www.w3.org/2000/svg">
<path d="M18.7502 28.4375H11.2502C9.60018 28.4375 8.22518 28.275 7.06268 27.925C6.63768 27.8 6.36268 27.3875 6.38768 26.95C6.70018 23.2125 10.4877 20.275 15.0002 20.275C19.5127 20.275 23.2877 23.2 23.6127 26.95C23.6502 27.4 23.3752 27.8 22.9377 27.925C21.7752 28.275 20.4002 28.4375 18.7502 28.4375ZM8.40018 26.325C9.22518 26.4875 10.1627 26.5625 11.2502 26.5625H18.7502C19.8377 26.5625 20.7752 26.4875 21.6002 26.325C20.9377 23.925 18.2002 22.15 15.0002 22.15C11.8002 22.15 9.06268 23.925 8.40018 26.325Z" fill="#2F3B42"/>
<path d="M18.75 2.5H11.25C5 2.5 2.5 5 2.5 11.25V18.75C2.5 23.475 3.925 26.0625 7.325 27.025C7.6 23.775 10.9375 21.2125 15 21.2125C19.0625 21.2125 22.4 23.775 22.675 27.025C26.075 26.0625 27.5 23.475 27.5 18.75V11.25C27.5 5 25 2.5 18.75 2.5ZM15 17.7125C12.525 17.7125 10.525 15.7 10.525 13.225C10.525 10.75 12.525 8.75 15 8.75C17.475 8.75 19.475 10.75 19.475 13.225C19.475 15.7 17.475 17.7125 15 17.7125Z" stroke="#2F3B42" stroke-width="1.875" stroke-linecap="round" stroke-linejoin="round"/>
<path d="M14.9999 18.65C12.0124 18.65 9.5874 16.2125 9.5874 13.225C9.5874 10.2375 12.0124 7.8125 14.9999 7.8125C17.9874 7.8125 20.4124 10.2375 20.4124 13.225C20.4124 16.2125 17.9874 18.65 14.9999 18.65ZM14.9999 9.6875C13.0499 9.6875 11.4624 11.275 11.4624 13.225C11.4624 15.1875 13.0499 16.775 14.9999 16.775C16.9499 16.775 18.5374 15.1875 18.5374 13.225C18.5374 11.275 16.9499 9.6875 14.9999 9.6875Z" fill="#2F3B42"/>
</svg>
