<svg width="19" height="18" viewBox="0 0 19 18" fill="none" xmlns="http://www.w3.org/2000/svg">
<path d="M15.7366 2.62703C14.0826 0.924324 11.7961 0 9.46094 0C4.49878 0 0.509586 4.03784 0.558235 8.95135C0.558235 10.5081 0.996073 12.0162 1.7258 13.3784L0.460937 18L5.17986 16.7838C6.49337 17.5135 7.95283 17.8541 9.41229 17.8541C14.3258 17.8541 18.315 13.8162 18.315 8.9027C18.315 6.51892 17.3907 4.28108 15.7366 2.62703ZM9.46094 16.3459C8.14743 16.3459 6.83391 16.0054 5.71499 15.3243L5.4231 15.1784L2.60148 15.9081L3.33121 13.1351L3.13661 12.8432C0.996073 9.38919 2.01769 4.81622 5.5204 2.67568C9.0231 0.535135 13.5474 1.55676 15.688 5.05946C17.8285 8.56216 16.8069 13.0865 13.3042 15.227C12.1853 15.9568 10.8231 16.3459 9.46094 16.3459ZM13.742 10.9459L13.2069 10.7027C13.2069 10.7027 12.4285 10.3622 11.942 10.1189C11.8934 10.1189 11.8447 10.0703 11.7961 10.0703C11.6501 10.0703 11.5528 10.1189 11.4555 10.1676C11.4555 10.1676 11.4069 10.2162 10.7258 10.9946C10.6772 11.0919 10.5799 11.1405 10.4826 11.1405H10.4339C10.3853 11.1405 10.288 11.0919 10.2393 11.0432L9.99607 10.9459C9.46094 10.7027 8.97445 10.4108 8.58526 10.0216C8.48797 9.92432 8.34202 9.82703 8.24472 9.72973C7.90418 9.38919 7.56364 9 7.3204 8.56216L7.27175 8.46486C7.2231 8.41622 7.2231 8.36757 7.17445 8.27027C7.17445 8.17297 7.17445 8.07568 7.2231 8.02703C7.2231 8.02703 7.4177 7.78378 7.56364 7.63784C7.66094 7.54054 7.70959 7.39459 7.80688 7.2973C7.90418 7.15135 7.95283 6.95676 7.90418 6.81081C7.85553 6.56757 7.27175 5.25405 7.1258 4.96216C7.02851 4.81622 6.93121 4.76757 6.78526 4.71892H6.63932C6.54202 4.71892 6.39607 4.71892 6.25013 4.71892C6.15283 4.71892 6.05553 4.76757 5.95824 4.76757L5.90959 4.81622C5.81229 4.86486 5.71499 4.96216 5.6177 5.01081C5.5204 5.10811 5.47175 5.20541 5.37445 5.3027C5.03391 5.74054 4.83932 6.27568 4.83932 6.81081C4.83932 7.2 4.93661 7.58919 5.08256 7.92973L5.13121 8.07568C5.56905 9 6.15283 9.82703 6.93121 10.5568L7.1258 10.7514C7.27175 10.8973 7.4177 10.9946 7.51499 11.1405C8.53661 12.0162 9.70418 12.6486 11.0177 12.9892C11.1636 13.0378 11.3582 13.0378 11.5042 13.0865C11.6501 13.0865 11.8447 13.0865 11.9907 13.0865C12.2339 13.0865 12.5258 12.9892 12.7204 12.8919C12.8663 12.7946 12.9636 12.7946 13.0609 12.6973L13.1582 12.6C13.2555 12.5027 13.3528 12.4541 13.4501 12.3568C13.5474 12.2595 13.6447 12.1622 13.6934 12.0649C13.7907 11.8703 13.8393 11.627 13.888 11.3838C13.888 11.2865 13.888 11.1405 13.888 11.0432C13.888 11.0432 13.8393 10.9946 13.742 10.9459Z" fill="white"/>
</svg>
