<svg width="70" height="47" viewBox="0 0 70 47" fill="none" xmlns="http://www.w3.org/2000/svg">
<g id="Group">
<path id="Vector" d="M68.3769 19.5105V25.1602C68.3769 26.4044 67.5172 27.4137 66.4492 27.4137H62.1504C61.4242 29.9555 60.196 32.2303 58.6154 34.078C57.3231 35.5838 55.8065 36.8174 54.1191 37.6825C54.1351 37.7092 54.1405 37.7412 54.1565 37.7679L55.2512 40.7102C56.0041 42.7501 54.9681 45.0249 52.9229 45.7779C50.8831 46.5308 48.6082 45.4949 47.8553 43.455L46.7606 40.5127C46.5897 40.0588 46.5149 39.5942 46.5149 39.1456H26.4206V39.1937C26.4206 39.7437 26.3031 40.3044 26.0628 40.8331L24.7545 43.6846C23.8414 45.6604 21.5025 46.5308 19.5213 45.6284C17.5402 44.7152 16.6698 42.3763 17.5722 40.3952L18.8858 37.5436C18.8858 37.5436 18.9072 37.5009 18.9126 37.4849C13.8983 34.7188 10.4434 28.754 10.4434 21.8494C10.4434 17.0754 12.0934 12.7501 14.7794 9.62082C17.4494 6.48625 21.1447 4.55318 25.2351 4.55318H26.3992L27.1842 8.8038H39.7065L40.4915 4.55318H48.1704C48.8913 4.55318 49.6015 4.61725 50.2957 4.72939L55.0162 1.02344L55.876 7.08967C59.0372 9.35383 61.4189 12.9743 62.4281 17.2623H66.4599C67.5278 17.2623 68.3876 18.2716 68.3876 19.5158L68.3769 19.5105Z" stroke="#A20000" stroke-width="1.93842" stroke-linecap="round" stroke-linejoin="round"/>
<path id="Vector_2" d="M56.7303 14.4753C56.7303 15.4259 55.9614 16.1948 55.0108 16.1948C54.0603 16.1948 53.2914 15.4259 53.2914 14.4753C53.2914 13.5248 54.0603 12.7559 55.0108 12.7559C55.9614 12.7559 56.7303 13.5248 56.7303 14.4753Z" stroke="#A20000" stroke-width="1.93842" stroke-linecap="round" stroke-linejoin="round"/>
<path id="Vector_3" d="M10.1549 4.13672C7.99219 4.13672 6.23535 5.89357 6.23535 8.05627C6.23535 10.219 7.99219 11.9758 10.1549 11.9758H12.7875" stroke="#A20000" stroke-width="1.93842" stroke-linecap="round" stroke-linejoin="round"/>
<path id="Vector_4" d="M5.5305 8.55236C3.3678 8.55236 1.61096 6.79551 1.61096 4.63281" stroke="#A20000" stroke-width="1.93842" stroke-linecap="round" stroke-linejoin="round"/>
<path id="Vector_5" d="M9.99474 4.13672C11.2817 4.13672 12.3283 5.18335 12.3283 6.47029C12.3283 7.75723 11.2817 8.80386 9.99474 8.80386H7.12183" stroke="#A20000" stroke-width="1.93842" stroke-linecap="round" stroke-linejoin="round"/>
</g>
</svg>
