<svg width="50" height="49" viewBox="0 0 50 49" fill="none" xmlns="http://www.w3.org/2000/svg">
<g id="Group">
<g id="Group_2">
<path id="Vector" d="M4.30396 15.7933V2.0293H21.4858V15.7933" stroke="#A20000" stroke-width="2.10638" stroke-linecap="round" stroke-linejoin="round"/>
<path id="Vector_2" d="M7.40845 15.509C7.86686 13.7508 9.94999 12.4277 12.4452 12.4277C15.0738 12.4277 17.244 13.8958 17.54 15.7933" stroke="#A20000" stroke-width="2.10638" stroke-linecap="round" stroke-linejoin="round"/>
<path id="Vector_3" d="M4.30396 5.84162C7.14148 5.84162 9.4336 4.13562 9.4336 2.02344H4.30396V5.84162Z" stroke="#A20000" stroke-width="2.10638" stroke-linecap="round" stroke-linejoin="round"/>
<path id="Vector_4" d="M21.4858 5.84162C18.6483 5.84162 16.3562 4.13562 16.3562 2.02344H21.4858V5.84162Z" stroke="#A20000" stroke-width="2.10638" stroke-linecap="round" stroke-linejoin="round"/>
</g>
<path id="Vector_5" d="M24.2537 5.78945V2.0293H41.4354V15.7933" stroke="#A20000" stroke-width="2.10638" stroke-linecap="round" stroke-linejoin="round"/>
<path id="Vector_6" d="M30.9385 12.5844C31.4027 12.48 31.8901 12.4277 32.395 12.4277C35.0236 12.4277 37.1938 13.8958 37.4898 15.7933" stroke="#A20000" stroke-width="2.10638" stroke-linecap="round" stroke-linejoin="round"/>
<path id="Vector_7" d="M24.2537 5.71982C27.0912 5.71982 29.3832 4.13568 29.3832 2.0293H24.2537V5.71982Z" stroke="#A20000" stroke-width="2.10638" stroke-linecap="round" stroke-linejoin="round"/>
<path id="Vector_8" d="M41.4354 5.84162C38.5979 5.84162 36.3059 4.13562 36.3059 2.02344H41.4354V5.84162Z" stroke="#A20000" stroke-width="2.10638" stroke-linecap="round" stroke-linejoin="round"/>
<path id="Vector_9" d="M21.625 5.78906H30.7585V15.7929" stroke="#A20000" stroke-width="2.10638" stroke-linecap="round" stroke-linejoin="round"/>
<path id="Vector_10" d="M21.8049 13.9888C22.449 13.5884 23.2845 13.3447 24.1898 13.3447C26.0989 13.3447 27.6773 14.4124 27.892 15.7877" stroke="#A20000" stroke-width="2.10638" stroke-linecap="round" stroke-linejoin="round"/>
<path id="Vector_11" d="M30.7584 8.56276C28.6985 8.56276 27.0273 7.32098 27.0273 5.78906H30.7584V8.56276Z" stroke="#A20000" stroke-width="2.10638" stroke-linecap="round" stroke-linejoin="round"/>
<path id="Vector_12" d="M45.1898 34.379V47.0231H1.46069V15.7871H45.1898V26.348" stroke="#A20000" stroke-width="2.10638" stroke-linecap="round" stroke-linejoin="round"/>
<path id="Vector_13" d="M48.5381 26.7949H37.7161V34.0483H48.5381V26.7949Z" stroke="#A20000" stroke-width="2.10638" stroke-linecap="round" stroke-linejoin="round"/>
<path id="Vector_14" d="M43.3038 30.4217C43.3038 31.1993 42.6714 31.8376 41.888 31.8376C41.1046 31.8376 40.4722 31.2051 40.4722 30.4217C40.4722 29.6384 41.1046 29.0059 41.888 29.0059C42.6714 29.0059 43.3038 29.6384 43.3038 30.4217Z" stroke="#A20000" stroke-width="2.10638" stroke-linecap="round" stroke-linejoin="round"/>
</g>
</svg>
