<svg width="55" height="46" viewBox="0 0 55 46" fill="none" xmlns="http://www.w3.org/2000/svg">
<g id="Group">
<path id="Vector" d="M42.6907 25.6721C44.4294 14.9844 37.1748 4.91076 26.487 3.17207C15.7993 1.43338 5.72573 8.68802 3.98704 19.3757C2.24835 30.0634 9.50297 40.137 20.1907 41.8757C30.8784 43.6144 40.952 36.3598 42.6907 25.6721Z" stroke="#A20000" stroke-width="1.78866" stroke-linecap="round" stroke-linejoin="round"/>
<path id="Vector_2" d="M36.4299 24.6472C37.6029 17.4131 32.6894 10.5979 25.4553 9.42489C18.2212 8.25193 11.4059 13.1655 10.233 20.3996C9.06 27.6337 13.9735 34.4489 21.2076 35.6219C28.4417 36.7948 35.257 31.8813 36.4299 24.6472Z" stroke="#A20000" stroke-width="1.78866" stroke-linecap="round" stroke-linejoin="round"/>
<path id="Vector_3" d="M30.8004 23.7259C31.4703 19.5807 28.653 15.6772 24.5077 15.0073C20.3625 14.3374 16.459 17.1548 15.7891 21.3C15.1192 25.4453 17.9366 29.3487 22.0818 30.0186C26.2271 30.6885 30.1305 27.8712 30.8004 23.7259Z" stroke="#A20000" stroke-width="1.78866" stroke-linecap="round" stroke-linejoin="round"/>
<path id="Vector_4" d="M23.3193 22.5186H52.6227" stroke="#A20000" stroke-width="1.78866" stroke-linecap="round" stroke-linejoin="round"/>
<g id="Group_2">
<path id="Vector_5" d="M45.616 22.5186L49.0701 19.0596" stroke="#A20000" stroke-width="1.78866" stroke-linecap="round" stroke-linejoin="round"/>
<path id="Vector_6" d="M45.616 22.5186L49.1145 26.017" stroke="#A20000" stroke-width="1.78866" stroke-linecap="round" stroke-linejoin="round"/>
</g>
<g id="Group_3">
<path id="Vector_7" d="M49.6565 22.5186L53.1156 19.0596" stroke="#A20000" stroke-width="1.78866" stroke-linecap="round" stroke-linejoin="round"/>
<path id="Vector_8" d="M49.6565 22.5186L53.1599 26.017" stroke="#A20000" stroke-width="1.78866" stroke-linecap="round" stroke-linejoin="round"/>
</g>
</g>
</svg>
