<svg width="62" height="48" viewBox="0 0 62 48" fill="none" xmlns="http://www.w3.org/2000/svg">
<g id="Group">
<g id="Group_2">
<g id="Group_3">
<path id="Vector" d="M21.9075 15.2612C21.6838 16.2326 21.2963 17.144 20.7724 17.9625L23.0208 20.8931L20.9198 22.9941L17.9784 20.7403C17.1544 21.2478 16.243 21.6243 15.2662 21.8426L14.7859 25.4989H11.8117L11.3316 21.8263C10.3602 21.6025 9.44873 21.215 8.63015 20.6911L5.69971 22.9341L3.59864 20.8439L5.86345 17.8971C5.35048 17.0785 4.97391 16.1617 4.75563 15.1903L1.09387 14.7046V11.7414L4.77748 11.2557C5.00122 10.2843 5.38859 9.37293 5.91248 8.55436L3.66419 5.62385L5.76513 3.52282L8.71209 5.78756C9.53067 5.28004 10.4475 4.89804 11.4188 4.68521L11.8991 1.02344H14.8733L15.3535 4.70704C16.3248 4.92533 17.2362 5.31824 18.0547 5.83667L20.9853 3.59377L23.0864 5.68387L20.8325 8.6253C21.34 9.44934 21.722 10.3607 21.9349 11.3375L25.5966 11.8232V14.7865L21.913 15.2722L21.9075 15.2612Z" stroke="#A20000" stroke-width="1.98096" stroke-linecap="round" stroke-linejoin="round"/>
<path id="Vector_2" d="M17.1325 13.4383C17.1325 15.5284 15.4408 17.231 13.3507 17.231C11.2606 17.231 9.55798 15.5338 9.55798 13.4383C9.55798 11.3427 11.2551 9.64551 13.3507 9.64551C15.4463 9.64551 17.1325 11.3427 17.1325 13.4383Z" stroke="#A20000" stroke-width="1.98096" stroke-linecap="round" stroke-linejoin="round"/>
</g>
<g id="Group_4">
<path id="Vector_3" d="M57.2155 15.2612C56.9918 16.2326 56.6044 17.144 56.0805 17.9625L58.3288 20.8931L56.2279 22.9941L53.2864 20.7403C52.4623 21.2478 51.551 21.6243 50.5742 21.8426L50.094 25.4989H47.1197L46.6396 21.8263C45.6682 21.6025 44.7568 21.215 43.9383 20.6911L41.0077 22.9341L38.9068 20.8439L41.1714 17.8971C40.6585 17.0785 40.2819 16.1617 40.0636 15.1903L36.4019 14.7046V11.7414L40.0855 11.2557C40.3092 10.2843 40.6967 9.37293 41.2206 8.55436L38.9722 5.62385L41.0732 3.52282L44.0201 5.78756C44.8387 5.28004 45.7554 4.89804 46.7268 4.68521L47.2071 1.02344H50.1813L50.6614 4.70704C51.6328 4.92533 52.5443 5.31824 53.3629 5.83667L56.2933 3.59377L58.3944 5.68387L56.1405 8.6253C56.648 9.44934 57.03 10.3607 57.2428 11.3375L60.9046 11.8232V14.7865L57.221 15.2722L57.2155 15.2612Z" stroke="#A20000" stroke-width="1.98096" stroke-linecap="round" stroke-linejoin="round"/>
<path id="Vector_4" d="M52.4461 13.4383C52.4461 15.5284 50.7544 17.231 48.6643 17.231C46.5742 17.231 44.8716 15.5338 44.8716 13.4383C44.8716 11.3427 46.5687 9.64551 48.6643 9.64551C50.7599 9.64551 52.4461 11.3427 52.4461 13.4383Z" stroke="#A20000" stroke-width="1.98096" stroke-linecap="round" stroke-linejoin="round"/>
</g>
</g>
<g id="Group_5">
<path id="Vector_5" d="M39.5616 35.7857C39.3379 36.757 38.9504 37.6684 38.4265 38.487L40.6749 41.4175L38.5738 43.5185L35.6325 41.2647C34.8084 41.7722 33.897 42.1487 32.9201 42.367L32.4399 46.0234H29.4658L28.9855 42.3507C28.0141 42.1269 27.1028 41.7395 26.2842 41.2156L23.3538 43.4585L21.2527 41.3684L23.5174 38.4215C23.0044 37.6029 22.6278 36.6861 22.4096 35.7147L18.7478 35.229V32.2658L22.4314 31.7801C22.6552 30.8087 23.0427 29.8974 23.5665 29.0788L21.3181 26.1483L23.4192 24.0473L26.366 26.312C27.1846 25.8045 28.1015 25.4225 29.0729 25.2096L29.5531 21.5479H32.5272L33.0075 25.2315C33.9789 25.4497 34.8902 25.8427 35.7088 26.3611L38.6394 24.1182L40.7403 26.2083L38.4866 29.1497C38.9941 29.9738 39.3761 30.8851 39.5889 31.8619L43.2507 32.3476V35.3109L39.5671 35.7966L39.5616 35.7857Z" stroke="#A20000" stroke-width="1.98096" stroke-linecap="round" stroke-linejoin="round"/>
<path id="Vector_6" d="M34.7866 33.9685C34.7866 36.0586 33.0947 37.7613 31.0046 37.7613C28.9145 37.7613 27.2119 36.0641 27.2119 33.9685C27.2119 31.873 28.9091 30.1758 31.0046 30.1758C33.1002 30.1758 34.7866 31.873 34.7866 33.9685Z" stroke="#A20000" stroke-width="1.98096" stroke-linecap="round" stroke-linejoin="round"/>
</g>
</g>
</svg>
