<svg width="48" height="55" viewBox="0 0 48 55" fill="none" xmlns="http://www.w3.org/2000/svg">
<g id="Group">
<path id="Vector" d="M37.7402 23.8334C37.7402 27.7703 36.083 31.3265 33.4224 33.8328C31.8733 35.2943 31.0345 37.3477 31.0345 39.4783V44.213H16.9437V39.4732C16.9437 37.2808 15.9968 35.2274 14.422 33.699C11.7613 31.1155 10.1402 27.4615 10.2534 23.4371C10.4489 16.402 16.0792 10.5557 23.104 10.1131C31.0963 9.60878 37.7402 15.944 37.7402 23.8282V23.8334Z" stroke="#A20000" stroke-width="1.86813" stroke-linecap="round" stroke-linejoin="round"/>
<path id="Vector_2" d="M30.7512 46.8789H17.2419V49.0713H30.7512V46.8789Z" stroke="#A20000" stroke-width="1.86813" stroke-linecap="round" stroke-linejoin="round"/>
<path id="Vector_3" d="M28.3429 51.377H19.6558V53.5693H28.3429V51.377Z" stroke="#A20000" stroke-width="1.86813" stroke-linecap="round" stroke-linejoin="round"/>
<g id="Group_2">
<path id="Vector_4" d="M23.6235 1.47754V5.50714" stroke="#A20000" stroke-width="1.86813" stroke-linecap="round" stroke-linejoin="round"/>
<g id="Group_3">
<path id="Vector_5" d="M39.6494 7.81738L36.8035 10.6633" stroke="#A20000" stroke-width="1.86813" stroke-linecap="round" stroke-linejoin="round"/>
<path id="Vector_6" d="M46.4994 23.627H42.4697" stroke="#A20000" stroke-width="1.86813" stroke-linecap="round" stroke-linejoin="round"/>
</g>
<g id="Group_4">
<path id="Vector_7" d="M8.34399 7.81738L11.1951 10.6633" stroke="#A20000" stroke-width="1.86813" stroke-linecap="round" stroke-linejoin="round"/>
<path id="Vector_8" d="M1.49927 23.627H5.52892" stroke="#A20000" stroke-width="1.86813" stroke-linecap="round" stroke-linejoin="round"/>
</g>
</g>
</g>
</svg>
