<svg width="18" height="19" viewBox="0 0 18 19" fill="none" xmlns="http://www.w3.org/2000/svg">
<path d="M13.0875 17.6328C12.24 17.6328 11.3475 17.4303 10.425 17.0403C9.525 16.6578 8.6175 16.1328 7.7325 15.4953C6.855 14.8503 6.0075 14.1303 5.205 13.3428C4.41 12.5403 3.69 11.6928 3.0525 10.8228C2.4075 9.92281 1.89 9.02281 1.5225 8.15281C1.1325 7.22281 0.9375 6.32281 0.9375 5.47531C0.9375 4.89031 1.0425 4.33531 1.245 3.81781C1.455 3.28531 1.7925 2.79031 2.25 2.36281C2.8275 1.79281 3.4875 1.50781 4.1925 1.50781C4.485 1.50781 4.785 1.57531 5.04 1.69531C5.3325 1.83031 5.58 2.03281 5.76 2.30281L7.5 4.75531C7.6575 4.97281 7.7775 5.18281 7.86 5.39281C7.9575 5.61781 8.01 5.84281 8.01 6.06031C8.01 6.34531 7.9275 6.62281 7.77 6.88531C7.6575 7.08781 7.485 7.30531 7.2675 7.52281L6.7575 8.05531C6.765 8.07781 6.7725 8.09281 6.78 8.10781C6.87 8.26531 7.05 8.53531 7.395 8.94031C7.7625 9.36031 8.1075 9.74281 8.4525 10.0953C8.895 10.5303 9.2625 10.8753 9.6075 11.1603C10.035 11.5203 10.3125 11.7003 10.4775 11.7828L10.4625 11.8203L11.01 11.2803C11.2425 11.0478 11.4675 10.8753 11.685 10.7628C12.0975 10.5078 12.6225 10.4628 13.1475 10.6803C13.3425 10.7628 13.5525 10.8753 13.7775 11.0328L16.2675 12.8028C16.545 12.9903 16.7475 13.2303 16.8675 13.5153C16.98 13.8003 17.0325 14.0628 17.0325 14.3253C17.0325 14.6853 16.95 15.0453 16.7925 15.3828C16.635 15.7203 16.44 16.0128 16.1925 16.2828C15.765 16.7553 15.3 17.0928 14.76 17.3103C14.2425 17.5203 13.68 17.6328 13.0875 17.6328ZM4.1925 2.63281C3.78 2.63281 3.3975 2.81281 3.03 3.17281C2.685 3.49531 2.445 3.84781 2.295 4.23031C2.1375 4.62031 2.0625 5.03281 2.0625 5.47531C2.0625 6.17281 2.2275 6.93031 2.5575 7.71031C2.895 8.50531 3.3675 9.33031 3.9675 10.1553C4.5675 10.9803 5.25 11.7828 6 12.5403C6.75 13.2828 7.56 13.9728 8.3925 14.5803C9.2025 15.1728 10.035 15.6528 10.86 15.9978C12.1425 16.5453 13.3425 16.6728 14.3325 16.2603C14.715 16.1028 15.0525 15.8628 15.36 15.5178C15.5325 15.3303 15.6675 15.1278 15.78 14.8878C15.87 14.7003 15.915 14.5053 15.915 14.3103C15.915 14.1903 15.8925 14.0703 15.8325 13.9353C15.81 13.8903 15.765 13.8078 15.6225 13.7103L13.1325 11.9403C12.9825 11.8353 12.8475 11.7603 12.72 11.7078C12.555 11.6403 12.4875 11.5728 12.2325 11.7303C12.0825 11.8053 11.9475 11.9178 11.7975 12.0678L11.2275 12.6303C10.935 12.9153 10.485 12.9828 10.14 12.8553L9.9375 12.7653C9.63 12.6003 9.27 12.3453 8.8725 12.0078C8.5125 11.7003 8.1225 11.3403 7.65 10.8753C7.2825 10.5003 6.915 10.1028 6.5325 9.66031C6.18 9.24781 5.925 8.89531 5.7675 8.60281L5.6775 8.37781C5.6325 8.20531 5.6175 8.10781 5.6175 8.00281C5.6175 7.73281 5.715 7.49281 5.9025 7.30531L6.465 6.72031C6.615 6.57031 6.7275 6.42781 6.8025 6.30031C6.8625 6.20281 6.885 6.12031 6.885 6.04531C6.885 5.98531 6.8625 5.89531 6.825 5.80531C6.7725 5.68531 6.69 5.55031 6.585 5.40781L4.845 2.94781C4.77 2.84281 4.68 2.76781 4.5675 2.71531C4.4475 2.66281 4.32 2.63281 4.1925 2.63281ZM10.4625 11.8278L10.3425 12.3378L10.545 11.8128C10.5075 11.8053 10.4775 11.8128 10.4625 11.8278Z" fill="white"/>
</svg>
