<svg width="24" height="25" viewBox="0 0 24 25" fill="none" xmlns="http://www.w3.org/2000/svg">
<path d="M12 21.6734C11.69 21.6734 11.39 21.6334 11.14 21.5434C7.32 20.2334 1.25 15.5834 1.25 8.71341C1.25 5.21341 4.08 2.37341 7.56 2.37341C9.25 2.37341 10.83 3.03341 12 4.21341C13.17 3.03341 14.75 2.37341 16.44 2.37341C19.92 2.37341 22.75 5.22341 22.75 8.71341C22.75 15.5934 16.68 20.2334 12.86 21.5434C12.61 21.6334 12.31 21.6734 12 21.6734ZM7.56 3.87341C4.91 3.87341 2.75 6.04341 2.75 8.71341C2.75 15.5434 9.32 19.3434 11.63 20.1334C11.81 20.1934 12.2 20.1934 12.38 20.1334C14.68 19.3434 21.26 15.5534 21.26 8.71341C21.26 6.04341 19.1 3.87341 16.45 3.87341C14.93 3.87341 13.52 4.58341 12.61 5.81341C12.33 6.19341 11.69 6.19341 11.41 5.81341C10.48 4.57341 9.08 3.87341 7.56 3.87341Z" fill="#A20000"/>
<path d="M7.56 3.87341C4.91 3.87341 2.75 6.04341 2.75 8.71341C2.75 15.5434 9.32 19.3434 11.63 20.1334C11.81 20.1934 12.2 20.1934 12.38 20.1334C14.68 19.3434 21.26 15.5534 21.26 8.71341C21.26 6.04341 19.1 3.87341 16.45 3.87341C14.93 3.87341 13.52 4.58341 12.61 5.81341C12.33 6.19341 11.69 6.19341 11.41 5.81341C10.48 4.57341 9.08 3.87341 7.56 3.87341Z" fill="#A20000"/>
</svg>
