<svg width="24" height="25" viewBox="0 0 24 25" fill="none" xmlns="http://www.w3.org/2000/svg">
<path d="M18.0547 3.36709C17.9319 3.41284 17.8549 3.48749 17.7827 3.62716C17.7009 3.7885 16.6902 6.47111 16.6902 6.5265C16.6902 6.55058 16.6998 6.58429 16.7094 6.60115C16.7455 6.65894 16.9693 6.736 17.1378 6.74563C17.3472 6.76249 17.4506 6.71433 17.6119 6.53613C17.749 6.38442 17.7779 6.30977 18.2304 5.03108C18.6635 3.80054 18.6852 3.68977 18.5288 3.50194C18.4108 3.36468 18.2183 3.3093 18.0547 3.36709Z" fill="#2F3B42"/>
<path d="M14.1391 4.58559C13.9611 4.62171 13.6578 4.78787 13.3907 4.99497C12.3006 5.8378 11.711 6.22068 10.7676 6.69507C8.80151 7.67757 6.77282 8.14715 4.47701 8.14956C3.79838 8.14956 3.18472 8.18086 2.81652 8.23625C1.6229 8.40963 0.792651 8.93218 0.361886 9.77742C0.000910408 10.483 -0.0953499 11.4631 0.0971707 12.4263C0.335415 13.6063 0.925009 14.3937 1.78654 14.6731C2.1403 14.7886 2.4363 14.8199 3.24969 14.8272L3.97165 14.832L4.09919 14.8994C4.17139 14.9379 4.25561 15.0078 4.29893 15.068C4.37113 15.1643 4.37353 15.1763 4.3615 15.3497C4.35428 15.4485 4.33262 15.6556 4.31096 15.8073C4.15213 16.9559 4.13529 18.3863 4.26283 19.5759C4.3254 20.1659 4.40241 20.3923 4.60456 20.5801C4.85483 20.8137 5.23266 20.8618 5.84632 20.7318C6.84261 20.5247 7.32391 20.2574 7.5429 19.795C7.72339 19.4122 7.69451 19.0317 7.46589 18.7764C7.35279 18.6536 7.3215 18.5645 7.34076 18.4369C7.36001 18.2996 7.40814 18.1889 7.53568 17.9866C7.66804 17.7723 7.71377 17.6422 7.71377 17.4809C7.71377 17.3725 7.70173 17.3364 7.62954 17.2425C7.29022 16.7994 7.32872 16.3033 7.75468 15.5857L7.87019 15.3931L7.97848 15.4099C8.14694 15.434 8.66193 15.5592 8.92905 15.6411C9.55474 15.8337 10.4524 16.2431 11.1671 16.6621C11.6364 16.9367 12.4401 17.4712 13.0442 17.9119C13.7276 18.4104 14.0236 18.5525 14.3678 18.5525C14.5386 18.5501 14.736 18.4778 14.8852 18.3598C15.0656 18.2153 15.2702 17.8782 15.4772 17.3797C16.1799 15.6844 16.4855 13.7243 16.4422 11.1717C16.4157 9.73889 16.3291 8.75398 16.1462 7.82446C15.867 6.4061 15.3568 5.16594 14.902 4.79269C14.6854 4.61449 14.3894 4.53502 14.1391 4.58559ZM14.3966 5.62588C14.9549 6.22309 15.3376 7.90634 15.4651 10.3289C15.5012 11.0104 15.4796 12.7394 15.429 13.3631C15.3135 14.7381 15.1451 15.8145 14.9453 16.431C14.8081 16.8524 14.517 17.3894 14.3774 17.4761C14.3028 17.5218 14.2258 17.4737 14.1247 17.3195C13.7373 16.7296 13.5327 15.9927 13.3594 14.5551C13.1453 12.8044 13.1164 11.073 13.2752 9.34637C13.422 7.73296 13.6217 6.80344 13.9707 6.10268C14.0718 5.89559 14.2835 5.54883 14.31 5.54883C14.3172 5.54883 14.3557 5.58495 14.3966 5.62588ZM12.5893 7.09241C12.0407 10.0158 12.0407 13.1078 12.5942 16.0649C12.6327 16.2672 12.6591 16.4334 12.6567 16.4334C12.6519 16.4334 12.5581 16.3756 12.4498 16.3057C11.8842 15.9397 10.924 15.4388 10.2767 15.1715C8.45738 14.4226 6.66453 14.0494 4.72729 14.0156C4.45535 14.0132 4.21711 14.0012 4.20026 13.9892C4.12807 13.9434 4.05587 13.6015 3.96683 12.8694C3.91148 12.4263 3.90426 10.8322 3.9548 10.377C4.0294 9.70759 4.12085 9.2067 4.1762 9.17299C4.18823 9.16577 4.50589 9.12242 4.8789 9.07426C5.78134 8.96349 6.76319 8.82141 7.54531 8.68897C9.12157 8.42408 9.99995 8.13992 11.2634 7.48974C11.7062 7.26097 12.5677 6.78899 12.611 6.74805C12.6543 6.70952 12.6495 6.76731 12.5893 7.09241ZM2.94166 9.34396L2.99701 9.37768V11.5546C2.99701 13.3221 2.9922 13.7363 2.96573 13.7556C2.91038 13.8013 2.39779 13.8374 2.18361 13.811C1.46647 13.7195 1.15844 13.3077 1.01164 12.2313C0.956294 11.8339 0.973139 11.0441 1.04533 10.6636C1.13919 10.1579 1.25711 9.86893 1.45203 9.65942C1.71675 9.37768 2.04403 9.27413 2.59994 9.2958C2.79727 9.30303 2.90556 9.31988 2.94166 9.34396ZM6.01236 15.2293C6.46238 15.422 6.71025 15.54 6.74635 15.5809L6.79929 15.6435L6.72228 15.7398C6.42388 16.1083 6.32762 16.2768 6.28671 16.5201C6.26745 16.6308 6.26745 16.7031 6.29152 16.8042C6.3204 16.9294 6.34928 16.9824 6.55624 17.269C6.6188 17.3533 6.64287 17.4135 6.65009 17.505C6.65972 17.6157 6.6525 17.635 6.57308 17.7313C6.17841 18.2033 6.20248 18.8198 6.62843 19.2388C6.73672 19.3423 6.74876 19.3977 6.68378 19.4627C6.62362 19.5229 5.09308 20.0334 5.0642 20.0045C5.04495 19.9853 5.22062 15.8 5.26875 15.1499C5.28079 14.9981 5.29523 14.9404 5.3217 14.9404C5.32892 14.9404 5.63936 15.0704 6.01236 15.2293Z" fill="#2F3B42"/>
<path d="M21.0337 6.91661C20.7883 7.03461 18.0473 8.79492 17.9341 8.90809C17.7874 9.05499 17.7368 9.16576 17.7368 9.34637C17.7368 9.5053 17.7753 9.58236 17.9005 9.67627C18.0039 9.75333 18.2133 9.75574 18.389 9.68591C18.5213 9.63293 21.13 7.94005 21.3827 7.74499C21.6017 7.57642 21.6931 7.4199 21.6955 7.22244C21.6955 6.89012 21.3899 6.74804 21.0337 6.91661Z" fill="#2F3B42"/>
<path d="M19.2768 11.3258C18.6223 11.3378 18.3672 11.3499 18.3142 11.3715C18.1819 11.4293 18.0904 11.5184 18.0471 11.6292C17.9894 11.7833 18.0255 11.8941 18.1843 12.0362C18.3263 12.1638 18.4875 12.2288 18.745 12.2649C18.9784 12.2987 23.1393 12.3011 23.3342 12.2698C23.6783 12.212 23.8612 12.1108 23.9551 11.923C24.0056 11.8194 24.0104 11.7954 23.984 11.7111C23.9455 11.581 23.8877 11.5353 23.6687 11.4631C23.2524 11.3258 23.2018 11.3234 21.6232 11.3162C20.8218 11.3138 19.7678 11.3186 19.2768 11.3258Z" fill="#2F3B42"/>
<path d="M17.9773 13.9627C17.9364 13.9796 17.8738 14.0301 17.8378 14.0711C17.6837 14.2565 17.7487 14.531 17.9918 14.7285C18.0808 14.8007 20.6774 16.4767 21.0673 16.7151C21.1732 16.7802 21.2237 16.7946 21.3296 16.7946C21.4475 16.7946 21.4692 16.7874 21.551 16.7031C21.7892 16.4671 21.7074 16.0866 21.3609 15.8218C21.178 15.6821 18.7113 14.1072 18.5308 14.0157C18.3624 13.929 18.1025 13.9049 17.9773 13.9627Z" fill="#2F3B42"/>
<path d="M17.1136 16.8909C17.0221 16.9198 16.9138 17.0234 16.8537 17.1414C16.767 17.3099 16.7935 17.4038 17.2628 18.6609C17.7609 19.9949 17.7441 19.954 17.8427 20.0889C17.9414 20.2237 18.0473 20.2863 18.1772 20.2863C18.3481 20.2863 18.4805 20.19 18.5551 20.0166C18.596 19.9131 18.6032 19.6674 18.5647 19.5278C18.5262 19.3881 17.7272 17.2305 17.6767 17.1317C17.5684 16.9198 17.3398 16.8235 17.1136 16.8909Z" fill="#2F3B42"/>
</svg>
