<svg width="24" height="25" viewBox="0 0 24 25" fill="none" xmlns="http://www.w3.org/2000/svg">
<path fill-rule="evenodd" clip-rule="evenodd" d="M20.9081 16.0428C21.4492 14.8303 21.75 13.487 21.75 12.0735C21.75 6.68868 17.3848 2.32346 12 2.32346C6.61522 2.32346 2.25 6.68868 2.25 12.0735C2.25 17.4582 6.61522 21.8235 12 21.8235C15.7282 21.8235 18.9676 19.731 20.6079 16.6564C20.7578 16.4929 20.883 16.2962 20.9615 16.0606L20.9081 16.0428ZM3.75 12.0735C3.75 11.8745 3.75704 11.6772 3.77089 11.4818C4.2152 12.2077 4.92987 12.8235 6 12.8235C6.73689 12.8235 7.42783 12.5717 7.92381 12.0048C8.40832 11.4511 8.625 10.6902 8.625 9.82346C8.625 8.92191 8.74926 8.61969 8.85452 8.47313C8.96921 8.31342 9.12072 8.22319 9.54126 7.97273C9.60749 7.93329 9.6804 7.88986 9.76087 7.84158C10.8437 7.19185 11.5463 6.27849 11.9024 5.36023C12.0973 4.85756 12.197 4.32668 12.1803 3.82539C14.0887 3.8663 15.8376 4.55527 17.2157 5.68105C16.7014 5.84818 16.1702 6.06864 15.7023 6.34866C15.2346 6.62858 14.7722 7.00213 14.4776 7.49654C14.1651 8.02092 14.0662 8.64379 14.2885 9.31063C14.6142 10.2877 15.156 11.0556 15.5451 11.607C15.6514 11.7576 15.7463 11.8921 15.8222 12.0103C16.0185 12.3156 16.0869 12.4937 16.0989 12.6231C16.1073 12.7141 16.0964 12.8616 15.9 13.1235C15.2541 13.9847 14.9986 14.8363 15.081 15.5915C15.1626 16.3402 15.5793 16.9516 16.1646 17.2443C16.4743 17.3991 16.8869 17.4808 17.2762 17.5191C17.5579 17.5468 17.8658 17.5554 18.1786 17.5406C16.6671 19.2475 14.4592 20.3235 12 20.3235C11.789 20.3235 11.5798 20.3155 11.3727 20.3C11.5782 19.9309 11.6979 19.5168 11.7503 19.1176C11.8783 18.1445 11.6583 17.034 11.1406 16.1835C10.3386 14.8658 9.0298 14.033 7.36584 14.3356C6.58075 14.4783 5.80439 14.9375 5.23485 15.4364C5.04858 15.5996 4.8739 15.776 4.72097 15.96C4.10134 14.8019 3.75 13.4787 3.75 12.0735ZM5.62902 17.3153C6.64736 18.5516 8.01855 19.4863 9.5885 19.9654C9.90662 19.876 10.1788 19.5634 10.2631 18.9221C10.3481 18.276 10.193 17.5115 9.85935 16.9634C9.29932 16.0434 8.54766 15.6453 7.63416 15.8114C7.19666 15.8909 6.66051 16.1817 6.2232 16.5647C6.01012 16.7514 5.84528 16.9387 5.73967 17.0991C5.66258 17.2162 5.6373 17.2877 5.62902 17.3153ZM4.91454 10.4445C4.66621 9.91091 4.53831 9.22907 4.50745 8.61556C5.63867 6.16852 7.9334 4.3695 10.6819 3.92818C10.6836 4.17692 10.6346 4.48063 10.5039 4.81794C10.2662 5.43092 9.78126 6.08006 8.98913 6.55534C8.931 6.59022 8.87007 6.62568 8.80725 6.66223C8.41525 6.89038 7.94999 7.16115 7.63616 7.59814C7.24453 8.14345 7.125 8.85 7.125 9.82346C7.125 10.4567 6.96668 10.8208 6.79494 11.0171C6.63467 11.2002 6.38811 11.3235 6 11.3235C5.55713 11.3235 5.20041 11.0588 4.91454 10.4445ZM19.3981 15.7287C19.3666 15.7494 19.328 15.7716 19.281 15.7946C19.0727 15.8968 18.7766 15.9751 18.428 16.0161C18.0851 16.0564 17.729 16.0564 17.423 16.0263C17.0975 15.9943 16.9007 15.9353 16.8354 15.9026C16.7499 15.8599 16.604 15.7213 16.5721 15.4289C16.541 15.1429 16.6209 14.6623 17.1 14.0235C17.4661 13.5353 17.6427 13.0266 17.5925 12.4848C17.5459 11.9814 17.3096 11.5501 17.084 11.1991C16.9573 11.002 16.8267 10.8161 16.6969 10.6313C16.3252 10.1019 15.9601 9.58195 15.7115 8.83628C15.6338 8.60312 15.6661 8.43224 15.7661 8.26443C15.884 8.06666 16.1154 7.84958 16.4726 7.63576C17.0457 7.29281 17.7935 7.04598 18.4279 6.90152C19.5677 8.31632 20.25 10.1152 20.25 12.0735C20.25 13.386 19.9435 14.627 19.3981 15.7287Z" fill="#2F3B42"/>
</svg>
