<svg width="24" height="25" viewBox="0 0 24 25" fill="none" xmlns="http://www.w3.org/2000/svg">
<path d="M7.5 5.32349C7.5 5.7377 7.16421 6.07349 6.75 6.07349H6C5.58579 6.07349 5.25 5.7377 5.25 5.32349C5.25 4.90927 5.58579 4.57349 6 4.57349H6.75C7.16421 4.57349 7.5 4.90927 7.5 5.32349Z" fill="#2F3B42"/>
<path d="M9.75 6.07349C10.1642 6.07349 10.5 5.7377 10.5 5.32349C10.5 4.90927 10.1642 4.57349 9.75 4.57349H9C8.58579 4.57349 8.25 4.90927 8.25 5.32349C8.25 5.7377 8.58579 6.07349 9 6.07349H9.75Z" fill="#2F3B42"/>
<path fill-rule="evenodd" clip-rule="evenodd" d="M5.25 2.32349C3.59315 2.32349 2.25 3.66663 2.25 5.32349V21.0735C2.25 21.4877 2.58579 21.8235 3 21.8235H5.25H10.875H16.125H21C21.4142 21.8235 21.75 21.4877 21.75 21.0735V5.32349C21.75 3.66663 20.4069 2.32349 18.75 2.32349H5.25ZM3.75 8.32349H18C18.4142 8.32349 18.75 7.9877 18.75 7.57349C18.75 7.15927 18.4142 6.82349 18 6.82349H3.75V5.32349C3.75 4.49506 4.42157 3.82349 5.25 3.82349H18.75C19.5784 3.82349 20.25 4.49506 20.25 5.32349V20.3235H16.125H10.6875H5.25H3.75V8.32349Z" fill="#2F3B42"/>
<path fill-rule="evenodd" clip-rule="evenodd" d="M10.0337 12.0735C9.29638 12.0735 8.69864 12.6712 8.69864 13.4086C8.69864 14.1459 9.29638 14.7437 10.0337 14.7437C10.7711 14.7437 11.3688 14.1459 11.3688 13.4086C11.3688 12.6712 10.7711 12.0735 10.0337 12.0735ZM9.14367 13.4086C9.14367 12.917 9.54217 12.5185 10.0337 12.5185C10.5253 12.5185 10.9238 12.917 10.9238 13.4086C10.9238 13.9002 10.5253 14.2987 10.0337 14.2987C9.54217 14.2987 9.14367 13.9002 9.14367 13.4086Z" fill="#2F3B42"/>
<path fill-rule="evenodd" clip-rule="evenodd" d="M10.0337 14.9662C9.00936 14.9662 8.37604 15.2849 8.00533 15.7412C7.64186 16.1886 7.56359 16.7291 7.5625 17.1129C7.5612 17.574 7.96202 17.8589 8.3631 17.8589H11.7044C12.1055 17.8589 12.5063 17.574 12.505 17.1129C12.5039 16.7291 12.4256 16.1886 12.0621 15.7412C11.6914 15.2849 11.0581 14.9662 10.0337 14.9662ZM8.00754 17.1141C8.00848 16.7789 8.07844 16.357 8.35075 16.0218C8.61583 15.6955 9.10584 15.4112 10.0337 15.4112C10.9616 15.4112 11.4517 15.6955 11.7167 16.0218C11.989 16.357 12.059 16.7789 12.0599 17.1141C12.0604 17.2711 11.9213 17.4139 11.7044 17.4139H8.3631C8.14614 17.4139 8.00709 17.2711 8.00754 17.1141Z" fill="#2F3B42"/>
<path d="M16.2703 17.4778H14.0377C13.8089 17.4778 13.6191 17.2881 13.6191 17.0592C13.6191 16.8304 13.8089 16.6406 14.0377 16.6406H16.2703C16.4991 16.6406 16.6889 16.8304 16.6889 17.0592C16.6889 17.2881 16.4991 17.4778 16.2703 17.4778Z" fill="#2F3B42"/>
<path d="M16.2703 15.3848H14.0377C13.8089 15.3848 13.6191 15.195 13.6191 14.9662C13.6191 14.7374 13.8089 14.5476 14.0377 14.5476H16.2703C16.4991 14.5476 16.6889 14.7374 16.6889 14.9662C16.6889 15.195 16.4991 15.3848 16.2703 15.3848Z" fill="#2F3B42"/>
<path d="M16.2703 13.2918H14.0377C13.8089 13.2918 13.6191 13.102 13.6191 12.8732C13.6191 12.6444 13.8089 12.4546 14.0377 12.4546H16.2703C16.4991 12.4546 16.6889 12.6444 16.6889 12.8732C16.6889 13.102 16.4991 13.2918 16.2703 13.2918Z" fill="#2F3B42"/>
<path d="M15.6231 19.8235H8.50822C5.9617 19.8235 5.1875 19.1537 5.1875 16.9547V12.3668C5.1875 10.1677 5.9617 9.49792 8.50822 9.49792H15.6167C18.1633 9.49792 18.9375 10.1677 18.9375 12.3668V16.9491C18.9439 19.1537 18.1697 19.8235 15.6231 19.8235ZM8.50822 10.3351C6.49915 10.3351 6.14725 10.6365 6.14725 12.3668V16.9491C6.14725 18.6793 6.49915 18.9807 8.50822 18.9807H15.6167C17.6258 18.9807 17.9777 18.6793 17.9777 16.9491V12.3668C17.9777 10.6365 17.6258 10.3351 15.6167 10.3351H8.50822Z" fill="#2F3B42"/>
</svg>
