<svg width="24" height="25" viewBox="0 0 24 25" fill="none" xmlns="http://www.w3.org/2000/svg">
<path d="M7.5 5.32349C7.5 5.7377 7.16421 6.07349 6.75 6.07349H6C5.58579 6.07349 5.25 5.7377 5.25 5.32349C5.25 4.90927 5.58579 4.57349 6 4.57349H6.75C7.16421 4.57349 7.5 4.90927 7.5 5.32349Z" fill="#2F3B42"/>
<path d="M9.75 6.07349C10.1642 6.07349 10.5 5.7377 10.5 5.32349C10.5 4.90927 10.1642 4.57349 9.75 4.57349H9C8.58579 4.57349 8.25 4.90927 8.25 5.32349C8.25 5.7377 8.58579 6.07349 9 6.07349H9.75Z" fill="#2F3B42"/>
<path fill-rule="evenodd" clip-rule="evenodd" d="M5.25 2.32349C3.59315 2.32349 2.25 3.66663 2.25 5.32349V21.0735C2.25 21.4877 2.58579 21.8235 3 21.8235H5.25H10.875H16.125H21C21.4142 21.8235 21.75 21.4877 21.75 21.0735V5.32349C21.75 3.66663 20.4069 2.32349 18.75 2.32349H5.25ZM3.75 8.32349H18C18.4142 8.32349 18.75 7.9877 18.75 7.57349C18.75 7.15927 18.4142 6.82349 18 6.82349H3.75V5.32349C3.75 4.49506 4.42157 3.82349 5.25 3.82349H18.75C19.5784 3.82349 20.25 4.49506 20.25 5.32349V20.3235H16.125H10.6875H5.25H3.75V8.32349Z" fill="#2F3B42"/>
<path d="M12.1249 19.6855C11.5277 19.6855 10.9714 19.4558 10.5529 19.0372L7.29129 15.7757C6.87275 15.3572 6.64307 14.7957 6.64307 14.2036C6.64307 13.6115 6.87275 13.0501 7.29129 12.6315L10.5529 9.36995C10.9714 8.95141 11.5329 8.72174 12.1249 8.72174C12.717 8.72174 13.2785 8.95141 13.697 9.36995L16.9586 12.6315C17.3771 13.0501 17.6068 13.6115 17.6068 14.2036C17.6068 14.7957 17.3771 15.3572 16.9586 15.7757L13.697 19.0372C13.2785 19.4558 12.7221 19.6855 12.1249 19.6855ZM12.1249 9.47715C11.7319 9.47715 11.3644 9.63028 11.0939 9.9008L7.83233 13.1623C7.55671 13.438 7.40869 13.8055 7.40869 14.1934C7.40869 14.5813 7.56181 14.9539 7.83233 15.2244L11.0939 18.486C11.64 19.0322 12.6098 19.0322 13.156 18.486L16.4175 15.2244C16.6932 14.9488 16.8412 14.5864 16.8412 14.1934C16.8412 13.8004 16.6881 13.4329 16.4175 13.1623L13.156 9.9008C12.8855 9.63028 12.518 9.47715 12.1249 9.47715Z" fill="#2F3B42"/>
<path d="M15.0599 17.5162C14.9629 17.5162 14.866 17.4805 14.7894 17.404L8.91961 11.5342C8.77159 11.3861 8.77159 11.1411 8.91961 10.9931C9.06763 10.8451 9.31263 10.8451 9.46065 10.9931L15.3304 16.8629C15.4785 17.0109 15.4785 17.2559 15.3304 17.404C15.2539 17.4805 15.1569 17.5162 15.0599 17.5162Z" fill="#2F3B42"/>
<path d="M9.19013 17.5162C9.09315 17.5162 8.99617 17.4805 8.91961 17.404C8.77159 17.2559 8.77159 17.0109 8.91961 16.8629L14.7894 10.9931C14.9374 10.8451 15.1824 10.8451 15.3304 10.9931C15.4785 11.1411 15.4785 11.3861 15.3304 11.5342L9.46065 17.404C9.38409 17.4805 9.28711 17.5162 9.19013 17.5162Z" fill="#2F3B42"/>
</svg>
