<svg width="24" height="25" viewBox="0 0 24 25" fill="none" xmlns="http://www.w3.org/2000/svg">
<path d="M8.25 10.5735C9.07843 10.5735 9.75 9.90188 9.75 9.07346C9.75 8.24503 9.07843 7.57346 8.25 7.57346C7.42157 7.57346 6.75 8.24503 6.75 9.07346C6.75 9.90188 7.42157 10.5735 8.25 10.5735Z" fill="#2F3B42"/>
<path d="M9.75 12.8235C9.75 13.6519 9.07843 14.3235 8.25 14.3235C7.42157 14.3235 6.75 13.6519 6.75 12.8235C6.75 11.995 7.42157 11.3235 8.25 11.3235C9.07843 11.3235 9.75 11.995 9.75 12.8235Z" fill="#2F3B42"/>
<path d="M12 12.0735C12.8284 12.0735 13.5 11.4019 13.5 10.5735C13.5 9.74503 12.8284 9.07346 12 9.07346C11.1716 9.07346 10.5 9.74503 10.5 10.5735C10.5 11.4019 11.1716 12.0735 12 12.0735Z" fill="#2F3B42"/>
<path d="M17.818 9.09585C18.2198 8.99538 18.627 9.23969 18.7275 9.64153C19.1429 11.303 18.9344 12.7561 18.6246 13.789C18.4697 14.3055 18.2884 14.7207 18.1435 15.0104C18.0709 15.1555 18.0071 15.2699 17.9598 15.3506C17.9361 15.3909 17.9165 15.4229 17.9019 15.4462C17.8946 15.4578 17.8885 15.4673 17.8839 15.4745L17.8779 15.4837L17.8757 15.487L17.8748 15.4883C17.8746 15.4886 17.874 15.4895 17.25 15.0735L17.874 15.4895C17.6443 15.8341 17.1786 15.9273 16.834 15.6975C16.4901 15.4683 16.3966 15.0042 16.6244 14.6598L16.6314 14.6487C16.6384 14.6376 16.6503 14.6183 16.6662 14.5913C16.6979 14.5372 16.7455 14.4523 16.8018 14.3396C16.9148 14.1137 17.0616 13.7789 17.1879 13.358C17.4405 12.5158 17.607 11.3439 17.2723 10.0054C17.1718 9.60353 17.4161 9.19633 17.818 9.09585Z" fill="#2F3B42"/>
<path d="M16.374 17.7395C16.6038 17.3948 16.5107 16.9292 16.166 16.6994C15.8214 16.4697 15.3557 16.5628 15.126 16.9074C14.8527 17.3174 14.419 17.6192 14.0083 17.8245C13.8089 17.9242 13.629 17.9942 13.5008 18.0385C13.437 18.0606 13.387 18.076 13.355 18.0854C13.339 18.0901 13.3275 18.0933 13.3212 18.095L13.3158 18.0964C12.9154 18.1979 12.6721 18.6043 12.7724 19.0054C12.8729 19.4072 13.2801 19.6515 13.6819 19.5511L13.5 18.8235C13.6819 19.5511 13.6817 19.5511 13.6819 19.5511L13.6839 19.5506L13.6864 19.5499L13.6931 19.5482L13.7129 19.543C13.7289 19.5386 13.7504 19.5326 13.7769 19.5249C13.8298 19.5094 13.9028 19.4867 13.9914 19.456C14.1679 19.3949 14.4099 19.3008 14.6792 19.1662C15.206 18.9027 15.8973 18.4545 16.374 17.7395Z" fill="#2F3B42"/>
<path fill-rule="evenodd" clip-rule="evenodd" d="M12 2.32346C6.61522 2.32346 2.25 6.68868 2.25 12.0735C2.25 17.4582 6.61522 21.8235 12 21.8235C17.3848 21.8235 21.75 17.4582 21.75 12.0735C21.75 6.68868 17.3848 2.32346 12 2.32346ZM3.75 12.0735C3.75 7.51711 7.44365 3.82346 12 3.82346C16.5563 3.82346 20.25 7.51711 20.25 12.0735C20.25 16.6298 16.5563 20.3235 12 20.3235C7.44365 20.3235 3.75 16.6298 3.75 12.0735Z" fill="#2F3B42"/>
</svg>
