<svg width="25" height="25" viewBox="0 0 25 25" fill="none" xmlns="http://www.w3.org/2000/svg">
<path fill-rule="evenodd" clip-rule="evenodd" d="M23.3433 5.56053C23.6146 5.83188 23.6146 6.27182 23.3433 6.54317L20.5295 9.35696C19.4811 10.4053 17.7814 10.4053 16.733 9.35696C16.6159 9.2398 16.4259 9.2398 16.3088 9.35696L12.0881 13.5776C12.0601 13.6057 12.0305 13.6306 11.9996 13.6527C11.8806 13.7376 11.8402 13.8959 11.9038 14.0275C12.3877 15.0278 12.214 16.2655 11.3846 17.0949L7.16396 21.3156C6.11561 22.3639 4.41589 22.3639 3.36753 21.3156C2.31918 20.2672 2.31918 18.5675 3.36753 17.5192L7.58822 13.2985C8.41762 12.4691 9.65535 12.2954 10.6556 12.7793C10.7872 12.8429 10.9455 12.8025 11.0304 12.6835C11.0525 12.6526 11.0775 12.623 11.1055 12.595L15.3262 8.37433C15.4433 8.25717 15.4433 8.06722 15.3262 7.95006C14.2778 6.90171 14.2778 5.20199 15.3262 4.15364L18.1399 1.33984C18.4113 1.0685 18.8512 1.0685 19.1226 1.33984C19.3939 1.61119 19.3939 2.05113 19.1226 2.32248L16.3088 5.13627C15.8031 5.64193 15.8031 6.46177 16.3088 6.96743C16.4259 7.08459 16.6159 7.08459 16.733 6.96743L20.2503 3.45019C20.5216 3.17884 20.9616 3.17884 21.2329 3.45019C21.5043 3.72153 21.5043 4.16147 21.2329 4.43282L17.7157 7.95006C17.5985 8.06722 17.5985 8.25717 17.7157 8.37433C18.2213 8.87999 19.0412 8.87999 19.5468 8.37433L22.3606 5.56053C22.632 5.28919 23.0719 5.28919 23.3433 5.56053ZM10.402 14.2811C10.9077 14.7868 10.9077 15.6066 10.402 16.1123L6.18133 20.3329C5.67567 20.8386 4.85583 20.8386 4.35017 20.3329C3.84451 19.8273 3.8445 19.0074 4.35017 18.5018L8.57086 14.2811C9.07652 13.7754 9.89635 13.7754 10.402 14.2811Z" fill="#2F3B42"/>
<path fill-rule="evenodd" clip-rule="evenodd" d="M3.96164 2.51503C4.14306 2.3434 4.37325 2.25306 4.60602 2.244C4.63739 2.24276 4.66867 2.24302 4.69978 2.24474C4.94225 2.25812 5.17381 2.36003 5.3484 2.53462L14.4932 11.6794C14.533 11.7192 14.5687 11.7615 14.6003 11.8058C15.7119 11.2681 17.088 11.4604 18.0105 12.3829L22.2312 16.6036C23.3967 17.7691 23.3967 19.6588 22.2312 20.8243C21.0656 21.9898 19.176 21.9898 18.0105 20.8243L13.7898 16.6036C12.8673 15.6811 12.675 14.3051 13.2127 13.1934C13.1684 13.1618 13.1261 13.1261 13.0863 13.0863L10.8218 10.8218L9.96871 11.3336C8.40295 12.2731 6.39875 12.0263 5.10759 10.7352L3.47887 9.10646C2.18771 7.8153 1.94098 5.81109 2.88043 4.24533L3.78041 2.74537C3.8184 2.6788 3.8647 2.61567 3.91931 2.55752C3.93301 2.54291 3.94713 2.52874 3.96164 2.51503ZM4.84246 4.84247L4.58655 5.269C4.11682 6.05188 4.24018 7.05398 4.88576 7.69956L6.51448 9.32829C7.16006 9.97387 8.16217 10.0972 8.94505 9.6275L9.37158 9.37158L4.84246 4.84247ZM15.1967 13.7898C14.8082 14.1783 14.8082 14.8082 15.1967 15.1967L19.4174 19.4174C19.8059 19.8059 20.4358 19.8059 20.8243 19.4174C21.2128 19.0289 21.2128 18.399 20.8243 18.0105L16.6036 13.7898C16.2151 13.4013 15.5852 13.4013 15.1967 13.7898Z" fill="#2F3B42"/>
<path fill-rule="evenodd" clip-rule="evenodd" d="M4.1677 2.73308C4.15756 2.74265 4.1477 2.75255 4.13814 2.76274C4.0998 2.80357 4.0674 2.84777 4.04098 2.89406L4.03773 2.89975L3.13769 4.39968C2.26906 5.8474 2.49719 7.70051 3.69101 8.89433L5.31973 10.5231C6.51355 11.7169 8.36666 11.945 9.81437 11.0764L10.6674 10.5645C10.7855 10.4937 10.9366 10.5123 11.0339 10.6096L13.2985 12.8742C13.3265 12.9022 13.3561 12.9272 13.387 12.9492C13.5059 13.0342 13.5464 13.1925 13.4827 13.324C12.9989 14.3243 13.1725 15.562 14.0019 16.3914L18.2226 20.6121C19.271 21.6605 20.9707 21.6605 22.019 20.6121C23.0674 19.5638 23.0674 17.8641 22.019 16.8157L17.7983 12.595C16.9689 11.7656 15.7312 11.592 14.7309 12.0758C14.5994 12.1395 14.4411 12.099 14.3561 11.9801C14.3341 11.9492 14.3091 11.9196 14.2811 11.8916L5.13628 2.74675C5.01436 2.62483 4.85263 2.55363 4.68327 2.54428M3.75548 2.2971C3.73667 2.31487 3.71837 2.33324 3.70062 2.35216L3.75548 2.2971ZM3.75548 2.2971C3.99165 2.07373 4.29182 1.956 4.59436 1.94422C4.59433 1.94422 4.59439 1.94422 4.59436 1.94422C4.63516 1.94262 4.67585 1.94296 4.71632 1.94519C5.03189 1.96261 5.33329 2.09523 5.56054 2.32248L14.6807 11.4427C14.6095 11.4711 14.5391 11.5021 14.4697 11.5357L14.6003 11.8058L14.8445 11.6315C14.8033 11.5738 14.7569 11.5188 14.7054 11.4673L14.6807 11.4427C15.8631 10.9707 17.2648 11.2129 18.2226 12.1708L22.4433 16.3914C23.726 17.6741 23.726 19.7537 22.4433 21.0364C21.1606 22.3191 19.081 22.3191 17.7983 21.0364L13.5777 16.8157C12.6198 15.8579 12.3776 14.4562 12.8496 13.2738L12.8742 13.2985C12.9257 13.35 12.9807 13.3964 13.0384 13.4376L13.2127 13.1934L12.9426 13.0628C12.909 13.1322 12.878 13.2026 12.8496 13.2738L10.7753 11.1995L10.9761 11.079L10.8218 10.8218L10.6096 11.0339L10.7753 11.1995L10.1231 11.5909C8.43927 12.6011 6.28396 12.3358 4.89546 10.9473L3.26674 9.31859C1.87824 7.93009 1.61291 5.77479 2.62319 4.09098L3.5216 2.59364C3.57081 2.50795 3.63061 2.42674 3.70062 2.35216M4.1677 2.73308C4.29434 2.61326 4.45475 2.55011 4.6177 2.54377L4.1677 2.73308ZM4.6177 2.54377C4.6396 2.54291 4.66155 2.54309 4.68327 2.54428L4.6177 2.54377ZM4.80582 4.54472C4.8975 4.53343 4.98928 4.56502 5.0546 4.63034L9.58372 9.15945C9.64904 9.22478 9.68062 9.31655 9.66934 9.40824C9.65805 9.49993 9.60515 9.5813 9.52593 9.62883L9.0994 9.88475C8.19848 10.4253 7.04528 10.2833 6.30236 9.54042L4.67364 7.91169C3.93072 7.16878 3.78875 6.01557 4.32931 5.11465L4.58522 4.68812C4.63275 4.60891 4.71413 4.55601 4.80582 4.54472ZM4.90203 5.3263L4.8438 5.42335C4.4449 6.08818 4.54966 6.93919 5.0979 7.48743L6.72663 9.11615C7.27486 9.66439 8.12587 9.76916 8.79071 9.37025L8.88776 9.31202L4.90203 5.3263ZM15.4088 14.0019C15.1375 14.2733 15.1375 14.7132 15.4088 14.9845L19.6295 19.2052C19.9008 19.4766 20.3408 19.4766 20.6121 19.2052C20.8835 18.9339 20.8835 18.494 20.6121 18.2226L16.3914 14.0019C16.1201 13.7306 15.6802 13.7306 15.4088 14.0019ZM14.9845 15.4088C14.4789 14.9032 14.4789 14.0833 14.9846 13.5777C15.4902 13.072 16.31 13.072 16.8157 13.5777L21.0364 17.7983C21.5421 18.304 21.5421 19.1238 21.0364 19.6295C20.5307 20.1352 19.7109 20.1352 19.2052 19.6295L14.9845 15.4088Z" fill="#E4E4E4"/>
</svg>
