<svg width="24" height="25" viewBox="0 0 24 25" fill="none" xmlns="http://www.w3.org/2000/svg">
<path fill-rule="evenodd" clip-rule="evenodd" d="M5.25 10.5734C5.25 10.1592 5.58579 9.82344 6 9.82344H13.5C13.9142 9.82344 14.25 10.1592 14.25 10.5734V18.0734C14.25 18.4877 13.9142 18.8234 13.5 18.8234H6C5.58579 18.8234 5.25 18.4877 5.25 18.0734V10.5734ZM6.75 11.3234V17.3234H12.75V11.3234H6.75Z" fill="#2F3B42"/>
<path d="M17.25 11.3234C17.6642 11.3234 18 10.9877 18 10.5734C18 10.1592 17.6642 9.82344 17.25 9.82344C16.8358 9.82344 16.5 10.1592 16.5 10.5734C16.5 10.9877 16.8358 11.3234 17.25 11.3234Z" fill="#2F3B42"/>
<path d="M18 12.8234C18 13.2377 17.6642 13.5734 17.25 13.5734C16.8358 13.5734 16.5 13.2377 16.5 12.8234C16.5 12.4092 16.8358 12.0734 17.25 12.0734C17.6642 12.0734 18 12.4092 18 12.8234Z" fill="#2F3B42"/>
<path d="M17.25 15.8234C17.6642 15.8234 18 15.4877 18 15.0734C18 14.6592 17.6642 14.3234 17.25 14.3234C16.8358 14.3234 16.5 14.6592 16.5 15.0734C16.5 15.4877 16.8358 15.8234 17.25 15.8234Z" fill="#2F3B42"/>
<path fill-rule="evenodd" clip-rule="evenodd" d="M17.0762 3.55358C17.3413 3.23537 17.2983 2.76245 16.9801 2.49728C16.6619 2.23211 16.189 2.2751 15.9238 2.59331L12.3987 6.82344H11.6013L8.07617 2.59331C7.81099 2.2751 7.33807 2.23211 7.01986 2.49728C6.70165 2.76245 6.65866 3.23537 6.92383 3.55358L9.64872 6.82344H4.5C3.25736 6.82344 2.25 7.8308 2.25 9.07344V19.5734C2.25 20.8161 3.25736 21.8234 4.5 21.8234H19.5C20.7426 21.8234 21.75 20.8161 21.75 19.5734V9.07344C21.75 7.8308 20.7426 6.82344 19.5 6.82344H14.3513L17.0762 3.55358ZM4.5 8.32344C4.08579 8.32344 3.75 8.65923 3.75 9.07344V19.5734C3.75 19.9877 4.08579 20.3234 4.5 20.3234H19.5C19.9142 20.3234 20.25 19.9877 20.25 19.5734V9.07344C20.25 8.65923 19.9142 8.32344 19.5 8.32344H4.5Z" fill="#2F3B42"/>
</svg>
