<svg width="24" height="25" viewBox="0 0 24 25" fill="none" xmlns="http://www.w3.org/2000/svg">
<path fill-rule="evenodd" clip-rule="evenodd" d="M9.33541 8.40264C9.10292 8.28639 8.82681 8.29881 8.6057 8.43547C8.38459 8.57212 8.25 8.81352 8.25 9.07346V15.0735C8.25 15.3334 8.38459 15.5748 8.6057 15.7114C8.82681 15.8481 9.10292 15.8605 9.33541 15.7443L15.3354 12.7443C15.5895 12.6172 15.75 12.3575 15.75 12.0735C15.75 11.7894 15.5895 11.5297 15.3354 11.4026L9.33541 8.40264ZM9.75 13.8599V10.287L13.3229 12.0735L9.75 13.8599Z" fill="#2F3B42"/>
<path fill-rule="evenodd" clip-rule="evenodd" d="M3 2.32346C2.58579 2.32346 2.25 2.65924 2.25 3.07346V6.07346C2.25 6.48767 2.58579 6.82346 3 6.82346H3.75V17.3235H3C2.58579 17.3235 2.25 17.6592 2.25 18.0735V21.0735C2.25 21.4877 2.58579 21.8235 3 21.8235H21C21.4142 21.8235 21.75 21.4877 21.75 21.0735V18.0735C21.75 17.6592 21.4142 17.3235 21 17.3235H20.25V6.82346H21C21.4142 6.82346 21.75 6.48767 21.75 6.07346V3.07346C21.75 2.65924 21.4142 2.32346 21 2.32346H3ZM3.75 5.32346V3.82346H5.25V5.32346H3.75ZM8.25 5.32346H6.75V3.82346H8.25V5.32346ZM11.25 5.32346H9.75V3.82346H11.25V5.32346ZM14.25 5.32346H12.75V3.82346H14.25V5.32346ZM17.25 5.32346H15.75V3.82346H17.25V5.32346ZM18.75 5.32346V3.82346H20.25V5.32346H18.75ZM5.25 17.3235V6.82346H18.75V17.3235H5.25ZM20.25 18.8235V20.3235H18.75V18.8235H20.25ZM15.75 18.8235H17.25V20.3235H15.75V18.8235ZM12.75 18.8235H14.25V20.3235H12.75V18.8235ZM9.75 18.8235H11.25V20.3235H9.75V18.8235ZM6.75 18.8235H8.25V20.3235H6.75V18.8235ZM5.25 18.8235V20.3235H3.75V18.8235H5.25Z" fill="#2F3B42"/>
</svg>
