<svg width="24" height="25" viewBox="0 0 24 25" fill="none" xmlns="http://www.w3.org/2000/svg">
<path d="M18.19 17.8235H7.53999C6.54999 17.8235 5.59999 17.4035 4.92999 16.6735C4.25999 15.9435 3.92 14.9634 4 13.9734L4.83 4.01346C4.86 3.70346 4.74999 3.40346 4.53999 3.17346C4.32999 2.94346 4.04 2.82346 3.73 2.82346H2C1.59 2.82346 1.25 2.48346 1.25 2.07346C1.25 1.66346 1.59 1.32346 2 1.32346H3.74001C4.47001 1.32346 5.15999 1.63345 5.64999 2.16345C5.91999 2.46345 6.12 2.81346 6.23 3.20346H18.72C19.73 3.20346 20.66 3.60346 21.34 4.32346C22.01 5.05346 22.35 6.00346 22.27 7.01346L21.73 14.5135C21.62 16.3435 20.02 17.8235 18.19 17.8235ZM6.28 4.69345L5.5 14.0934C5.45 14.6734 5.64 15.2234 6.03 15.6534C6.42 16.0834 6.95999 16.3134 7.53999 16.3134H18.19C19.23 16.3134 20.17 15.4335 20.25 14.3935L20.79 6.89346C20.83 6.30346 20.64 5.74347 20.25 5.33347C19.86 4.91347 19.32 4.68344 18.73 4.68344H6.28V4.69345Z" fill="#2F3B42"/>
<path d="M16.25 22.8235C15.15 22.8235 14.25 21.9235 14.25 20.8235C14.25 19.7235 15.15 18.8235 16.25 18.8235C17.35 18.8235 18.25 19.7235 18.25 20.8235C18.25 21.9235 17.35 22.8235 16.25 22.8235ZM16.25 20.3235C15.97 20.3235 15.75 20.5435 15.75 20.8235C15.75 21.1035 15.97 21.3235 16.25 21.3235C16.53 21.3235 16.75 21.1035 16.75 20.8235C16.75 20.5435 16.53 20.3235 16.25 20.3235Z" fill="#2F3B42"/>
<path d="M8.25 22.8235C7.15 22.8235 6.25 21.9235 6.25 20.8235C6.25 19.7235 7.15 18.8235 8.25 18.8235C9.35 18.8235 10.25 19.7235 10.25 20.8235C10.25 21.9235 9.35 22.8235 8.25 22.8235ZM8.25 20.3235C7.97 20.3235 7.75 20.5435 7.75 20.8235C7.75 21.1035 7.97 21.3235 8.25 21.3235C8.53 21.3235 8.75 21.1035 8.75 20.8235C8.75 20.5435 8.53 20.3235 8.25 20.3235Z" fill="#2F3B42"/>
<path d="M21 8.82346H9C8.59 8.82346 8.25 8.48346 8.25 8.07346C8.25 7.66346 8.59 7.32346 9 7.32346H21C21.41 7.32346 21.75 7.66346 21.75 8.07346C21.75 8.48346 21.41 8.82346 21 8.82346Z" fill="#2F3B42"/>
</svg>
