<svg width="24" height="25" viewBox="0 0 24 25" fill="none" xmlns="http://www.w3.org/2000/svg">
<path d="M4.375 1.18813C4.2125 1.35694 4.21875 1.26941 4.21875 4.1361V6.82148H3.9875C3.70938 6.82148 3.27813 6.87775 3.23438 6.91839C3.21875 6.93402 3.1875 6.94653 3.1625 6.94653C3.125 6.94653 2.90625 7.04657 2.72812 7.1466C2.6875 7.16849 2.59063 7.24039 2.50937 7.30916C2.01875 7.71869 1.77812 8.16573 1.71875 8.77534C1.68125 9.17549 1.67813 12.1735 1.71875 12.3392C1.79375 12.6737 2.23438 12.7768 2.49688 12.5205L2.60938 12.4111L2.625 10.5948C2.64375 8.71281 2.64688 8.66905 2.775 8.43146C3.01875 7.98442 3.42813 7.76246 4.00938 7.75933H4.21875V13.8241V19.8889H3.42188H2.625V17.663V15.4372L2.55625 15.3372C2.48125 15.2277 2.27188 15.1058 2.15625 15.1058C2.04062 15.1058 1.825 15.2309 1.7625 15.334C1.70625 15.4309 1.70312 15.5341 1.69375 17.6599L1.68437 19.8889H1.5375C1.31875 19.8889 1.16875 19.942 1.08125 20.0483L1 20.1452V20.8111C1 21.2394 1.0125 21.5113 1.03438 21.5676C1.05625 21.6145 1.09063 21.7052 1.11563 21.7646C1.24063 22.0741 1.37813 22.2741 1.62813 22.518C1.84062 22.7243 2.075 22.8837 2.30938 22.9775L2.47812 23.0463H11.9969H21.5156L21.6844 22.9806C21.9094 22.8962 22.15 22.7337 22.3719 22.518C22.6219 22.2741 22.7594 22.0741 22.8844 21.7646C22.9094 21.7052 22.9438 21.6145 22.9656 21.5676C22.9875 21.5113 23 21.2394 23 20.8111V20.1452L22.9188 20.0483C22.8313 19.942 22.6812 19.8889 22.4625 19.8889H22.3125V14.4868C22.3094 11.517 22.2969 8.9504 22.2844 8.78471C22.2313 8.21888 22.0125 7.79059 21.5625 7.37794C21.3594 7.19037 20.95 6.94653 20.8406 6.94653C20.8156 6.94653 20.7812 6.93402 20.7656 6.91839C20.7219 6.87775 20.2906 6.82148 20.0125 6.82148H19.7812V4.13298C19.7812 2.09472 19.7719 1.42571 19.7437 1.36007C19.7219 1.31317 19.6656 1.23502 19.6187 1.185L19.5312 1.10059L11.9938 1.10372H4.45312L4.375 1.18813ZM18.8438 4.81136V7.61553L17.15 5.91802C15.1906 3.95478 15.1625 3.92978 15.0281 3.90164C14.7844 3.85475 14.7406 3.88914 13.7625 4.8645L12.85 5.78047L12.4469 5.38344C11.9719 4.91764 11.8719 4.8645 11.65 4.97079C11.5531 5.01455 11.0188 5.53037 9.7625 6.78709L8.00938 8.54087H6.58437H5.15625V5.27403V2.00718H12H18.8438V4.81136ZM16.7031 6.79022L18.4531 8.54087H17.0312H15.6094L14.5625 7.49361L13.5156 6.44634L14.2188 5.74295C14.6062 5.35531 14.9281 5.03957 14.9375 5.03957C14.9469 5.03957 15.7406 5.82736 16.7031 6.79022ZM13.0312 7.30604L14.2656 8.54087H11.7969H9.325L10.5625 7.30604C11.2406 6.62766 11.7969 6.0712 11.7969 6.0712C11.7969 6.0712 12.3531 6.62766 13.0312 7.30604ZM20.4156 7.80622C20.7406 7.875 21.0375 8.10008 21.2156 8.41583C21.2406 8.45959 21.2875 8.57839 21.3188 8.68155C21.3719 8.85974 21.375 9.13485 21.375 14.3774V19.8889H20.5781H19.7812V13.8241V7.75933H19.9937C20.1094 7.75933 20.2969 7.78121 20.4156 7.80622ZM18.8438 11.8859V14.293H12H5.15625V11.8859V9.47872H12H18.8438V11.8859ZM18.8438 17.5755V19.8889H12H5.15625V17.5755V15.2621H12H18.8438V17.5755ZM22.0844 21.0581C22.075 21.1831 22.0562 21.3144 22.0375 21.3457C22.0219 21.38 21.9781 21.4707 21.9406 21.552C21.8438 21.7521 21.6344 21.9521 21.3875 22.0803L21.1781 22.1866H12H2.82187L2.6125 22.0803C2.36563 21.9521 2.15625 21.7521 2.05938 21.552C2.02188 21.4707 1.97813 21.38 1.9625 21.3457C1.94375 21.3144 1.925 21.1831 1.91563 21.0581L1.89688 20.8267H12H22.1031L22.0844 21.0581Z" fill="#2F3B42" stroke="#2F3B42" stroke-width="0.4"/>
<path d="M7.60317 2.75435C7.43755 2.79812 7.15942 2.9513 7.01255 3.07947C6.76567 3.29518 6.5813 3.71409 6.5813 4.05484C6.58442 4.53314 6.87192 5.00832 7.29067 5.21777C7.5813 5.3647 7.60317 5.36783 7.9188 5.36783C8.20317 5.3647 8.25317 5.35532 8.43755 5.27092C8.71567 5.13962 8.95942 4.90828 9.0938 4.64881C9.20005 4.44248 9.20317 4.42998 9.20317 4.05484C9.20317 3.6797 9.20005 3.67032 9.0938 3.46087C8.97505 3.22953 8.70005 2.95443 8.5063 2.86689C8.44067 2.83876 8.36255 2.80124 8.32817 2.78249C8.25317 2.73872 7.73755 2.71996 7.60317 2.75435ZM8.07817 3.70783C8.15005 3.73909 8.20317 3.79537 8.24692 3.88602C8.32817 4.05171 8.32817 4.05796 8.25005 4.22052C8.17505 4.37371 8.10317 4.4206 7.92505 4.4206C7.7438 4.42373 7.6813 4.39872 7.60317 4.27992C7.49692 4.12361 7.5063 3.94542 7.62505 3.80787C7.75317 3.66407 7.89692 3.6328 8.07817 3.70783Z" fill="#2F3B42"/>
<path d="M6.23125 10.304C6.17813 10.329 6.09375 10.4009 6.04375 10.4666L5.95312 10.5823V11.8984V13.2145L6.025 13.3083C6.19062 13.5177 6.14688 13.5115 7.57812 13.5115C9.00938 13.5115 8.96563 13.5177 9.13125 13.3083L9.20312 13.2145V11.8859V10.5573L9.10938 10.451C8.94062 10.2603 8.94062 10.2603 7.57187 10.2603C6.59375 10.2634 6.30625 10.2728 6.23125 10.304ZM8.25625 11.8859L8.26562 12.5736H7.57812H6.89062L6.89688 11.8953C6.90312 11.5201 6.90625 11.2106 6.90625 11.2044C6.90625 11.2012 7.20938 11.1981 7.57812 11.1981H8.24688L8.25625 11.8859Z" fill="#2F3B42"/>
<path d="M10.7031 10.2853C10.5844 10.3259 10.475 10.4197 10.425 10.526C10.3813 10.6135 10.375 10.8042 10.375 11.9077V13.1832L10.4531 13.302C10.6 13.5146 10.5688 13.5115 12.0281 13.5115H13.3438L13.4844 13.3739L13.6281 13.2395L13.6188 11.8827L13.6094 10.526L13.5187 10.4259C13.4688 10.3697 13.3781 10.3103 13.3156 10.2915C13.1906 10.2571 10.8063 10.254 10.7031 10.2853ZM12.7188 11.8859V12.5736H12.0156H11.3125V11.8859V11.1981H12.0156H12.7188V11.8859Z" fill="#2F3B42"/>
<path d="M15.075 10.304C15.0219 10.329 14.9406 10.3947 14.8938 10.4541L14.8125 10.5635V11.8984V13.2332L14.9531 13.3708L15.0906 13.5115H16.4125H17.7344L17.8469 13.4364C18.0625 13.2895 18.0625 13.2895 18.0625 11.8796C18.0625 10.4447 18.0656 10.4666 17.8125 10.3322C17.6781 10.2603 17.6688 10.2603 16.425 10.2603C15.4406 10.2634 15.15 10.2728 15.075 10.304ZM17.1031 11.8952L17.1094 12.5736H16.4219H15.7344L15.7438 11.8859L15.7531 11.1981L16.425 11.2044L17.0969 11.2137L17.1031 11.8952Z" fill="#2F3B42"/>
<path d="M6.1813 16.0937C5.9438 16.2469 5.95318 16.1812 5.95318 17.6537V18.9666L6.02505 19.0698C6.06568 19.1261 6.1563 19.198 6.22818 19.2324C6.35318 19.2918 6.42505 19.2949 8.63755 19.2949H10.9219L11.0438 19.223C11.1126 19.1855 11.1969 19.1136 11.2313 19.0667C11.2938 18.9791 11.2969 18.9385 11.3063 17.7224C11.3157 16.4251 11.3063 16.2875 11.1907 16.1718C11.0251 16.0062 11.1094 16.0124 8.61255 16.0155H6.29693L6.1813 16.0937ZM10.3751 17.6537V18.357H8.64068H6.90943L6.90005 17.6537L6.89068 16.9503H8.63443H10.3751V17.6537Z" fill="#2F3B42"/>
<path d="M12.5219 16.0937C12.1938 16.3094 12.2 16.6783 12.5375 16.894C12.6156 16.9471 12.7969 16.9503 15.15 16.9503H17.675L17.8031 16.8408C17.8906 16.7689 17.9406 16.6908 17.9688 16.597C18.0031 16.4688 18 16.4438 17.9313 16.3063C17.8781 16.2031 17.8156 16.1312 17.7313 16.0843L17.6094 16.0124L15.125 16.0155H12.6406L12.5219 16.0937Z" fill="#2F3B42"/>
<path d="M12.6125 17.7631C12.4313 17.8193 12.2812 18.0288 12.2812 18.2226C12.2812 18.3289 12.3656 18.4852 12.4688 18.5696C12.625 18.6978 12.6625 18.7009 14.2781 18.7009C15.7656 18.7009 15.8375 18.6978 15.9563 18.6384C16.1125 18.5603 16.1875 18.5009 16.1875 18.454C16.1875 18.4352 16.2031 18.4196 16.2188 18.4196C16.2375 18.4196 16.25 18.332 16.25 18.2164C16.25 18.0225 16.2438 18.0069 16.1313 17.8944C16.0469 17.81 15.9719 17.7662 15.8875 17.7537C15.7063 17.7224 12.7188 17.7318 12.6125 17.7631Z" fill="#2F3B42"/>
<path d="M17.3563 17.7631C17.2126 17.8068 17.0688 17.9819 17.0595 18.1257C17.0407 18.4164 17.122 18.5571 17.3688 18.654C17.4907 18.704 17.5095 18.704 17.6345 18.654C17.8001 18.5884 17.9001 18.4977 17.9563 18.357C18.0063 18.2445 17.997 18.1601 17.9157 17.9913C17.8313 17.8099 17.5657 17.7005 17.3563 17.7631Z" fill="#2F3B42"/>
<path d="M11.1094 21.0737C10.8813 21.13 10.7656 21.2738 10.7656 21.5145C10.7656 21.6989 10.8156 21.7896 10.9656 21.9084C11.0406 21.9646 11.1031 21.9678 12 21.9678C12.8969 21.9678 12.9594 21.9646 13.0344 21.9084C13.1844 21.7896 13.2281 21.702 13.2281 21.5145C13.2281 21.3519 13.2188 21.3238 13.1219 21.2206C13.0531 21.1456 12.9656 21.0924 12.8906 21.0768C12.7438 21.0424 11.2469 21.0424 11.1094 21.0737Z" fill="#2F3B42"/>
<path d="M1.93435 13.6365C1.79998 13.7084 1.73435 13.7991 1.70935 13.9554C1.66248 14.2649 1.87498 14.5118 2.19373 14.5118C2.30935 14.5118 2.47498 14.4087 2.5531 14.2899C2.62185 14.1867 2.63123 14.143 2.61873 13.996C2.60935 13.871 2.58435 13.8022 2.5281 13.7428C2.37185 13.574 2.13435 13.5302 1.93435 13.6365Z" fill="#2F3B42"/>
</svg>
