<svg width="24" height="25" viewBox="0 0 24 25" fill="none" xmlns="http://www.w3.org/2000/svg">
<path d="M16.7398 19.6635H7.26978C6.47978 19.6635 5.90977 19.6335 5.41977 19.5635C1.94977 19.1835 1.25977 17.1035 1.25977 13.6535V7.3335C1.25977 3.8835 1.93977 1.80346 5.43977 1.42346C5.91977 1.35346 6.48978 1.32349 7.26978 1.32349H16.7398C17.5198 1.32349 18.0898 1.35346 18.5898 1.42346C22.0698 1.80346 22.7498 3.8835 22.7498 7.3335V13.6535C22.7498 17.1035 22.0698 19.1835 18.5698 19.5635C18.0998 19.6335 17.5298 19.6635 16.7398 19.6635ZM7.25977 2.82349C6.54977 2.82349 6.03977 2.85351 5.61977 2.91351C3.45977 3.15351 2.74977 3.82351 2.74977 7.34351V13.6635C2.74977 17.1735 3.45978 17.8535 5.59978 18.0835C6.03978 18.1435 6.54978 18.1735 7.26978 18.1735H16.7398C17.4598 18.1735 17.9598 18.1435 18.3798 18.0835C20.5398 17.8435 21.2498 17.1735 21.2498 13.6535V7.3335C21.2498 3.8235 20.5398 3.14351 18.3998 2.91351C17.9498 2.85351 17.4498 2.82349 16.7298 2.82349H7.25977Z" fill="#2F3B42"/>
<path d="M17.2601 9.14355H13.5801C13.1701 9.14355 12.8301 8.80355 12.8301 8.39355C12.8301 7.98355 13.1701 7.64355 13.5801 7.64355H17.2601C17.6701 7.64355 18.0101 7.98355 18.0101 8.39355C18.0101 8.80355 17.6801 9.14355 17.2601 9.14355Z" fill="#2F3B42"/>
<path d="M10 9.39355C9.45 9.39355 9 8.94355 9 8.39355C9 7.84355 9.44 7.39355 10 7.39355C10.55 7.39355 11 7.84355 11 8.39355C11 8.94355 10.56 9.39355 10 9.39355Z" fill="#2F3B42"/>
<path d="M6.8501 9.39355C6.3001 9.39355 5.8501 8.94355 5.8501 8.39355C5.8501 7.84355 6.2901 7.39355 6.8501 7.39355H6.86009C7.41009 7.39355 7.86009 7.84355 7.86009 8.39355C7.86009 8.94355 7.4001 9.39355 6.8501 9.39355Z" fill="#2F3B42"/>
<path d="M17.2602 14.9335H6.75023C6.34023 14.9335 5.99023 14.5935 5.99023 14.1835C5.99023 13.7735 6.32022 13.4335 6.73022 13.4335H17.2602C17.6702 13.4335 18.0102 13.7735 18.0102 14.1835C18.0102 14.5935 17.6802 14.9335 17.2602 14.9335Z" fill="#2F3B42"/>
<path d="M17 22.8235H7C6.59 22.8235 6.25 22.4835 6.25 22.0735C6.25 21.6635 6.59 21.3235 7 21.3235H17C17.41 21.3235 17.75 21.6635 17.75 22.0735C17.75 22.4835 17.41 22.8235 17 22.8235Z" fill="#2F3B42"/>
</svg>
