<svg width="15" height="18" viewBox="0 0 15 18" fill="none" xmlns="http://www.w3.org/2000/svg">
<path d="M14.0909 7.54545H14.5909V7.54545L14.0909 7.54545ZM7.54545 17L7.26811 17.416C7.43605 17.528 7.65486 17.528 7.8228 17.416L7.54545 17ZM12.1738 2.91712L12.5273 2.56357V2.56357L12.1738 2.91712ZM13.5909 7.54545C13.5909 9.88994 12.0717 12.1317 10.4552 13.8379C9.6572 14.6803 8.85748 15.3691 8.25672 15.8475C7.95673 16.0864 7.70736 16.272 7.53396 16.3972C7.44728 16.4598 7.37966 16.5073 7.33428 16.5387C7.31159 16.5544 7.29446 16.5661 7.2833 16.5737C7.27772 16.5775 7.27363 16.5803 7.27108 16.582C7.2698 16.5828 7.26891 16.5834 7.26842 16.5838C7.26817 16.5839 7.26802 16.584 7.26796 16.5841C7.26794 16.5841 7.26797 16.5841 7.26796 16.5841C7.26802 16.584 7.26811 16.584 7.54545 17C7.8228 17.416 7.82294 17.4159 7.8231 17.4158C7.82319 17.4158 7.82337 17.4156 7.82354 17.4155C7.82389 17.4153 7.82433 17.415 7.82488 17.4146C7.82597 17.4139 7.82745 17.4129 7.82932 17.4117C7.83306 17.4091 7.83836 17.4056 7.84516 17.4009C7.85877 17.3917 7.8784 17.3783 7.90365 17.3608C7.95414 17.3258 8.02715 17.2746 8.11945 17.2079C8.304 17.0746 8.566 16.8795 8.87965 16.6298C9.50615 16.1309 10.3428 15.4106 11.1812 14.5257C12.8374 12.7774 14.5909 10.2919 14.5909 7.54545H13.5909ZM11.8202 3.27067C12.954 4.40442 13.5909 5.9421 13.5909 7.54546L14.5909 7.54545C14.5909 5.67688 13.8486 3.88484 12.5273 2.56357L11.8202 3.27067ZM7.54545 1.5C9.14881 1.5 10.6865 2.13693 11.8202 3.27067L12.5273 2.56357C11.2061 1.24229 9.41403 0.5 7.54545 0.5V1.5ZM3.27067 3.27067C4.40442 2.13693 5.9421 1.5 7.54545 1.5V0.5C5.67688 0.5 3.88484 1.24229 2.56357 2.56357L3.27067 3.27067ZM1.5 7.54545C1.5 5.9421 2.13693 4.40442 3.27067 3.27067L2.56357 2.56357C1.24229 3.88484 0.5 5.67688 0.5 7.54545H1.5ZM7.54545 17C7.8228 16.584 7.82289 16.584 7.82295 16.5841C7.82294 16.5841 7.82297 16.5841 7.82295 16.5841C7.82289 16.584 7.82274 16.5839 7.82249 16.5838C7.822 16.5834 7.82111 16.5828 7.81983 16.582C7.81728 16.5803 7.81319 16.5775 7.80761 16.5737C7.79645 16.5661 7.77932 16.5544 7.75663 16.5387C7.71125 16.5073 7.64363 16.4598 7.55695 16.3972C7.38355 16.272 7.13418 16.0864 6.83419 15.8475C6.23343 15.3691 5.43372 14.6803 4.6357 13.8379C3.01923 12.1317 1.5 9.88994 1.5 7.54545H0.5C0.5 10.2919 2.2535 12.7774 3.90975 14.5257C4.7481 15.4106 5.58476 16.1309 6.21126 16.6298C6.52491 16.8795 6.78691 17.0746 6.97146 17.2079C7.06376 17.2746 7.13677 17.3258 7.18726 17.3608C7.21251 17.3783 7.23214 17.3917 7.24575 17.4009C7.25255 17.4056 7.25785 17.4091 7.26159 17.4117C7.26346 17.4129 7.26494 17.4139 7.26603 17.4146C7.26658 17.415 7.26702 17.4153 7.26737 17.4155C7.26754 17.4156 7.26772 17.4158 7.26781 17.4158C7.26797 17.4159 7.26811 17.416 7.54545 17ZM7.54547 10.2273C9.02659 10.2273 10.2273 9.02658 10.2273 7.54545H9.22728C9.22728 8.47429 8.47431 9.22727 7.54547 9.22727V10.2273ZM4.86365 7.54545C4.86365 9.02658 6.06434 10.2273 7.54547 10.2273V9.22727C6.61662 9.22727 5.86365 8.47429 5.86365 7.54545H4.86365ZM7.54547 4.86363C6.06434 4.86363 4.86365 6.06432 4.86365 7.54545H5.86365C5.86365 6.61661 6.61662 5.86363 7.54547 5.86363V4.86363ZM10.2273 7.54545C10.2273 6.06432 9.02659 4.86363 7.54547 4.86363V5.86363C8.47431 5.86363 9.22728 6.61661 9.22728 7.54545H10.2273Z" fill="white"/>
</svg>
