<svg width="24" height="25" viewBox="0 0 24 25" fill="none" xmlns="http://www.w3.org/2000/svg">
<path fill-rule="evenodd" clip-rule="evenodd" d="M16.3939 2.09153L16.4604 2.10935C17.5598 2.40392 18.431 2.63735 19.1162 2.88489C19.8172 3.1381 20.3888 3.42775 20.8597 3.86878C21.5453 4.51099 22.0252 5.3421 22.2385 6.25702C22.385 6.88534 22.3501 7.52517 22.2189 8.25881C22.0906 8.97604 21.8572 9.84728 21.5626 10.9467L21.0271 12.945C20.7326 14.0443 20.4991 14.9155 20.2516 15.6008C19.9984 16.3017 19.7087 16.8733 19.2677 17.3442C18.6459 18.008 17.8471 18.479 16.9665 18.7019C16.7093 19.2917 16.3336 19.8257 15.8597 20.2696C15.3888 20.7106 14.8172 21.0003 14.1162 21.2535C13.431 21.501 12.5598 21.7344 11.4605 22.029L11.394 22.0468C10.2946 22.3414 9.42337 22.5748 8.70613 22.7031C7.9725 22.8343 7.33266 22.8692 6.70435 22.7227C5.78943 22.5094 4.95832 22.0296 4.31611 21.3439C3.87508 20.873 3.58542 20.3014 3.33222 19.6005C3.08468 18.9152 2.85124 18.044 2.55667 16.9446L2.02122 14.9463C1.72664 13.8469 1.4932 12.9757 1.36495 12.2585C1.23376 11.5249 1.19881 10.885 1.34531 10.2567C1.55864 9.3418 2.03849 8.51069 2.72417 7.86848C3.19505 7.42745 3.76664 7.1378 4.46758 6.88459C5.15283 6.63705 6.02404 6.40362 7.12341 6.10905L7.15665 6.10014C7.42112 6.02928 7.67134 5.96234 7.90825 5.89975C8.29986 4.50062 8.64448 3.51157 9.31611 2.79448C9.95831 2.1088 10.7894 1.62895 11.7043 1.41563C12.3327 1.26912 12.9725 1.30407 13.7061 1.43526C14.4233 1.56351 15.2945 1.79695 16.3939 2.09153ZM7.45502 7.57311C6.36214 7.86602 5.57905 8.07795 4.9772 8.29536C4.36778 8.51551 4.00995 8.71938 3.74955 8.96328C3.2804 9.40268 2.95209 9.97134 2.80613 10.5973C2.72511 10.9448 2.72747 11.3566 2.84152 11.9945C2.95723 12.6415 3.17355 13.4513 3.47902 14.5913L3.99666 16.5232C4.30212 17.6632 4.51967 18.4726 4.74299 19.0908C4.96314 19.7003 5.16701 20.0581 5.4109 20.3185C5.85031 20.7876 6.41897 21.116 7.04496 21.2619C7.39242 21.3429 7.80425 21.3406 8.4421 21.2265C9.08915 21.1108 9.89893 20.8945 11.0389 20.589C12.1789 20.2836 12.9884 20.066 13.6066 19.8427C14.216 19.6225 14.5739 19.4187 14.8343 19.1748C14.9719 19.0459 15.0973 18.906 15.2096 18.7568C15.0306 18.7316 14.8463 18.6993 14.6557 18.6614C13.9839 18.5278 13.1769 18.3116 12.1808 18.0447L12.1234 18.0293C11.024 17.7347 10.1528 17.5013 9.46758 17.2538C8.76664 17.0006 8.19505 16.7109 7.72416 16.2699C7.03849 15.6277 6.55864 14.7966 6.34531 13.8816C6.19881 13.2533 6.23376 12.6135 6.36494 11.8799C6.4932 11.1626 6.72664 10.2914 7.02122 9.19206L7.45502 7.57311ZM13.4421 2.91184C12.8042 2.79778 12.3924 2.79542 12.045 2.87644C11.419 3.0224 10.8503 3.35072 10.4109 3.81987C9.97479 4.28549 9.70642 5.00484 9.2397 6.71354C9.16384 6.99124 9.08365 7.29054 8.99665 7.61519L8.47902 9.54704C8.17355 10.6871 7.95723 11.4968 7.84152 12.1439C7.72747 12.7817 7.72511 13.1936 7.80613 13.541C7.95209 14.167 8.2804 14.7357 8.74955 15.1751C9.00995 15.419 9.36778 15.6228 9.9772 15.843C10.5954 16.0663 11.4049 16.2839 12.5449 16.5893C13.5703 16.8641 14.3303 17.0673 14.9482 17.1902C15.5635 17.3125 15.981 17.3426 16.3232 17.3004C16.3976 17.2912 16.4691 17.2785 16.5389 17.2622C17.1649 17.1163 17.7335 16.7879 18.1729 16.3188C18.4168 16.0584 18.6207 15.7006 18.8408 15.0911C19.0642 14.4729 19.2817 13.6635 19.5872 12.5235L20.1048 10.5916C20.4103 9.4516 20.6266 8.64183 20.7423 7.99477C20.8564 7.35692 20.8587 6.9451 20.7777 6.59764C20.6317 5.97164 20.3034 5.40298 19.8343 4.96358C19.5739 4.71969 19.216 4.51581 18.6066 4.29567C17.9884 4.07234 17.1789 3.85479 16.0389 3.54933C14.8989 3.24386 14.0892 3.02754 13.4421 2.91184ZM11.0524 9.87619C11.1596 9.47609 11.5709 9.23865 11.971 9.34586L16.8006 10.64C17.2007 10.7472 17.4381 11.1584 17.3309 11.5585C17.2237 11.9586 16.8125 12.1961 16.4124 12.0888L11.5827 10.7947C11.1826 10.6875 10.9452 10.2763 11.0524 9.87619ZM10.2755 12.7739C10.3828 12.3738 10.794 12.1364 11.1941 12.2436L14.0919 13.02C14.492 13.1272 14.7294 13.5385 14.6222 13.9386C14.515 14.3387 14.1038 14.5761 13.7037 14.4689L10.8059 13.6925C10.4058 13.5852 10.1683 13.174 10.2755 12.7739Z" fill="white"/>
</svg>
