<svg width="24" height="25" viewBox="0 0 24 25" fill="none" xmlns="http://www.w3.org/2000/svg">
<path fill-rule="evenodd" clip-rule="evenodd" d="M10.6925 5.02143C9.52266 2.92531 6.68752 2.79759 5.00745 4.47766C4.10879 5.37632 3.3103 6.57124 3.25706 7.97543C3.17818 10.0564 3.71556 13.5116 7.13735 16.9334C10.5591 20.3552 14.0144 20.8926 16.0953 20.8137C17.4995 20.7604 18.6944 19.9619 19.5931 19.0633C21.2731 17.3832 21.1454 14.5481 19.0493 13.3783L17.8864 12.7292C16.5176 11.9653 14.7905 12.2909 13.6585 13.4092C13.6381 13.4241 13.5231 13.503 13.3221 13.5128C13.0656 13.5253 12.4729 13.434 11.5548 12.5159C10.6364 11.5975 10.5454 11.0047 10.5579 10.7484C10.5677 10.5476 10.6467 10.4326 10.6616 10.4122C11.7799 9.28026 12.1054 7.55318 11.3415 6.18436L10.6925 5.02143ZM6.06811 5.53832C7.17394 4.43249 8.78363 4.67908 9.38265 5.75243L10.0317 6.91536C10.4354 7.63877 10.2977 8.65491 9.58435 9.36823C9.51471 9.43788 9.09846 9.88351 9.0597 10.675C9.02003 11.4854 9.38395 12.4664 10.4942 13.5766C11.604 14.6864 12.5847 15.0505 13.395 15.0111C14.1864 14.9726 14.6322 14.5566 14.7023 14.4866C15.4156 13.7733 16.432 13.6353 17.1554 14.0391L18.3183 14.6881C19.3916 15.2871 19.6382 16.8968 18.5324 18.0026C17.7571 18.778 16.9013 19.282 16.0385 19.3147C14.3031 19.3805 11.2774 18.9521 8.19801 15.8727C5.11864 12.7934 4.6902 9.7676 4.75599 8.03226C4.7887 7.16948 5.29276 6.31367 6.06811 5.53832Z" fill="white"/>
<path d="M16 4.32076C15.5858 4.32076 15.25 4.65655 15.25 5.07076C15.25 5.48497 15.5858 5.82076 16 5.82076H17.1893L14.4696 8.54043C14.1768 8.83332 14.1768 9.3082 14.4696 9.60109C14.7625 9.89398 15.2374 9.89398 15.5303 9.60109L18.25 6.88142V8.07076C18.25 8.48497 18.5858 8.82076 19 8.82076C19.4142 8.82076 19.75 8.48497 19.75 8.07076V5.07076C19.75 4.65655 19.4142 4.32076 19 4.32076H16Z" fill="white"/>
</svg>
