<svg width="80" height="52" viewBox="0 0 80 52" fill="none" xmlns="http://www.w3.org/2000/svg">
<g id="Visa">
<rect id="Rectangle" width="80" height="51.2" rx="4.8" fill="#00579F"/>
<g id="Group">
<path id="polygon9" d="M35.9467 34.4566H31.0215L34.1021 16.7998H39.027L35.9467 34.4566Z" fill="white"/>
<path id="path11" d="M53.8009 17.2317C52.8295 16.8744 51.2886 16.48 49.3834 16.48C44.5196 16.48 41.0945 18.8842 41.0735 22.3215C41.0331 24.8575 43.5258 26.2661 45.3901 27.1117C47.2956 27.9757 47.9433 28.5397 47.9433 29.3099C47.9239 30.4928 46.4035 31.038 44.9855 31.038C43.0191 31.038 41.9655 30.7569 40.3644 30.0988L39.7158 29.8167L39.0266 33.7803C40.1818 34.2681 42.31 34.701 44.5196 34.72C49.6875 34.72 53.0519 32.353 53.0918 28.69C53.1115 26.68 51.7952 25.1399 48.9576 23.8813C47.235 23.0734 46.18 22.5287 46.18 21.7021C46.2002 20.9506 47.0723 20.1809 49.0168 20.1809C50.618 20.1432 51.7944 20.5 52.6856 20.857L53.1311 21.0445L53.8009 17.2317Z" fill="white"/>
<path id="path13" d="M60.3471 28.2014C60.7527 27.1871 62.3134 23.2612 62.3134 23.2612C62.293 23.2989 62.7182 22.2281 62.9614 21.5708L63.3056 23.0922C63.3056 23.0922 64.2383 27.3186 64.4409 28.2014C63.6711 28.2014 61.3199 28.2014 60.3471 28.2014ZM66.4266 16.7998H62.617C61.4422 16.7998 60.5496 17.1189 60.0427 18.2648L52.7269 34.4564H57.8948C57.8948 34.4564 58.7456 32.2771 58.9285 31.8077C59.4954 31.8077 64.5227 31.8077 65.2521 31.8077C65.3935 32.4276 65.8398 34.4564 65.8398 34.4564H70.4L66.4266 16.7998Z" fill="white"/>
<path id="path15" d="M26.9076 16.7998L22.0842 28.8401L21.5571 26.3981C20.6654 23.5805 17.8687 20.5192 14.7477 18.997L19.1658 34.4379H24.374L32.1156 16.7998H26.9076Z" fill="white"/>
<path id="path17" d="M17.6052 16.7998H9.68104L9.59998 17.1566C15.7814 18.6218 19.8752 22.1537 21.5571 26.3989L19.8345 18.284C19.5509 17.1563 18.6793 16.837 17.6052 16.7998Z" fill="#FAA61A"/>
</g>
</g>
</svg>
