<svg width="80" height="52" viewBox="0 0 80 52" fill="none" xmlns="http://www.w3.org/2000/svg">
<rect y="0.199951" width="80" height="51.2" rx="4.8" fill="white"/>
<path d="M19.3958 11.7999H8.16667C7.52135 11.7999 7 12.3213 7 12.9666V24.1958C7 24.3562 7.13125 24.4874 7.29167 24.4874H19.3958C19.5562 24.4874 19.6875 24.3562 19.6875 24.1958V12.0916C19.6875 11.9312 19.5562 11.7999 19.3958 11.7999ZM17.3542 22.1541H9.33333V14.1333H17.3542V22.1541ZM12.3229 19.4562H14.3646C14.525 19.4562 14.6562 19.3249 14.6562 19.1645V17.1228C14.6562 16.9624 14.525 16.8312 14.3646 16.8312H12.3229C12.1625 16.8312 12.0312 16.9624 12.0312 17.1228V19.1645C12.0312 19.3249 12.1625 19.4562 12.3229 19.4562ZM19.3958 27.1124H7.29167C7.13125 27.1124 7 27.2437 7 27.4041V38.6333C7 39.2786 7.52135 39.7999 8.16667 39.7999H19.3958C19.5562 39.7999 19.6875 39.6687 19.6875 39.5083V27.4041C19.6875 27.2437 19.5562 27.1124 19.3958 27.1124ZM17.3542 37.4666H9.33333V29.4458H17.3542V37.4666ZM12.3229 34.7687H14.3646C14.525 34.7687 14.6562 34.6374 14.6562 34.477V32.4353C14.6562 32.2749 14.525 32.1437 14.3646 32.1437H12.3229C12.1625 32.1437 12.0312 32.2749 12.0312 32.4353V34.477C12.0312 34.6374 12.1625 34.7687 12.3229 34.7687ZM33.8333 11.7999H22.6042C22.4437 11.7999 22.3125 11.9312 22.3125 12.0916V24.1958C22.3125 24.3562 22.4437 24.4874 22.6042 24.4874H34.7083C34.8687 24.4874 35 24.3562 35 24.1958V12.9666C35 12.3213 34.4786 11.7999 33.8333 11.7999ZM32.6667 22.1541H24.6458V14.1333H32.6667V22.1541ZM27.6354 19.4562H29.6771C29.8375 19.4562 29.9688 19.3249 29.9688 19.1645V17.1228C29.9688 16.9624 29.8375 16.8312 29.6771 16.8312H27.6354C27.475 16.8312 27.3438 16.9624 27.3438 17.1228V19.1645C27.3438 19.3249 27.475 19.4562 27.6354 19.4562ZM34.7083 27.1124H32.9583C32.7979 27.1124 32.6667 27.2437 32.6667 27.4041V32.2895H29.8229V27.4041C29.8229 27.2437 29.6917 27.1124 29.5312 27.1124H22.6042C22.4437 27.1124 22.3125 27.2437 22.3125 27.4041V39.5083C22.3125 39.6687 22.4437 39.7999 22.6042 39.7999H24.3542C24.5146 39.7999 24.6458 39.6687 24.6458 39.5083V30.6124H27.4896V34.3312C27.4896 34.4916 27.6208 34.6228 27.7812 34.6228H34.7083C34.8687 34.6228 35 34.4916 35 34.3312V27.4041C35 27.2437 34.8687 27.1124 34.7083 27.1124ZM29.5312 37.4666H27.7812C27.6208 37.4666 27.4896 37.5978 27.4896 37.7583V39.5083C27.4896 39.6687 27.6208 39.7999 27.7812 39.7999H29.5312C29.6917 39.7999 29.8229 39.6687 29.8229 39.5083V37.7583C29.8229 37.5978 29.6917 37.4666 29.5312 37.4666ZM34.7083 37.4666H32.9583C32.7979 37.4666 32.6667 37.5978 32.6667 37.7583V39.5083C32.6667 39.6687 32.7979 39.7999 32.9583 39.7999H34.7083C34.8687 39.7999 35 39.6687 35 39.5083V37.7583C35 37.5978 34.8687 37.4666 34.7083 37.4666Z" fill="#131313"/>
<path d="M40.8 19.2999C40.8 17.2333 41.4867 15.5133 42.86 14.1399C44.2467 12.7533 46.04 12.0599 48.24 12.0599C50.4133 12.0599 52.1933 12.7199 53.58 14.0399C54.98 15.3599 55.68 17.1133 55.68 19.2999C55.68 21.1933 55.1 22.7933 53.94 24.0999L55.84 26.2999H52.14L51.7 25.7999C50.6467 26.2933 49.4933 26.5399 48.24 26.5399C46.0667 26.5399 44.28 25.8799 42.88 24.5599C41.4933 23.2399 40.8 21.4866 40.8 19.2999ZM44.2 19.2999C44.2 20.4999 44.5933 21.5066 45.38 22.3199C46.1667 23.1333 47.12 23.5399 48.24 23.5399C48.72 23.5399 49.1733 23.4799 49.6 23.3599L48.5 22.0799L50.6 20.1999L51.76 21.5599C52.1067 20.9066 52.28 20.1533 52.28 19.2999C52.28 18.0466 51.8933 17.0266 51.12 16.2399C50.3467 15.4533 49.3867 15.0599 48.24 15.0599C47.0667 15.0599 46.1 15.4533 45.34 16.2399C44.58 17.0133 44.2 18.0333 44.2 19.2999ZM61.4844 26.2999H58.2844V12.2999C58.5777 12.2999 59.4177 12.2933 60.8044 12.2799C62.191 12.2666 62.9377 12.2599 63.0444 12.2599C64.8577 12.2599 66.171 12.6599 66.9844 13.4599C67.811 14.2599 68.2244 15.3533 68.2244 16.7399C68.2244 18.6466 67.4377 19.9933 65.8644 20.7799L69.9444 26.2999H66.0644L62.6644 21.3999H61.4844V26.2999ZM62.8844 15.2599C62.831 15.2599 62.3644 15.2733 61.4844 15.2999V18.3999H62.6444C64.0977 18.3999 64.8244 17.8599 64.8244 16.7799C64.8244 15.7666 64.1777 15.2599 62.8844 15.2599ZM41.1 39.2999V30.2999H44.1V34.4599L46.54 30.2999H50.3L47.38 34.5799L50.74 39.2999H46.86L44.1 35.0999V39.2999H41.1ZM52.0186 38.1999C51.1119 37.3066 50.6586 36.1733 50.6586 34.7999C50.6586 33.4266 51.1119 32.2933 52.0186 31.3999C52.9386 30.5066 54.1519 30.0599 55.6586 30.0599C57.1653 30.0599 58.3719 30.5066 59.2786 31.3999C60.1986 32.2933 60.6586 33.4266 60.6586 34.7999C60.6586 36.1733 60.1986 37.3066 59.2786 38.1999C58.3719 39.0933 57.1653 39.5399 55.6586 39.5399C54.1519 39.5399 52.9386 39.0933 52.0186 38.1999ZM53.8586 34.7999C53.8586 35.3599 54.0253 35.8266 54.3586 36.1999C54.7053 36.5599 55.1386 36.7399 55.6586 36.7399C56.1786 36.7399 56.6053 36.5666 56.9386 36.2199C57.2853 35.8733 57.4586 35.3999 57.4586 34.7999C57.4586 34.2266 57.2853 33.7599 56.9386 33.3999C56.5919 33.0399 56.1653 32.8599 55.6586 32.8599C55.1519 32.8599 54.7253 33.0399 54.3786 33.3999C54.0319 33.7466 53.8586 34.2133 53.8586 34.7999ZM61.2156 41.2999V36.4999H62.3756C63.029 35.6466 63.4156 34.2266 63.5356 32.2399L63.6556 30.2999H70.7956V36.4999H72.2956V41.2999H69.4956V39.2999H64.0156V41.2999H61.2156ZM66.4156 33.4599C66.2556 34.8066 65.9556 35.8199 65.5156 36.4999H67.7956V33.0999H66.4556L66.4156 33.4599Z" fill="black"/>
</svg>
