<svg width="80" height="52" viewBox="0 0 80 52" fill="none" xmlns="http://www.w3.org/2000/svg">
<g id="MasterCard">
<rect id="Rectangle" width="80" height="51.2" rx="4.8" fill="#0F3560"/>
<g id="Group">
<g id="Group_2">
<path id="Vector" d="M46.9811 38.1832H32.9824V13.0251H46.9811V38.1832Z" fill="#FF5F00"/>
<g id="Group_3">
<path id="Vector_2" d="M33.8792 25.6022C33.8792 20.4987 36.2687 15.9527 39.9897 13.0231C37.2686 10.8808 33.8344 9.60218 30.1022 9.60218C21.2666 9.60218 14.1042 16.7655 14.1042 25.6022C14.1042 34.4388 21.2666 41.6022 30.1022 41.6022C33.8344 41.6022 37.2686 40.3235 39.9897 38.1812C36.2687 35.2516 33.8792 30.7056 33.8792 25.6022Z" fill="#EB001B"/>
</g>
<g id="Group_4">
<path id="Vector_3" d="M65.8608 25.6022C65.8608 34.4388 58.6985 41.6022 49.8629 41.6022C46.1306 41.6022 42.6965 40.3235 39.9744 38.1812C43.6964 35.2516 46.0859 30.7056 46.0859 25.6022C46.0859 20.4987 43.6964 15.9527 39.9744 13.0231C42.6965 10.8808 46.1306 9.60218 49.8629 9.60218C58.6985 9.60218 65.8608 16.7655 65.8608 25.6022Z" fill="#F79E1B"/>
</g>
</g>
<g id="Group_5">
<path id="Vector_4" d="M26.1425 25.7033C26.1425 25.0044 26.6005 24.4303 27.3489 24.4303C28.064 24.4303 28.5467 24.9797 28.5467 25.7033C28.5467 26.427 28.064 26.9763 27.3489 26.9763C26.6005 26.9763 26.1425 26.4022 26.1425 25.7033ZM29.3617 25.7033V23.7152H28.4972V24.198C28.223 23.84 27.8069 23.6153 27.2413 23.6153C26.1264 23.6153 25.2523 24.4893 25.2523 25.7033C25.2523 26.9183 26.1264 27.7914 27.2413 27.7914C27.8069 27.7914 28.223 27.5667 28.4972 27.2087V27.6914H29.3617V25.7033ZM58.5774 25.7033C58.5774 25.0044 59.0354 24.4303 59.7838 24.4303C60.4998 24.4303 60.9816 24.9797 60.9816 25.7033C60.9816 26.427 60.4998 26.9763 59.7838 26.9763C59.0354 26.9763 58.5774 26.4022 58.5774 25.7033ZM61.7976 25.7033V22.1185H60.9321V24.198C60.6579 23.84 60.2418 23.6153 59.6762 23.6153C58.5612 23.6153 57.6872 24.4893 57.6872 25.7033C57.6872 26.9183 58.5612 27.7914 59.6762 27.7914C60.2418 27.7914 60.6579 27.5667 60.9321 27.2087V27.6914H61.7976V25.7033ZM40.0934 24.3894C40.6504 24.3894 41.0084 24.7388 41.0998 25.3539H39.0365C39.1289 24.7797 39.4773 24.3894 40.0934 24.3894ZM40.1105 23.6153C38.9451 23.6153 38.1301 24.4636 38.1301 25.7033C38.1301 26.9678 38.9784 27.7914 40.1686 27.7914C40.7675 27.7914 41.3159 27.6419 41.7987 27.2344L41.375 26.5936C41.0417 26.8592 40.6171 27.0097 40.2181 27.0097C39.6611 27.0097 39.1536 26.7516 39.0289 26.0356H41.9815C41.9901 25.928 41.9986 25.8195 41.9986 25.7033C41.9901 24.4636 41.2245 23.6153 40.1105 23.6153ZM50.5499 25.7033C50.5499 25.0044 51.0078 24.4303 51.7562 24.4303C52.4713 24.4303 52.954 24.9797 52.954 25.7033C52.954 26.427 52.4713 26.9763 51.7562 26.9763C51.0078 26.9763 50.5499 26.4022 50.5499 25.7033ZM53.7691 25.7033V23.7152H52.9045V24.198C52.6293 23.84 52.2142 23.6153 51.6486 23.6153C50.5337 23.6153 49.6596 24.4893 49.6596 25.7033C49.6596 26.9183 50.5337 27.7914 51.6486 27.7914C52.2142 27.7914 52.6293 27.5667 52.9045 27.2087V27.6914H53.7691V25.7033ZM45.6673 25.7033C45.6673 26.9097 46.507 27.7914 47.7886 27.7914C48.3875 27.7914 48.7865 27.6581 49.2188 27.3172L48.8036 26.6183C48.4789 26.8516 48.1381 26.9763 47.7629 26.9763C47.0726 26.9678 46.5651 26.4689 46.5651 25.7033C46.5651 24.9378 47.0726 24.4389 47.7629 24.4303C48.1381 24.4303 48.4789 24.555 48.8036 24.7883L49.2188 24.0894C48.7865 23.7486 48.3875 23.6153 47.7886 23.6153C46.507 23.6153 45.6673 24.497 45.6673 25.7033ZM56.814 23.6153C56.3151 23.6153 55.9904 23.8485 55.7657 24.198V23.7152H54.9088V27.6914H55.7743V25.4624C55.7743 24.8045 56.0571 24.4389 56.6227 24.4389C56.7979 24.4389 56.9807 24.4636 57.1635 24.5388L57.4301 23.7238C57.2387 23.6486 56.9892 23.6153 56.814 23.6153ZM33.6378 24.0314C33.2217 23.7571 32.6486 23.6153 32.0163 23.6153C31.009 23.6153 30.3605 24.098 30.3605 24.8883C30.3605 25.5367 30.8433 25.9366 31.7326 26.0613L32.1411 26.1194C32.6152 26.1861 32.839 26.3108 32.839 26.5355C32.839 26.843 32.5229 27.0182 31.9325 27.0182C31.3336 27.0182 30.9014 26.8269 30.61 26.6022L30.2025 27.2753C30.6767 27.6248 31.2756 27.7914 31.924 27.7914C33.0723 27.7914 33.7378 27.2506 33.7378 26.4936C33.7378 25.7947 33.2141 25.4291 32.3486 25.3044L31.9411 25.2453C31.5669 25.1958 31.267 25.1216 31.267 24.855C31.267 24.5636 31.5498 24.3894 32.0239 24.3894C32.5314 24.3894 33.0227 24.5807 33.2636 24.7302L33.6378 24.0314ZM44.7932 23.6153C44.2943 23.6153 43.9696 23.8485 43.7458 24.198V23.7152H42.8889V27.6914H43.7534V25.4624C43.7534 24.8045 44.0362 24.4389 44.6018 24.4389C44.777 24.4389 44.9598 24.4636 45.1426 24.5388L45.4092 23.7238C45.2178 23.6486 44.9684 23.6153 44.7932 23.6153ZM37.415 23.7152H36.0011V22.5089H35.127V23.7152H34.3205V24.5055H35.127V26.3194C35.127 27.242 35.485 27.7914 36.5076 27.7914C36.8828 27.7914 37.315 27.6752 37.5892 27.4838L37.3398 26.7431C37.0818 26.8926 36.799 26.9678 36.5743 26.9678C36.142 26.9678 36.0011 26.7012 36.0011 26.3022V24.5055H37.415V23.7152ZM24.4877 27.6914V25.1958C24.4877 24.2561 23.8888 23.6238 22.9233 23.6153C22.4158 23.6067 21.8922 23.7648 21.5256 24.3227C21.2514 23.8819 20.8191 23.6153 20.2116 23.6153C19.787 23.6153 19.3718 23.74 19.0471 24.2056V23.7152H18.1816V27.6914H19.0548V25.4872C19.0548 24.7969 19.4375 24.4303 20.0288 24.4303C20.6029 24.4303 20.8934 24.8045 20.8934 25.4786V27.6914H21.7674V25.4872C21.7674 24.7969 22.1664 24.4303 22.7405 24.4303C23.3308 24.4303 23.6136 24.8045 23.6136 25.4786V27.6914H24.4877Z" fill="white"/>
</g>
</g>
</g>
</svg>
