<svg width="80" height="52" viewBox="0 0 80 52" fill="none" xmlns="http://www.w3.org/2000/svg">
<g id="Visa" clip-path="url(#clip0_1546_927)">
<g id="Visa_2">
<rect id="Rectangle" width="80" height="51.2" rx="4.8" fill="white"/>
<g id="Group 93">
<path id="Vector" fill-rule="evenodd" clip-rule="evenodd" d="M45.5 38.1C52.404 38.1 58 32.5036 58 25.6C58 18.6964 52.404 13.1 45.5 13.1C38.596 13.1 33 18.6964 33 25.6C33 32.5036 38.596 38.1 45.5 38.1ZM45.5 30.4611C48.185 30.4611 50.361 28.2847 50.361 25.6C50.361 22.9153 48.185 20.7389 45.5 20.7389C42.815 20.7389 40.639 22.9153 40.639 25.6C40.639 28.2847 42.815 30.4611 45.5 30.4611Z" fill="#8A42F9"/>
<path id="Vector_2" d="M33 16.1H23L28.333 35.1H33V16.1Z" fill="#8A42F9"/>
</g>
</g>
</g>
<defs>
<clipPath id="clip0_1546_927">
<rect width="80" height="51.2" fill="white"/>
</clipPath>
</defs>
</svg>
