<svg width="80" height="52" viewBox="0 0 80 52" fill="none" xmlns="http://www.w3.org/2000/svg">
<rect y="0.199951" width="80" height="51.2" rx="4.8" fill="white"/>
<g clip-path="url(#clip0_1546_942)">
<path fill-rule="evenodd" clip-rule="evenodd" d="M19.995 27.6141L24.4547 30.5461V35.9861L19.9745 44.01L19.995 27.6141Z" fill="#62B22F"/>
<path fill-rule="evenodd" clip-rule="evenodd" d="M16.296 25.2964L20.7467 27.8763L7.53595 35.8989L11.8479 28.0511L16.296 25.2964Z" fill="#974995"/>
<path fill-rule="evenodd" clip-rule="evenodd" d="M37.0474 17.8828L28.5456 17.8404L24.4509 15.3787L20.0002 7.58997L37.0474 17.8828Z" fill="#EE7024"/>
<path fill-rule="evenodd" clip-rule="evenodd" d="M20.0002 7.58997L24.4509 15.3787L24.4599 26.1109L19.9732 24.74L20.0002 7.58997Z" fill="#FBB61B"/>
<path fill-rule="evenodd" clip-rule="evenodd" d="M7.5 15.4261L11.862 23.3562L11.8479 28.051L7.53598 35.8988L7.5 15.4261Z" fill="#5A58A3"/>
<path fill-rule="evenodd" clip-rule="evenodd" d="M7.5 15.4261L36.9806 33.464L28.5328 33.5231L11.862 23.3562L7.5 15.4261Z" fill="#2188CB"/>
<path fill-rule="evenodd" clip-rule="evenodd" d="M28.5457 17.8405L37.0475 17.8829L24.4638 25.6189L24.4509 20.3356L28.5457 17.8405Z" fill="#DA0954"/>
<path fill-rule="evenodd" clip-rule="evenodd" d="M53.063 19.1188C54.0973 18.1757 55.5132 17.7003 56.9059 17.744C58.3617 17.7145 59.8277 17.8134 61.2757 17.6412C60.9622 18.6023 60.3262 19.4349 59.9022 20.3548C58.8589 20.3741 57.8143 20.3355 56.7723 20.3715C55.4322 20.4807 54.1551 21.5664 54.024 22.9322C55.2433 21.7167 57.1513 21.6345 58.7317 22.0341C59.7904 22.3939 60.7335 23.1879 61.1176 24.2569C61.4722 25.1961 61.5301 26.2278 61.2988 27.203C60.948 28.5405 59.8726 29.5761 58.6045 30.0656C57.1089 30.6284 55.3885 30.6579 53.8994 30.0618C52.4861 29.4862 51.4865 28.1499 51.1447 26.6839C50.7708 25.3798 50.8209 23.4487 51.2038 22.1228C51.5353 20.9792 52.1867 19.9231 53.063 19.1188ZM56.6811 24.2119C55.8858 24.0539 54.9902 24.3789 54.5778 25.0779C53.8287 26.3473 54.8579 28.2424 56.5372 28.0035C58.3694 27.7439 58.846 24.7901 56.6811 24.2119ZM44.8426 20.9291C46.4897 20.5244 48.3733 20.6426 49.7802 21.6692C49.3151 22.4196 48.895 23.1956 48.4684 23.9678C47.781 23.7391 47.1129 23.3755 46.369 23.3935C45.5801 23.369 44.7257 23.6774 44.2772 24.3558C43.7993 25.074 43.7762 26.0608 44.2413 26.7931C44.655 27.4844 45.4683 27.8043 46.2405 27.8763C46.8431 27.8082 47.4559 27.7234 48.0136 27.4677C48.1472 27.3842 48.3014 27.388 48.453 27.3983C48.7254 28.1769 49.3215 28.8206 49.5566 29.6082C48.0393 30.419 46.2302 30.5847 44.5689 30.1813C43.4241 29.8446 42.3333 29.1894 41.678 28.1692C40.6412 26.5786 40.681 24.3288 41.872 22.8307C42.5903 21.8619 43.6888 21.2311 44.8426 20.9291ZM62.8984 20.9703C66.099 20.9471 69.3008 20.9458 72.5 20.9703C72.4718 24.0102 72.4897 27.0527 72.4923 30.0926C71.4156 30.0977 70.3376 30.1003 69.2609 30.0926C69.3111 28.0973 69.2108 26.1045 69.2738 24.1155C69.2789 23.9601 69.243 23.8162 69.1671 23.6825C68.1842 23.7044 67.1988 23.7057 66.2159 23.6825C66.1542 25.8154 66.2043 27.9534 66.1915 30.0888C65.0955 30.108 63.9995 30.0977 62.9048 30.0939C62.9061 27.0527 62.919 24.0128 62.8984 20.9728V20.9703Z" fill="#1B1537"/>
<path fill-rule="evenodd" clip-rule="evenodd" d="M24.4547 35.9862L28.5328 33.5232L36.9806 33.4641L19.9745 44.0101L24.4547 35.9862Z" fill="#037F37"/>
</g>
<defs>
<clipPath id="clip0_1546_942">
<rect width="65" height="36.42" fill="white" transform="translate(7.5 7.58997)"/>
</clipPath>
</defs>
</svg>
