<svg width="80" height="52" viewBox="0 0 80 52" fill="none" xmlns="http://www.w3.org/2000/svg">
<g clip-path="url(#clip0_1546_906)">
<rect width="80" height="51.2" rx="4.8" fill="white"/>
<g clip-path="url(#clip1_1546_906)">
<path fill-rule="evenodd" clip-rule="evenodd" d="M55.6383 24.6741V35.2H61.5234V28.9624H68.1931C71.0002 28.9417 73.3848 27.1599 74.2839 24.6741H55.6383Z" fill="#37A72E"/>
<path fill-rule="evenodd" clip-rule="evenodd" d="M54.8535 16C55.1963 20.3024 59.2926 23.6995 64.2954 23.6995C64.3118 23.6995 74.5283 23.6995 74.5283 23.6995C74.6038 23.3049 74.6433 22.8976 74.6433 22.4812C74.6433 18.9172 71.7495 16.0264 68.1698 16.0002L54.8535 16Z" fill="url(#paint0_linear_1546_906)"/>
<path fill-rule="evenodd" clip-rule="evenodd" d="M46.1437 23.5971L46.1483 23.5873L46.1489 23.5874C46.2093 23.4799 46.3249 23.4071 46.4576 23.4071C46.6493 23.4071 46.8054 23.5589 46.8106 23.7482L46.8107 23.7482V35.1025H52.6958V16H46.8107C46.0644 16.0247 45.2212 16.5688 44.9078 17.2368L40.2244 27.2166C40.2128 27.2574 40.1947 27.2955 40.1713 27.3297L40.1698 27.333L40.1692 27.3328C40.0983 27.4342 39.9803 27.5005 39.8467 27.5005C39.63 27.5005 39.4544 27.326 39.4544 27.1107V16H33.5693V35.1025H39.4544V35.1004C40.1925 35.0621 41.0159 34.524 41.3248 33.8657L46.1316 23.6228C46.1353 23.6141 46.1394 23.6055 46.1437 23.5971Z" fill="#37A72E"/>
<path fill-rule="evenodd" clip-rule="evenodd" d="M24.1683 23.9236L20.7288 35.1025H16.4952L13.0535 23.9169C13.0203 23.7377 12.8624 23.602 12.6725 23.602C12.4585 23.602 12.2851 23.7744 12.2851 23.987C12.2851 23.9886 12.2851 23.9903 12.2851 23.9919L12.2851 35.1025H6.40002V16H11.4514H12.9558C14.0386 16 15.1734 16.835 15.4898 17.8635L18.3539 27.1721C18.4964 27.6353 18.7276 27.6348 18.87 27.1721L21.7341 17.8635C22.0508 16.8343 23.1852 16 24.2682 16L25.7721 16H30.823V35.1025H24.938V23.9919C24.9379 23.9903 24.938 23.9886 24.938 23.987C24.938 23.7744 24.7645 23.602 24.5505 23.602C24.3583 23.602 24.1987 23.7412 24.1683 23.9236Z" fill="#37A72E"/>
</g>
</g>
<defs>
<linearGradient id="paint0_linear_1546_906" x1="54.8535" y1="19.8497" x2="74.6433" y2="19.8497" gradientUnits="userSpaceOnUse">
<stop stop-color="#00A0E5"/>
<stop offset="1" stop-color="#0077C3"/>
</linearGradient>
<clipPath id="clip0_1546_906">
<rect width="80" height="51.2" fill="white"/>
</clipPath>
<clipPath id="clip1_1546_906">
<rect width="68.2667" height="19.2" fill="white" transform="translate(6.40002 16)"/>
</clipPath>
</defs>
</svg>
