<svg width="24" height="25" viewBox="0 0 24 25" fill="none" xmlns="http://www.w3.org/2000/svg">
<path d="M1.99927 12.0964C1.99927 17.2427 5.8664 21.4833 10.8461 22.0566C11.5809 22.1412 12.2931 21.828 12.8161 21.3036C13.4695 20.6484 13.4695 19.5862 12.8161 18.931C12.2931 18.4067 11.8667 17.6245 12.2611 16.9971C13.8378 14.4895 21.9993 20.2483 21.9993 12.0964C21.9993 6.55916 17.5221 2.07031 11.9993 2.07031C6.47642 2.07031 1.99927 6.55916 1.99927 12.0964Z" stroke="#A20000" stroke-width="1.5"/>
<circle opacity="0.5" cx="17.4993" cy="11.5703" r="1.5" stroke="#A20000" stroke-width="1.5"/>
<circle opacity="0.5" cx="6.49927" cy="11.5703" r="1.5" stroke="#A20000" stroke-width="1.5"/>
<path opacity="0.5" d="M10.9993 7.07031C10.9993 7.89874 10.3277 8.57031 9.49927 8.57031C8.67084 8.57031 7.99927 7.89874 7.99927 7.07031C7.99927 6.24189 8.67084 5.57031 9.49927 5.57031C10.3277 5.57031 10.9993 6.24189 10.9993 7.07031Z" stroke="#A20000" stroke-width="1.5"/>
<path opacity="0.5" d="M15.9993 7.07031C15.9993 7.89874 15.3277 8.57031 14.4993 8.57031C13.6708 8.57031 12.9993 7.89874 12.9993 7.07031C12.9993 6.24189 13.6708 5.57031 14.4993 5.57031C15.3277 5.57031 15.9993 6.24189 15.9993 7.07031Z" stroke="#A20000" stroke-width="1.5"/>
</svg>
