<svg width="24" height="25" viewBox="0 0 24 25" fill="none" xmlns="http://www.w3.org/2000/svg">
<path d="M20.9993 9.37031C20.9417 6.85818 20.7013 5.39087 19.6967 4.38833C18.376 3.07031 16.2504 3.07031 11.9993 3.07031C7.74809 3.07031 5.6225 3.07031 4.30183 4.38833C3.29727 5.39087 3.05682 6.85818 2.99927 9.37031M20.9993 14.7703C20.9417 17.2825 20.7013 18.7498 19.6967 19.7523C18.376 21.0703 16.2504 21.0703 11.9993 21.0703C7.74809 21.0703 5.6225 21.0703 4.30183 19.7523C3.29727 18.7498 3.05682 17.2825 2.99927 14.7703" stroke="#A20000" stroke-width="1.5" stroke-linecap="round"/>
<path d="M7.99927 8.07031H15.9993" stroke="#A20000" stroke-width="1.5" stroke-linecap="round"/>
<path d="M11.9993 16.0703L11.9993 8.07031" stroke="#A20000" stroke-width="1.5" stroke-linecap="round"/>
<path d="M21.9993 12.0703H19.9993" stroke="#A20000" stroke-width="1.5" stroke-linecap="round"/>
<path d="M3.99927 12.0703H1.99927" stroke="#A20000" stroke-width="1.5" stroke-linecap="round"/>
</svg>
