<svg width="24" height="25" viewBox="0 0 24 25" fill="none" xmlns="http://www.w3.org/2000/svg">
<path opacity="0.5" d="M13.2527 19.4946C12.9599 19.2017 12.485 19.2017 12.1921 19.4946C11.8992 19.7875 11.8992 20.2624 12.1921 20.5553L13.2527 19.4946ZM18.5076 20.0249L19.0379 20.5553L18.5076 20.0249ZM4.04464 5.56198L4.57497 6.09231H4.57497L4.04464 5.56198ZM3.51431 11.8775C3.8072 12.1704 4.28208 12.1704 4.57497 11.8775C4.86786 11.5846 4.86786 11.1097 4.57497 10.8168L3.51431 11.8775ZM11.2761 4.11568L11.8065 4.64601C11.9471 4.50536 12.0261 4.3146 12.0261 4.11568C12.0261 3.91677 11.9471 3.72601 11.8065 3.58535L11.2761 4.11568ZM5.49094 4.11568L4.96061 3.58535L4.9606 3.58535L5.49094 4.11568ZM19.9539 12.7935L20.4842 12.2631C20.3436 12.1225 20.1528 12.0435 19.9539 12.0435C19.755 12.0435 19.5642 12.1225 19.4236 12.2631L19.9539 12.7935ZM19.9539 18.5786L19.4236 18.0483L19.9539 18.5786ZM8.3353 5.99585C8.0424 6.28874 8.0424 6.76361 8.3353 7.05651C8.62819 7.3494 9.10306 7.3494 9.39596 7.05651L8.3353 5.99585ZM17.0131 14.6736C16.7202 14.9665 16.7202 15.4414 17.0131 15.7343C17.306 16.0272 17.7808 16.0272 18.0737 15.7343L17.0131 14.6736ZM4.9606 3.58535L3.51431 5.03165L4.57497 6.09231L6.02127 4.64601L4.9606 3.58535ZM19.0379 20.5553L20.4842 19.109L19.4236 18.0483L17.9773 19.4946L19.0379 20.5553ZM12.1921 20.5553C12.8589 21.2221 13.4112 21.7766 13.9074 22.1552C14.4209 22.547 14.9615 22.8203 15.615 22.8203V21.3203C15.4213 21.3203 15.1974 21.2527 14.8173 20.9627C14.4199 20.6595 13.9495 20.1914 13.2527 19.4946L12.1921 20.5553ZM17.9773 19.4946C17.2805 20.1914 16.8101 20.6595 16.4127 20.9627C16.0326 21.2527 15.8087 21.3203 15.615 21.3203V22.8203C16.2685 22.8203 16.8091 22.547 17.3226 22.1552C17.8188 21.7766 18.3711 21.2221 19.0379 20.5553L17.9773 19.4946ZM3.51431 5.03165C2.84751 5.69845 2.29294 6.25077 1.91434 6.74698C1.52255 7.26049 1.24927 7.80104 1.24927 8.45457H2.74927C2.74927 8.26088 2.81688 8.03693 3.10688 7.65685C3.41008 7.25946 3.87819 6.78909 4.57497 6.09231L3.51431 5.03165ZM4.57497 10.8168C3.87819 10.1201 3.41008 9.64969 3.10688 9.2523C2.81688 8.87221 2.74927 8.64826 2.74927 8.45457H1.24927C1.24927 9.1081 1.52255 9.64866 1.91435 10.1622C2.29294 10.6584 2.84751 11.2107 3.51431 11.8775L4.57497 10.8168ZM11.8065 3.58535C11.1397 2.91856 10.5873 2.36398 10.0911 1.98539C9.57761 1.59359 9.03706 1.32031 8.38353 1.32031V2.82031C8.57722 2.82031 8.80117 2.88793 9.18125 3.17792C9.57865 3.48112 10.049 3.94923 10.7458 4.64601L11.8065 3.58535ZM6.02127 4.64601C6.71805 3.94923 7.18841 3.48112 7.5858 3.17792C7.96589 2.88793 8.18984 2.82031 8.38353 2.82031V1.32031C7.73 1.32031 7.18944 1.59359 6.67593 1.98539C6.17973 2.36398 5.6274 2.91856 4.96061 3.58535L6.02127 4.64601ZM19.4236 13.3238C20.1203 14.0206 20.5885 14.4909 20.8917 14.8883C21.1817 15.2684 21.2493 15.4924 21.2493 15.6861H22.7493C22.7493 15.0325 22.476 14.492 22.0842 13.9785C21.7056 13.4822 21.151 12.9299 20.4842 12.2631L19.4236 13.3238ZM20.4842 19.109C21.151 18.4422 21.7056 17.8899 22.0842 17.3936C22.476 16.8801 22.7493 16.3396 22.7493 15.6861H21.2493C21.2493 15.8797 21.1817 16.1037 20.8917 16.4838C20.5885 16.8812 20.1203 17.3515 19.4236 18.0483L20.4842 19.109ZM10.7458 3.58535L8.3353 5.99585L9.39596 7.05651L11.8065 4.64601L10.7458 3.58535ZM19.4236 12.2631L17.0131 14.6736L18.0737 15.7343L20.4842 13.3238L19.4236 12.2631Z" fill="#A20000"/>
<path d="M4.19719 21.7485L4.99927 21.4811L7.47845 20.6547C8.25279 20.3966 8.63996 20.2676 9.00424 20.094C9.43396 19.8892 9.84008 19.6382 10.2154 19.3454C10.5336 19.0972 10.8222 18.8086 11.3994 18.2315L19.9206 9.71025L20.8475 8.78337C22.3832 7.24766 22.3832 4.75779 20.8475 3.22209C19.3118 1.68639 16.8219 1.68639 15.2862 3.22209L14.3593 4.14897L5.83809 12.6702C5.26093 13.2474 4.97235 13.536 4.72417 13.8541C4.4314 14.2295 4.1804 14.6356 3.97561 15.0653C3.802 15.4296 3.67294 15.8168 3.41483 16.5911L2.58844 19.0703L2.32108 19.8724M4.19719 21.7485L3.39511 22.0159C3.01405 22.1429 2.59393 22.0437 2.3099 21.7597C2.02587 21.4757 1.9267 21.0555 2.05372 20.6745L2.32108 19.8724M4.19719 21.7485L2.32108 19.8724" stroke="#A20000" stroke-width="1.5"/>
<path opacity="0.5" d="M14.3594 4.14844C14.3594 4.14844 14.4752 6.11806 16.2131 7.85596C17.951 9.59385 19.9207 9.70971 19.9207 9.70971" stroke="#A20000" stroke-width="1.5"/>
</svg>
