<svg width="24" height="25" viewBox="0 0 24 25" fill="none" xmlns="http://www.w3.org/2000/svg">
<path fill-rule="evenodd" clip-rule="evenodd" d="M11.9993 8.32031C9.9282 8.32031 8.24927 9.99924 8.24927 12.0703C8.24927 14.1414 9.9282 15.8203 11.9993 15.8203C14.0703 15.8203 15.7493 14.1414 15.7493 12.0703C15.7493 9.99924 14.0703 8.32031 11.9993 8.32031ZM9.74927 12.0703C9.74927 10.8277 10.7566 9.82031 11.9993 9.82031C13.2419 9.82031 14.2493 10.8277 14.2493 12.0703C14.2493 13.313 13.2419 14.3203 11.9993 14.3203C10.7566 14.3203 9.74927 13.313 9.74927 12.0703Z" fill="#A20000"/>
<path fill-rule="evenodd" clip-rule="evenodd" d="M11.974 1.32031C11.5295 1.32031 11.1585 1.3203 10.8539 1.34108C10.5368 1.36272 10.2373 1.40936 9.94688 1.52964C9.27305 1.80875 8.7377 2.34411 8.45859 3.01793C8.31329 3.36873 8.27393 3.73843 8.25891 4.14028C8.24683 4.4633 8.0838 4.73282 7.84322 4.87172C7.60263 5.01062 7.28772 5.01704 7.00193 4.86599C6.6464 4.67808 6.30655 4.52731 5.9301 4.47775C5.207 4.38255 4.47569 4.5785 3.89706 5.0225C3.6477 5.21384 3.45754 5.44992 3.28025 5.71372C3.10995 5.96713 2.92443 6.28846 2.70221 6.67338L2.67695 6.71712C2.45472 7.10203 2.2692 7.42335 2.13489 7.69755C1.99508 7.98298 1.88571 8.2657 1.84468 8.57732C1.74948 9.30043 1.94543 10.0317 2.38943 10.6104C2.62055 10.9116 2.921 11.1305 3.26144 11.3444C3.53522 11.5164 3.68715 11.7924 3.68713 12.0703C3.68712 12.3481 3.53519 12.6241 3.26144 12.7961C2.92096 13.01 2.62047 13.229 2.38933 13.5302C1.94534 14.1088 1.74938 14.8401 1.84458 15.5632C1.88561 15.8749 1.99498 16.1576 2.13479 16.443C2.2691 16.7172 2.45462 17.0385 2.67685 17.4234L2.70211 17.4672C2.92433 17.8521 3.10985 18.1734 3.28016 18.4268C3.45744 18.6906 3.6476 18.9267 3.89696 19.1181C4.47559 19.5621 5.2069 19.758 5.93 19.6628C6.30644 19.6133 6.64626 19.4625 7.00177 19.2746C7.2876 19.1235 7.60256 19.13 7.84317 19.2689C8.08378 19.4078 8.24683 19.6773 8.25891 20.0004C8.27394 20.4022 8.31329 20.7719 8.45859 21.1227C8.7377 21.7965 9.27305 22.3319 9.94688 22.611C10.2373 22.7313 10.5368 22.7779 10.8539 22.7995C11.1585 22.8203 11.5295 22.8203 11.974 22.8203H12.0245C12.469 22.8203 12.84 22.8203 13.1446 22.7995C13.4617 22.7779 13.7612 22.7313 14.0516 22.611C14.7255 22.3319 15.2608 21.7965 15.5399 21.1227C15.6852 20.7719 15.7246 20.4022 15.7396 20.0003C15.7517 19.6773 15.9147 19.4078 16.1553 19.2688C16.3959 19.1299 16.7109 19.1235 16.9967 19.2745C17.3522 19.4624 17.692 19.6132 18.0684 19.6627C18.7915 19.7579 19.5228 19.562 20.1015 19.118C20.3508 18.9266 20.541 18.6906 20.7183 18.4268C20.8886 18.1734 21.0741 17.8521 21.2963 17.4672L21.3215 17.4234C21.5438 17.0385 21.7293 16.7171 21.8636 16.4429C22.0034 16.1575 22.1128 15.8748 22.1538 15.5632C22.249 14.8401 22.0531 14.1088 21.6091 13.5301C21.378 13.2289 21.0775 13.01 20.737 12.7961C20.4633 12.6241 20.3114 12.3481 20.3114 12.0703C20.3114 11.7925 20.4633 11.5165 20.737 11.3446C21.0775 11.1306 21.378 10.9117 21.6092 10.6104C22.0532 10.0318 22.2491 9.3005 22.1539 8.57739C22.1129 8.26577 22.0035 7.98305 21.8637 7.69761C21.7294 7.42344 21.5439 7.10214 21.3217 6.71727L21.2964 6.67349C21.0742 6.28857 20.8887 5.9672 20.7184 5.71378C20.5411 5.44999 20.3509 5.21391 20.1016 5.02257C19.5229 4.57857 18.7916 4.38262 18.0685 4.47781C17.6921 4.52737 17.3523 4.67813 16.9967 4.86603C16.7109 5.0171 16.396 5.01067 16.1553 4.87176C15.9147 4.73284 15.7517 4.46329 15.7396 4.14022C15.7246 3.7384 15.6852 3.36871 15.5399 3.01793C15.2608 2.34411 14.7255 1.80875 14.0516 1.52964C13.7612 1.40936 13.4617 1.36272 13.1446 1.34108C12.84 1.3203 12.469 1.32031 12.0245 1.32031H11.974ZM10.5209 2.91546C10.5981 2.88351 10.7153 2.85403 10.956 2.8376C11.2035 2.82072 11.5231 2.82031 11.9993 2.82031C12.4755 2.82031 12.7951 2.82072 13.0425 2.8376C13.2832 2.85403 13.4005 2.88351 13.4776 2.91546C13.7839 3.04233 14.0272 3.28567 14.1541 3.59196C14.1941 3.68857 14.2273 3.83918 14.2407 4.19628C14.2703 4.98866 14.6793 5.7516 15.4053 6.17079C16.1314 6.58999 16.9966 6.56271 17.6977 6.19219C18.0136 6.02521 18.1606 5.97863 18.2643 5.96498C18.593 5.92171 18.9254 6.01078 19.1884 6.2126C19.2547 6.26343 19.3388 6.35021 19.4734 6.55047C19.6117 6.75634 19.7719 7.03291 20.01 7.44531C20.2481 7.85772 20.4075 8.1347 20.5167 8.35745C20.6228 8.57413 20.6559 8.69039 20.6668 8.77318C20.71 9.10187 20.621 9.43428 20.4192 9.69729C20.3555 9.78026 20.2416 9.88431 19.939 10.0744C19.2676 10.4963 18.8114 11.2319 18.8114 12.0702C18.8113 12.9086 19.2676 13.6443 19.939 14.0662C20.2416 14.2563 20.3554 14.3603 20.4191 14.4433C20.6209 14.7063 20.7099 15.0387 20.6667 15.3674C20.6558 15.4502 20.6227 15.5664 20.5166 15.7831C20.4074 16.0059 20.248 16.2828 20.0099 16.6952C19.7718 17.1076 19.6116 17.3842 19.4733 17.5901C19.3387 17.7903 19.2546 17.8771 19.1883 17.928C18.9253 18.1298 18.5929 18.2188 18.2642 18.1756C18.1605 18.1619 18.0135 18.1154 17.6976 17.9484C16.9965 17.5779 16.1313 17.5506 15.4052 17.9699C14.6792 18.3891 14.2703 19.1519 14.2407 19.9443C14.2273 20.3014 14.1941 20.452 14.1541 20.5487C14.0272 20.855 13.7839 21.0983 13.4776 21.2252C13.4005 21.2571 13.2832 21.2866 13.0425 21.303C12.7951 21.3199 12.4755 21.3203 11.9993 21.3203C11.5231 21.3203 11.2035 21.3199 10.956 21.303C10.7153 21.2866 10.5981 21.2571 10.5209 21.2252C10.2146 21.0983 9.97128 20.855 9.84441 20.5487C9.80439 20.4521 9.77122 20.3014 9.75786 19.9443C9.72822 19.152 9.31924 18.389 8.59317 17.9698C7.8671 17.5506 7.00189 17.5779 6.30085 17.9484C5.98492 18.1154 5.83789 18.162 5.73421 18.1756C5.40553 18.2189 5.07312 18.1298 4.8101 17.928C4.74385 17.8772 4.65971 17.7904 4.52513 17.5902C4.38677 17.3843 4.22663 17.1077 3.98852 16.6953C3.75042 16.2829 3.59098 16.0059 3.48187 15.7832C3.37573 15.5665 3.34265 15.4502 3.33175 15.3674C3.28848 15.0388 3.37755 14.7063 3.57936 14.4433C3.64303 14.3604 3.75688 14.2563 4.05947 14.0662C4.73085 13.6444 5.18708 12.9087 5.18713 12.0704C5.18718 11.2319 4.73092 10.4962 4.05948 10.0743C3.75695 9.88421 3.64312 9.78018 3.57946 9.69722C3.37764 9.43421 3.28858 9.1018 3.33185 8.77311C3.34275 8.69032 3.37583 8.57407 3.48197 8.35738C3.59108 8.13463 3.75052 7.85765 3.98862 7.44525C4.22672 7.03284 4.38687 6.75627 4.52522 6.5504C4.65981 6.35014 4.74395 6.26337 4.8102 6.21253C5.07321 6.01071 5.40563 5.92164 5.73431 5.96491C5.838 5.97856 5.98503 6.02515 6.301 6.19215C7.002 6.56266 7.86718 6.58993 8.59321 6.17077C9.31925 5.75159 9.72823 4.98868 9.75786 4.19633C9.77121 3.8392 9.80439 3.68858 9.84441 3.59196C9.97128 3.28567 10.2146 3.04233 10.5209 2.91546Z" fill="#A20000"/>
</svg>
