<svg width="25" height="25" viewBox="0 0 25 25" fill="none" xmlns="http://www.w3.org/2000/svg">
<path d="M16.9899 22.7734H7.99993C6.27993 22.7734 4.98994 22.3134 4.18994 21.4034C3.38994 20.4934 3.07993 19.1734 3.28993 17.4634L4.18994 9.96344C4.44994 7.75344 5.00994 5.77344 8.90994 5.77344H16.1099C19.9999 5.77344 20.5599 7.75344 20.8299 9.96344L21.7299 17.4634C21.9299 19.1734 21.6299 20.5034 20.8299 21.4034C19.9999 22.3134 18.7199 22.7734 16.9899 22.7734ZM8.89993 7.27344C6.01993 7.27344 5.87993 8.41342 5.66993 10.1334L4.76994 17.6334C4.61994 18.9034 4.79993 19.8334 5.30993 20.4034C5.81993 20.9734 6.71993 21.2634 7.99993 21.2634H16.9899C18.2699 21.2634 19.1699 20.9734 19.6799 20.4034C20.1899 19.8334 20.3699 18.9034 20.2199 17.6334L19.3199 10.1334C19.1099 8.40342 18.9799 7.27344 16.0899 7.27344H8.89993Z" fill="white"/>
<path d="M16.5 8.77344C16.09 8.77344 15.75 8.43344 15.75 8.02344V4.52344C15.75 3.44344 15.08 2.77344 14 2.77344H11C9.92 2.77344 9.25 3.44344 9.25 4.52344V8.02344C9.25 8.43344 8.91 8.77344 8.5 8.77344C8.09 8.77344 7.75 8.43344 7.75 8.02344V4.52344C7.75 2.61344 9.09 1.27344 11 1.27344H14C15.91 1.27344 17.25 2.61344 17.25 4.52344V8.02344C17.25 8.43344 16.91 8.77344 16.5 8.77344Z" fill="white"/>
<path d="M20.91 17.8035H8.5C8.09 17.8035 7.75 17.4635 7.75 17.0535C7.75 16.6435 8.09 16.3035 8.5 16.3035H20.91C21.32 16.3035 21.66 16.6435 21.66 17.0535C21.66 17.4635 21.32 17.8035 20.91 17.8035Z" fill="white"/>
</svg>
