<svg width="18" height="19" viewBox="0 0 18 19" fill="none" xmlns="http://www.w3.org/2000/svg">
<path d="M12.75 16.5078H5.25C2.5125 16.5078 0.9375 14.9328 0.9375 12.1953V6.94531C0.9375 4.20781 2.5125 2.63281 5.25 2.63281H12.75C15.4875 2.63281 17.0625 4.20781 17.0625 6.94531V12.1953C17.0625 14.9328 15.4875 16.5078 12.75 16.5078ZM5.25 3.75781C3.105 3.75781 2.0625 4.80031 2.0625 6.94531V12.1953C2.0625 14.3403 3.105 15.3828 5.25 15.3828H12.75C14.895 15.3828 15.9375 14.3403 15.9375 12.1953V6.94531C15.9375 4.80031 14.895 3.75781 12.75 3.75781H5.25Z" fill="white"/>
<path d="M8.99983 10.2233C8.36983 10.2233 7.73234 10.0283 7.24484 9.63078L4.89733 7.75578C4.65733 7.56078 4.61234 7.20828 4.80734 6.96828C5.00234 6.72828 5.35484 6.68328 5.59484 6.87828L7.94233 8.75328C8.51233 9.21078 9.47983 9.21078 10.0498 8.75328L12.3973 6.87828C12.6373 6.68328 12.9973 6.72078 13.1848 6.96828C13.3798 7.20828 13.3423 7.56828 13.0948 7.75578L10.7473 9.63078C10.2673 10.0283 9.62983 10.2233 8.99983 10.2233Z" fill="white"/>
</svg>
