<svg width="18" height="19" viewBox="0 0 18 19" fill="none" xmlns="http://www.w3.org/2000/svg">
<path d="M13.305 17.0859H4.695C2.8275 17.0859 1.3125 15.5709 1.3125 13.7034V8.65594C1.3125 6.78844 2.8275 5.27344 4.695 5.27344H13.305C15.1725 5.27344 16.6875 6.78844 16.6875 8.65594V9.73595C16.6875 10.0434 16.4325 10.2984 16.125 10.2984H14.61C14.3475 10.2984 14.1075 10.3959 13.935 10.5759L13.9275 10.5835C13.7175 10.786 13.62 11.0634 13.6425 11.3484C13.6875 11.8434 14.16 12.2409 14.7 12.2409H16.125C16.4325 12.2409 16.6875 12.4959 16.6875 12.8034V13.6959C16.6875 15.5709 15.1725 17.0859 13.305 17.0859ZM4.695 6.39844C3.45 6.39844 2.4375 7.41094 2.4375 8.65594V13.7034C2.4375 14.9484 3.45 15.9609 4.695 15.9609H13.305C14.55 15.9609 15.5625 14.9484 15.5625 13.7034V13.3734H14.7C13.5675 13.3734 12.6075 12.5334 12.5175 11.4534C12.4575 10.8384 12.6825 10.231 13.1325 9.78845C13.5225 9.39095 14.0475 9.17345 14.61 9.17345H15.5625V8.65594C15.5625 7.41094 14.55 6.39844 13.305 6.39844H4.695Z" fill="#A20000"/>
<path d="M1.875 9.89344C1.5675 9.89344 1.3125 9.63844 1.3125 9.33094V5.90348C1.3125 4.78598 2.0175 3.77344 3.06 3.37594L9.015 1.12594C9.63 0.893441 10.3125 0.975978 10.845 1.35098C11.385 1.72598 11.7 2.33347 11.7 2.98597V5.83596C11.7 6.14346 11.445 6.39846 11.1375 6.39846C10.83 6.39846 10.575 6.14346 10.575 5.83596V2.98597C10.575 2.70097 10.44 2.43846 10.2 2.27346C9.96 2.10846 9.675 2.07096 9.405 2.17596L3.45 4.42596C2.8425 4.65846 2.43 5.25098 2.43 5.90348V9.33094C2.4375 9.64594 2.1825 9.89344 1.875 9.89344Z" fill="#A20000"/>
<path d="M14.7 13.3733C13.5675 13.3733 12.6075 12.5333 12.5175 11.4533C12.4575 10.8308 12.6825 10.2233 13.1325 9.78084C13.515 9.39084 14.04 9.17334 14.6025 9.17334H16.1625C16.905 9.19584 17.475 9.78081 17.475 10.5008V12.0459C17.475 12.7659 16.905 13.3508 16.185 13.3733H14.7ZM16.1475 10.2983H14.61C14.3475 10.2983 14.1075 10.3958 13.935 10.5758C13.7175 10.7858 13.6125 11.0708 13.6425 11.3558C13.6875 11.8508 14.16 12.2483 14.7 12.2483H16.17C16.2675 12.2483 16.3575 12.1584 16.3575 12.0459V10.5008C16.3575 10.3883 16.2675 10.3058 16.1475 10.2983Z" fill="#A20000"/>
<path d="M10.5 9.58594H5.25C4.9425 9.58594 4.6875 9.33094 4.6875 9.02344C4.6875 8.71594 4.9425 8.46094 5.25 8.46094H10.5C10.8075 8.46094 11.0625 8.71594 11.0625 9.02344C11.0625 9.33094 10.8075 9.58594 10.5 9.58594Z" fill="#A20000"/>
</svg>
