<svg width="446" height="486" viewBox="0 0 446 486" fill="none" xmlns="http://www.w3.org/2000/svg">
<g clip-path="url(#clip0_1516_1171)">
<path fill-rule="evenodd" clip-rule="evenodd" d="M241.131 20.9584C167.798 11.6731 86.3269 25.0599 39.4532 82.2163C-7.9501 140.019 -8.94064 224.104 17.0526 294.194C39.5458 354.846 103.14 380.525 160.892 409.669C220.833 439.918 283.777 486.168 345.608 459.997C409.296 433.039 436.12 358.142 444.743 289.522C452.306 229.337 424.189 174.627 387.543 126.29C349.328 75.8855 303.884 28.9038 241.131 20.9584Z" fill="white"/>
<path d="M308.669 457.802C282.332 435.047 279.69 397.575 284.225 364.616C284.985 359.117 284.973 353.233 288.103 348.652C291.232 344.083 297.706 341.396 302.4 344.242C306.3 346.6 307.592 351.555 309.486 355.727C311.991 361.294 316.096 366.101 321.164 369.435C324.497 371.623 328.726 373.187 332.399 371.634C337.433 369.503 338.669 362.972 339.202 357.473C340.189 347.235 341.186 336.986 342.173 326.748C342.706 321.249 343.272 315.648 345.517 310.603C347.762 305.569 352.037 301.113 357.411 300.183C362.785 299.265 368.941 302.938 369.485 308.426C369.712 310.705 369.021 312.984 368.941 315.285C368.862 317.587 369.656 320.217 371.764 321.068C373.885 321.941 376.243 320.603 378.057 319.174C384.293 314.208 388.884 307.462 393.204 300.739C397.535 294.004 401.776 287.088 407.535 281.578C413.306 276.056 420.914 271.997 428.828 272.372C436.741 272.734 444.621 278.46 445.812 286.385C447.002 294.333 441.673 301.725 436.118 307.485C427.864 316.034 418.385 323.369 408.079 329.185C406.22 330.24 404.213 331.374 403.34 333.335C401.764 336.872 404.859 340.863 408.352 342.439C412.308 344.231 416.787 344.253 421.016 345.206C425.245 346.147 429.689 348.516 430.891 352.734C432.558 358.584 427.263 363.981 422.24 367.36C412.195 374.129 401.005 379.129 389.304 382.099C385.109 383.165 380.721 384.015 377.173 386.521C373.624 389.026 371.141 393.754 372.717 397.825C374.281 401.906 379.213 403.664 383.522 403.312C387.83 402.961 391.855 401.056 396.05 399.956C403.896 397.881 413.59 399.412 417.751 406.43C420.483 411.044 420.154 417.042 418.011 421.985C415.88 426.929 412.161 430.999 408.283 434.695C394.723 447.643 378.057 457.473 359.928 461.736C341.798 465.999 325.404 465.965 308.658 457.813" fill="#F5F5F5"/>
<path d="M305.71 482.28C308.261 469.298 312.728 454.117 319.349 437.937C325.937 421.747 334.633 404.593 344.349 386.974C346.798 382.575 349.213 378.232 351.594 373.947C353.975 369.684 356.345 365.443 358.919 361.441C364.021 353.425 369.542 346.101 375.007 339.31C380.46 332.518 385.891 326.271 391.005 320.478C396.129 314.684 401.016 309.378 405.676 304.729C414.961 295.387 423.329 288.766 429.258 284.446C432.218 282.28 434.576 280.671 436.186 279.605C436.957 279.095 437.569 278.698 438.023 278.403C438.442 278.142 438.657 278.006 438.669 278.029C438.669 278.04 438.476 278.199 438.079 278.494C437.637 278.811 437.047 279.242 436.299 279.775C434.735 280.897 432.41 282.553 429.496 284.775C423.646 289.185 415.381 295.875 406.186 305.251C401.571 309.922 396.73 315.24 391.639 321.056C386.56 326.884 381.163 333.131 375.733 339.922C370.313 346.702 364.826 354.015 359.757 361.997C357.206 365.976 354.871 370.171 352.479 374.457C350.098 378.731 347.694 383.085 345.245 387.473C335.54 405.08 326.844 422.178 320.223 438.3C313.579 454.411 309.055 469.502 306.424 482.416" fill="#E0E0E0"/>
<path d="M359.202 361.441C359.134 361.441 359.032 360.591 358.907 359.038C358.771 357.496 358.658 355.251 358.556 352.473C358.34 346.929 358.306 339.253 358.306 330.795C358.306 322.326 358.159 314.684 357.864 309.151C357.728 306.385 357.592 304.151 357.479 302.609C357.377 301.067 357.343 300.206 357.422 300.194C357.49 300.194 357.649 301.033 357.875 302.564C358.114 304.095 358.352 306.339 358.59 309.106C359.077 314.639 359.327 322.326 359.327 330.795C359.304 339.14 359.293 346.691 359.281 352.462C359.281 355.069 359.304 357.269 359.315 359.026C359.315 360.58 359.281 361.441 359.213 361.441H359.202Z" fill="#E0E0E0"/>
<path d="M431.174 355.523C431.174 355.591 430.154 355.603 428.329 355.569C426.503 355.546 423.85 355.489 420.585 355.535C414.043 355.569 405.018 355.92 395.064 356.759C385.109 357.61 376.141 358.766 369.678 359.786C366.436 360.274 363.828 360.739 362.025 361.045C360.222 361.362 359.213 361.51 359.202 361.442C359.191 361.374 360.166 361.102 361.946 360.659C363.726 360.229 366.322 359.65 369.553 359.072C376.005 357.87 384.996 356.589 394.973 355.739C404.95 354.911 414.02 354.662 420.574 354.821C423.85 354.877 426.503 355.036 428.329 355.183C430.154 355.342 431.163 355.467 431.163 355.535L431.174 355.523Z" fill="#E0E0E0"/>
<path d="M320.347 436.736C320.347 436.736 320.177 436.43 319.951 435.829C319.69 435.103 319.384 434.219 319.009 433.153C318.205 430.818 317.116 427.416 315.835 423.199C313.261 414.763 310.075 402.983 306.742 389.956C303.397 376.918 300.325 365.126 297.932 356.646C296.753 352.519 295.79 349.129 295.075 346.612C294.769 345.523 294.52 344.616 294.316 343.879C294.157 343.256 294.078 342.916 294.112 342.904C294.146 342.904 294.282 343.21 294.508 343.823C294.769 344.548 295.075 345.433 295.449 346.498C296.254 348.823 297.343 352.235 298.624 356.453C301.198 364.888 304.384 376.668 307.728 389.707C311.073 402.745 314.146 414.525 316.538 423.006C317.717 427.133 318.681 430.523 319.395 433.04C319.701 434.14 319.951 435.035 320.155 435.772C320.313 436.407 320.393 436.736 320.359 436.747L320.347 436.736Z" fill="#E0E0E0"/>
<path d="M417.297 416.169C417.297 416.169 416.968 416.305 416.322 416.453C415.562 416.623 414.633 416.827 413.499 417.088C410.902 417.643 407.388 418.392 403.113 419.31C394.349 421.192 382.263 423.913 368.919 426.952C355.574 429.99 343.454 432.609 334.644 434.31C330.245 435.16 326.674 435.807 324.191 436.203C323.046 436.385 322.105 436.521 321.334 436.646C320.676 436.736 320.336 436.77 320.325 436.725C320.325 436.691 320.653 436.589 321.3 436.43C322.059 436.26 322.989 436.056 324.123 435.795C326.719 435.24 330.234 434.491 334.508 433.573C343.272 431.702 355.358 428.97 368.703 425.931C382.048 422.893 394.168 420.274 402.966 418.584C407.365 417.734 410.936 417.088 413.419 416.691C414.565 416.51 415.506 416.362 416.277 416.249C416.934 416.158 417.274 416.124 417.286 416.169H417.297Z" fill="#E0E0E0"/>
<path d="M335.619 207.236C336.47 207.236 337.286 206.76 337.672 205.943L342.592 195.705C342.898 195.059 342.887 194.311 342.569 193.676C342.241 193.041 341.64 192.599 340.937 192.474C339.089 192.157 337.399 191 336.3 189.3C335.279 187.735 334.928 185.932 335.325 184.334C335.721 182.746 336.878 181.295 338.522 180.365C340.268 179.368 342.354 179.073 344.089 179.594C347.637 180.649 350.177 184.81 349.633 188.665C349.463 189.912 350.325 191.068 351.572 191.238C352.842 191.408 353.975 190.547 354.145 189.3C354.996 183.234 351.073 176.919 345.381 175.218C342.433 174.334 339.1 174.764 336.254 176.397C333.545 177.95 331.594 180.433 330.892 183.234C330.189 186.046 330.767 189.163 332.479 191.783C333.715 193.676 335.415 195.161 337.365 196.068L333.579 203.959C333.034 205.093 333.511 206.454 334.644 206.998C334.962 207.145 335.302 207.225 335.631 207.225L335.619 207.236Z" fill="#E0E0E0"/>
<path d="M330.722 210.173C330.257 211.091 330.619 212.213 331.526 212.678C332.445 213.143 333.567 212.78 334.032 211.873C334.497 210.955 334.134 209.832 333.227 209.368C332.32 208.903 331.186 209.266 330.722 210.173Z" fill="#E0E0E0"/>
<path d="M397.932 172.939C398.522 172.939 399.089 172.61 399.372 172.032L402.807 164.889C403.023 164.436 403.012 163.914 402.785 163.472C402.558 163.03 402.139 162.712 401.64 162.633C400.347 162.406 399.168 161.601 398.397 160.411C397.683 159.322 397.433 158.064 397.717 156.941C397.989 155.83 398.805 154.821 399.95 154.163C401.175 153.461 402.626 153.268 403.839 153.631C406.322 154.368 408.091 157.27 407.717 159.968C407.592 160.841 408.204 161.646 409.066 161.771C409.95 161.896 410.744 161.284 410.869 160.411C411.458 156.17 408.714 151.76 404.746 150.581C402.694 149.968 400.358 150.263 398.374 151.408C396.481 152.485 395.12 154.232 394.633 156.182C394.145 158.154 394.542 160.32 395.733 162.157C396.594 163.472 397.785 164.515 399.145 165.15L396.492 170.66C396.107 171.454 396.447 172.406 397.241 172.78C397.467 172.882 397.694 172.939 397.932 172.939Z" fill="#F5F5F5"/>
<path d="M394.519 175.003C394.191 175.638 394.44 176.431 395.086 176.76C395.733 177.089 396.515 176.839 396.844 176.193C397.172 175.547 396.923 174.765 396.277 174.436C395.63 174.107 394.848 174.356 394.519 175.003Z" fill="#F5F5F5"/>
<path d="M115.031 176.793C114.781 177.326 114.838 177.984 115.235 178.482L120.223 184.639C120.541 185.024 121.017 185.24 121.516 185.228C122.015 185.217 122.48 184.968 122.763 184.559C123.523 183.494 124.759 182.768 126.153 182.575C127.446 182.394 128.693 182.711 129.577 183.437C130.461 184.163 131.028 185.33 131.13 186.634C131.244 188.04 130.802 189.435 129.951 190.376C128.217 192.303 124.838 192.666 122.57 191.169C121.833 190.682 120.847 190.886 120.371 191.623C119.883 192.371 120.087 193.346 120.824 193.834C124.396 196.181 129.554 195.591 132.332 192.507C133.772 190.909 134.498 188.675 134.316 186.396C134.146 184.219 133.16 182.247 131.607 180.977C130.042 179.696 127.899 179.129 125.734 179.423C124.169 179.639 122.729 180.274 121.561 181.226L117.718 176.476C117.162 175.795 116.164 175.682 115.473 176.238C115.28 176.396 115.133 176.589 115.031 176.793Z" fill="#F5F5F5"/>
<path d="M114.634 172.825C114.192 172.258 113.375 172.145 112.809 172.587C112.242 173.029 112.128 173.846 112.57 174.413C113.013 174.979 113.829 175.093 114.396 174.651C114.963 174.208 115.076 173.392 114.634 172.825Z" fill="#F5F5F5"/>
<path d="M131.652 28.9034C131.403 29.4363 131.459 30.0939 131.856 30.5928L136.845 36.7492C137.162 37.1347 137.638 37.3501 138.137 37.3388C138.636 37.3274 139.101 37.078 139.384 36.6698C140.144 35.6041 141.38 34.8784 142.774 34.6857C144.067 34.5043 145.314 34.8218 146.198 35.5474C147.083 36.273 147.65 37.4408 147.752 38.7446C147.865 40.1505 147.423 41.5451 146.573 42.4861C144.838 44.4136 141.459 44.7764 139.192 43.2798C138.455 42.7922 137.468 42.9963 136.992 43.7333C136.505 44.4816 136.709 45.4566 137.446 45.9442C141.017 48.2911 146.176 47.7015 148.953 44.6176C150.393 43.019 151.119 40.7855 150.938 38.5066C150.767 36.3297 149.781 34.3569 148.228 33.0871C146.663 31.8059 144.52 31.239 142.355 31.5338C140.79 31.7492 139.35 32.3841 138.183 33.3365L134.339 28.586C133.783 27.9057 132.786 27.7923 132.094 28.3479C131.901 28.5066 131.754 28.6993 131.652 28.9034Z" fill="#F5F5F5"/>
<path d="M131.255 24.9239C130.813 24.357 129.997 24.2436 129.43 24.6858C128.863 25.128 128.749 25.9443 129.192 26.5112C129.634 27.0781 130.45 27.1915 131.017 26.7493C131.584 26.3071 131.697 25.4908 131.255 24.9239Z" fill="#F5F5F5"/>
<path d="M257.524 51.6367C256.753 51.6367 256.017 52.0676 255.654 52.8159L251.198 62.1015C250.914 62.6911 250.926 63.3714 251.221 63.9383C251.515 64.5165 252.071 64.9133 252.706 65.0267C254.384 65.3215 255.914 66.3645 256.924 67.9065C257.842 69.3237 258.171 70.9677 257.808 72.4076C257.456 73.8475 256.391 75.1627 254.905 76.013C253.318 76.9201 251.425 77.1808 249.849 76.716C246.629 75.7523 244.327 71.9881 244.815 68.4847C244.973 67.3509 244.191 66.3079 243.057 66.1491C241.901 65.9904 240.881 66.784 240.722 67.9065C239.951 73.4167 243.511 79.1423 248.67 80.6842C251.345 81.4779 254.373 81.0924 256.958 79.6185C259.418 78.2126 261.187 75.9563 261.821 73.4167C262.456 70.8543 261.935 68.0312 260.382 65.6616C259.259 63.9496 257.717 62.6004 255.948 61.7727L259.384 54.6186C259.883 53.5868 259.441 52.351 258.409 51.8521C258.114 51.7161 257.819 51.6481 257.513 51.6481L257.524 51.6367Z" fill="#E0E0E0"/>
<path d="M261.969 48.9605C262.4 48.1328 262.071 47.1124 261.232 46.6816C260.404 46.2507 259.384 46.5795 258.953 47.4185C258.522 48.2462 258.851 49.2666 259.69 49.6974C260.518 50.1283 261.538 49.7995 261.969 48.9605Z" fill="#E0E0E0"/>
<path d="M103.716 235.082C102.945 235.082 102.208 235.513 101.845 236.261L97.3891 245.547C97.1057 246.136 97.117 246.817 97.4118 247.384C97.7066 247.962 98.2621 248.359 98.897 248.472C100.575 248.767 102.106 249.81 103.115 251.352C104.033 252.769 104.362 254.413 103.999 255.853C103.648 257.293 102.582 258.608 101.097 259.458C99.5093 260.365 97.6159 260.626 96.0399 260.161C92.82 259.198 90.5184 255.433 91.0059 251.93C91.1646 250.796 90.3823 249.753 89.2485 249.594C88.0921 249.436 87.0717 250.229 86.9129 251.352C86.142 256.862 89.7021 262.588 94.8608 264.13C97.5365 264.923 100.564 264.538 103.149 263.064C105.609 261.658 107.378 259.402 108.013 256.862C108.648 254.311 108.126 251.477 106.573 249.107C105.45 247.395 103.908 246.046 102.14 245.218L105.575 238.064C106.074 237.032 105.632 235.796 104.6 235.297C104.305 235.161 104.01 235.093 103.704 235.093L103.716 235.082Z" fill="#E0E0E0"/>
<path d="M108.16 232.406C108.591 231.578 108.262 230.558 107.423 230.127C106.584 229.696 105.575 230.025 105.144 230.864C104.713 231.703 105.042 232.712 105.881 233.143C106.72 233.574 107.729 233.245 108.16 232.406Z" fill="#E0E0E0"/>
<path d="M72.7746 295.104C72.7746 295.104 81.4934 288.404 94.2031 309.492C106.913 330.58 112.038 342.893 112.038 342.893C112.038 342.893 115.314 347.27 118.251 344.05C121.187 340.83 124.895 332.02 130.359 333.166C136.028 334.356 138.296 340.422 137.888 349.605C137.48 358.789 137.321 378.925 137.31 380.75C137.31 382.542 138.511 385.081 140.858 383.211C143.205 381.34 156.3 364.481 163.931 371.17C171.561 377.859 166.221 403.245 165.688 406.034C165.155 408.823 165.779 409.945 167.128 410.535C168.477 411.124 172.343 405.036 176.266 400.399C180.189 395.762 185.541 391.068 189.622 395.297C193.704 399.526 196.232 418.108 180.631 449.696L172.445 463.857L156.017 464.117C120.824 462.53 105.768 451.34 104.033 445.727C102.298 440.115 108.999 437.689 114.951 436.498C120.904 435.308 128.103 434.854 128.239 433.392C128.375 431.929 127.684 430.841 124.985 429.968C122.287 429.083 97.4798 421.51 95.3029 411.601C93.126 401.691 114.203 398.358 116.981 397.213C119.759 396.056 118.103 393.777 116.539 392.916C114.94 392.043 97.219 382.451 88.9877 378.381C80.7565 374.31 76.5388 369.39 78.2281 363.857C79.8608 358.517 89.3619 359.526 93.6022 358.506C97.8426 357.485 95.5863 352.508 95.5863 352.508C95.5863 352.508 87.2757 342.077 74.9401 320.762C62.6046 299.447 72.9674 294.991 72.9674 294.991" fill="#EBEBEB"/>
<path d="M84.1919 313.959C84.1919 313.959 84.2599 314.118 84.43 314.424C84.6114 314.741 84.8495 315.183 85.167 315.75C85.8359 316.929 86.7996 318.63 88.0467 320.818C90.5524 325.217 94.2145 331.544 98.7723 339.356C107.888 354.968 120.666 376.442 134.849 400.104C149.033 423.777 161.856 445.217 171.051 460.784C175.631 468.562 179.339 474.854 181.924 479.23C183.205 481.396 184.192 483.074 184.883 484.242C185.223 484.797 185.473 485.228 185.665 485.534C185.847 485.829 185.949 485.965 185.949 485.965C185.949 485.965 185.881 485.806 185.711 485.5C185.541 485.183 185.291 484.741 184.974 484.174C184.305 482.995 183.341 481.294 182.094 479.117C179.588 474.729 175.926 468.391 171.368 460.591C162.253 444.979 149.475 423.505 135.291 399.832C121.108 376.17 108.285 354.73 99.0898 339.163C94.5093 331.385 90.8019 325.093 88.2168 320.716C86.9357 318.551 85.9492 316.861 85.2576 315.705C84.9175 315.149 84.6681 314.719 84.4753 314.412C84.2939 314.118 84.1919 313.982 84.1919 313.982V313.959Z" fill="#E0E0E0"/>
<path d="M125.666 345.694C125.666 345.694 125.518 346.091 125.337 346.828C125.155 347.565 124.917 348.642 124.634 349.968C124.078 352.633 123.409 356.329 122.74 360.422C122.094 364.458 121.516 368.109 121.074 370.898C120.87 372.156 120.688 373.211 120.552 374.073C120.427 374.821 120.371 375.24 120.405 375.252C120.439 375.252 120.564 374.855 120.745 374.118C120.926 373.381 121.164 372.304 121.425 370.966C121.947 368.302 122.57 364.594 123.239 360.501C123.908 356.476 124.52 352.825 124.974 350.036C125.189 348.778 125.371 347.723 125.518 346.862C125.643 346.113 125.688 345.694 125.654 345.683L125.666 345.694Z" fill="#E0E0E0"/>
<path d="M118.931 375.637C118.965 375.501 111.403 373.778 102.049 371.805C92.6952 369.821 85.0875 368.335 85.0648 368.472C85.0308 368.608 92.5931 370.331 101.947 372.304C111.301 374.288 118.908 375.773 118.931 375.637Z" fill="#E0E0E0"/>
<path d="M142.355 411C142.355 411 141.924 410.977 141.142 411.034C140.269 411.102 139.169 411.181 137.865 411.283C135.099 411.487 131.278 411.748 127.06 411.884C122.831 412.031 119.01 412.031 116.233 412.009C114.929 412.009 113.829 411.986 112.945 411.986C112.174 411.986 111.743 411.997 111.743 412.031C111.743 412.065 112.162 412.122 112.945 412.179C113.716 412.235 114.838 412.315 116.221 412.36C118.999 412.474 122.831 412.53 127.072 412.383C131.312 412.247 135.133 411.929 137.888 411.635C139.271 411.476 140.382 411.34 141.153 411.226C141.924 411.113 142.344 411.034 142.344 411H142.355Z" fill="#E0E0E0"/>
<path d="M154.407 385.252C154.407 385.252 154.169 385.581 153.829 386.216C153.455 386.953 152.978 387.848 152.434 388.914C151.278 391.204 149.713 394.379 148.001 397.894C146.3 401.408 144.781 404.617 143.704 406.941C143.217 408.03 142.797 408.959 142.457 409.708C142.173 410.365 142.026 410.739 142.06 410.751C142.094 410.762 142.298 410.422 142.638 409.787C143.012 409.05 143.489 408.154 144.033 407.089C145.189 404.798 146.754 401.624 148.466 398.109C150.167 394.594 151.686 391.386 152.763 389.061C153.25 387.973 153.67 387.043 154.01 386.295C154.294 385.637 154.441 385.263 154.407 385.252Z" fill="#E0E0E0"/>
<path d="M179.044 413.846C179.044 413.846 178.761 414.265 178.318 415.082C177.854 415.977 177.241 417.134 176.516 418.528C175.019 421.453 172.978 425.501 170.745 429.991C168.523 434.481 166.527 438.562 165.11 441.521C164.441 442.939 163.885 444.129 163.455 445.047C163.069 445.886 162.876 446.351 162.91 446.374C162.944 446.385 163.194 445.954 163.636 445.138C164.101 444.242 164.713 443.086 165.439 441.691C166.935 438.766 168.976 434.719 171.21 430.229C173.432 425.739 175.427 421.657 176.844 418.698C177.513 417.281 178.069 416.091 178.5 415.172C178.885 414.333 179.078 413.868 179.044 413.846Z" fill="#E0E0E0"/>
<path d="M163.092 445.478C163.092 445.478 162.548 445.444 161.561 445.478C160.484 445.523 159.09 445.569 157.4 445.637C153.885 445.773 149.033 445.932 143.67 445.966C138.307 446 133.443 445.909 129.929 445.818C128.239 445.773 126.833 445.739 125.768 445.716C124.781 445.693 124.237 445.705 124.237 445.739C124.237 445.773 124.781 445.841 125.756 445.92C126.743 446 128.16 446.102 129.917 446.192C133.432 446.374 138.296 446.532 143.67 446.487C149.044 446.453 153.908 446.238 157.412 446.011C159.169 445.898 160.586 445.784 161.573 445.693C162.548 445.603 163.092 445.535 163.092 445.501V445.478Z" fill="#E0E0E0"/>
<path d="M19.2035 482.224C19.2035 482.382 111.131 482.518 224.497 482.518C337.864 482.518 429.814 482.382 429.814 482.224C429.814 482.065 337.91 481.929 224.497 481.929C111.085 481.929 19.2035 482.065 19.2035 482.224Z" fill="#263238"/>
<path d="M118.727 412.132L135.994 329.774C135.994 329.774 146.119 290.08 180.96 276.407L183.364 275.67C183.364 275.67 186.674 274.661 186.72 274.638C188.126 274.094 193.84 272.28 195.348 271.815C242.332 255.523 254.803 259.763 303.76 276.475C303.76 276.475 325.517 282.325 336.05 310.704C346.594 339.083 366.776 383.459 366.776 383.459L317.932 400.704L308.567 386.792V481.95H174.214L177.922 438.152L178.568 384.196" fill="#E8505B"/>
<path d="M255.472 281.521C255.472 281.521 255.846 281.918 256.595 282.564C256.969 282.893 257.434 283.278 258.001 283.675C258.567 284.083 259.202 284.571 259.962 285.024C261.447 285.988 263.307 286.963 265.461 287.881C267.626 288.754 270.087 289.548 272.728 290.081C275.381 290.58 277.955 290.784 280.291 290.784C282.626 290.75 284.724 290.546 286.458 290.205C287.331 290.081 288.102 289.854 288.783 289.695C289.463 289.548 290.041 289.355 290.506 289.196C291.436 288.879 291.946 288.698 291.935 288.652C291.901 288.539 289.837 289.253 286.39 289.786C284.667 290.069 282.592 290.217 280.291 290.228C277.989 290.194 275.461 289.979 272.842 289.491C270.234 288.97 267.808 288.21 265.665 287.371C263.533 286.498 261.674 285.568 260.177 284.661C257.184 282.87 255.54 281.419 255.461 281.521H255.472Z" fill="#FAFAFA"/>
<g opacity="0.3">
<path d="M308.567 422.994L297.558 435.715H286.731V449.57L174.77 475.454L175.677 464.672L281.016 428.504H298.669L307.184 421.701L308.567 422.994Z" fill="black"/>
</g>
<path d="M275.597 411.667L284.939 409.933C284.939 409.933 307.071 385.726 311.22 385.375C314.633 385.092 333.465 385.273 340.03 385.352C341.277 385.364 342.286 386.384 342.286 387.631C342.286 388.856 341.322 389.865 340.098 389.91L317.853 390.772L317.751 392.563L340.03 392.858C342.297 393.028 343.749 396.622 336.492 397.268L317.853 397.926V399.082L336.753 401.724C337.706 401.86 340.223 402.348 340.245 403.311C340.245 403.311 341.39 405.681 336.005 406.35C334.157 406.577 317.751 406.032 317.751 406.032L318.386 407.506L335.37 411.169C336.606 411.441 337.422 412.608 337.252 413.867C337.071 415.148 335.926 416.055 334.633 415.93L316.493 414.241L298.692 428.459H274.883L275.62 411.633L275.597 411.667Z" fill="#FFBE9D"/>
<path d="M118.727 412.132L173.058 422.824L178.579 384.185" fill="#E8505B"/>
<path d="M180.302 413.606L281.016 410.352V445.159L214.18 458.435L167.264 465.93C138.103 465.93 114.781 439.161 119.294 410.352L119.418 410.386L180.302 413.606Z" fill="#E8505B"/>
<path d="M152.57 412.971C152.57 412.971 153.024 413.027 153.874 413.061C154.804 413.084 156.051 413.118 157.615 413.163C160.949 413.22 165.631 413.311 171.391 413.413C183.024 413.583 199.089 413.776 216.833 413.606C234.588 413.436 250.654 412.789 262.264 412.007C268.069 411.621 272.762 411.247 275.994 410.919C277.558 410.76 278.794 410.635 279.724 410.533C280.574 410.442 281.016 410.374 281.016 410.352C281.016 410.329 280.563 410.34 279.713 410.374C278.783 410.431 277.547 410.51 275.971 410.612C272.728 410.839 268.035 411.134 262.23 411.451C250.62 412.098 234.565 412.642 216.822 412.823C199.089 412.993 183.024 412.88 171.391 412.857C165.631 412.857 160.949 412.857 157.615 412.857C156.04 412.88 154.792 412.891 153.874 412.903C153.012 412.925 152.57 412.948 152.57 412.971Z" fill="#263238"/>
<path d="M281.016 410.67C281.016 410.67 280.994 410.885 280.982 411.294C280.982 411.736 280.96 412.337 280.948 413.096C280.937 414.718 280.903 417.03 280.88 419.956C280.858 425.908 280.812 434.377 280.767 444.559L280.96 444.321C269.588 446.758 255.948 449.774 241.277 452.858C221.153 457.11 202.842 460.477 189.52 462.529C182.865 463.55 177.457 464.298 173.726 464.797C171.89 465.035 170.45 465.228 169.429 465.364C168.965 465.432 168.59 465.488 168.307 465.522C168.058 465.568 167.933 465.59 167.933 465.602C167.933 465.602 168.069 465.602 168.318 465.59C168.602 465.568 168.976 465.534 169.441 465.488C170.461 465.375 171.912 465.228 173.76 465.035C177.502 464.615 182.921 463.924 189.588 462.949C202.933 460.999 221.277 457.699 241.402 453.436C256.084 450.352 269.713 447.302 281.073 444.808L281.266 444.763V444.559C281.22 434.377 281.198 425.908 281.164 419.956C281.141 417.03 281.118 414.718 281.096 413.096C281.084 412.337 281.073 411.736 281.062 411.294C281.05 410.885 281.039 410.67 281.028 410.67H281.016Z" fill="#263238"/>
<path d="M289.61 315.455C289.61 315.455 289.622 314.843 289.542 313.754C289.474 312.666 289.361 311.09 289.327 309.14C289.214 305.251 289.395 299.843 290.381 293.981C291.413 288.142 292.717 282.825 294.747 279.525C295.733 277.87 296.889 276.77 297.751 276.135C298.635 275.512 299.191 275.274 299.168 275.217C299.168 275.194 299.021 275.251 298.749 275.353C298.477 275.455 298.091 275.648 297.615 275.942C296.685 276.532 295.449 277.62 294.384 279.298C293.307 280.965 292.388 283.153 291.663 285.648C290.937 288.142 290.279 290.92 289.792 293.879C288.794 299.786 288.681 305.239 288.908 309.151C288.998 311.112 289.18 312.688 289.316 313.777C289.474 314.865 289.576 315.455 289.622 315.455H289.61Z" fill="#263238"/>
<path d="M178.851 284.865C178.692 284.865 178.556 308.006 178.556 336.543C178.556 365.08 178.692 388.232 178.851 388.232C179.01 388.232 179.146 365.092 179.146 336.543C179.146 307.994 179.01 284.865 178.851 284.865Z" fill="#263238"/>
<path d="M144.089 401.112C144.089 401.225 145.801 401.169 148.523 401.509C149.883 401.668 151.493 401.974 153.239 402.427C154.985 402.903 156.867 403.55 158.783 404.4C160.688 405.273 162.411 406.271 163.919 407.257C165.416 408.278 166.708 409.275 167.729 410.194C169.781 412.019 170.869 413.334 170.949 413.266C170.983 413.243 170.733 412.892 170.246 412.291C169.77 411.679 169.01 410.851 168.012 409.887C167.014 408.924 165.733 407.869 164.225 406.804C162.706 405.772 160.96 404.74 159.021 403.856C157.083 402.994 155.155 402.348 153.375 401.894C151.584 401.463 149.951 401.191 148.568 401.089C147.185 400.976 146.062 400.942 145.28 400.999C144.509 401.033 144.078 401.078 144.078 401.112H144.089Z" fill="#263238"/>
<g opacity="0.3">
<path d="M288.669 405.93C271.697 395.794 261.096 379.003 250.744 362.166C240.393 345.329 230.745 327.642 216.391 314.048C209.792 307.801 202.083 302.54 199.656 293.799L225.461 314.309L297.343 396.973L288.669 405.93Z" fill="black"/>
</g>
<path d="M335.268 361.577C335.245 361.803 339.327 361.645 343.964 363.221C346.277 364.014 348.261 365.023 349.701 365.749C351.129 366.486 352.025 366.951 352.07 366.883C352.105 366.815 351.3 366.225 349.905 365.386C348.51 364.558 346.526 363.47 344.157 362.665C341.787 361.86 339.531 361.554 337.898 361.475C336.266 361.407 335.268 361.509 335.268 361.577Z" fill="#263238"/>
<path d="M335.268 361.577C335.245 361.803 339.327 361.645 343.964 363.221C346.277 364.014 348.261 365.023 349.701 365.749C351.129 366.486 352.025 366.951 352.07 366.883C352.105 366.815 351.3 366.225 349.905 365.386C348.51 364.558 346.526 363.47 344.157 362.665C341.787 361.86 339.531 361.554 337.898 361.475C336.266 361.407 335.268 361.509 335.268 361.577Z" fill="#263238"/>
<path d="M179.282 398.628C179.339 398.731 180.507 397.597 183.205 396.826C185.869 395.998 190.053 396.009 194.792 397.551C199.599 398.969 204.588 402.37 210.745 404.932C213.817 406.168 217.309 407.143 220.994 406.894C224.679 406.712 228.273 405.306 231.697 403.606C235.132 401.894 238.341 399.955 241.595 398.447C244.837 396.916 248.193 395.975 251.459 395.658C258.023 395.034 263.987 396.554 268.443 398.731C272.967 400.851 276.005 403.662 277.898 405.681C278.352 406.202 278.771 406.667 279.134 407.075C279.452 407.495 279.724 407.857 279.951 408.164C280.155 408.436 280.325 408.651 280.461 408.833C280.574 408.98 280.642 409.048 280.654 409.048C280.654 409.048 280.62 408.957 280.518 408.799C280.393 408.617 280.245 408.379 280.053 408.096C279.837 407.778 279.576 407.404 279.282 406.962C278.93 406.542 278.533 406.066 278.08 405.533C276.22 403.447 273.193 400.567 268.635 398.368C266.391 397.223 263.76 396.293 260.858 395.681C257.955 395.068 254.758 394.808 251.425 395.125C248.091 395.42 244.656 396.384 241.368 397.926C238.069 399.445 234.86 401.384 231.459 403.084C228.069 404.774 224.543 406.134 220.983 406.327C217.423 406.576 214.021 405.658 210.971 404.445C204.883 401.95 199.838 398.56 194.94 397.166C190.121 395.658 185.847 395.703 183.16 396.622C181.81 397.041 180.835 397.574 180.212 397.971C179.928 398.164 179.713 398.334 179.52 398.458C179.373 398.572 179.293 398.628 179.293 398.64L179.282 398.628Z" fill="#FAFAFA"/>
<path d="M130.03 356.701C130.053 356.781 130.733 356.361 132.071 356.316C133.398 356.237 135.348 356.713 137.4 357.949C139.498 359.116 141.516 361.248 144.373 362.858C145.79 363.64 147.513 364.23 149.339 364.105C151.153 364.003 152.91 363.289 154.566 362.45C156.232 361.611 157.774 360.67 159.373 360.035C160.96 359.377 162.581 358.946 164.146 358.697C165.711 358.436 167.219 358.379 168.636 358.447C170.042 358.504 171.357 358.697 172.525 358.958C174.872 359.479 176.674 360.262 177.876 360.874C179.078 361.475 179.701 361.905 179.735 361.849C179.747 361.837 179.599 361.713 179.305 361.509C179.01 361.305 178.579 360.987 177.978 360.67C176.799 359.989 174.996 359.139 172.615 358.549C171.425 358.255 170.098 358.028 168.658 357.96C167.219 357.869 165.665 357.903 164.067 358.153C162.457 358.391 160.801 358.822 159.157 359.491C157.502 360.137 155.949 361.089 154.305 361.905C152.672 362.733 151.005 363.413 149.316 363.515C147.627 363.64 146.028 363.107 144.645 362.37C141.878 360.862 139.804 358.754 137.627 357.586C135.495 356.361 133.454 355.93 132.071 356.089C131.38 356.146 130.869 356.316 130.529 356.452C130.201 356.599 130.03 356.69 130.042 356.713L130.03 356.701Z" fill="#FAFAFA"/>
<path d="M179.894 341.18C179.894 341.18 180.166 341.157 180.665 341.044C180.915 340.999 181.221 340.908 181.584 340.851C181.958 340.806 182.389 340.749 182.854 340.681C184.77 340.466 187.604 340.579 190.937 341.509C194.271 342.438 198.024 344.184 201.98 346.486C205.937 348.776 210.189 351.599 215.144 353.64C217.615 354.649 220.144 355.42 222.661 355.704C225.178 355.998 227.661 355.817 229.917 355.205C232.173 354.604 234.18 353.674 236.017 352.767C237.853 351.86 239.531 350.964 241.096 350.228C244.214 348.72 246.946 347.983 248.874 347.869C249.837 347.858 250.586 347.847 251.096 347.937C251.606 347.994 251.878 348.005 251.878 347.983C251.878 347.96 251.617 347.903 251.119 347.813C250.62 347.688 249.86 347.654 248.874 347.631C246.912 347.665 244.1 348.357 240.937 349.831C239.35 350.545 237.649 351.418 235.812 352.302C233.976 353.175 231.992 354.082 229.792 354.649C227.604 355.227 225.2 355.398 222.74 355.103C220.28 354.831 217.808 354.071 215.37 353.073C210.484 351.067 206.255 348.277 202.253 345.999C198.25 343.708 194.429 341.985 191.039 341.089C187.649 340.194 184.758 340.148 182.819 340.443C182.343 340.522 181.924 340.602 181.538 340.67C181.175 340.749 180.869 340.851 180.62 340.919C180.132 341.067 179.872 341.146 179.883 341.169L179.894 341.18Z" fill="#FAFAFA"/>
<path d="M144.792 306.305C144.792 306.305 145.201 306.588 146.006 307.008C146.811 307.427 147.967 308.006 149.452 308.652C150.926 309.298 152.729 310.001 154.826 310.511C156.901 311.033 159.316 311.271 161.788 310.987C164.26 310.727 166.538 310.205 168.636 309.922C170.722 309.615 172.627 309.593 174.203 309.82C177.389 310.25 178.942 311.702 178.987 311.588C178.999 311.577 178.908 311.486 178.738 311.327C178.556 311.169 178.273 310.953 177.888 310.715C177.117 310.239 175.881 309.683 174.271 309.411C172.661 309.128 170.699 309.105 168.568 309.389C166.436 309.649 164.146 310.16 161.731 310.409C156.867 310.987 152.559 309.434 149.611 308.278C148.126 307.688 146.935 307.155 146.108 306.804C145.28 306.452 144.815 306.271 144.792 306.305Z" fill="#FAFAFA"/>
<path d="M291.391 325.182C291.413 325.261 292.059 324.751 293.397 324.694C294.724 324.626 296.663 325.171 298.59 326.622C299.576 327.313 300.585 328.175 301.81 328.969C303.023 329.774 304.497 330.375 306.107 330.692C309.35 331.316 313 330.715 316.504 329.456C320.019 328.186 323.159 326.577 326.175 325.511C327.672 324.967 329.134 324.558 330.517 324.32C331.912 324.094 333.227 324.026 334.418 324.082C336.821 324.207 338.692 324.876 339.848 325.533C341.016 326.191 341.56 326.724 341.606 326.679C341.617 326.667 341.492 326.531 341.232 326.282C340.971 326.032 340.551 325.692 339.973 325.341C338.817 324.604 336.912 323.844 334.452 323.674C333.227 323.583 331.867 323.629 330.438 323.844C329.009 324.071 327.513 324.468 325.994 325.001C322.932 326.044 319.769 327.654 316.311 328.901C312.876 330.137 309.316 330.726 306.209 330.159C304.667 329.876 303.261 329.32 302.082 328.561C300.892 327.812 299.86 326.973 298.839 326.282C296.844 324.842 294.769 324.32 293.397 324.468C292.706 324.524 292.184 324.717 291.867 324.876C291.538 325.035 291.402 325.159 291.402 325.171L291.391 325.182Z" fill="#FAFAFA"/>
<path d="M227.513 412.019C227.513 412.019 227.377 412.109 227.15 412.336C226.912 412.552 226.617 412.903 226.255 413.379C225.563 414.343 224.713 415.93 224.407 418.073C224.101 420.182 224.339 422.926 225.915 425.375C227.422 427.812 229.985 429.751 231.436 432.552C232.128 433.957 232.298 435.511 232.003 436.962C231.72 438.413 231.13 439.762 230.529 441.01C229.293 443.481 228.148 445.885 228.193 448.107C228.227 450.329 229.339 451.928 230.314 452.631C230.801 452.994 231.266 453.152 231.561 453.232C231.878 453.288 232.037 453.3 232.037 453.288C232.06 453.22 231.357 453.186 230.45 452.449C229.577 451.735 228.579 450.182 228.602 448.107C228.602 446.021 229.735 443.731 231.017 441.248C231.64 439.989 232.264 438.617 232.57 437.064C232.899 435.522 232.717 433.787 231.969 432.279C231.221 430.783 230.144 429.558 229.134 428.425C228.114 427.291 227.128 426.214 226.379 425.057C224.86 422.756 224.577 420.148 224.826 418.107C225.076 416.032 225.835 414.468 226.459 413.481C227.094 412.495 227.57 412.03 227.525 411.996L227.513 412.019Z" fill="#FAFAFA"/>
<path d="M179.985 461.791C179.985 461.791 180.144 461.678 180.416 461.417C180.665 461.145 181.017 460.703 181.289 460.057C181.89 458.764 181.969 456.553 181.005 454.206C180.541 453.038 179.792 451.825 178.806 450.726C177.842 449.603 176.697 448.526 175.552 447.37C174.407 446.213 173.25 444.943 172.4 443.413C171.55 441.893 171.073 440.113 170.881 438.254C170.507 434.524 171.175 430.93 171.368 427.642C171.606 424.354 171.323 421.27 170.268 418.957C169.259 416.633 167.751 415.113 166.538 414.399C165.937 414.025 165.427 413.821 165.076 413.708C164.724 413.606 164.532 413.56 164.532 413.583C164.509 413.651 165.28 413.821 166.414 414.592C167.547 415.352 168.953 416.848 169.883 419.127C170.847 421.383 171.085 424.365 170.824 427.619C170.609 430.873 169.906 434.478 170.291 438.333C170.484 440.249 170.983 442.109 171.89 443.707C172.785 445.306 173.999 446.61 175.155 447.766C177.502 450.068 179.713 452.075 180.609 454.388C181.584 456.633 181.572 458.73 181.062 460C180.575 461.281 179.906 461.769 179.974 461.814L179.985 461.791Z" fill="#FAFAFA"/>
<path d="M174.169 476.837C174.169 476.837 174.565 477.177 175.427 477.631C176.289 478.096 177.672 478.629 179.543 478.81C181.402 479.003 183.726 478.81 186.277 478.05C188.84 477.336 191.561 475.953 194.429 474.286C197.309 472.654 200.404 470.692 204.078 469.456C207.74 468.221 211.992 468.118 216.243 469.037C220.518 469.921 224.781 471.679 229.191 473.515C233.59 475.329 238.171 477.336 243.193 478.345C245.699 478.867 248.25 479.025 250.744 478.765C253.239 478.527 255.631 477.756 257.785 476.679C262.127 474.513 265.586 471.372 269.123 468.81C270.892 467.529 272.66 466.327 274.508 465.443C274.973 465.216 275.438 465.001 275.892 464.785C276.356 464.581 276.833 464.434 277.309 464.252C278.239 463.878 279.202 463.663 280.132 463.413C283.896 462.495 287.57 462.518 290.824 462.982C294.089 463.459 296.957 464.388 299.316 465.522C299.916 465.783 300.461 466.123 300.994 466.395C301.538 466.667 302.037 466.973 302.501 467.291C302.966 467.597 303.431 467.88 303.851 468.175C304.248 468.493 304.633 468.787 304.996 469.082C305.744 469.626 306.311 470.227 306.833 470.704C307.365 471.18 307.762 471.633 308.08 471.996C308.386 472.336 308.635 472.608 308.828 472.824C308.998 473.005 309.089 473.096 309.1 473.096C309.1 473.096 309.032 472.982 308.873 472.79C308.692 472.574 308.465 472.279 308.17 471.928C307.864 471.543 307.479 471.078 306.957 470.59C306.436 470.091 305.88 469.479 305.143 468.912C304.78 468.617 304.395 468.311 303.998 467.982C303.579 467.676 303.125 467.382 302.649 467.064C302.184 466.735 301.685 466.418 301.141 466.134C300.597 465.851 300.053 465.499 299.452 465.227C297.071 464.048 294.18 463.096 290.869 462.574C287.57 462.075 283.839 462.03 279.996 462.948C279.044 463.198 278.057 463.413 277.116 463.787C276.64 463.969 276.152 464.116 275.676 464.32C275.211 464.536 274.735 464.762 274.259 464.989C272.366 465.896 270.563 467.098 268.783 468.391C265.211 470.953 261.753 474.071 257.513 476.18C255.404 477.223 253.091 477.971 250.665 478.198C248.25 478.436 245.756 478.289 243.295 477.778C238.363 476.781 233.806 474.808 229.395 472.994C224.985 471.168 220.688 469.411 216.345 468.515C212.026 467.586 207.661 467.71 203.908 469.003C200.166 470.284 197.071 472.279 194.203 473.935C191.357 475.624 188.692 477.007 186.164 477.744C183.658 478.515 181.38 478.742 179.543 478.583C177.706 478.447 176.334 477.948 175.461 477.529C174.588 477.109 174.169 476.803 174.146 476.837H174.169Z" fill="#FAFAFA"/>
<path d="M237.241 287.711C224.588 288.334 213.704 278.844 212.593 266.225C211.935 258.742 211.414 252.348 211.414 252.348C211.414 252.348 192.094 251.86 189.407 232.96C186.72 214.06 184.362 170.16 184.362 170.16C205.053 157.904 230.767 157.802 251.561 169.899L254.645 171.691L259.622 262.881C260.336 275.931 250.291 287.064 237.241 287.711Z" fill="#FFBE9D"/>
<path d="M208.749 219.899C208.749 219.695 207.083 219.582 204.418 219.548C203.727 219.559 203.171 219.48 203.069 219.117C202.888 218.72 203.069 217.96 203.307 217.099C203.749 215.285 204.203 213.448 204.679 211.532C206.55 203.618 207.74 197.122 207.332 197.02C206.935 196.929 205.087 203.267 203.216 211.18C202.786 213.108 202.366 214.956 201.958 216.77C201.811 217.586 201.459 218.573 201.958 219.65C202.219 220.194 202.808 220.523 203.273 220.591C203.738 220.67 204.123 220.625 204.452 220.591C207.105 220.341 208.749 220.092 208.738 219.877L208.749 219.899Z" fill="#263238"/>
<path d="M211.357 252.087C211.357 252.087 223.443 251.509 235.132 241.872C235.132 241.872 231.062 256.26 211.946 256.997L211.357 252.087Z" fill="#EB996E"/>
<path d="M184.588 174.979C184.588 174.979 196.493 179.956 211.175 171.589C220.813 166.102 232.218 163.052 234.871 164.9C237.525 166.748 238.624 176.929 248.602 179.367C248.602 179.367 248.998 198.879 256.731 197.757C264.452 196.634 257.944 166.737 257.944 166.737L238.443 158.505L217.502 155.728L198.126 159.56L183.239 164.537L184.588 174.979Z" fill="#263238"/>
<path d="M254.86 191.6C255.166 191.419 267.366 186.067 268.636 199.06C269.905 212.054 256.595 210.648 256.527 210.273C256.47 209.899 254.86 191.6 254.86 191.6Z" fill="#FFBE9D"/>
<path d="M260.019 204.967C260.019 204.967 260.257 205.103 260.665 205.239C261.051 205.375 261.708 205.432 262.366 205.114C263.692 204.48 264.633 202.189 264.463 199.831C264.384 198.641 264.021 197.541 263.511 196.645C263.023 195.738 262.343 195.126 261.64 195.069C260.937 194.978 260.484 195.443 260.359 195.817C260.223 196.203 260.325 196.452 260.257 196.475C260.223 196.509 259.962 196.282 260.008 195.738C260.042 195.477 260.155 195.149 260.438 194.876C260.722 194.593 261.175 194.423 261.663 194.423C262.672 194.389 263.658 195.228 264.225 196.203C264.837 197.178 265.268 198.414 265.359 199.752C265.529 202.382 264.429 204.956 262.604 205.681C261.708 206.01 260.926 205.806 260.495 205.534C260.064 205.25 259.962 204.967 260.008 204.944L260.019 204.967Z" fill="#EB996E"/>
<path d="M239.985 166.975C242.638 169.809 245.336 172.666 248.636 174.718C251.935 176.771 255.96 177.938 259.735 177.065C263.522 176.192 266.856 172.916 267.014 169.038C267.173 165.161 263.375 161.374 259.588 162.201C262.162 162.247 264.316 159.333 263.511 156.884C262.706 154.435 259.248 153.369 257.207 154.934C260.495 154.322 260.869 149.095 258.25 147.009C255.631 144.923 251.776 145.376 248.681 146.635C245.574 147.893 242.729 149.843 239.452 150.546C234.316 151.646 229.044 149.514 224.497 146.873C219.951 144.231 215.631 141 210.575 139.605C204.361 137.882 197.638 139.14 191.697 141.635C186.765 143.709 182.083 146.703 178.874 150.988C175.665 155.274 174.078 160.966 175.507 166.124C176.935 171.283 181.731 175.569 187.094 175.591C187.094 175.591 199.123 176.805 208.919 169.537C218.715 162.269 239.361 163.233 239.361 163.233L240.008 166.963L239.985 166.975Z" fill="#263238"/>
<path d="M258.091 151.839C258.091 151.839 257.853 152.088 257.343 152.44C256.833 152.802 256.039 153.279 255.007 153.868C252.933 155.025 249.769 156.476 245.631 157.598C241.515 158.709 236.391 159.424 230.722 159.016C225.03 158.641 219.055 156.805 212.831 155.285C206.629 153.755 200.461 152.995 195.144 154.31C189.826 155.535 185.631 158.755 183.795 162.394C181.924 166.068 182.151 169.662 182.808 171.827C183.488 174.049 184.429 175.036 184.305 175.115C184.271 175.149 184.033 174.911 183.624 174.435C183.262 173.925 182.706 173.142 182.298 171.997C181.436 169.775 181.017 165.966 182.91 161.952C184.792 157.95 189.237 154.424 194.838 153.052C200.461 151.601 206.878 152.372 213.16 153.925C219.463 155.467 225.314 157.304 230.824 157.734C236.323 158.199 241.334 157.61 245.393 156.635C253.568 154.65 257.967 151.555 258.091 151.827V151.839Z" fill="#455A64"/>
<path d="M263.93 171.929C264.078 172.009 263.658 173.278 262.252 174.888C260.881 176.487 258.386 178.335 255.144 179.049C251.901 179.752 248.862 179.095 246.946 178.199C245.008 177.315 244.089 176.328 244.191 176.204C244.316 176.022 245.404 176.691 247.298 177.281C249.169 177.882 251.935 178.312 254.849 177.689C257.763 177.054 260.098 175.523 261.549 174.197C263.023 172.87 263.738 171.816 263.93 171.929Z" fill="#455A64"/>
<path d="M259.871 165.512C260.2 165.67 259.202 168.029 256.685 169.752C254.18 171.498 251.617 171.6 251.595 171.237C251.515 170.84 253.681 170.172 255.903 168.607C258.148 167.088 259.531 165.296 259.883 165.5L259.871 165.512Z" fill="#455A64"/>
<path d="M178.205 183.641C178.035 183.686 177.661 183.04 177.57 181.872C177.468 180.727 177.718 179.038 178.715 177.507C179.713 175.977 181.153 175.058 182.241 174.684C183.341 174.299 184.078 174.378 184.112 174.548C184.225 174.922 181.55 175.671 179.883 178.256C178.194 180.829 178.591 183.573 178.205 183.63V183.641Z" fill="#263238"/>
<path d="M171.47 165.002C171.856 164.844 173.284 168.29 176.686 171.125C180.03 174.027 183.658 174.889 183.556 175.286C183.568 175.649 179.463 175.342 175.779 172.179C172.06 169.05 171.107 165.048 171.459 165.002H171.47Z" fill="#455A64"/>
<path d="M191.175 198.97C191.323 200.512 192.74 201.657 194.35 201.532C195.96 201.408 197.139 200.07 197.003 198.528C196.856 196.986 195.439 195.841 193.829 195.965C192.219 196.09 191.028 197.439 191.175 198.97Z" fill="#263238"/>
<path d="M188.874 198.709C189.282 199.038 191.266 197.133 194.395 196.725C197.513 196.283 200.008 197.586 200.302 197.167C200.45 196.974 199.996 196.339 198.896 195.75C197.819 195.16 196.051 194.673 194.112 194.933C192.173 195.194 190.631 196.124 189.781 196.986C188.919 197.847 188.681 198.573 188.885 198.72L188.874 198.709Z" fill="#263238"/>
<path d="M219.577 195.025C219.724 196.566 221.141 197.712 222.751 197.587C224.361 197.462 225.54 196.124 225.404 194.582C225.257 193.04 223.84 191.895 222.23 192.02C220.62 192.145 219.429 193.494 219.577 195.025Z" fill="#263238"/>
<path d="M217.547 194.933C217.955 195.262 219.94 193.346 223.069 192.949C226.187 192.507 228.681 193.811 228.976 193.392C229.123 193.199 228.67 192.564 227.57 191.974C226.493 191.385 224.724 190.897 222.785 191.158C220.847 191.419 219.305 192.348 218.454 193.21C217.593 194.072 217.354 194.797 217.559 194.945L217.547 194.933Z" fill="#263238"/>
<path d="M218.749 186.351C219.361 186.896 221.708 185.195 224.86 184.9C228.012 184.526 230.654 185.705 231.141 185.036C231.368 184.719 230.949 183.914 229.792 183.143C228.658 182.372 226.72 181.737 224.554 181.964C222.389 182.19 220.631 183.222 219.679 184.22C218.704 185.217 218.466 186.091 218.749 186.363V186.351Z" fill="#263238"/>
<path d="M189.078 191.532C188.942 191.907 189.475 192.519 190.62 193.018C191.742 193.517 193.477 193.8 195.348 193.517C197.219 193.222 198.772 192.417 199.69 191.6C200.62 190.784 200.937 190.024 200.699 189.718C200.155 189.083 197.831 190.183 194.883 190.603C191.946 191.102 189.395 190.773 189.078 191.544V191.532Z" fill="#263238"/>
<path d="M211.141 225.092C210.813 225.115 210.586 225.705 210.631 226.408C210.677 227.111 210.971 227.666 211.3 227.643C211.629 227.621 211.856 227.031 211.81 226.328C211.765 225.625 211.47 225.07 211.141 225.092Z" fill="#263238"/>
<path d="M257.173 215.228C257.173 215.228 257.184 215.535 257.456 215.988C257.717 216.442 258.239 217.054 259.1 217.485C259.939 217.927 261.187 218.142 262.411 217.677C263.613 217.247 264.758 216.203 265.257 214.786C265.733 213.358 265.472 211.861 264.86 210.75C264.248 209.616 263.273 208.902 262.411 208.528C261.538 208.142 260.756 208.063 260.246 208.074C259.724 208.074 259.441 208.165 259.441 208.199C259.441 208.312 260.631 208.12 262.23 208.902C263.012 209.299 263.862 209.979 264.384 210.999C264.905 212.008 265.121 213.346 264.701 214.594C264.282 215.829 263.273 216.759 262.23 217.167C261.164 217.598 260.087 217.451 259.293 217.099C257.661 216.362 257.275 215.138 257.184 215.217L257.173 215.228Z" fill="#455A64"/>
<path d="M244.622 292.881C244.622 292.881 238.296 283.947 234.327 278.924C229.509 272.847 226.64 267.598 226.64 264.763V249.707C226.64 249.707 220.643 248.29 219.792 255.104C218.931 261.918 219.792 263.63 219.792 263.63C219.792 263.63 194.622 246.68 192.91 247.904C189.906 250.07 195.597 254.593 195.597 254.593L210.937 268.46L202.196 265.693C200.076 265.024 197.797 266.169 197.083 268.267C196.493 269.99 197.128 271.895 198.647 272.927L203.817 277.405L201.21 276.362C199.282 275.591 197.083 276.419 196.153 278.267C195.405 279.752 195.665 281.543 196.799 282.757L201.516 287.779L199.305 286.6C197.876 285.84 196.108 286.407 195.393 287.836C194.792 289.038 195.121 290.5 196.176 291.339L224.361 313.618L244.633 292.881H244.622Z" fill="#FFBE9D"/>
<path d="M224.35 313.607C224.35 313.607 224.463 313.504 224.701 313.278C224.951 313.028 225.291 312.688 225.733 312.246C226.663 311.316 228.001 309.967 229.735 308.221C233.25 304.661 238.352 299.491 244.758 293.006L244.871 292.892L244.781 292.768C242.933 290.16 240.937 287.359 238.76 284.4C237.672 282.926 236.538 281.407 235.359 279.865C234.157 278.323 232.933 276.77 231.776 275.092C230.608 273.414 229.486 271.657 228.522 269.763C227.581 267.858 226.697 265.852 226.912 263.607C226.912 259.14 226.912 254.491 226.924 249.707V249.48L226.708 249.446C225.178 249.162 223.534 249.332 222.162 250.194C221.482 250.636 220.949 251.26 220.506 251.929C220.132 252.632 219.838 253.391 219.679 254.174C219.373 255.738 219.271 257.28 219.169 258.879C219.123 259.672 219.112 260.477 219.146 261.282C219.203 262.099 219.214 262.87 219.531 263.754L219.951 263.391C216.062 260.784 212.037 258.142 207.876 255.512C205.79 254.196 203.681 252.881 201.516 251.6C199.339 250.33 197.173 249.038 194.792 247.995C194.475 247.87 194.157 247.745 193.817 247.643C193.647 247.598 193.477 247.552 193.273 247.541C193.171 247.541 193.058 247.541 192.933 247.564C192.751 247.632 192.683 247.7 192.627 247.756C192.015 248.165 191.663 249.026 191.776 249.752C191.992 251.226 192.922 252.303 193.795 253.278C194.713 254.264 195.756 255.069 196.686 255.954C197.649 256.827 198.602 257.688 199.554 258.55C203.364 261.997 207.105 265.364 210.745 268.663L211.028 268.176C209.305 267.632 207.604 267.099 205.915 266.555C205.076 266.282 204.225 266.022 203.398 265.761C202.978 265.636 202.57 265.489 202.139 265.375C201.697 265.251 201.221 265.194 200.767 265.217C198.897 265.273 197.219 266.668 196.765 268.425C196.266 270.183 197.037 272.155 198.511 273.13L198.488 273.108C200.246 274.627 201.969 276.124 203.67 277.586L203.942 277.144C203.092 276.804 202.241 276.464 201.414 276.135C200.541 275.772 199.532 275.704 198.624 275.954C196.788 276.441 195.461 278.233 195.518 280.069C195.518 280.976 195.835 281.861 196.38 282.564C196.946 283.244 197.513 283.799 198.08 284.412C199.203 285.602 200.302 286.77 201.38 287.915L201.652 287.552C200.858 287.133 200.064 286.713 199.282 286.305C198.42 285.897 197.4 285.942 196.584 286.362C195.756 286.77 195.166 287.575 194.985 288.459C194.804 289.344 195.03 290.273 195.563 290.965C195.835 291.316 196.187 291.566 196.493 291.815C196.81 292.065 197.128 292.314 197.434 292.552C198.058 293.04 198.67 293.527 199.271 294.003C200.484 294.956 201.652 295.874 202.785 296.758C207.309 300.307 211.221 303.368 214.429 305.885C217.615 308.368 220.098 310.307 221.81 311.645C222.638 312.291 223.284 312.779 223.726 313.13C224.157 313.459 224.384 313.618 224.384 313.618C224.384 313.618 224.157 313.414 223.726 313.062C223.273 312.699 222.638 312.178 221.81 311.509C220.11 310.148 217.638 308.164 214.475 305.636C211.3 303.096 207.434 300.012 202.956 296.441C201.833 295.545 200.677 294.627 199.486 293.675C198.885 293.198 198.284 292.722 197.672 292.223C197.366 291.974 197.06 291.736 196.742 291.486C196.425 291.237 196.119 291.01 195.892 290.704C195.427 290.115 195.234 289.298 195.405 288.55C195.563 287.802 196.073 287.11 196.788 286.759C197.491 286.396 198.375 286.362 199.101 286.713C199.872 287.121 200.654 287.541 201.448 287.96L202.661 288.607L201.72 287.609C200.643 286.464 199.554 285.285 198.432 284.094C197.888 283.493 197.275 282.892 196.765 282.28C196.289 281.657 196.017 280.874 196.005 280.069C195.96 278.459 197.128 276.872 198.749 276.452C199.554 276.237 200.427 276.294 201.21 276.623C202.049 276.963 202.888 277.303 203.738 277.643L205.189 278.221L204.01 277.201C202.321 275.738 200.597 274.242 198.84 272.711H198.829L198.817 272.688C197.525 271.827 196.856 270.103 197.298 268.573C197.695 267.031 199.169 265.818 200.801 265.772C201.606 265.704 202.389 266.033 203.239 266.294C204.078 266.555 204.917 266.827 205.756 267.087C207.445 267.62 209.146 268.165 210.869 268.709L212.128 269.106L211.153 268.221C207.513 264.922 203.772 261.543 199.962 258.097C199.01 257.235 198.046 256.373 197.083 255.5C196.13 254.604 195.11 253.811 194.237 252.87C193.386 251.94 192.536 250.863 192.377 249.684C192.309 249.106 192.513 248.55 193.012 248.21C193.08 248.04 193.375 248.131 193.681 248.21C193.976 248.289 194.282 248.414 194.588 248.539C196.89 249.548 199.078 250.84 201.232 252.099C203.386 253.38 205.495 254.684 207.581 255.999C211.742 258.629 215.767 261.26 219.656 263.856L220.382 264.344L220.076 263.493C219.849 262.858 219.781 262.008 219.747 261.248C219.713 260.466 219.724 259.684 219.77 258.902C219.86 257.348 219.974 255.761 220.257 254.287C220.404 253.55 220.677 252.858 221.017 252.212C221.414 251.6 221.89 251.044 222.491 250.659C223.692 249.888 225.246 249.718 226.618 249.979L226.402 249.718C226.402 254.514 226.402 259.151 226.413 263.618C226.413 264.185 226.391 264.718 226.447 265.307C226.516 265.874 226.64 266.43 226.81 266.963C227.15 268.028 227.604 269.026 228.091 269.99C229.078 271.917 230.223 273.686 231.402 275.364C232.57 277.053 233.828 278.618 235.019 280.149C236.209 281.679 237.343 283.187 238.432 284.661C240.62 287.609 242.638 290.398 244.486 292.994L244.509 292.756C238.205 299.275 233.171 304.457 229.713 308.04C228.001 309.82 226.663 311.203 225.745 312.167C225.302 312.631 224.962 312.983 224.724 313.244C224.497 313.493 224.373 313.629 224.373 313.629L224.35 313.607Z" fill="#EB996E"/>
<path d="M224.35 313.606L301.606 415.602C313.329 431.078 334.463 436.747 352.025 428.345C364.86 422.2 374.27 409.298 366.402 382.744L292.4 332.11L247.423 288.697L224.361 313.606H224.35Z" fill="#E8505B"/>
<path d="M352.014 428.345C352.014 428.345 351.73 428.481 351.175 428.764C350.619 429.059 349.814 429.49 348.76 430.045C346.549 430.964 343.227 432.336 338.658 432.755C336.39 432.925 333.839 433.016 331.096 432.619C329.712 432.506 328.307 432.154 326.833 431.871C326.096 431.701 325.37 431.462 324.622 431.258C323.862 431.066 323.114 430.805 322.354 430.51C319.304 429.433 316.152 427.948 313.069 425.952C309.985 423.98 306.946 421.508 304.361 418.345C299.089 412.109 293.635 404.989 287.751 397.381C281.878 389.773 275.665 381.576 269.134 372.959C256.096 355.703 241.844 336.667 226.958 316.633C226.164 315.567 225.37 314.502 224.588 313.436L224.565 313.81C232.468 305.261 240.189 296.928 247.615 288.889L247.218 288.912C262.967 301.905 277.536 314.32 290.756 325.375C303.953 336.44 315.79 346.157 325.801 354.071C335.801 361.996 343.93 368.163 349.599 372.302C352.411 374.399 354.644 375.941 356.13 377.018C356.867 377.54 357.433 377.937 357.83 378.22C358.216 378.492 358.42 378.617 358.42 378.617C358.42 378.617 358.238 378.458 357.864 378.175C357.479 377.88 356.923 377.472 356.198 376.928C354.735 375.828 352.524 374.252 349.735 372.132C344.111 367.948 336.016 361.735 326.05 353.776C316.084 345.817 304.282 336.077 291.096 324.989C277.91 313.912 263.352 301.486 247.604 288.47L247.389 288.3L247.207 288.504C239.769 296.531 232.048 304.876 224.146 313.413L223.976 313.594L224.123 313.787C224.906 314.853 225.699 315.919 226.493 316.984C241.391 337.018 255.654 356.043 268.715 373.288C275.257 381.905 281.481 390.079 287.377 397.687C293.284 405.283 298.749 412.381 304.055 418.617C306.674 421.803 309.758 424.286 312.876 426.27C315.994 428.265 319.18 429.75 322.252 430.828C323.012 431.111 323.771 431.372 324.542 431.565C325.302 431.769 326.039 432.007 326.776 432.165C328.261 432.449 329.69 432.789 331.084 432.902C333.851 433.277 336.424 433.186 338.703 432.993C343.295 432.528 346.628 431.122 348.828 430.17C349.894 429.603 350.687 429.138 351.22 428.832C351.753 428.526 352.025 428.356 352.025 428.356L352.014 428.345Z" fill="#263238"/>
<path d="M293.443 401.78C293.488 401.848 294.316 401.055 296.141 400.227C297.955 399.388 300.88 398.81 304.452 399.184C306.232 399.354 308.159 399.762 310.177 400.375C312.195 400.987 314.293 401.848 316.515 402.721C318.737 403.595 321.084 404.524 323.613 405.204C326.141 405.873 328.885 406.282 331.674 405.987C334.463 405.692 337.071 404.819 339.474 403.821C341.889 402.824 344.123 401.678 346.288 400.703C350.585 398.697 354.769 397.404 358.352 397.608C361.934 397.767 364.656 399.15 366.152 400.443C367.683 401.746 368.148 402.812 368.216 402.767C368.238 402.767 368.102 402.506 367.83 402.041C367.524 401.599 367.071 400.941 366.3 400.261C364.814 398.889 362.048 397.404 358.374 397.189C354.69 396.928 350.404 398.22 346.073 400.205C343.885 401.18 341.651 402.302 339.259 403.288C336.878 404.275 334.316 405.114 331.617 405.397C328.919 405.681 326.243 405.295 323.76 404.638C321.266 403.98 318.941 403.073 316.719 402.211C314.497 401.35 312.388 400.499 310.325 399.898C308.273 399.297 306.311 398.912 304.497 398.753C300.858 398.424 297.876 399.082 296.062 400.012C294.225 400.919 293.454 401.769 293.454 401.769L293.443 401.78Z" fill="#FAFAFA"/>
<path d="M266.141 367.575C266.232 367.552 265.688 366.895 265.846 365.557C266.017 364.275 267.06 362.382 269.259 361.407C270.336 360.908 271.617 360.579 273.012 360.262C274.395 359.944 275.926 359.57 277.4 358.856C280.382 357.473 283.125 355.08 285.665 352.382C288.216 349.672 290.484 346.963 292.91 344.888C295.302 342.79 297.853 341.373 300.177 340.738C302.49 340.081 304.486 340.103 305.801 340.353C307.128 340.591 307.819 340.92 307.842 340.863C307.842 340.84 307.683 340.761 307.354 340.613C307.025 340.466 306.527 340.273 305.846 340.137C304.52 339.808 302.456 339.718 300.075 340.341C297.683 340.931 295.019 342.359 292.57 344.48C290.087 346.577 287.785 349.298 285.257 351.985C282.729 354.672 280.053 357.008 277.184 358.38C274.35 359.786 271.334 359.888 269.1 361.044C266.799 362.133 265.756 364.173 265.642 365.545C265.586 366.248 265.722 366.792 265.881 367.121C266.039 367.45 266.153 367.597 266.164 367.597L266.141 367.575Z" fill="#FAFAFA"/>
<path d="M49.1806 98.9591L52.5593 99.1859L59.2486 109.945L58.7951 116.691C58.7951 116.691 63.9991 117.36 63.9651 108.494C63.9425 99.628 64.4526 101.918 64.4526 101.918C64.4526 101.918 75.5411 102.61 76.5275 101.714C77.2417 101.057 78.2735 90.0702 78.795 84.1066C79.0558 81.102 77.4005 78.1882 74.6454 77.2925C74.2599 77.1678 73.8631 77.0771 73.4662 77.0544C70.6998 76.873 56.4255 78.1769 56.4255 78.1769L50.5865 77.7914L49.1806 98.9818V98.9591Z" fill="#455A64"/>
<path d="M39.3847 100.161L43.0015 77.2021L48.7838 77.5876L47.2759 100.229L39.3847 100.161Z" fill="#455A64"/>
<path d="M128.285 119.583C128.285 119.583 128.115 119.606 127.797 119.696C127.638 119.742 127.446 119.81 127.23 119.912C127.003 120.002 126.754 120.127 126.493 120.297C125.427 120.921 123.999 122.202 123.126 124.311C122.706 125.354 122.423 126.601 122.514 127.939C122.616 129.277 123.081 130.694 124.01 131.896C124.906 133.109 126.198 134.118 127.729 134.719C129.237 135.342 131.017 135.535 132.729 135.104C134.43 134.64 135.881 133.596 136.89 132.304C137.91 131.023 138.545 129.504 138.727 128.018C138.942 126.522 138.647 125.048 138.08 123.846C137.491 122.633 136.641 121.692 135.756 120.989C133.965 119.594 132.083 119.175 130.847 119.163C130.529 119.141 130.257 119.163 130.019 119.197C129.781 119.209 129.577 119.243 129.418 119.288C129.101 119.356 128.931 119.402 128.942 119.424C128.942 119.492 129.622 119.311 130.836 119.402C132.026 119.481 133.817 119.946 135.495 121.329C136.323 122.021 137.105 122.928 137.638 124.061C138.149 125.195 138.409 126.556 138.194 127.962C137.831 130.717 135.756 133.687 132.593 134.549C129.418 135.354 126.142 133.801 124.464 131.578C123.591 130.467 123.137 129.163 123.024 127.916C122.922 126.669 123.16 125.479 123.534 124.481C124.305 122.463 125.632 121.17 126.629 120.513C127.638 119.832 128.319 119.662 128.296 119.594L128.285 119.583Z" fill="#263238"/>
<path d="M151.879 139.787C151.879 139.787 151.425 139.81 150.733 140.207C150.053 140.592 149.124 141.397 148.568 142.735C148.296 143.404 148.114 144.198 148.171 145.048C148.228 145.898 148.534 146.817 149.124 147.588C150.257 149.118 152.48 150.207 154.713 149.651C156.935 149.028 158.33 146.987 158.557 145.093C158.693 144.13 158.5 143.189 158.126 142.418C157.752 141.647 157.196 141.046 156.629 140.604C155.484 139.719 154.282 139.47 153.5 139.47C152.706 139.47 152.287 139.651 152.298 139.674C152.298 139.73 152.729 139.628 153.489 139.696C154.237 139.765 155.337 140.059 156.368 140.921C157.389 141.749 158.296 143.268 158.012 145.025C157.786 146.726 156.493 148.551 154.554 149.084C152.604 149.583 150.586 148.631 149.543 147.259C148.432 145.876 148.466 144.107 148.953 142.882C149.43 141.624 150.235 140.819 150.858 140.388C151.482 139.957 151.901 139.833 151.879 139.776V139.787Z" fill="#263238"/>
<path d="M117.514 84.9458C117.514 84.9458 117.48 84.6284 117.378 84.0048C117.276 83.3699 117.128 82.4402 116.924 81.2384C116.822 80.6261 116.709 79.9458 116.584 79.1975C116.425 78.4492 116.176 77.6556 115.949 76.7826C115.711 75.9096 115.45 74.9799 115.178 73.9708C115.053 73.4606 114.883 72.9617 114.668 72.4515C114.464 71.9413 114.26 71.4085 114.056 70.8642C112.514 66.4425 109.77 61.3178 105.756 56.023C101.72 50.7509 96.1418 45.3995 88.897 41.1478C87.9899 40.6263 87.0716 40.0934 86.1419 39.5605C85.1782 39.0843 84.1805 38.6535 83.1827 38.2C82.1737 37.7691 81.1986 37.2249 80.1215 36.8848C79.0557 36.522 77.99 36.1592 76.9016 35.785C76.3573 35.6036 75.8131 35.4109 75.2689 35.2295C74.702 35.0934 74.1351 34.9687 73.5682 34.8326C72.4345 34.5605 71.278 34.2998 70.1215 34.0277C68.9537 33.7896 67.7519 33.6875 66.5501 33.5175C65.3483 33.3927 64.1465 33.1206 62.8993 33.132C60.4277 33.0753 57.922 32.8712 55.3824 33.1546C54.1125 33.2567 52.82 33.2907 51.5389 33.4608C50.2577 33.6762 48.9765 33.9029 47.684 34.1297C47.0378 34.2544 46.3802 34.3338 45.7339 34.4925C45.099 34.6739 44.4527 34.844 43.8178 35.0254C42.5366 35.3995 41.2328 35.717 39.9516 36.1365C37.4459 37.1456 34.8269 37.9959 32.4006 39.3678C31.777 39.6852 31.1648 40.0027 30.5412 40.3202C30.2351 40.4789 29.9176 40.6263 29.6115 40.8077L28.7272 41.3746C27.548 42.1342 26.3575 42.8938 25.1557 43.6648C23.9993 44.4811 22.8995 45.4108 21.7657 46.2838C21.2102 46.7374 20.6093 47.1455 20.0877 47.6444L18.5118 49.1523C16.3236 51.0797 14.4869 53.3813 12.5368 55.6149C11.6751 56.828 10.8134 58.0412 9.95174 59.2657L9.30547 60.184L8.73858 61.1591L7.61611 63.1205L6.48233 65.0933L5.52995 67.1681L4.58893 69.2543L4.11273 70.2974C3.97668 70.6602 3.86331 71.023 3.73859 71.3858C3.23973 72.837 2.7522 74.2996 2.242 75.7735C1.89052 77.2815 1.52771 78.8007 1.17624 80.32C-0.0255737 86.4424 -0.297684 92.8369 0.393921 99.2088C1.2556 105.569 3.04698 111.703 5.67735 117.372C6.39164 118.767 7.09457 120.15 7.79752 121.522C8.63652 122.825 9.4642 124.129 10.3032 125.422L10.9268 126.386L11.6411 127.293L13.0583 129.095L14.4755 130.887L16.0515 132.531L17.6161 134.163L18.3984 134.968L19.2487 135.705C20.3825 136.68 21.5163 137.655 22.6387 138.63C25.065 140.342 27.4006 142.122 29.997 143.472L31.8791 144.549C32.5027 144.912 33.1829 145.161 33.8292 145.467C35.1444 146.045 36.4255 146.68 37.7521 147.202C39.1013 147.655 40.4391 148.109 41.7657 148.562L42.7634 148.902C43.1035 148.993 43.4437 149.061 43.7838 149.152C44.4641 149.311 45.1443 149.469 45.8132 149.628C48.5003 150.376 51.2441 150.569 53.9198 150.955C55.269 151.068 56.6182 151.057 57.9447 151.113C58.6137 151.136 59.2713 151.147 59.9402 151.17C60.5978 151.17 61.2554 151.091 61.913 151.057C63.2281 150.966 64.532 150.864 65.8245 150.773C67.1057 150.637 68.3755 150.354 69.634 150.15C72.1737 149.821 74.566 149.016 76.9469 148.37C78.1487 148.097 79.2598 147.542 80.3936 147.122C81.516 146.658 82.6612 146.272 83.7383 145.762C84.7927 145.218 85.8471 144.685 86.8902 144.152C87.4117 143.891 87.9219 143.619 88.4435 143.358C88.931 143.052 89.4185 142.735 89.8947 142.429C90.8584 141.805 91.8108 141.193 92.7519 140.592C93.7042 140.002 94.5205 139.243 95.4049 138.585C96.2552 137.893 97.1282 137.247 97.9446 136.556C98.7155 135.807 99.4865 135.082 100.246 134.356C106.267 128.494 110.382 121.952 113.047 115.864C115.677 109.753 117.105 104.129 117.548 99.4582C117.627 98.88 117.695 98.3131 117.763 97.7689C117.842 97.2247 117.899 96.6918 117.888 96.1703C117.91 95.1385 117.944 94.1635 117.967 93.2564C117.978 92.3608 118.035 91.5218 118.013 90.7621C117.956 90.0025 117.899 89.3222 117.854 88.6986C117.752 87.4855 117.684 86.5558 117.627 85.9095C117.57 85.286 117.525 84.9572 117.525 84.9572C117.525 84.9572 117.525 85.286 117.559 85.9095C117.593 86.5558 117.65 87.4855 117.729 88.6986C117.763 89.3109 117.808 90.0025 117.865 90.7508C117.876 91.5104 117.82 92.3381 117.797 93.2338C117.763 94.1295 117.729 95.1045 117.695 96.1363C117.695 96.6578 117.638 97.1907 117.548 97.7349C117.468 98.2791 117.4 98.846 117.321 99.4242C116.845 104.061 115.393 109.662 112.752 115.717C110.087 121.76 105.96 128.234 99.9627 134.039C99.2144 134.753 98.4434 135.49 97.6725 136.215C96.8561 136.907 95.9945 137.553 95.1441 138.222C94.2711 138.869 93.4548 139.628 92.5024 140.206C91.5614 140.807 90.6203 141.408 89.6566 142.02C89.1804 142.327 88.6929 142.633 88.2054 142.939C87.6952 143.2 87.185 143.46 86.6634 143.721C85.6317 144.243 84.5886 144.776 83.5342 145.308C82.4684 145.807 81.3346 146.193 80.2235 146.646C79.0898 147.054 78.0013 147.599 76.7995 147.871C74.4413 148.506 72.0717 149.299 69.5433 149.617C68.2962 149.81 67.049 150.093 65.7678 150.229C64.4866 150.32 63.1941 150.41 61.8903 150.501C61.244 150.535 60.5864 150.614 59.9288 150.614C59.2712 150.592 58.6137 150.569 57.9561 150.558C56.6409 150.501 55.303 150.512 53.9651 150.399C51.3121 150.014 48.591 149.821 45.938 149.073C45.269 148.914 44.6001 148.755 43.9198 148.596C43.5797 148.517 43.2396 148.449 42.9108 148.347L41.9244 148.007C40.6092 147.553 39.2826 147.111 37.9448 146.646C36.6409 146.125 35.3598 145.501 34.0559 144.923C33.4097 144.617 32.7407 144.367 32.1172 144.005L30.2464 142.927C27.6841 141.59 25.3712 139.821 22.9675 138.12C21.8564 137.156 20.734 136.193 19.6115 135.229L18.7726 134.503L18.0016 133.698L16.4483 132.077L14.895 130.456L13.4891 128.687L12.0832 126.907L11.3803 126.011L10.7567 125.059C9.94038 123.778 9.11273 122.485 8.28507 121.204C7.58213 119.844 6.89051 118.472 6.18757 117.089C3.57987 111.488 1.81115 105.411 0.960815 99.1068C0.280548 92.7916 0.541344 86.4651 1.73181 80.3994C2.08328 78.8914 2.43475 77.3948 2.78622 75.8982C3.28509 74.447 3.7726 72.9958 4.26012 71.5559C4.38484 71.193 4.49824 70.8302 4.63429 70.4788L5.09915 69.447L6.02882 67.3835L6.96988 65.3314L8.09232 63.3813L9.20344 61.4425L9.75898 60.4788L10.4052 59.5718C11.2669 58.3586 12.1172 57.1568 12.9676 55.955C14.895 53.7328 16.7091 51.4539 18.8746 49.5491L20.4279 48.0639C20.9381 47.565 21.539 47.1682 22.0832 46.7147C23.2056 45.8417 24.2941 44.9233 25.4392 44.107C26.6296 43.3474 27.8088 42.5877 28.9766 41.8394L29.8496 41.2725C30.1557 41.1025 30.4618 40.9551 30.768 40.7963C31.3802 40.4789 32.0038 40.1728 32.616 39.8553C35.0196 38.4948 37.616 37.6444 40.0877 36.6354C41.3575 36.2045 42.65 35.8984 43.9198 35.5243C44.5548 35.3428 45.1897 35.1728 45.8246 34.9914C46.4595 34.8326 47.1171 34.7533 47.752 34.6286C49.0332 34.4018 50.3144 34.1864 51.5729 33.9596C52.8427 33.7896 54.1239 33.7556 55.3824 33.6422C57.8994 33.3474 60.3937 33.5515 62.8427 33.5968C64.0672 33.5741 65.269 33.8463 66.4594 33.971C67.6499 34.141 68.8404 34.2431 69.9968 34.4698C71.142 34.7419 72.2871 35.0027 73.4208 35.2635C73.9877 35.3995 74.5433 35.5243 75.1102 35.6603C75.6544 35.8304 76.1986 36.0231 76.7315 36.2045C77.8086 36.5673 78.8744 36.9301 79.9288 37.2816C80.9945 37.6104 81.9582 38.1546 82.9673 38.5741C83.9537 39.0276 84.9514 39.4471 85.9038 39.9233C86.8335 40.4562 87.7405 40.9777 88.6475 41.4879C95.8584 45.6829 101.414 50.9777 105.462 56.2044C109.475 61.4539 112.242 66.5332 113.806 70.9323C114.022 71.4765 114.226 71.998 114.43 72.5196C114.645 73.0298 114.827 73.5286 114.951 74.0275C115.235 75.0252 115.496 75.9549 115.745 76.8166C115.983 77.6783 116.244 78.4719 116.403 79.2089C116.539 79.9572 116.663 80.6261 116.765 81.2384C116.981 82.4402 117.151 83.3585 117.276 83.9935C117.389 84.617 117.468 84.9345 117.468 84.9345L117.514 84.9458Z" fill="#263238"/>
<path d="M295.585 104.357C295.574 104.425 296.266 104.516 297.343 105.06C298.42 105.593 299.882 106.715 300.903 108.631C301.402 109.584 301.776 110.729 301.821 111.976C301.855 113.223 301.572 114.572 300.835 115.785C299.44 118.189 296.379 120.128 293.125 119.708C289.883 119.232 287.456 116.534 286.765 113.847C286.379 112.486 286.47 111.103 286.844 109.912C287.229 108.722 287.91 107.724 288.635 106.942C290.132 105.377 291.844 104.697 293.023 104.47C294.214 104.232 294.905 104.334 294.905 104.266C294.905 104.243 294.735 104.221 294.406 104.187C294.248 104.164 294.044 104.153 293.805 104.175C293.567 104.175 293.284 104.187 292.978 104.243C291.753 104.402 289.939 105.048 288.329 106.647C287.536 107.452 286.799 108.484 286.368 109.754C285.948 111.023 285.835 112.52 286.232 113.983C286.595 115.445 287.4 116.874 288.579 118.019C289.735 119.175 291.3 120.037 293.046 120.298C294.792 120.513 296.538 120.116 297.955 119.311C299.395 118.529 300.551 117.373 301.3 116.057C302.071 114.754 302.377 113.291 302.309 111.953C302.241 110.615 301.81 109.414 301.266 108.427C300.155 106.443 298.579 105.343 297.445 104.856C297.161 104.72 296.901 104.629 296.663 104.561C296.436 104.482 296.243 104.436 296.073 104.414C295.756 104.357 295.585 104.334 295.574 104.357H295.585Z" fill="#263238"/>
<path d="M274.055 122.655C274.055 122.655 274.475 122.78 275.143 123.143C275.801 123.494 276.708 124.197 277.332 125.388C277.955 126.544 278.205 128.301 277.275 129.809C276.413 131.295 274.52 132.485 272.524 132.224C270.54 131.93 269.032 130.274 268.602 128.619C268.114 126.918 268.828 125.297 269.735 124.345C270.654 123.369 271.719 122.927 272.445 122.78C273.182 122.621 273.624 122.667 273.624 122.61C273.624 122.587 273.193 122.462 272.4 122.553C271.617 122.644 270.461 123.041 269.429 124.061C268.919 124.571 268.443 125.229 268.171 126.045C267.899 126.862 267.819 127.825 268.069 128.755C268.522 130.614 270.155 132.474 272.434 132.814C274.724 133.097 276.787 131.748 277.74 130.093C278.239 129.254 278.42 128.313 278.375 127.451C278.318 126.589 278.046 125.83 277.694 125.195C276.98 123.936 275.96 123.245 275.234 122.939C274.497 122.633 274.044 122.644 274.044 122.667L274.055 122.655Z" fill="#263238"/>
<path d="M357.717 60.4229H361.379L369.372 49.2892V41.9763C369.372 41.9763 375.03 41.6248 374.361 51.1939C373.692 60.763 374.417 58.3254 374.417 58.3254C374.417 58.3254 386.435 58.3707 387.433 59.4138C388.159 60.1735 388.488 72.1122 388.612 78.5861C388.68 81.84 386.674 84.8786 383.646 85.6496C383.216 85.7629 382.785 85.8196 382.354 85.8196C379.361 85.8196 364.043 83.382 364.043 83.382H357.717V60.4116V60.4229Z" fill="#E8505B"/>
<path d="M347.229 58.416L349.486 83.4613H355.755V58.9149L347.229 58.416Z" fill="#E8505B"/>
<path d="M302.082 63.9033C302.082 63.9033 302.116 63.5518 302.162 62.8715C302.207 62.1799 302.264 61.1708 302.343 59.8443C302.377 59.1754 302.422 58.4384 302.468 57.6221C302.547 56.8058 302.728 55.9214 302.864 54.9577C303.012 53.994 303.182 52.9623 303.352 51.8625C303.42 51.3069 303.556 50.74 303.715 50.1732C303.862 49.5949 304.021 49.0054 304.18 48.3931C305.291 43.4725 307.592 37.6562 311.22 31.4884C314.883 25.3433 320.155 18.9261 327.354 13.4726C328.261 12.8037 329.168 12.1121 330.098 11.4318C331.062 10.7969 332.071 10.2187 333.08 9.60642C333.579 9.3003 334.089 8.99418 334.599 8.68806C335.109 8.3706 335.619 8.06448 336.175 7.81505C337.263 7.29351 338.363 6.77197 339.463 6.23909C340.019 5.97832 340.574 5.69487 341.141 5.44544C341.719 5.23002 342.309 5.0146 342.898 4.79919C344.077 4.36835 345.268 3.93751 346.47 3.49534C347.683 3.09851 348.953 2.83774 350.211 2.49761C350.846 2.33888 351.47 2.16881 352.116 2.01008C352.433 1.93072 352.751 1.84001 353.068 1.77199L354.043 1.62459C356.662 1.25045 359.315 0.706231 362.059 0.694893C363.431 0.649542 364.803 0.513488 366.198 0.536164C367.581 0.604191 368.987 0.683555 370.393 0.751582C371.095 0.796934 371.81 0.796934 372.513 0.887636C373.216 0.989677 373.919 1.10305 374.622 1.21643C376.027 1.45453 377.467 1.61326 378.885 1.90804C381.685 2.66767 384.576 3.23457 387.343 4.39102C388.046 4.65179 388.737 4.90123 389.44 5.162C389.792 5.29805 390.143 5.41143 390.495 5.55882L391.515 6.04635C392.875 6.70394 394.236 7.36153 395.608 8.01913C396.946 8.74475 398.227 9.59508 399.553 10.3774C400.2 10.7969 400.891 11.1484 401.515 11.6132L403.386 13.0078C405.959 14.7765 408.216 16.9873 410.574 19.1189C411.64 20.298 412.717 21.4771 413.794 22.6676L414.599 23.5633C414.848 23.8807 415.086 24.2095 415.324 24.527L416.776 26.4658L418.238 28.4159L419.519 30.502L420.789 32.5995L421.424 33.6539C421.617 34.0168 421.787 34.3909 421.968 34.765C422.683 36.2503 423.397 37.7356 424.122 39.2322C424.689 40.7854 425.268 42.3501 425.846 43.926C427.909 50.2865 429.02 57.0439 429.111 63.9146C429.02 70.7967 427.909 77.554 425.846 83.9145C425.268 85.4905 424.701 87.0551 424.122 88.6084C423.397 90.105 422.683 91.5902 421.968 93.0755L421.424 94.1866L420.789 95.241L419.519 97.3385L418.238 99.4247L416.776 101.375L415.324 103.314L414.599 104.277L413.794 105.173C412.717 106.363 411.64 107.543 410.574 108.722C408.216 110.853 405.959 113.064 403.386 114.833L401.515 116.227C400.903 116.692 400.2 117.055 399.553 117.463C398.227 118.245 396.946 119.096 395.608 119.821C394.236 120.479 392.864 121.148 391.515 121.794L390.495 122.282C390.143 122.429 389.792 122.542 389.44 122.679C388.737 122.939 388.034 123.189 387.343 123.449C384.588 124.595 381.685 125.173 378.885 125.932C377.467 126.227 376.027 126.386 374.622 126.624C373.919 126.737 373.204 126.84 372.513 126.953C371.81 127.044 371.095 127.044 370.393 127.089C368.987 127.157 367.581 127.236 366.198 127.304C364.814 127.327 363.431 127.191 362.059 127.146C359.315 127.134 356.662 126.59 354.043 126.216L353.068 126.069C352.74 126.001 352.433 125.91 352.116 125.83C351.481 125.672 350.846 125.502 350.211 125.343C348.953 125.003 347.683 124.742 346.47 124.345C345.268 123.903 344.077 123.472 342.898 123.041C342.309 122.826 341.719 122.61 341.141 122.395C340.585 122.134 340.019 121.862 339.463 121.601C338.352 121.069 337.252 120.547 336.175 120.025C335.619 119.787 335.109 119.47 334.599 119.152C334.089 118.846 333.579 118.54 333.08 118.234C332.071 117.611 331.062 117.032 330.098 116.409C329.168 115.717 328.261 115.037 327.354 114.368C320.155 108.914 314.883 102.497 311.22 96.3521C310.756 95.5811 310.279 94.8442 309.849 94.0959C309.474 93.3136 309.1 92.5539 308.737 91.8056C308.375 91.0573 308.023 90.3204 307.672 89.6061C307.502 89.2433 307.309 88.8918 307.162 88.529C307.025 88.1662 306.889 87.792 306.753 87.4406C306.22 86.0007 305.71 84.6175 305.223 83.3023C304.769 81.9757 304.508 80.6606 304.168 79.4474C304.01 78.8352 303.851 78.2456 303.703 77.6674C303.545 77.0891 303.409 76.5336 303.341 75.978C303.171 74.8783 303.001 73.8352 302.853 72.8828C302.717 71.9191 302.536 71.0347 302.456 70.2184C302.411 69.4021 302.366 68.6538 302.332 67.9962C302.252 66.681 302.196 65.672 302.15 64.969C302.105 64.2887 302.071 63.9373 302.071 63.9373C302.071 63.9373 302.071 64.2887 302.093 64.969C302.128 65.672 302.162 66.681 302.218 67.9962C302.252 68.6651 302.275 69.4134 302.32 70.2298C302.4 71.0461 302.558 71.9304 302.694 72.9055C302.842 73.8692 302.989 74.9123 303.159 76.0234C303.216 76.5789 303.352 77.1458 303.511 77.7241C303.658 78.3023 303.806 78.9032 303.964 79.5154C304.293 80.7399 304.554 82.0551 304.996 83.393C305.472 84.7195 305.982 86.1027 306.504 87.5539C306.64 87.9168 306.765 88.2796 306.901 88.6537C307.048 89.0165 307.241 89.368 307.4 89.7308C307.751 90.4564 308.103 91.1934 308.465 91.953C308.828 92.7127 309.191 93.4723 309.565 94.2659C309.996 95.0256 310.472 95.7739 310.926 96.5448C314.576 102.735 319.86 109.209 327.082 114.719C327.989 115.4 328.907 116.091 329.837 116.783C330.801 117.418 331.821 118.007 332.83 118.631C333.341 118.937 333.851 119.255 334.361 119.561C334.871 119.878 335.381 120.196 335.937 120.445C337.025 120.978 338.136 121.511 339.248 122.044C339.803 122.304 340.359 122.588 340.937 122.849C341.526 123.064 342.116 123.279 342.706 123.495C343.896 123.926 345.087 124.368 346.3 124.81C347.524 125.218 348.794 125.479 350.064 125.83C350.699 125.989 351.334 126.159 351.98 126.329C352.297 126.409 352.615 126.499 352.944 126.567L353.93 126.715C356.572 127.1 359.236 127.644 362.014 127.667C363.397 127.713 364.78 127.849 366.175 127.837C367.569 127.769 368.987 127.701 370.404 127.622C371.118 127.576 371.832 127.576 372.535 127.486C373.238 127.384 373.953 127.27 374.667 127.157C376.095 126.919 377.535 126.76 378.964 126.465C381.787 125.706 384.712 125.139 387.49 123.982C388.193 123.722 388.907 123.461 389.61 123.211C389.962 123.075 390.324 122.962 390.676 122.815L391.696 122.316C393.068 121.658 394.44 120.989 395.835 120.332C397.184 119.606 398.488 118.756 399.826 117.962C400.483 117.542 401.175 117.191 401.798 116.715L403.68 115.309C406.277 113.529 408.556 111.295 410.937 109.152C412.014 107.962 413.102 106.772 414.191 105.57L415.007 104.674L415.744 103.699L417.206 101.738L418.68 99.7648L419.973 97.6559L421.265 95.5358L421.912 94.47L422.456 93.3476C423.181 91.851 423.907 90.3431 424.633 88.8351C425.211 87.2592 425.789 85.6832 426.367 84.0959C428.454 77.6787 429.576 70.8533 429.667 63.9146C429.576 56.9758 428.454 50.1618 426.367 43.7333C425.789 42.146 425.211 40.57 424.633 38.9941C423.907 37.4861 423.181 35.9782 422.456 34.4816C422.274 34.1075 422.104 33.7333 421.912 33.3592L421.265 32.2934L419.973 30.1732L418.68 28.0757L417.206 26.103L415.744 24.1415C415.494 23.8127 415.256 23.4839 415.007 23.1665L414.191 22.2708C413.102 21.069 412.014 19.8785 410.937 18.6994C408.556 16.5452 406.277 14.323 403.68 12.5429L401.798 11.137C401.175 10.6608 400.472 10.3094 399.826 9.88987C398.488 9.09622 397.195 8.24588 395.846 7.52026C394.463 6.85133 393.08 6.19374 391.708 5.53614L390.687 5.04862C390.336 4.90123 389.973 4.78785 389.621 4.65179C388.907 4.39102 388.204 4.13025 387.501 3.88082C384.724 2.72436 381.798 2.15747 378.975 1.39784C377.547 1.10305 376.095 0.944325 374.678 0.706231C373.964 0.592853 373.25 0.490812 372.547 0.377434C371.832 0.286732 371.118 0.286732 370.415 0.24138C368.998 0.173353 367.581 0.105326 366.186 0.0259616C364.792 0.00328599 363.397 0.13934 362.025 0.196029C359.259 0.218705 356.583 0.76292 353.941 1.14841L352.955 1.2958C352.626 1.36382 352.309 1.45453 351.991 1.53389C351.356 1.70396 350.71 1.86269 350.075 2.03276C348.817 2.38423 347.535 2.645 346.311 3.05316C345.098 3.49534 343.907 3.93751 342.717 4.36835C342.127 4.58377 341.538 4.79919 340.948 5.0146C340.381 5.27537 339.826 5.54748 339.259 5.81959C338.148 6.3638 337.037 6.89668 335.948 7.41822C335.393 7.66765 334.882 7.98511 334.372 8.30257C333.862 8.62003 333.352 8.92615 332.842 9.23227C331.833 9.85585 330.812 10.4454 329.848 11.0803C328.919 11.7719 328 12.4636 327.093 13.1438C319.871 18.654 314.576 25.1279 310.937 31.3184C307.32 37.5315 305.041 43.3931 303.964 48.3364C303.806 48.9487 303.658 49.5496 303.511 50.1278C303.352 50.706 303.227 51.2729 303.159 51.8285C302.989 52.9396 302.842 53.9827 302.694 54.9464C302.558 55.9101 302.4 56.7944 302.32 57.6221C302.286 58.4384 302.252 59.1867 302.218 59.8557C302.162 61.1708 302.128 62.1912 302.093 62.8829C302.071 63.5631 302.071 63.9146 302.071 63.9146L302.082 63.9033Z" fill="#263238"/>
<path d="M200.28 86.0123C200.28 86.0123 200.314 86.0123 200.325 86.0123C201.266 85.9896 202.003 85.2073 201.98 84.2662L201.595 69.1302C201.584 68.5974 201.323 68.0985 200.881 67.7924C200.45 67.4863 199.894 67.3956 199.384 67.5543C196.64 68.4046 193.545 68.0191 190.881 66.4885C188.409 65.0713 186.652 62.8264 186.062 60.3321C185.484 57.8491 186.051 55.0487 187.627 52.6337C189.316 50.0487 191.878 48.2686 194.645 47.7584C200.212 46.7267 206.323 50.4342 208.262 56.0351C208.568 56.9194 209.543 57.3956 210.427 57.0895C211.311 56.7834 211.788 55.8083 211.481 54.9239C209.01 47.8038 201.187 43.0986 194.033 44.4138C190.359 45.0941 186.992 47.4183 184.792 50.7743C182.717 53.9602 181.969 57.7244 182.763 61.1031C183.556 64.5157 185.903 67.5429 189.203 69.4364C192.014 71.0463 195.212 71.6699 198.25 71.2731L198.579 84.3569C198.602 85.2866 199.361 86.0123 200.28 86.0123Z" fill="#263238"/>
<path d="M197.649 93.4957C197.649 94.8676 198.76 95.9787 200.132 95.9787C201.504 95.9787 202.615 94.8676 202.615 93.4957C202.615 92.1238 201.504 91.0127 200.132 91.0127C198.76 91.0127 197.649 92.1238 197.649 93.4957Z" fill="#263238"/>
<path d="M386.379 260.524C388.93 260.524 391.447 259.787 393.476 258.268C395.857 256.476 397.445 253.642 397.819 250.467C398.182 247.463 397.365 244.515 395.608 242.383C393.828 240.229 391.073 238.891 388.068 238.71C385.665 238.563 383.306 239.152 381.345 240.365L376.866 231.873C376.424 231.046 375.404 230.728 374.565 231.159C373.737 231.601 373.42 232.622 373.851 233.461L379.27 243.733C379.519 244.209 379.973 244.526 380.495 244.617C381.016 244.708 381.56 244.538 381.946 244.175C383.465 242.735 385.608 241.987 387.853 242.123C389.928 242.247 391.798 243.143 392.977 244.572C394.157 246 394.689 248.007 394.44 250.093C394.168 252.338 393.079 254.333 391.436 255.569C388.17 258.018 382.83 257.553 379.78 254.549C379.111 253.891 378.034 253.903 377.377 254.572C376.719 255.24 376.73 256.318 377.399 256.975C379.792 259.322 383.114 260.547 386.39 260.547L386.379 260.524Z" fill="#263238"/>
<path d="M374.032 225.444C373.567 224.503 372.422 224.118 371.47 224.583C370.529 225.048 370.143 226.193 370.608 227.145C371.073 228.086 372.218 228.472 373.159 228.007C374.1 227.542 374.485 226.397 374.021 225.444H374.032Z" fill="#263238"/>
<path d="M43.1488 231.907C43.6704 231.907 44.1919 231.658 44.5321 231.204L51.3347 221.794C51.6522 221.363 51.7429 220.808 51.5842 220.297C51.4255 219.787 51.04 219.379 50.5411 219.198C48.5796 218.483 46.947 216.885 46.074 214.81C45.269 212.894 45.235 210.83 45.9946 209.13C46.7542 207.44 48.3189 206.08 50.2917 205.377C52.4232 204.617 54.7021 204.719 56.5275 205.638C60.1669 207.486 62.117 212.474 60.7905 216.545C60.4957 217.44 60.9832 218.393 61.8789 218.687C62.7746 218.982 63.727 218.495 64.0217 217.599C65.8811 211.93 63.2168 205.195 58.0694 202.599C55.4163 201.261 52.1624 201.102 49.1579 202.168C46.3121 203.177 44.0218 205.207 42.8881 207.735C41.7429 210.286 41.7656 213.347 42.9334 216.125C43.8745 218.347 45.4391 220.195 47.3892 221.42L41.7656 229.209C41.2101 229.969 41.3915 231.034 42.1511 231.579C42.4572 231.794 42.7974 231.896 43.1488 231.896V231.907Z" fill="#263238"/>
<path d="M37.2645 234.572C36.6295 235.411 36.7883 236.612 37.6273 237.247C38.4662 237.882 39.6567 237.724 40.303 236.885C40.9379 236.046 40.7792 234.844 39.9402 234.209C39.1012 233.574 37.8994 233.733 37.2645 234.572Z" fill="#263238"/>
</g>
<defs>
<clipPath id="clip0_1516_1171">
<rect width="445.96" height="485.942" fill="white" transform="matrix(-1 0 0 1 445.98 0.0234375)"/>
</clipPath>
</defs>
</svg>
