<svg width="621" height="550" viewBox="0 0 621 550" fill="none" xmlns="http://www.w3.org/2000/svg">
<path d="M171.026 -70C171.026 -70 238.299 -30.9743 224.668 38.3011C209.525 115.245 152.471 124.953 83.2808 146.479C14.0907 168.006 -7.08494 237.475 69.7558 368.059C146.579 498.643 96.2077 577.204 0.0380859 637H189.95C189.95 637 158.697 545.635 203.405 498.643C223.297 477.732 249.731 482.972 294.808 514.225C339.886 545.477 468.118 579.789 514.303 473.036C560.471 366.3 548.159 306.099 628.5 327.802V-70H171.026Z" fill="#F5F5F5"/>
<path d="M171.026 -70C171.026 -70 238.299 -30.9743 224.668 38.3011C209.525 115.245 152.471 124.953 83.2808 146.479C14.0907 168.006 -7.08494 237.475 69.7558 368.059C146.579 498.643 96.2077 577.204 0.0380859 637H189.95C189.95 637 158.697 545.635 203.405 498.643C223.297 477.732 249.731 482.972 294.808 514.225C339.886 545.477 468.118 579.789 514.303 473.036C560.471 366.3 548.159 306.099 628.5 327.802V-70H171.026Z" fill="url(#paint0_linear_1532_723)" fill-opacity="0.2"/>
<g style="mix-blend-mode:overlay" opacity="0.5">
<path d="M401.056 25.0229C404.698 25.0229 407.651 22.0702 407.651 18.4278C407.651 14.7854 404.698 11.8326 401.056 11.8326C397.413 11.8326 394.46 14.7854 394.46 18.4278C394.46 22.0702 397.413 25.0229 401.056 25.0229Z" stroke="white" stroke-width="2" stroke-miterlimit="10"/>
<path d="M481.607 475.093C485.25 475.093 488.203 472.141 488.203 468.498C488.203 464.856 485.25 461.903 481.607 461.903C477.965 461.903 475.012 464.856 475.012 468.498C475.012 472.141 477.965 475.093 481.607 475.093Z" stroke="white" stroke-width="2" stroke-miterlimit="10"/>
<path d="M573.38 82.1457C577.023 82.1457 579.975 79.193 579.975 75.5506C579.975 71.9082 577.023 68.9554 573.38 68.9554C569.738 68.9554 566.785 71.9082 566.785 75.5506C566.785 79.193 569.738 82.1457 573.38 82.1457Z" stroke="white" stroke-width="2" stroke-miterlimit="10"/>
<path d="M82.2606 323.915C85.9031 323.915 88.856 320.962 88.856 317.32C88.856 313.678 85.9031 310.725 82.2606 310.725C78.618 310.725 75.6652 313.678 75.6652 317.32C75.6652 320.962 78.618 323.915 82.2606 323.915Z" stroke="white" stroke-width="2" stroke-miterlimit="10"/>
<path d="M343.297 465.72C345.405 465.72 347.114 464.011 347.114 461.903C347.114 459.795 345.405 458.087 343.297 458.087C341.19 458.087 339.481 459.795 339.481 461.903C339.481 464.011 341.19 465.72 343.297 465.72Z" stroke="white" stroke-width="1.16" stroke-miterlimit="10"/>
<path d="M277.027 83.2713C279.135 83.2713 280.844 81.5626 280.844 79.4549C280.844 77.3471 279.135 75.6385 277.027 75.6385C274.919 75.6385 273.211 77.3471 273.211 79.4549C273.211 81.5626 274.919 83.2713 277.027 83.2713Z" stroke="white" stroke-width="1.16" stroke-miterlimit="10"/>
<path d="M131.242 531.829C133.35 531.829 135.059 530.121 135.059 528.013C135.059 525.905 133.35 524.197 131.242 524.197C129.134 524.197 127.426 525.905 127.426 528.013C127.426 530.121 129.134 531.829 131.242 531.829Z" stroke="white" stroke-width="1.16" stroke-miterlimit="10"/>
<path d="M573.38 172.367C575.488 172.367 577.197 170.659 577.197 168.551C577.197 166.443 575.488 164.735 573.38 164.735C571.272 164.735 569.564 166.443 569.564 168.551C569.564 170.659 571.272 172.367 573.38 172.367Z" stroke="white" stroke-width="1.16" stroke-miterlimit="10"/>
</g>
<g style="mix-blend-mode:multiply" opacity="0.1">
<path d="M543.736 445.141C543.736 449.675 445.117 453.347 323.472 453.347C201.828 453.347 103.209 449.675 103.209 445.141C103.209 440.608 201.828 436.936 323.472 436.936C445.117 436.936 543.736 440.608 543.736 445.141Z" fill="black"/>
</g>
<path d="M516.645 106.225H130.28C121.02 106.225 113.513 113.732 113.513 122.992V375.938C113.513 385.198 121.02 392.705 130.28 392.705H516.645C525.906 392.705 533.413 385.198 533.413 375.938V122.992C533.413 113.732 525.906 106.225 516.645 106.225Z" fill="url(#paint1_linear_1532_723)"/>
<path d="M513.161 361.063H133.784C128.613 361.063 124.417 356.979 124.417 351.94V126.214C124.417 121.175 128.613 117.091 133.784 117.091H513.161C518.332 117.091 522.528 121.175 522.528 126.214V351.94C522.528 356.979 518.332 361.063 513.161 361.063Z" fill="white"/>
<path d="M370.684 392.705H276.224V432.421H370.684V392.705Z" fill="url(#paint2_linear_1532_723)"/>
<path d="M426.981 447.483H219.963C219.963 435.831 229.406 426.389 241.059 426.389H405.867C417.52 426.389 426.963 435.831 426.963 447.483H426.981Z" fill="url(#paint3_linear_1532_723)"/>
<path opacity="0.5" d="M461.697 144.162H245.836C238.293 144.162 232.178 150.276 232.178 157.819V304.749C232.178 312.292 238.293 318.406 245.836 318.406H461.697C469.239 318.406 475.354 312.292 475.354 304.749V157.819C475.354 150.276 469.239 144.162 461.697 144.162Z" fill="#F5F5F5"/>
<path d="M401.09 162.746H185.229C177.686 162.746 171.572 168.86 171.572 176.403V323.333C171.572 330.876 177.686 336.99 185.229 336.99H401.09C408.633 336.99 414.748 330.876 414.748 323.333V176.403C414.748 168.86 408.633 162.746 401.09 162.746Z" fill="#F5F5F5"/>
<path d="M414.748 186.013H171.572V176.422C171.572 168.872 177.679 162.765 185.229 162.765H401.09C408.64 162.765 414.748 168.872 414.748 176.422V186.013Z" fill="#E4E4E4"/>
<path d="M398.111 195.942H341.739C338.552 195.942 335.969 198.526 335.969 201.712V321.141C335.969 324.328 338.552 326.911 341.739 326.911H398.111C401.298 326.911 403.882 324.328 403.882 321.141V201.712C403.882 198.526 401.298 195.942 398.111 195.942Z" fill="#852020"/>
<g opacity="0.6">
<g style="mix-blend-mode:overlay">
<path d="M395.62 201.787H344.23C342.254 201.787 340.652 203.389 340.652 205.365V214.433C340.652 216.409 342.254 218.011 344.23 218.011H395.62C397.596 218.011 399.198 216.409 399.198 214.433V205.365C399.198 203.389 397.596 201.787 395.62 201.787Z" fill="white"/>
</g>
<g style="mix-blend-mode:overlay">
<path d="M395.62 226.947H344.23C342.254 226.947 340.652 228.549 340.652 230.525V239.592C340.652 241.569 342.254 243.171 344.23 243.171H395.62C397.596 243.171 399.198 241.569 399.198 239.592V230.525C399.198 228.549 397.596 226.947 395.62 226.947Z" fill="white"/>
</g>
<g style="mix-blend-mode:overlay">
<path d="M395.62 252.107H344.23C342.254 252.107 340.652 253.709 340.652 255.685V264.752C340.652 266.728 342.254 268.33 344.23 268.33H395.62C397.596 268.33 399.198 266.728 399.198 264.752V255.685C399.198 253.709 397.596 252.107 395.62 252.107Z" fill="white"/>
</g>
</g>
<path d="M240.89 195.942H186.747C184.377 195.942 182.457 197.863 182.457 200.232V270.391C182.457 272.76 184.377 274.681 186.747 274.681H240.89C243.26 274.681 245.18 272.76 245.18 270.391V200.232C245.18 197.863 243.26 195.942 240.89 195.942Z" fill="#852020"/>
<g style="mix-blend-mode:overlay" opacity="0.6">
<path d="M237.967 200.607H189.651C187.726 200.607 186.166 202.167 186.166 204.091V255.554C186.166 257.478 187.726 259.038 189.651 259.038H237.967C239.892 259.038 241.452 257.478 241.452 255.554V204.091C241.452 202.167 239.892 200.607 237.967 200.607Z" fill="white"/>
</g>
<path d="M219.907 287.027H184.892C183.547 287.027 182.457 288.117 182.457 289.462V324.476C182.457 325.821 183.547 326.911 184.892 326.911H219.907C221.252 326.911 222.343 325.821 222.343 324.476V289.462C222.343 288.117 221.252 287.027 219.907 287.027Z" fill="#852020"/>
<path d="M271.671 287.027H236.656C235.311 287.027 234.22 288.117 234.22 289.462V324.476C234.22 325.821 235.311 326.911 236.656 326.911H271.671C273.016 326.911 274.107 325.821 274.107 324.476V289.462C274.107 288.117 273.016 287.027 271.671 287.027Z" fill="#852020"/>
<path d="M323.435 287.027H288.42C287.075 287.027 285.984 288.117 285.984 289.462V324.476C285.984 325.821 287.075 326.911 288.42 326.911H323.435C324.78 326.911 325.87 325.821 325.87 324.476V289.462C325.87 288.117 324.78 287.027 323.435 287.027Z" fill="#852020"/>
<path d="M323.397 202.499H257.714C255.896 202.499 254.435 201.038 254.435 199.221C254.435 197.403 255.896 195.942 257.714 195.942H323.397C325.215 195.942 326.676 197.403 326.676 199.221C326.676 201.038 325.215 202.499 323.397 202.499Z" fill="#852020"/>
<path d="M295.914 210.292H257.733C255.922 210.292 254.454 211.76 254.454 213.571C254.454 215.382 255.922 216.849 257.733 216.849H295.914C297.724 216.849 299.192 215.382 299.192 213.571C299.192 211.76 297.724 210.292 295.914 210.292Z" fill="#852020"/>
<path d="M324.821 225.823H255.503C254.922 225.823 254.454 225.355 254.454 224.774C254.454 224.193 254.922 223.725 255.503 223.725H324.821C325.402 223.725 325.871 224.193 325.871 224.774C325.871 225.355 325.402 225.823 324.821 225.823Z" fill="#852020"/>
<path d="M324.821 233.185H255.503C254.922 233.185 254.454 232.717 254.454 232.136C254.454 231.555 254.922 231.087 255.503 231.087H324.821C325.402 231.087 325.871 231.555 325.871 232.136C325.871 232.717 325.402 233.185 324.821 233.185Z" fill="#852020"/>
<path d="M324.821 240.548H255.503C254.922 240.548 254.454 240.079 254.454 239.499C254.454 238.918 254.922 238.45 255.503 238.45H324.821C325.402 238.45 325.871 238.918 325.871 239.499C325.871 240.079 325.402 240.548 324.821 240.548Z" fill="#852020"/>
<path d="M324.821 247.91H255.503C254.922 247.91 254.454 247.442 254.454 246.861C254.454 246.28 254.922 245.812 255.503 245.812H324.821C325.402 245.812 325.871 246.28 325.871 246.861C325.871 247.442 325.402 247.91 324.821 247.91Z" fill="#852020"/>
<path d="M324.372 254.598H255.953C255.125 254.598 254.454 255.269 254.454 256.097V273.182C254.454 274.01 255.125 274.681 255.953 274.681H324.372C325.2 274.681 325.871 274.01 325.871 273.182V256.097C325.871 255.269 325.2 254.598 324.372 254.598Z" fill="#852020"/>
<path d="M135.789 126.795H50.6396C44.5883 126.795 39.6798 131.703 39.6798 137.755V197.291C39.6798 203.342 44.5883 208.25 50.6396 208.25H133.053L146.748 221.945V137.755C146.748 131.703 141.84 126.795 135.789 126.795Z" fill="#F5F5F5"/>
<path opacity="0.2" d="M84.0998 140.246H55.0236C53.2957 140.246 51.8949 141.647 51.8949 143.375V178.557C51.8949 180.285 53.2957 181.686 55.0236 181.686H84.0998C85.8277 181.686 87.2285 180.285 87.2285 178.557V143.375C87.2285 141.647 85.8277 140.246 84.0998 140.246Z" fill="#2F3B42"/>
<path d="M82.7507 152.161C82.5634 151.899 82.2449 151.73 81.9077 151.73H61.8991L60.9811 148.92C60.8499 148.489 60.4378 148.189 59.9881 148.189H57.2154C56.6346 148.189 56.1663 148.658 56.1663 149.238C56.1663 149.819 56.6346 150.288 57.2154 150.288H59.22L64.3158 166.024C64.3908 166.249 64.5219 166.418 64.6905 166.549C64.8591 166.68 65.084 166.755 65.3088 166.755H77.7111C78.1608 166.755 78.5729 166.455 78.7041 166.024L82.8819 153.098C82.9943 152.779 82.9381 152.423 82.732 152.161H82.7507Z" fill="white"/>
<path d="M66.3016 173.724C67.5433 173.724 68.5498 172.717 68.5498 171.476C68.5498 170.234 67.5433 169.228 66.3016 169.228C65.06 169.228 64.0535 170.234 64.0535 171.476C64.0535 172.717 65.06 173.724 66.3016 173.724Z" fill="white"/>
<path d="M78.9851 171.476C78.9851 172.712 77.9734 173.724 76.7369 173.724C75.5004 173.724 74.4888 172.712 74.4888 171.476C74.4888 170.239 75.5004 169.228 76.7369 169.228C77.9734 169.228 78.9851 170.239 78.9851 171.476Z" fill="white"/>
<g opacity="0.2">
<path d="M136.763 144.03H96.933C95.8838 144.03 95.0408 143.187 95.0408 142.138C95.0408 141.089 95.8838 140.246 96.933 140.246H136.763C137.812 140.246 138.655 141.089 138.655 142.138C138.655 143.187 137.812 144.03 136.763 144.03Z" fill="#2F3B42"/>
<path d="M136.763 153.435H96.933C95.8838 153.435 95.0408 152.592 95.0408 151.543C95.0408 150.494 95.8838 149.651 96.933 149.651H136.763C137.812 149.651 138.655 150.494 138.655 151.543C138.655 152.592 137.812 153.435 136.763 153.435Z" fill="#2F3B42"/>
<path d="M136.763 162.839H96.933C95.8838 162.839 95.0408 161.996 95.0408 160.947C95.0408 159.898 95.8838 159.055 96.933 159.055H136.763C137.812 159.055 138.655 159.898 138.655 160.947C138.655 161.996 137.812 162.839 136.763 162.839Z" fill="#2F3B42"/>
<path d="M136.763 172.225H96.933C95.8838 172.225 95.0408 171.382 95.0408 170.333C95.0408 169.284 95.8838 168.441 96.933 168.441H136.763C137.812 168.441 138.655 169.284 138.655 170.333C138.655 171.382 137.812 172.225 136.763 172.225Z" fill="#2F3B42"/>
<path d="M136.763 181.629H96.933C95.8838 181.629 95.0408 180.786 95.0408 179.737C95.0408 178.688 95.8838 177.845 96.933 177.845H136.763C137.812 177.845 138.655 178.688 138.655 179.737C138.655 180.786 137.812 181.629 136.763 181.629Z" fill="#2F3B42"/>
<path d="M136.763 191.034H96.933C95.8838 191.034 95.0408 190.191 95.0408 189.142C95.0408 188.093 95.8838 187.25 96.933 187.25H136.763C137.812 187.25 138.655 188.093 138.655 189.142C138.655 190.191 137.812 191.034 136.763 191.034Z" fill="#2F3B42"/>
<path d="M85.2424 191.034H53.7682C52.719 191.034 51.876 190.191 51.876 189.142C51.876 188.093 52.719 187.25 53.7682 187.25H85.2424C86.2916 187.25 87.1346 188.093 87.1346 189.142C87.1346 190.191 86.2916 191.034 85.2424 191.034Z" fill="#2F3B42"/>
</g>
<path d="M498.791 150.868H594.9C597.935 150.868 600.39 153.322 600.39 156.357V198.209C600.39 201.244 597.935 203.698 594.9 203.698H507.016L493.321 217.393V156.376C493.321 153.341 495.775 150.887 498.81 150.887L498.791 150.868Z" fill="#F5F5F5"/>
<path opacity="0.2" d="M590.816 155.664H561.74C560.012 155.664 558.611 157.065 558.611 158.793V193.975C558.611 195.703 560.012 197.104 561.74 197.104H590.816C592.544 197.104 593.945 195.703 593.945 193.975V158.793C593.945 157.065 592.544 155.664 590.816 155.664Z" fill="#2F3B42"/>
<path d="M589.467 167.579C589.28 167.317 588.961 167.148 588.624 167.148H568.616L567.698 164.338C567.566 163.907 567.154 163.607 566.705 163.607H563.932C563.351 163.607 562.883 164.076 562.883 164.657C562.883 165.237 563.351 165.706 563.932 165.706H565.937L571.032 181.442C571.107 181.667 571.238 181.836 571.407 181.967C571.576 182.098 571.8 182.173 572.025 182.173H584.428C584.877 182.173 585.289 181.873 585.421 181.442L589.598 168.516C589.711 168.197 589.655 167.841 589.448 167.579H589.467Z" fill="white"/>
<path d="M573.018 189.142C574.26 189.142 575.266 188.135 575.266 186.894C575.266 185.652 574.26 184.646 573.018 184.646C571.777 184.646 570.77 185.652 570.77 186.894C570.77 188.135 571.777 189.142 573.018 189.142Z" fill="white"/>
<path d="M585.72 186.894C585.72 188.13 584.709 189.142 583.472 189.142C582.236 189.142 581.224 188.13 581.224 186.894C581.224 185.657 582.236 184.646 583.472 184.646C584.709 184.646 585.72 185.657 585.72 186.894Z" fill="white"/>
<g opacity="0.2">
<path d="M503.644 164.169H550.555C551.792 164.169 552.785 163.326 552.785 162.277C552.785 161.228 551.792 160.385 550.555 160.385H503.644C502.407 160.385 501.414 161.228 501.414 162.277C501.414 163.326 502.407 164.169 503.644 164.169Z" fill="#2F3B42"/>
<path d="M503.644 173.574H550.555C551.792 173.574 552.785 172.731 552.785 171.682C552.785 170.633 551.792 169.79 550.555 169.79H503.644C502.407 169.79 501.414 170.633 501.414 171.682C501.414 172.731 502.407 173.574 503.644 173.574Z" fill="#2F3B42"/>
<path d="M503.644 182.96H550.555C551.792 182.96 552.785 182.117 552.785 181.067C552.785 180.018 551.792 179.175 550.555 179.175H503.644C502.407 179.175 501.414 180.018 501.414 181.067C501.414 182.117 502.407 182.96 503.644 182.96Z" fill="#2F3B42"/>
<path d="M503.644 192.364H550.555C551.792 192.364 552.785 191.521 552.785 190.472C552.785 189.423 551.792 188.58 550.555 188.58H503.644C502.407 188.58 501.414 189.423 501.414 190.472C501.414 191.521 502.407 192.364 503.644 192.364Z" fill="#2F3B42"/>
</g>
<path d="M579.65 238.937H434.944C430.546 238.937 426.981 242.501 426.981 246.899V330.733C426.981 335.13 430.546 338.695 434.944 338.695H579.65C584.048 338.695 587.612 335.13 587.612 330.733V246.899C587.612 242.501 584.048 238.937 579.65 238.937Z" fill="url(#paint4_linear_1532_723)"/>
<path d="M587.612 295.345H426.981V313.779H587.612V295.345Z" fill="#2F3B42"/>
<path d="M479.813 261.417H437.51V269.792H479.813V261.417Z" fill="#2F3B42"/>
<path d="M547.879 276.264C553.769 270.374 553.769 260.826 547.879 254.936C541.989 249.047 532.44 249.047 526.551 254.936C520.661 260.826 520.661 270.374 526.551 276.264C532.44 282.153 541.989 282.153 547.879 276.264Z" fill="#2F3B42"/>
<path opacity="0.7" d="M560.142 279.549C567.837 276.362 571.491 267.54 568.304 259.845C565.116 252.15 556.294 248.496 548.599 251.683C540.904 254.871 537.25 263.692 540.437 271.387C543.625 279.082 552.447 282.736 560.142 279.549Z" fill="white"/>
<path d="M85.1241 318.562V234.903H229.955V318.562H85.1241Z" fill="#D5B26B" stroke="url(#paint5_linear_1532_723)"/>
<g style="mix-blend-mode:overlay" opacity="0.4">
<path d="M221.374 250.233V303.232C216.531 303.483 212.646 307.368 212.395 312.211H102.572C102.323 307.406 98.5086 303.557 93.7234 303.239V250.226C98.5086 249.908 102.323 246.059 102.572 241.254H212.395C212.646 246.097 216.531 249.982 221.374 250.233Z" fill="white"/>
<path d="M221.374 250.233V303.232C216.531 303.483 212.646 307.368 212.395 312.211H102.572C102.323 307.406 98.5086 303.557 93.7234 303.239V250.226C98.5086 249.908 102.323 246.059 102.572 241.254H212.395C212.646 246.097 216.531 249.982 221.374 250.233Z" stroke="url(#paint6_linear_1532_723)"/>
</g>
<path d="M172.328 261.932C180.495 270.099 180.495 283.34 172.328 291.507C164.161 299.674 150.919 299.674 142.752 291.507C134.584 283.34 134.584 270.099 142.752 261.932C150.919 253.765 164.161 253.765 172.328 261.932Z" fill="#D5B26B" stroke="url(#paint7_linear_1532_723)"/>
<path d="M174.725 276.723C174.725 286.214 167.031 293.908 157.54 293.908C148.048 293.908 140.354 286.214 140.354 276.723C140.354 267.232 148.048 259.538 157.54 259.538C167.031 259.538 174.725 267.232 174.725 276.723Z" fill="url(#paint8_linear_1532_723)" stroke="url(#paint9_linear_1532_723)"/>
<path d="M118.478 276.723C118.478 279.777 116.005 282.231 112.97 282.231C109.935 282.231 107.462 279.758 107.462 276.723C107.462 273.688 109.935 271.215 112.97 271.215C116.005 271.215 118.478 273.688 118.478 276.723Z" stroke="url(#paint10_linear_1532_723)" stroke-width="2.82" stroke-miterlimit="10"/>
<path d="M206.662 276.723C206.662 279.777 204.189 282.231 201.154 282.231C198.119 282.231 195.646 279.758 195.646 276.723C195.646 273.688 198.119 271.215 201.154 271.215C204.189 271.215 206.662 273.688 206.662 276.723Z" stroke="url(#paint11_linear_1532_723)" stroke-width="2.82" stroke-miterlimit="10"/>
<path d="M190.831 447.464H292.954V329.628H190.831V447.464Z" fill="#E4E4E4"/>
<path d="M302.265 329.647H292.954V447.483H302.265V329.647Z" fill="#F5F5F5"/>
<path d="M311.576 329.647H302.265V447.483H311.576V329.647Z" fill="#E4E4E4"/>
<g style="mix-blend-mode:multiply" opacity="0.39">
<path d="M292.954 447.483L302.265 437.873V447.483H292.954Z" fill="#2F3B42"/>
</g>
<g style="mix-blend-mode:multiply" opacity="0.1">
<path d="M302.265 437.873L311.576 447.483H302.265V437.873Z" fill="#2F3B42"/>
</g>
<path d="M216.572 345.14V371.442C216.572 385.961 228.338 397.745 242.876 397.745C257.395 397.745 269.179 385.98 269.179 371.442V345.14" stroke="#2F3B42" stroke-width="3.73" stroke-linecap="round" stroke-linejoin="round"/>
<path d="M172.04 447.483H237.949V371.442H172.04V447.483Z" fill="#F5F5F5"/>
<path d="M243.962 371.423H237.949V447.464H243.962V371.423Z" fill="#E4E4E4"/>
<path d="M249.976 371.423H243.962V447.464H249.976V371.423Z" fill="url(#paint12_linear_1532_723)"/>
<g style="mix-blend-mode:multiply" opacity="0.39">
<path d="M237.949 447.483L243.962 441.282V447.483H237.949Z" fill="#2F3B42"/>
</g>
<g style="mix-blend-mode:multiply" opacity="0.1">
<path d="M243.962 441.282L249.958 447.483H243.962V441.282Z" fill="#2F3B42"/>
</g>
<path d="M188.658 381.427V398.4C188.658 407.767 196.264 415.373 205.631 415.373C214.999 415.373 222.605 407.767 222.605 398.4V381.427" stroke="#2F3B42" stroke-width="2.41" stroke-linecap="round" stroke-linejoin="round"/>
<path d="M469.059 447.483H514.978V397.576H469.059V447.483Z" fill="#D5B26B"/>
<path d="M488.544 447.483H495.494V397.576H488.544V447.483Z" fill="#EBCB89"/>
<path d="M525.694 397.576H514.978V447.483H525.694V397.576Z" fill="#F8F9D0"/>
<path d="M509.208 440.57H501.058V444.242H509.208V440.57Z" fill="#D5B26B"/>
<path d="M479.776 402.334H471.626V406.006H479.776V402.334Z" fill="#D5B26B"/>
<path d="M391.61 447.483H463.739V369.119H391.61V447.483Z" fill="#F8E3B7"/>
<path d="M422.223 447.483H433.145V369.119H422.223V447.483Z" fill="#EBCB89"/>
<path d="M480.6 369.1H463.758V447.464H480.6V369.1Z" fill="#997A3D"/>
<path d="M454.671 436.617H441.876V442.388H454.671V436.617Z" fill="#D5B26B"/>
<path d="M408.453 376.575H395.657V382.345H408.453V376.575Z" fill="#D5B26B"/>
<path d="M473.649 83.2012H428.087C425.438 83.2012 423.291 85.3484 423.291 87.9971V133.558C423.291 136.207 425.438 138.354 428.087 138.354H473.649C476.298 138.354 478.446 136.207 478.446 133.558V87.9971C478.446 85.3484 476.298 83.2012 473.649 83.2012Z" fill="url(#paint13_linear_1532_723)"/>
<g style="mix-blend-mode:overlay">
<path d="M452.873 94.8725L456.676 102.591C456.994 103.247 457.631 103.715 458.362 103.809L466.886 105.045C468.722 105.307 469.453 107.555 468.123 108.848L461.959 114.862C461.435 115.367 461.191 116.117 461.322 116.829L462.783 125.315C463.102 127.132 461.191 128.537 459.542 127.676L451.917 123.667C451.262 123.329 450.493 123.329 449.838 123.667L442.213 127.676C440.583 128.537 438.653 127.151 438.972 125.315L440.433 116.829C440.564 116.098 440.321 115.367 439.796 114.862L433.632 108.848C432.302 107.555 433.033 105.307 434.869 105.045L443.393 103.809C444.124 103.696 444.742 103.247 445.079 102.591L448.882 94.8725C449.707 93.2052 452.067 93.2052 452.891 94.8725H452.873Z" fill="white"/>
</g>
<path d="M230.455 133.802C215.224 133.802 202.877 121.456 202.877 106.225C202.877 90.9946 215.224 78.6489 230.455 78.6489C245.686 78.6489 258.032 90.9946 258.032 106.225C258.032 121.456 245.686 133.802 230.455 133.802Z" fill="url(#paint14_linear_1532_723)"/>
<g style="mix-blend-mode:overlay">
<path d="M242.164 95.7155C238.923 92.4745 233.677 92.4745 230.455 95.7155C227.214 92.4745 221.968 92.4745 218.746 95.7155C215.505 98.9565 215.505 104.202 218.746 107.424L230.455 119.133L242.164 107.424C245.405 104.183 245.405 98.9378 242.164 95.7155Z" fill="white"/>
</g>
<path d="M368.848 65.1792L364.52 62.6688C363.696 62.2005 363.302 61.245 363.509 60.3271C363.827 58.8845 363.996 57.3858 363.996 55.8309C363.996 54.276 363.827 52.796 363.509 51.3348C363.302 50.4168 363.696 49.4614 364.52 48.993L368.848 46.4827C369.86 45.9019 370.216 44.5905 369.635 43.5789L367.162 39.3075C366.581 38.2959 365.27 37.94 364.258 38.5207L359.911 41.0311C359.087 41.4994 358.075 41.3683 357.382 40.7313C355.19 38.7081 352.53 37.1531 349.607 36.2352C348.708 35.9542 348.09 35.1299 348.09 34.1932V29.1725C348.09 27.9922 347.134 27.0368 345.954 27.0368H341.008C339.828 27.0368 338.872 27.9922 338.872 29.1725V34.1932C338.872 35.1299 338.254 35.9542 337.355 36.2352C334.432 37.1531 331.791 38.6893 329.58 40.7313C328.887 41.3683 327.875 41.4994 327.051 41.0311L322.704 38.5207C321.693 37.94 320.381 38.2772 319.801 39.3075L317.328 43.5789C316.747 44.5905 317.084 45.9019 318.114 46.4827L322.442 48.993C323.266 49.4614 323.66 50.4168 323.454 51.3348C323.135 52.7773 322.967 54.276 322.967 55.8309C322.967 57.3858 323.135 58.8658 323.454 60.3271C323.66 61.245 323.266 62.2005 322.442 62.6688L318.114 65.1792C317.103 65.7599 316.747 67.0713 317.328 68.0829L319.801 72.3543C320.381 73.3659 321.693 73.7218 322.704 73.1411L327.051 70.6307C327.875 70.1624 328.887 70.2935 329.58 70.9305C331.772 72.9538 334.414 74.5087 337.355 75.4266C338.254 75.7076 338.872 76.5319 338.872 77.4686V82.4893C338.872 83.6696 339.828 84.625 341.008 84.625H345.954C347.134 84.625 348.09 83.6696 348.09 82.4893V77.4686C348.09 76.5319 348.708 75.7076 349.607 75.4266C352.53 74.5087 355.172 72.9725 357.382 70.9305C358.075 70.2935 359.087 70.1624 359.911 70.6307L364.258 73.1411C365.27 73.7218 366.581 73.3846 367.162 72.3543L369.635 68.0829C370.216 67.0713 369.878 65.7599 368.848 65.1792ZM343.481 68.2141C336.643 68.2141 331.116 62.6688 331.116 55.8496C331.116 49.0305 336.662 43.4852 343.481 43.4852C350.301 43.4852 355.846 49.0305 355.846 55.8496C355.846 62.6688 350.301 68.2141 343.481 68.2141Z" fill="#E4E4E4"/>
<defs>
<linearGradient id="paint0_linear_1532_723" x1="70.5" y1="750" x2="280.5" y2="72" gradientUnits="userSpaceOnUse">
<stop stop-color="#1E2024"/>
<stop offset="1" stop-color="white" stop-opacity="0"/>
</linearGradient>
<linearGradient id="paint1_linear_1532_723" x1="346.889" y1="63.0571" x2="552.626" y2="577.991" gradientUnits="userSpaceOnUse">
<stop stop-color="#FC3110"/>
<stop offset="0.979167"/>
</linearGradient>
<linearGradient id="paint2_linear_1532_723" x1="256.081" y1="416.19" x2="315.341" y2="349.097" gradientUnits="userSpaceOnUse">
<stop stop-color="#FDCB8E"/>
<stop offset="1" stop-color="#FF2300"/>
</linearGradient>
<linearGradient id="paint3_linear_1532_723" x1="335.022" y1="423.21" x2="337.636" y2="467.023" gradientUnits="userSpaceOnUse">
<stop stop-color="#FC3110"/>
<stop offset="0.979167"/>
</linearGradient>
<linearGradient id="paint4_linear_1532_723" x1="392.729" y1="297.925" x2="537.574" y2="186.9" gradientUnits="userSpaceOnUse">
<stop stop-color="#FDCB8E"/>
<stop offset="1" stop-color="#FF2300"/>
</linearGradient>
<linearGradient id="paint5_linear_1532_723" x1="215.094" y1="319.062" x2="205.166" y2="224.314" gradientUnits="userSpaceOnUse">
<stop stop-color="#6B4500"/>
<stop offset="0.322917" stop-color="#D5B26B"/>
<stop offset="0.546875" stop-color="#F8F9D0"/>
<stop offset="1" stop-color="#997A3D"/>
</linearGradient>
<linearGradient id="paint6_linear_1532_723" x1="208.323" y1="312.711" x2="200.187" y2="232.116" gradientUnits="userSpaceOnUse">
<stop stop-color="#6B4500"/>
<stop offset="0.322917" stop-color="#D5B26B"/>
<stop offset="0.546875" stop-color="#F8F9D0"/>
<stop offset="1" stop-color="#997A3D"/>
</linearGradient>
<linearGradient id="paint7_linear_1532_723" x1="184.633" y1="279.909" x2="145.461" y2="252.715" gradientUnits="userSpaceOnUse">
<stop stop-color="#6B4500"/>
<stop offset="0.322917" stop-color="#D5B26B"/>
<stop offset="0.546875" stop-color="#F8F9D0"/>
<stop offset="1" stop-color="#997A3D"/>
</linearGradient>
<linearGradient id="paint8_linear_1532_723" x1="171.499" y1="294.408" x2="164.504" y2="255.651" gradientUnits="userSpaceOnUse">
<stop stop-color="#6B4500"/>
<stop offset="0.322917" stop-color="#D5B26B"/>
<stop offset="0.546875" stop-color="#F8F9D0"/>
<stop offset="1" stop-color="#997A3D"/>
</linearGradient>
<linearGradient id="paint9_linear_1532_723" x1="171.499" y1="294.408" x2="164.504" y2="255.651" gradientUnits="userSpaceOnUse">
<stop stop-color="#6B4500"/>
<stop offset="0.322917" stop-color="#D5B26B"/>
<stop offset="0.546875" stop-color="#F8F9D0"/>
<stop offset="1" stop-color="#997A3D"/>
</linearGradient>
<linearGradient id="paint10_linear_1532_723" x1="117.317" y1="282.231" x2="115.139" y2="270.16" gradientUnits="userSpaceOnUse">
<stop stop-color="#6B4500"/>
<stop offset="0.322917" stop-color="#D5B26B"/>
<stop offset="0.546875" stop-color="#F8F9D0"/>
<stop offset="1" stop-color="#997A3D"/>
</linearGradient>
<linearGradient id="paint11_linear_1532_723" x1="205.501" y1="282.231" x2="203.323" y2="270.16" gradientUnits="userSpaceOnUse">
<stop stop-color="#6B4500"/>
<stop offset="0.322917" stop-color="#D5B26B"/>
<stop offset="0.546875" stop-color="#F8F9D0"/>
<stop offset="1" stop-color="#997A3D"/>
</linearGradient>
<linearGradient id="paint12_linear_1532_723" x1="243.962" y1="380.98" x2="250.074" y2="380.989" gradientUnits="userSpaceOnUse">
<stop stop-color="#DADADA"/>
<stop offset="0.983345" stop-color="white"/>
</linearGradient>
<linearGradient id="paint13_linear_1532_723" x1="411.53" y1="115.814" x2="475.898" y2="85.1714" gradientUnits="userSpaceOnUse">
<stop stop-color="#FDCB8E"/>
<stop offset="1" stop-color="#FF2300"/>
</linearGradient>
<linearGradient id="paint14_linear_1532_723" x1="191.117" y1="111.262" x2="255.484" y2="80.6191" gradientUnits="userSpaceOnUse">
<stop stop-color="#FDCB8E"/>
<stop offset="1" stop-color="#FF2300"/>
</linearGradient>
</defs>
</svg>
