<svg width="184" height="201" viewBox="0 0 184 201" fill="none" xmlns="http://www.w3.org/2000/svg">
<g clip-path="url(#clip0_1661_1718)">
<path fill-rule="evenodd" clip-rule="evenodd" d="M84.5376 9.31663C114.72 5.49509 148.251 11.0047 167.543 34.5287C187.053 58.3185 187.46 92.9259 176.762 121.773C167.505 146.735 141.331 157.304 117.562 169.299C92.892 181.749 66.9857 200.784 41.5381 190.012C15.3256 178.917 4.28574 148.092 0.736759 119.85C-2.376 95.0796 9.19616 72.5624 24.2789 52.6683C40.0068 31.9231 58.7106 12.5868 84.5376 9.31663Z" fill="white"/>
<path d="M56.7409 189.11C67.5808 179.744 68.668 164.322 66.8015 150.757C66.4888 148.494 66.4935 146.072 65.2056 144.187C63.9177 142.306 61.2532 141.2 59.3214 142.372C57.7161 143.342 57.1842 145.381 56.4049 147.099C55.3736 149.39 53.6844 151.368 51.5986 152.74C50.2267 153.641 48.4861 154.285 46.9743 153.645C44.9024 152.768 44.3938 150.08 44.1745 147.817C43.7685 143.603 43.3578 139.385 42.9519 135.171C42.7326 132.908 42.4992 130.603 41.5753 128.527C40.6514 126.455 38.8922 124.621 36.6803 124.238C34.4685 123.86 31.9347 125.372 31.7107 127.631C31.6174 128.569 31.902 129.506 31.9347 130.454C31.9673 131.401 31.6407 132.484 30.7727 132.834C29.9001 133.193 28.9295 132.642 28.1829 132.054C25.6165 130.01 23.7266 127.234 21.9487 124.467C20.1662 121.695 18.421 118.849 16.0505 116.581C13.6753 114.308 10.5442 112.638 7.2871 112.792C4.03001 112.941 0.786905 115.298 0.29694 118.559C-0.193024 121.83 2.00015 124.873 4.28665 127.243C7.68374 130.762 11.5848 133.781 15.8265 136.175C16.5918 136.609 17.4177 137.075 17.777 137.883C18.4256 139.338 17.1517 140.981 15.7145 141.63C14.0859 142.367 12.2427 142.376 10.5022 142.768C8.76167 143.156 6.93246 144.131 6.43783 145.867C5.75188 148.274 7.93106 150.496 9.99824 151.886C14.1326 154.672 18.7383 156.73 23.5539 157.952C25.2805 158.391 27.0863 158.741 28.5469 159.772C30.0075 160.804 31.0294 162.749 30.3808 164.425C29.7368 166.105 27.707 166.828 25.9338 166.683C24.1606 166.539 22.504 165.755 20.7775 165.302C17.5484 164.448 13.5587 165.078 11.8461 167.966C10.7215 169.866 10.8568 172.334 11.7388 174.369C12.6161 176.403 14.1466 178.078 15.7425 179.6C21.3234 184.929 28.1829 188.974 35.6444 190.729C43.1059 192.483 49.8534 192.469 56.7455 189.114" fill="#F5F5F5"/>
<path d="M57.959 199.184C56.909 193.841 55.0705 187.593 52.3454 180.934C49.6342 174.271 46.0551 167.211 42.0561 159.959C41.0482 158.148 40.0542 156.361 39.0743 154.597C38.0944 152.843 37.1191 151.098 36.0599 149.45C33.96 146.151 31.6875 143.137 29.4383 140.342C27.1938 137.547 24.9587 134.976 22.8541 132.591C20.745 130.207 18.7338 128.023 16.8159 126.109C12.9942 122.264 9.55042 119.539 7.10993 117.761C5.89202 116.87 4.92142 116.208 4.2588 115.769C3.94149 115.559 3.68951 115.396 3.50286 115.274C3.3302 115.167 3.24154 115.111 3.23688 115.12C3.23688 115.125 3.31621 115.19 3.47953 115.312C3.66151 115.442 3.90416 115.62 4.21214 115.839C4.85609 116.301 5.81269 116.982 7.01194 117.897C9.41977 119.712 12.8215 122.465 16.6059 126.324C18.5051 128.247 20.4976 130.435 22.5928 132.829C24.6833 135.227 26.9045 137.799 29.1397 140.594C31.3702 143.384 33.6287 146.394 35.7146 149.679C36.7645 151.317 37.7257 153.044 38.7103 154.807C39.6903 156.567 40.6795 158.358 41.6875 160.164C45.6818 167.411 49.2609 174.448 51.986 181.084C54.7205 187.714 56.5824 193.925 57.665 199.24" fill="#E0E0E0"/>
<path d="M35.9431 149.45C35.9711 149.45 36.0131 149.1 36.0644 148.461C36.1204 147.827 36.1671 146.903 36.2091 145.759C36.2978 143.478 36.3118 140.318 36.3118 136.837C36.3118 133.352 36.3724 130.207 36.4937 127.929C36.5497 126.791 36.6057 125.871 36.6524 125.237C36.6944 124.602 36.7084 124.248 36.6757 124.243C36.6477 124.243 36.5824 124.588 36.4891 125.218C36.3911 125.848 36.2931 126.772 36.1951 127.911C35.9944 130.188 35.8918 133.352 35.8918 136.837C35.9011 140.272 35.9058 143.38 35.9105 145.755C35.9105 146.828 35.9011 147.733 35.8965 148.457C35.8965 149.096 35.9104 149.45 35.9384 149.45H35.9431Z" fill="#E0E0E0"/>
<path d="M6.32126 147.015C6.32126 147.043 6.74123 147.047 7.49251 147.033C8.24379 147.024 9.33571 147.001 10.6796 147.019C13.3721 147.033 17.0865 147.178 21.1835 147.523C25.2806 147.873 28.9716 148.349 31.6314 148.769C32.966 148.97 34.0393 149.161 34.7812 149.287C35.5232 149.418 35.9385 149.478 35.9431 149.45C35.9478 149.422 35.5465 149.311 34.8139 149.129C34.0813 148.951 33.0127 148.713 31.6828 148.475C29.0276 147.981 25.3272 147.453 21.2209 147.103C17.1145 146.763 13.3814 146.66 10.6843 146.725C9.33571 146.749 8.24379 146.814 7.49251 146.875C6.74123 146.94 6.32592 146.991 6.32592 147.019L6.32126 147.015Z" fill="#E0E0E0"/>
<path d="M51.9346 180.44C51.9346 180.44 52.0046 180.314 52.0979 180.066C52.2052 179.768 52.3312 179.404 52.4852 178.965C52.8165 178.004 53.2645 176.604 53.7918 174.868C54.851 171.396 56.1623 166.548 57.5342 161.186C58.9108 155.82 60.1753 150.967 61.1599 147.477C61.6452 145.778 62.0419 144.383 62.3358 143.347C62.4618 142.899 62.5645 142.526 62.6485 142.222C62.7138 141.966 62.7465 141.826 62.7325 141.821C62.7185 141.821 62.6625 141.947 62.5692 142.199C62.4618 142.498 62.3358 142.862 62.1819 143.3C61.8505 144.257 61.4026 145.662 60.8753 147.397C59.816 150.869 58.5048 155.718 57.1282 161.084C55.7517 166.45 54.4871 171.298 53.5025 174.789C53.0172 176.487 52.6205 177.883 52.3266 178.918C52.2006 179.371 52.0979 179.74 52.0139 180.043C51.9486 180.304 51.9159 180.44 51.9299 180.444L51.9346 180.44Z" fill="#E0E0E0"/>
<path d="M12.0328 171.975C12.0328 171.975 12.1681 172.031 12.4341 172.092C12.7468 172.162 13.1294 172.246 13.596 172.353C14.6646 172.582 16.1112 172.89 17.8704 173.267C21.4775 174.042 26.4518 175.162 31.944 176.413C37.4363 177.663 42.4246 178.741 46.0504 179.441C47.8609 179.791 49.3308 180.057 50.3527 180.22C50.824 180.295 51.2113 180.351 51.5286 180.402C51.7993 180.44 51.9393 180.454 51.9439 180.435C51.9439 180.421 51.8086 180.379 51.5426 180.314C51.23 180.244 50.8474 180.16 50.3807 180.052C49.3121 179.824 47.8656 179.516 46.1064 179.138C42.4993 178.368 37.525 177.243 32.0327 175.993C26.5404 174.742 21.5521 173.664 17.931 172.969C16.1205 172.619 14.6506 172.353 13.6287 172.19C13.1574 172.115 12.7701 172.054 12.4528 172.008C12.1821 171.97 12.0421 171.956 12.0375 171.975H12.0328Z" fill="#E0E0E0"/>
<path d="M45.649 85.9836C45.299 85.9836 44.963 85.7876 44.8044 85.4516L42.7792 81.2379C42.6532 80.9719 42.6579 80.664 42.7885 80.4026C42.9239 80.1413 43.1712 79.9593 43.4605 79.908C44.2211 79.7773 44.9164 79.3014 45.369 78.6014C45.789 77.9575 45.9336 77.2155 45.7703 76.5576C45.607 75.9043 45.131 75.307 44.4544 74.9244C43.7358 74.5137 42.8772 74.3924 42.1632 74.6071C40.7027 75.041 39.6574 76.7536 39.8814 78.3401C39.9514 78.8534 39.5968 79.3294 39.0835 79.3994C38.5608 79.4694 38.0942 79.1147 38.0242 78.6014C37.6742 76.105 39.2888 73.5058 41.6313 72.8059C42.8445 72.4419 44.2164 72.6192 45.3877 73.2912C46.5029 73.9304 47.3055 74.9524 47.5949 76.105C47.8842 77.2622 47.6462 78.5454 46.9416 79.6234C46.4329 80.4026 45.733 81.0139 44.9304 81.3872L46.4889 84.635C46.7129 85.1016 46.5169 85.6616 46.0503 85.8856C45.9196 85.9462 45.7796 85.9789 45.6443 85.9789L45.649 85.9836Z" fill="#E0E0E0"/>
<path d="M47.6649 87.1923C47.8562 87.5702 47.7069 88.0322 47.3336 88.2235C46.9556 88.4149 46.4937 88.2655 46.3023 87.8922C46.111 87.5143 46.2603 87.0523 46.6337 86.861C47.007 86.6696 47.4736 86.819 47.6649 87.1923Z" fill="#E0E0E0"/>
<path d="M20.0029 71.8678C19.7602 71.8678 19.5269 71.7325 19.4103 71.4945L17.9964 68.5547C17.9077 68.3681 17.9124 68.1534 18.0057 67.9714C18.099 67.7895 18.2717 67.6588 18.477 67.6261C19.009 67.5328 19.4943 67.2015 19.8116 66.7115C20.1055 66.2636 20.2082 65.7456 20.0915 65.2836C19.9796 64.8263 19.6436 64.411 19.1723 64.1404C18.6683 63.8511 18.071 63.7718 17.5717 63.9211C16.5498 64.2244 15.8218 65.419 15.9758 66.5296C16.0272 66.8889 15.7752 67.2202 15.4205 67.2715C15.0566 67.3228 14.7299 67.0708 14.6786 66.7115C14.4359 64.9663 15.5652 63.1511 17.1984 62.6658C18.043 62.4138 19.0043 62.5352 19.8209 63.0065C20.6002 63.4498 21.1601 64.1684 21.3608 64.971C21.5614 65.7829 21.3981 66.6742 20.9082 67.4302C20.5535 67.9715 20.0635 68.4008 19.5036 68.6621L20.5955 70.9299C20.7542 71.2565 20.6142 71.6485 20.2875 71.8025C20.1942 71.8445 20.1009 71.8678 20.0029 71.8678Z" fill="#F5F5F5"/>
<path d="M21.4075 72.7171C21.5429 72.9784 21.4402 73.305 21.1742 73.4403C20.9082 73.5757 20.5863 73.473 20.4509 73.207C20.3156 72.941 20.4183 72.6191 20.6843 72.4837C20.9502 72.3484 21.2722 72.4511 21.4075 72.7171Z" fill="#F5F5F5"/>
<path d="M136.437 73.4544C136.54 73.6737 136.516 73.9444 136.353 74.1497L134.3 76.6835C134.169 76.8422 133.973 76.9308 133.768 76.9262C133.563 76.9215 133.371 76.8189 133.255 76.6509C132.942 76.2122 132.433 75.9136 131.859 75.8343C131.328 75.7596 130.814 75.8903 130.45 76.1889C130.086 76.4875 129.853 76.9682 129.811 77.5048C129.764 78.0834 129.946 78.6574 130.296 79.0447C131.01 79.838 132.401 79.9873 133.334 79.3713C133.637 79.1707 134.043 79.2547 134.239 79.558C134.44 79.866 134.356 80.2673 134.053 80.4679C132.583 81.4339 130.46 81.1912 129.316 79.922C128.724 79.264 128.425 78.3447 128.5 77.4068C128.57 76.5109 128.976 75.6989 129.615 75.1763C130.259 74.649 131.141 74.4157 132.032 74.537C132.676 74.6257 133.269 74.887 133.749 75.279L135.331 73.3238C135.56 73.0438 135.971 72.9971 136.255 73.2258C136.335 73.2911 136.395 73.3704 136.437 73.4544Z" fill="#F5F5F5"/>
<path d="M136.601 71.8212C136.783 71.5879 137.119 71.5413 137.352 71.7233C137.585 71.9052 137.632 72.2412 137.45 72.4745C137.268 72.7079 136.932 72.7545 136.699 72.5725C136.465 72.3905 136.419 72.0546 136.601 71.8212Z" fill="#F5F5F5"/>
<path d="M129.596 12.5869C129.699 12.8062 129.676 13.0768 129.512 13.2822L127.459 15.816C127.329 15.9746 127.133 16.0633 126.927 16.0586C126.722 16.054 126.531 15.9513 126.414 15.7833C126.101 15.3447 125.593 15.046 125.019 14.9667C124.487 14.892 123.973 15.0227 123.609 15.3213C123.245 15.62 123.012 16.1006 122.97 16.6373C122.923 17.2159 123.105 17.7898 123.455 18.1771C124.169 18.9704 125.56 19.1197 126.493 18.5038C126.797 18.3031 127.203 18.3871 127.399 18.6904C127.599 18.9984 127.515 19.3997 127.212 19.6004C125.742 20.5663 123.619 20.3237 122.476 19.0544C121.883 18.3965 121.584 17.4772 121.659 16.5393C121.729 15.6433 122.135 14.8314 122.774 14.3088C123.418 13.7815 124.3 13.5481 125.191 13.6695C125.835 13.7581 126.428 14.0194 126.909 14.4114L128.49 12.4562C128.719 12.1762 129.13 12.1296 129.414 12.3582C129.494 12.4236 129.554 12.5029 129.596 12.5869Z" fill="#F5F5F5"/>
<path d="M129.76 10.9489C129.942 10.7156 130.278 10.669 130.511 10.8509C130.744 11.0329 130.791 11.3689 130.609 11.6022C130.427 11.8355 130.091 11.8822 129.858 11.7002C129.624 11.5182 129.578 11.1822 129.76 10.9489Z" fill="#F5F5F5"/>
<path d="M77.7909 21.9429C78.1082 21.9429 78.4115 22.1202 78.5608 22.4282L80.3947 26.2499C80.5113 26.4925 80.5067 26.7725 80.3853 27.0058C80.264 27.2438 80.0354 27.4071 79.7741 27.4538C79.0834 27.5751 78.4535 28.0044 78.0382 28.6391C77.6602 29.2223 77.5249 29.899 77.6742 30.4916C77.8189 31.0842 78.2575 31.6255 78.8688 31.9755C79.5221 32.3488 80.3014 32.4561 80.95 32.2648C82.2752 31.8682 83.2225 30.3189 83.0218 28.877C82.9565 28.4104 83.2785 27.9811 83.7451 27.9158C84.2211 27.8504 84.641 28.1771 84.7064 28.6391C85.0237 30.9069 83.5584 33.2634 81.4353 33.898C80.334 34.2247 79.0881 34.066 78.0242 33.4594C77.0116 32.8808 76.2836 31.9522 76.0223 30.9069C75.761 29.8523 75.9757 28.6904 76.6149 27.7151C77.0769 27.0105 77.7115 26.4552 78.4395 26.1146L77.0256 23.1701C76.8203 22.7455 77.0023 22.2368 77.4269 22.0315C77.5482 21.9755 77.6695 21.9475 77.7955 21.9475L77.7909 21.9429Z" fill="#E0E0E0"/>
<path d="M75.9615 20.8416C75.7842 20.5009 75.9195 20.081 76.2648 19.9036C76.6055 19.7263 77.0255 19.8616 77.2028 20.2069C77.3801 20.5476 77.2448 20.9676 76.8995 21.1449C76.5588 21.3222 76.1388 21.1869 75.9615 20.8416Z" fill="#E0E0E0"/>
<path d="M141.094 97.4443C141.411 97.4443 141.715 97.6217 141.864 97.9296L143.698 101.751C143.815 101.994 143.81 102.274 143.689 102.507C143.567 102.745 143.339 102.909 143.077 102.955C142.387 103.077 141.757 103.506 141.341 104.141C140.963 104.724 140.828 105.4 140.977 105.993C141.122 106.586 141.561 107.127 142.172 107.477C142.825 107.85 143.605 107.958 144.253 107.766C145.578 107.37 146.526 105.82 146.325 104.379C146.26 103.912 146.582 103.483 147.048 103.417C147.524 103.352 147.944 103.679 148.01 104.141C148.327 106.408 146.862 108.765 144.738 109.399C143.637 109.726 142.391 109.567 141.327 108.961C140.315 108.382 139.587 107.454 139.326 106.408C139.064 105.358 139.279 104.192 139.918 103.217C140.38 102.512 141.015 101.957 141.743 101.616L140.329 98.6716C140.123 98.2469 140.305 97.7383 140.73 97.533C140.851 97.477 140.973 97.449 141.099 97.449L141.094 97.4443Z" fill="#E0E0E0"/>
<path d="M139.265 96.3429C139.088 96.0023 139.223 95.5823 139.568 95.405C139.914 95.2277 140.329 95.363 140.506 95.7083C140.684 96.0536 140.548 96.4689 140.203 96.6462C139.858 96.8235 139.442 96.6882 139.265 96.3429Z" fill="#E0E0E0"/>
<path d="M153.828 122.148C153.828 122.148 150.24 119.39 145.009 128.069C139.778 136.749 137.669 141.816 137.669 141.816C137.669 141.816 136.32 143.617 135.112 142.292C133.903 140.967 132.377 137.341 130.128 137.812C127.795 138.302 126.862 140.799 127.03 144.579C127.198 148.358 127.263 156.646 127.268 157.397C127.268 158.134 126.773 159.18 125.807 158.41C124.841 157.64 119.452 150.701 116.311 153.454C113.171 156.207 115.369 166.655 115.588 167.803C115.807 168.951 115.551 169.413 114.995 169.655C114.44 169.898 112.849 167.392 111.234 165.484C109.62 163.575 107.417 161.643 105.737 163.384C104.057 165.124 103.017 172.773 109.438 185.773L112.807 191.601L119.568 191.709C134.053 191.055 140.249 186.45 140.963 184.14C141.677 181.83 138.92 180.831 136.47 180.341C134.02 179.851 131.057 179.665 131.001 179.063C130.945 178.461 131.229 178.013 132.34 177.654C133.451 177.29 143.661 174.173 144.556 170.094C145.452 166.016 136.778 164.644 135.634 164.173C134.491 163.697 135.172 162.759 135.816 162.404C136.474 162.045 143.768 158.097 147.156 156.422C150.543 154.747 152.279 152.721 151.584 150.444C150.912 148.246 147.002 148.662 145.256 148.242C143.511 147.822 144.44 145.773 144.44 145.773C144.44 145.773 147.86 141.48 152.937 132.707C158.014 123.935 153.749 122.101 153.749 122.101" fill="#EBEBEB"/>
<path d="M149.129 129.908C149.129 129.908 149.101 129.973 149.031 130.099C148.957 130.23 148.859 130.412 148.728 130.645C148.453 131.13 148.056 131.83 147.543 132.731C146.512 134.541 145.004 137.145 143.128 140.36C139.377 146.786 134.118 155.624 128.28 165.363C122.443 175.106 117.165 183.93 113.381 190.337C111.495 193.538 109.969 196.128 108.906 197.929C108.378 198.82 107.972 199.511 107.688 199.991C107.548 200.22 107.445 200.397 107.366 200.523C107.291 200.645 107.249 200.701 107.249 200.701C107.249 200.701 107.277 200.635 107.347 200.509C107.417 200.379 107.52 200.197 107.65 199.963C107.926 199.478 108.322 198.778 108.836 197.882C109.867 196.076 111.374 193.468 113.25 190.257C117.002 183.832 122.261 174.994 128.098 165.251C133.936 155.512 139.213 146.688 142.998 140.281C144.883 137.08 146.409 134.49 147.473 132.689C148 131.798 148.406 131.102 148.691 130.626C148.831 130.398 148.933 130.22 149.013 130.094C149.087 129.973 149.129 129.917 149.129 129.917V129.908Z" fill="#E0E0E0"/>
<path d="M132.06 142.969C132.06 142.969 132.121 143.132 132.195 143.435C132.27 143.739 132.368 144.182 132.485 144.728C132.713 145.824 132.989 147.346 133.264 149.03C133.53 150.691 133.768 152.194 133.95 153.342C134.034 153.86 134.109 154.294 134.165 154.648C134.216 154.956 134.239 155.129 134.225 155.134C134.211 155.134 134.16 154.97 134.085 154.667C134.011 154.364 133.913 153.921 133.805 153.37C133.591 152.273 133.334 150.747 133.059 149.063C132.783 147.406 132.531 145.904 132.345 144.756C132.256 144.238 132.181 143.804 132.121 143.449C132.069 143.141 132.051 142.969 132.065 142.964L132.06 142.969Z" fill="#E0E0E0"/>
<path d="M134.832 155.293C134.818 155.237 137.93 154.527 141.78 153.715C145.63 152.899 148.761 152.287 148.77 152.343C148.784 152.399 145.672 153.109 141.822 153.921C137.972 154.737 134.841 155.349 134.832 155.293Z" fill="#E0E0E0"/>
<path d="M125.191 169.847C125.191 169.847 125.368 169.837 125.69 169.861C126.05 169.889 126.502 169.921 127.039 169.963C128.178 170.047 129.75 170.155 131.486 170.211C133.227 170.271 134.799 170.271 135.942 170.262C136.479 170.262 136.932 170.253 137.296 170.253C137.613 170.253 137.79 170.257 137.79 170.271C137.79 170.285 137.618 170.309 137.296 170.332C136.978 170.355 136.516 170.388 135.947 170.407C134.804 170.453 133.227 170.477 131.481 170.416C129.736 170.36 128.164 170.229 127.03 170.108C126.46 170.043 126.003 169.987 125.686 169.94C125.368 169.893 125.196 169.861 125.196 169.847H125.191Z" fill="#E0E0E0"/>
<path d="M120.231 159.25C120.231 159.25 120.329 159.385 120.469 159.646C120.623 159.949 120.819 160.318 121.043 160.757C121.519 161.699 122.163 163.006 122.868 164.452C123.567 165.899 124.193 167.22 124.636 168.176C124.837 168.624 125.009 169.007 125.149 169.315C125.266 169.585 125.327 169.739 125.313 169.744C125.299 169.749 125.215 169.609 125.075 169.347C124.921 169.044 124.725 168.675 124.501 168.237C124.025 167.294 123.381 165.988 122.676 164.541C121.976 163.095 121.351 161.774 120.908 160.817C120.707 160.369 120.534 159.987 120.394 159.679C120.278 159.408 120.217 159.254 120.231 159.25Z" fill="#E0E0E0"/>
<path d="M110.091 171.018C110.091 171.018 110.208 171.191 110.39 171.527C110.581 171.895 110.833 172.371 111.132 172.945C111.748 174.149 112.588 175.815 113.507 177.663C114.421 179.511 115.243 181.191 115.826 182.409C116.101 182.992 116.33 183.482 116.507 183.86C116.666 184.205 116.745 184.396 116.731 184.406C116.717 184.41 116.615 184.233 116.433 183.897C116.241 183.528 115.989 183.053 115.691 182.479C115.075 181.275 114.235 179.609 113.315 177.761C112.401 175.913 111.58 174.233 110.996 173.015C110.721 172.432 110.492 171.942 110.315 171.564C110.156 171.219 110.077 171.027 110.091 171.018Z" fill="#E0E0E0"/>
<path d="M116.656 184.037C116.656 184.037 116.88 184.023 117.286 184.037C117.73 184.056 118.304 184.074 118.999 184.102C120.445 184.158 122.443 184.224 124.65 184.238C126.857 184.252 128.859 184.214 130.305 184.177C131.001 184.158 131.579 184.144 132.018 184.135C132.424 184.126 132.648 184.13 132.648 184.144C132.648 184.158 132.424 184.186 132.023 184.219C131.617 184.252 131.033 184.294 130.31 184.331C128.864 184.406 126.862 184.471 124.65 184.452C122.438 184.438 120.436 184.35 118.994 184.256C118.271 184.21 117.688 184.163 117.282 184.126C116.88 184.088 116.656 184.06 116.656 184.046V184.037Z" fill="#E0E0E0"/>
<path d="M175.877 199.161C175.877 199.226 138.042 199.282 91.3838 199.282C44.7252 199.282 6.88123 199.226 6.88123 199.161C6.88123 199.095 44.7065 199.039 91.3838 199.039C138.061 199.039 175.877 199.095 175.877 199.161Z" fill="#263238"/>
<path d="M134.916 170.314L127.809 136.417C127.809 136.417 123.642 120.08 109.302 114.453L108.313 114.15C108.313 114.15 106.95 113.734 106.932 113.725C106.353 113.501 104.001 112.754 103.381 112.563C84.0434 105.857 78.9105 107.603 58.7612 114.481C58.7612 114.481 49.8066 116.889 45.4715 128.569C41.1318 140.248 32.8258 158.512 32.8258 158.512L52.9283 165.61L56.7827 159.884V199.049H112.079L110.553 181.023L110.287 158.816" fill="#E8505B"/>
<path d="M78.6353 116.557C78.6353 116.557 78.4813 116.721 78.1733 116.987C78.0193 117.122 77.828 117.281 77.5947 117.444C77.3614 117.612 77.1001 117.813 76.7874 117.999C76.1761 118.396 75.4109 118.797 74.5243 119.175C73.633 119.534 72.6204 119.861 71.5331 120.08C70.4412 120.286 69.382 120.37 68.4207 120.37C67.4594 120.356 66.5962 120.272 65.8822 120.132C65.5229 120.08 65.2056 119.987 64.9256 119.922C64.6456 119.861 64.4077 119.782 64.2163 119.716C63.8337 119.586 63.6237 119.511 63.6284 119.492C63.6424 119.446 64.4916 119.74 65.9102 119.959C66.6195 120.076 67.4734 120.136 68.4207 120.141C69.368 120.127 70.4086 120.038 71.4865 119.838C72.5597 119.623 73.5583 119.31 74.4403 118.965C75.3175 118.606 76.0828 118.223 76.6988 117.85C77.9307 117.113 78.6073 116.515 78.64 116.557H78.6353Z" fill="#FAFAFA"/>
<g opacity="0.3">
<path d="M56.7828 174.784L61.3138 180.019H65.7702V185.722L111.85 196.375L111.477 191.937L68.122 177.052H60.8565L57.3521 174.252L56.7828 174.784Z" fill="black"/>
</g>
<path d="M70.3525 170.122L66.5075 169.408C66.5075 169.408 57.3988 159.446 55.6909 159.301C54.2864 159.184 46.5356 159.259 43.8338 159.292C43.3205 159.296 42.9052 159.716 42.9052 160.229C42.9052 160.733 43.3018 161.149 43.8058 161.167L52.9611 161.522L53.0031 162.259L43.8338 162.381C42.9005 162.451 42.3032 163.93 45.2897 164.196L52.9611 164.467V164.942L45.1824 166.03C44.7904 166.086 43.7545 166.286 43.7451 166.683C43.7451 166.683 43.2738 167.658 45.4903 167.934C46.2509 168.027 53.0031 167.803 53.0031 167.803L52.7418 168.41L45.7516 169.917C45.243 170.029 44.907 170.509 44.977 171.027C45.0517 171.555 45.523 171.928 46.055 171.877L53.5211 171.181L60.8472 177.033H70.6465L70.3432 170.108L70.3525 170.122Z" fill="#FFBE9D"/>
<path d="M134.916 170.313L112.555 174.714L110.282 158.811" fill="#E8505B"/>
<path d="M109.573 170.92L68.1222 169.581V183.906L95.6302 189.371L114.939 192.455C126.941 192.455 136.54 181.438 134.683 169.581L134.631 169.595L109.573 170.92Z" fill="#E8505B"/>
<path d="M120.987 170.659C120.987 170.659 120.8 170.682 120.45 170.696C120.068 170.705 119.554 170.719 118.91 170.738C117.538 170.761 115.611 170.799 113.241 170.841C108.453 170.911 101.841 170.99 94.5381 170.92C87.2307 170.85 80.6185 170.584 75.8401 170.262C73.451 170.103 71.5191 169.949 70.1892 169.814C69.5453 169.749 69.0366 169.697 68.654 169.655C68.304 169.618 68.122 169.59 68.122 169.581C68.122 169.571 68.3087 169.576 68.6587 169.59C69.0413 169.613 69.5499 169.646 70.1986 169.688C71.5331 169.781 73.465 169.903 75.8542 170.033C80.6325 170.299 87.24 170.523 94.5428 170.598C101.841 170.668 108.453 170.621 113.241 170.612C115.611 170.612 117.538 170.612 118.91 170.612C119.559 170.621 120.072 170.626 120.45 170.631C120.805 170.64 120.987 170.649 120.987 170.659Z" fill="#263238"/>
<path d="M68.1219 169.712C68.1219 169.712 68.1312 169.8 68.1359 169.968C68.1359 170.15 68.1452 170.398 68.1499 170.71C68.1546 171.377 68.1686 172.329 68.1779 173.533C68.1872 175.983 68.2059 179.469 68.2246 183.659L68.1452 183.561C72.8256 184.564 78.4392 185.806 84.4774 187.075C92.7601 188.825 100.296 190.211 105.779 191.055C108.518 191.475 110.744 191.783 112.279 191.989C113.035 192.087 113.628 192.166 114.048 192.222C114.239 192.25 114.393 192.273 114.51 192.287C114.613 192.306 114.664 192.315 114.664 192.32C114.664 192.32 114.608 192.32 114.505 192.315C114.389 192.306 114.235 192.292 114.043 192.273C113.623 192.227 113.026 192.166 112.265 192.087C110.726 191.914 108.495 191.629 105.751 191.228C100.259 190.425 92.7088 189.067 84.4261 187.313C78.3832 186.044 72.7742 184.788 68.0986 183.762L68.0193 183.743V183.659C68.0379 179.469 68.0473 175.983 68.0613 173.533C68.0706 172.329 68.0799 171.377 68.0892 170.71C68.0939 170.398 68.0986 170.15 68.1033 169.968C68.1079 169.8 68.1126 169.712 68.1173 169.712H68.1219Z" fill="#263238"/>
<path d="M64.5849 130.524C64.5849 130.524 64.5802 130.272 64.6129 129.824C64.6409 129.376 64.6875 128.727 64.7015 127.924C64.7482 126.324 64.6735 124.098 64.2676 121.686C63.8429 119.282 63.3063 117.094 62.471 115.736C62.065 115.055 61.5891 114.602 61.2344 114.341C60.8705 114.084 60.6418 113.986 60.6512 113.963C60.6512 113.953 60.7118 113.977 60.8238 114.019C60.9358 114.061 61.0945 114.14 61.2904 114.261C61.6731 114.504 62.1817 114.952 62.6203 115.643C63.0636 116.329 63.4416 117.229 63.7403 118.256C64.0389 119.282 64.3096 120.426 64.5102 121.644C64.9208 124.075 64.9675 126.319 64.8742 127.929C64.8368 128.736 64.7622 129.385 64.7062 129.833C64.6409 130.281 64.5989 130.524 64.5802 130.524H64.5849Z" fill="#263238"/>
<path d="M110.17 117.934C110.236 117.934 110.292 127.458 110.292 139.203C110.292 150.948 110.236 160.477 110.17 160.477C110.105 160.477 110.049 150.953 110.049 139.203C110.049 127.453 110.105 117.934 110.17 117.934Z" fill="#263238"/>
<path d="M124.477 165.778C124.477 165.825 123.773 165.801 122.653 165.941C122.093 166.006 121.43 166.132 120.712 166.319C119.993 166.515 119.218 166.781 118.43 167.131C117.646 167.49 116.936 167.901 116.316 168.307C115.7 168.727 115.168 169.138 114.748 169.516C113.903 170.267 113.455 170.808 113.423 170.78C113.409 170.771 113.511 170.626 113.712 170.379C113.908 170.127 114.221 169.786 114.631 169.39C115.042 168.993 115.569 168.559 116.19 168.12C116.815 167.696 117.534 167.271 118.332 166.907C119.13 166.552 119.923 166.286 120.656 166.1C121.393 165.922 122.065 165.811 122.634 165.769C123.203 165.722 123.665 165.708 123.987 165.731C124.305 165.745 124.482 165.764 124.482 165.778H124.477Z" fill="#263238"/>
<g opacity="0.3">
<path d="M64.9721 167.761C71.9576 163.589 76.3207 156.678 80.581 149.749C84.8414 142.819 88.8124 135.54 94.72 129.945C97.4358 127.374 100.609 125.209 101.608 121.611L90.9869 130.052L61.4024 164.074L64.9721 167.761Z" fill="black"/>
</g>
<path d="M45.7937 149.506C45.803 149.6 44.1231 149.534 42.2146 150.183C41.2627 150.51 40.4461 150.925 39.8534 151.224C39.2655 151.527 38.8968 151.718 38.8782 151.69C38.8642 151.662 39.1955 151.419 39.7694 151.074C40.3434 150.734 41.16 150.286 42.1353 149.954C43.1105 149.623 44.0391 149.497 44.7111 149.464C45.383 149.436 45.7937 149.478 45.7937 149.506Z" fill="#263238"/>
<path d="M45.7937 149.506C45.803 149.6 44.1231 149.534 42.2146 150.183C41.2627 150.51 40.4461 150.925 39.8534 151.224C39.2655 151.527 38.8968 151.718 38.8782 151.69C38.8642 151.662 39.1955 151.419 39.7694 151.074C40.3434 150.734 41.16 150.286 42.1353 149.954C43.1105 149.623 44.0391 149.497 44.7111 149.464C45.383 149.436 45.7937 149.478 45.7937 149.506Z" fill="#263238"/>
<path d="M109.993 164.756C109.97 164.798 109.489 164.331 108.379 164.014C107.282 163.673 105.56 163.678 103.61 164.312C101.631 164.896 99.5778 166.296 97.044 167.35C95.7794 167.859 94.3422 168.26 92.8256 168.157C91.3091 168.083 89.8298 167.504 88.4206 166.804C87.0067 166.1 85.6861 165.302 84.3469 164.681C83.0123 164.051 81.6311 163.664 80.2872 163.533C77.5854 163.277 75.1309 163.902 73.297 164.798C71.4352 165.67 70.1846 166.828 69.4053 167.658C69.2187 167.873 69.046 168.064 68.8967 168.232C68.766 168.405 68.654 168.554 68.5607 168.68C68.4767 168.792 68.4067 168.881 68.3507 168.955C68.3041 169.016 68.2761 169.044 68.2714 169.044C68.2714 169.044 68.2854 169.007 68.3274 168.941C68.3787 168.867 68.4394 168.769 68.5187 168.652C68.6074 168.521 68.7147 168.367 68.836 168.185C68.9807 168.013 69.144 167.817 69.3306 167.598C70.0959 166.739 71.3418 165.554 73.2177 164.648C74.1416 164.177 75.2242 163.794 76.4188 163.542C77.6134 163.291 78.9293 163.183 80.3012 163.314C81.6731 163.435 83.087 163.832 84.4402 164.466C85.7981 165.092 87.1187 165.89 88.5186 166.59C89.9138 167.285 91.3651 167.845 92.8303 167.924C94.2955 168.027 95.6954 167.649 96.9507 167.15C99.4565 166.123 101.533 164.728 103.549 164.154C105.532 163.533 107.291 163.552 108.397 163.93C108.952 164.102 109.354 164.322 109.61 164.485C109.727 164.564 109.816 164.634 109.895 164.686C109.956 164.732 109.988 164.756 109.988 164.76L109.993 164.756Z" fill="#FAFAFA"/>
<path d="M130.264 147.5C130.254 147.532 129.974 147.36 129.424 147.341C128.878 147.308 128.075 147.504 127.23 148.013C126.367 148.494 125.537 149.371 124.361 150.034C123.777 150.356 123.068 150.598 122.317 150.547C121.57 150.505 120.847 150.211 120.166 149.866C119.48 149.52 118.845 149.133 118.187 148.872C117.534 148.601 116.867 148.424 116.223 148.321C115.579 148.214 114.958 148.19 114.375 148.218C113.796 148.242 113.255 148.321 112.774 148.428C111.808 148.643 111.066 148.965 110.572 149.217C110.077 149.464 109.82 149.642 109.806 149.618C109.802 149.614 109.862 149.562 109.984 149.478C110.105 149.394 110.282 149.264 110.53 149.133C111.015 148.853 111.757 148.503 112.737 148.26C113.227 148.139 113.773 148.046 114.365 148.018C114.958 147.98 115.597 147.994 116.255 148.097C116.918 148.195 117.599 148.372 118.276 148.648C118.957 148.914 119.596 149.306 120.273 149.642C120.945 149.982 121.631 150.262 122.326 150.304C123.021 150.356 123.679 150.136 124.249 149.833C125.387 149.212 126.241 148.344 127.137 147.864C128.014 147.36 128.854 147.182 129.424 147.248C129.708 147.271 129.918 147.341 130.058 147.397C130.194 147.458 130.264 147.495 130.259 147.504L130.264 147.5Z" fill="#FAFAFA"/>
<path d="M109.741 141.112C109.741 141.112 109.629 141.102 109.424 141.056C109.321 141.037 109.195 141 109.046 140.976C108.892 140.958 108.714 140.934 108.523 140.906C107.734 140.818 106.568 140.864 105.196 141.247C103.824 141.63 102.28 142.348 100.651 143.295C99.0224 144.238 97.2725 145.4 95.2334 146.24C94.2161 146.655 93.1755 146.973 92.1396 147.089C91.1037 147.211 90.0817 147.136 89.1531 146.884C88.2245 146.637 87.3986 146.254 86.6426 145.881C85.8867 145.507 85.1961 145.139 84.5521 144.835C83.2689 144.215 82.1443 143.911 81.351 143.865C80.9544 143.86 80.6464 143.855 80.4364 143.893C80.2264 143.916 80.1144 143.921 80.1144 143.911C80.1144 143.902 80.2218 143.879 80.4271 143.841C80.6324 143.79 80.9451 143.776 81.351 143.767C82.1583 143.781 83.3155 144.065 84.6175 144.672C85.2707 144.966 85.9707 145.325 86.7266 145.689C87.4826 146.049 88.2992 146.422 89.2045 146.655C90.1051 146.893 91.0943 146.963 92.1069 146.842C93.1195 146.73 94.1368 146.417 95.14 146.007C97.1512 145.181 98.8918 144.033 100.539 143.095C102.186 142.152 103.759 141.443 105.154 141.074C106.549 140.706 107.739 140.687 108.537 140.808C108.733 140.841 108.906 140.874 109.064 140.902C109.214 140.934 109.34 140.976 109.442 141.004C109.643 141.065 109.75 141.098 109.746 141.107L109.741 141.112Z" fill="#FAFAFA"/>
<path d="M124.188 126.758C124.188 126.758 124.02 126.875 123.689 127.047C123.357 127.22 122.881 127.458 122.27 127.724C121.663 127.99 120.921 128.279 120.058 128.489C119.204 128.704 118.21 128.802 117.193 128.685C116.176 128.578 115.238 128.363 114.375 128.246C113.516 128.12 112.732 128.111 112.083 128.204C110.772 128.382 110.133 128.979 110.114 128.932C110.109 128.928 110.147 128.89 110.217 128.825C110.291 128.76 110.408 128.671 110.567 128.573C110.884 128.377 111.393 128.148 112.055 128.036C112.718 127.92 113.525 127.91 114.403 128.027C115.28 128.134 116.222 128.344 117.216 128.447C119.218 128.685 120.991 128.046 122.205 127.57C122.816 127.327 123.306 127.108 123.647 126.963C123.987 126.819 124.178 126.744 124.188 126.758Z" fill="#FAFAFA"/>
<path d="M63.8523 134.527C63.843 134.56 63.577 134.35 63.0264 134.327C62.4804 134.299 61.6825 134.523 60.8892 135.12C60.4832 135.405 60.0679 135.759 59.564 136.086C59.0647 136.417 58.458 136.665 57.7954 136.795C56.4609 137.052 54.9583 136.805 53.5164 136.287C52.0698 135.764 50.7773 135.101 49.536 134.663C48.9201 134.439 48.3181 134.271 47.7488 134.173C47.1748 134.079 46.6336 134.051 46.1436 134.075C45.1543 134.126 44.3844 134.401 43.9084 134.672C43.4278 134.943 43.2038 135.162 43.1851 135.143C43.1805 135.139 43.2318 135.083 43.3391 134.98C43.4465 134.877 43.6191 134.737 43.8571 134.593C44.3331 134.289 45.117 133.977 46.1296 133.907C46.6336 133.869 47.1935 133.888 47.7815 133.977C48.3694 134.07 48.9854 134.233 49.6107 134.453C50.8706 134.882 52.1725 135.545 53.5957 136.058C55.0096 136.567 56.4748 136.809 57.7534 136.576C58.388 136.459 58.9667 136.231 59.452 135.918C59.9419 135.61 60.3666 135.265 60.7865 134.98C61.6078 134.387 62.4618 134.173 63.0264 134.233C63.311 134.257 63.5257 134.336 63.6563 134.401C63.7917 134.467 63.8477 134.518 63.8477 134.523L63.8523 134.527Z" fill="#FAFAFA"/>
<path d="M90.1425 170.267C90.1425 170.267 90.1985 170.304 90.2918 170.397C90.3898 170.486 90.5111 170.631 90.6604 170.827C90.9451 171.223 91.2951 171.877 91.421 172.759C91.547 173.627 91.4491 174.756 90.8004 175.764C90.1798 176.767 89.1252 177.565 88.5279 178.718C88.2433 179.296 88.1733 179.935 88.2946 180.533C88.4113 181.13 88.6539 181.685 88.9012 182.199C89.4099 183.216 89.8812 184.205 89.8625 185.12C89.8485 186.034 89.3912 186.692 88.9899 186.982C88.7892 187.131 88.5979 187.196 88.4766 187.229C88.3459 187.252 88.2806 187.257 88.2806 187.252C88.2713 187.224 88.5606 187.21 88.9339 186.907C89.2932 186.613 89.7038 185.974 89.6945 185.12C89.6945 184.261 89.2279 183.319 88.7006 182.297C88.4439 181.779 88.1873 181.214 88.0613 180.575C87.926 179.94 88.0006 179.226 88.3086 178.606C88.6166 177.99 89.0599 177.486 89.4752 177.019C89.8952 176.552 90.3011 176.109 90.6091 175.633C91.2344 174.686 91.3511 173.613 91.2484 172.773C91.1457 171.919 90.8331 171.275 90.5764 170.869C90.3151 170.463 90.1191 170.271 90.1378 170.257L90.1425 170.267Z" fill="#FAFAFA"/>
<path d="M109.704 190.752C109.704 190.752 109.638 190.705 109.526 190.598C109.424 190.486 109.279 190.304 109.167 190.038C108.92 189.506 108.887 188.596 109.284 187.63C109.475 187.15 109.783 186.65 110.189 186.198C110.585 185.736 111.057 185.292 111.528 184.816C111.999 184.34 112.475 183.818 112.825 183.188C113.175 182.563 113.371 181.83 113.451 181.065C113.605 179.529 113.329 178.05 113.25 176.697C113.152 175.344 113.269 174.074 113.703 173.123C114.118 172.166 114.739 171.541 115.238 171.247C115.485 171.093 115.695 171.009 115.84 170.962C115.984 170.92 116.064 170.901 116.064 170.911C116.073 170.939 115.756 171.009 115.289 171.326C114.823 171.639 114.244 172.255 113.861 173.193C113.465 174.121 113.367 175.348 113.474 176.688C113.563 178.027 113.852 179.511 113.693 181.097C113.614 181.886 113.409 182.651 113.035 183.309C112.667 183.967 112.167 184.504 111.691 184.98C110.725 185.927 109.816 186.753 109.447 187.705C109.046 188.629 109.05 189.492 109.26 190.015C109.461 190.542 109.736 190.743 109.708 190.761L109.704 190.752Z" fill="#FAFAFA"/>
<path d="M112.098 196.944C112.098 196.944 111.934 197.084 111.58 197.271C111.225 197.462 110.656 197.681 109.886 197.756C109.12 197.835 108.164 197.756 107.114 197.443C106.059 197.149 104.939 196.58 103.759 195.894C102.574 195.222 101.3 194.415 99.7878 193.906C98.2805 193.398 96.5307 193.356 94.7808 193.734C93.0216 194.098 91.267 194.821 89.4518 195.577C87.6413 196.324 85.7561 197.149 83.6889 197.565C82.6577 197.779 81.6077 197.845 80.5811 197.737C79.5546 197.639 78.57 197.322 77.6834 196.879C75.8962 195.988 74.4729 194.695 73.017 193.64C72.2891 193.113 71.5611 192.618 70.8005 192.255C70.6092 192.161 70.4179 192.073 70.2312 191.984C70.0399 191.9 69.8439 191.839 69.6479 191.765C69.2653 191.611 68.8687 191.522 68.486 191.419C66.9368 191.041 65.4249 191.051 64.0857 191.242C62.7418 191.438 61.5612 191.821 60.5906 192.287C60.3433 192.394 60.1193 192.534 59.9 192.646C59.676 192.758 59.4707 192.884 59.2793 193.015C59.088 193.141 58.8967 193.258 58.724 193.379C58.5607 193.51 58.4021 193.631 58.2527 193.752C57.9448 193.976 57.7115 194.224 57.4968 194.42C57.2775 194.616 57.1142 194.802 56.9835 194.952C56.8575 195.092 56.7549 195.204 56.6755 195.292C56.6055 195.367 56.5682 195.404 56.5635 195.404C56.5635 195.404 56.5915 195.358 56.6569 195.278C56.7315 195.19 56.8249 195.068 56.9462 194.924C57.0722 194.765 57.2308 194.574 57.4455 194.373C57.6601 194.168 57.8888 193.916 58.1921 193.682C58.3414 193.561 58.5001 193.435 58.6634 193.3C58.836 193.174 59.0227 193.052 59.2187 192.922C59.41 192.786 59.6153 192.656 59.8393 192.539C60.0633 192.422 60.2873 192.278 60.5346 192.166C61.5145 191.681 62.7044 191.289 64.067 191.074C65.4249 190.869 66.9601 190.85 68.542 191.228C68.934 191.331 69.34 191.419 69.7273 191.573C69.9232 191.648 70.1239 191.709 70.3199 191.793C70.5112 191.881 70.7072 191.975 70.9032 192.068C71.6825 192.441 72.4244 192.936 73.157 193.468C74.6269 194.522 76.0501 195.806 77.7953 196.674C78.6633 197.103 79.6152 197.411 80.6138 197.504C81.6077 197.602 82.6343 197.541 83.6469 197.331C85.6768 196.921 87.5526 196.109 89.3678 195.362C91.183 194.611 92.9516 193.888 94.7388 193.519C96.5167 193.136 98.3132 193.188 99.8578 193.72C101.398 194.247 102.672 195.068 103.852 195.75C105.023 196.445 106.12 197.014 107.161 197.317C108.192 197.635 109.13 197.728 109.886 197.663C110.642 197.607 111.206 197.401 111.566 197.229C111.925 197.056 112.098 196.93 112.107 196.944H112.098Z" fill="#FAFAFA"/>
<path d="M86.1387 119.105C91.3463 119.362 95.826 115.456 96.2833 110.263C96.554 107.183 96.7686 104.551 96.7686 104.551C96.7686 104.551 104.72 104.35 105.826 96.5715C106.932 88.7927 107.902 70.7247 107.902 70.7247C99.3864 65.6804 88.8032 65.6384 80.2451 70.6174L78.9759 71.3547L76.9274 108.886C76.6334 114.257 80.7678 118.839 86.1387 119.105Z" fill="#FFBE9D"/>
<path d="M97.8652 91.196C97.8652 91.112 98.5512 91.0653 99.6477 91.0513C99.9324 91.056 100.161 91.0233 100.203 90.874C100.278 90.7107 100.203 90.398 100.105 90.0434C99.9231 89.2968 99.7364 88.5408 99.5404 87.7522C98.7705 84.4951 98.2805 81.8213 98.4485 81.7793C98.6118 81.742 99.3724 84.3505 100.142 87.6076C100.32 88.4008 100.492 89.1615 100.66 89.9081C100.721 90.2441 100.866 90.65 100.66 91.0933C100.553 91.3173 100.31 91.4526 100.119 91.4806C99.9277 91.5133 99.7691 91.4946 99.6337 91.4806C98.5418 91.378 97.8652 91.2753 97.8699 91.1866L97.8652 91.196Z" fill="#263238"/>
<path d="M96.792 104.444C96.792 104.444 91.8177 104.206 87.0067 100.239C87.0067 100.239 88.6819 106.161 96.5494 106.464L96.792 104.444Z" fill="#EB996E"/>
<path d="M107.809 72.7079C107.809 72.7079 102.91 74.7564 96.8667 71.3126C92.9003 69.0541 88.206 67.7989 87.114 68.5595C86.0221 69.3201 85.5695 73.5105 81.4631 74.5137C81.4631 74.5137 81.2998 82.5445 78.1174 82.0825C74.9396 81.6205 77.6181 69.3154 77.6181 69.3154L85.6441 65.9277L94.2629 64.7844L102.238 66.3616L108.365 68.4102L107.809 72.7079Z" fill="#263238"/>
<path d="M78.8871 79.5488C78.7611 79.4742 73.7401 77.2717 73.2175 82.6193C72.6949 87.9669 78.1732 87.3883 78.2012 87.2343C78.2245 87.0803 78.8871 79.5488 78.8871 79.5488Z" fill="#FFBE9D"/>
<path d="M76.764 85.0503C76.764 85.0503 76.666 85.1063 76.498 85.1623C76.3394 85.2183 76.0687 85.2416 75.7981 85.111C75.2521 84.8497 74.8648 83.9071 74.9348 82.9365C74.9675 82.4465 75.1168 81.9939 75.3268 81.6252C75.5274 81.2519 75.8074 80.9999 76.0967 80.9766C76.386 80.9393 76.5727 81.1306 76.624 81.2846C76.68 81.4432 76.638 81.5459 76.666 81.5552C76.68 81.5692 76.7873 81.4759 76.7687 81.2519C76.7547 81.1446 76.708 81.0093 76.5913 80.8973C76.4747 80.7806 76.288 80.7106 76.0874 80.7106C75.6721 80.6966 75.2661 81.0419 75.0328 81.4432C74.7808 81.8445 74.6035 82.3532 74.5662 82.9038C74.4962 83.9864 74.9488 85.0456 75.7001 85.3443C76.0687 85.4796 76.3907 85.3956 76.568 85.2836C76.7453 85.167 76.7873 85.0503 76.7687 85.041L76.764 85.0503Z" fill="#EB996E"/>
<path d="M85.0094 69.4135C83.9174 70.5801 82.8068 71.756 81.4489 72.6006C80.091 73.4452 78.4345 73.9259 76.8806 73.5665C75.3221 73.2072 73.9502 71.8587 73.8848 70.2628C73.8195 68.6669 75.3827 67.1083 76.9413 67.449C75.882 67.4677 74.9954 66.2684 75.3267 65.2605C75.658 64.2525 77.0813 63.8139 77.9212 64.4579C76.568 64.2059 76.414 62.0547 77.4919 61.1961C78.5698 60.3375 80.1564 60.5242 81.4303 61.0421C82.7089 61.5601 83.8801 62.3627 85.2287 62.652C87.3425 63.1046 89.5124 62.2274 91.3836 61.1401C93.2548 60.0528 95.0326 58.7229 97.1138 58.149C99.671 57.4397 102.438 57.9577 104.883 58.9843C106.913 59.8382 108.84 61.0701 110.161 62.834C111.481 64.5979 112.135 66.9404 111.547 69.0635C110.959 71.1867 108.985 72.9506 106.778 72.9599C106.778 72.9599 101.827 73.4592 97.7951 70.4681C93.7634 67.477 85.266 67.8736 85.266 67.8736L85 69.4088L85.0094 69.4135Z" fill="#263238"/>
<path d="M77.5574 63.1841C77.5574 63.1841 77.6554 63.2867 77.8654 63.4314C78.0753 63.5807 78.402 63.7767 78.8266 64.0193C79.6806 64.4953 80.9825 65.0926 82.6857 65.5546C84.3796 66.0119 86.4887 66.3058 88.8219 66.1379C91.1644 65.9839 93.6236 65.2279 96.1854 64.6026C98.7379 63.9727 101.276 63.66 103.465 64.2013C105.653 64.7053 107.38 66.0305 108.136 67.5284C108.906 69.0403 108.812 70.5195 108.542 71.4108C108.262 72.3254 107.875 72.7314 107.926 72.764C107.94 72.778 108.038 72.6801 108.206 72.4841C108.355 72.2741 108.584 71.9521 108.752 71.4808C109.106 70.5662 109.279 68.9983 108.5 67.3464C107.725 65.6992 105.896 64.248 103.591 63.6834C101.276 63.0861 98.6352 63.4034 96.05 64.0427C93.4556 64.6773 91.0477 65.4332 88.7799 65.6106C86.5167 65.8019 84.4542 65.5592 82.7837 65.1579C79.4192 64.3413 77.6087 63.0674 77.5574 63.1794V63.1841Z" fill="#455A64"/>
<path d="M75.1541 71.4527C75.0934 71.4853 75.2661 72.008 75.8447 72.6706C76.4093 73.3285 77.4359 74.0891 78.7705 74.3831C80.1051 74.6724 81.3556 74.4018 82.1442 74.0331C82.9422 73.6692 83.3202 73.2632 83.2782 73.2119C83.2268 73.1372 82.7789 73.4125 81.9996 73.6552C81.2296 73.9025 80.0911 74.0798 78.8918 73.8232C77.6926 73.5618 76.7313 72.9319 76.134 72.3859C75.5274 71.84 75.2334 71.406 75.1541 71.4527Z" fill="#455A64"/>
<path d="M76.8249 68.8115C76.6895 68.8769 77.1002 69.8475 78.1361 70.5567C79.1674 71.2754 80.222 71.3174 80.2313 71.168C80.264 71.0047 79.3727 70.7294 78.4581 70.0854C77.5342 69.4602 76.9649 68.7229 76.8202 68.8069L76.8249 68.8115Z" fill="#455A64"/>
<path d="M110.436 76.273C110.506 76.2917 110.66 76.0257 110.698 75.5451C110.74 75.0738 110.637 74.3785 110.226 73.7485C109.816 73.1186 109.223 72.7406 108.775 72.5866C108.322 72.428 108.019 72.4606 108.005 72.5306C107.958 72.6846 109.06 72.9926 109.746 74.0565C110.441 75.1158 110.278 76.245 110.436 76.2684V76.273Z" fill="#263238"/>
<path d="M113.208 68.6015C113.049 68.5362 112.462 69.9548 111.062 71.1214C109.685 72.3159 108.192 72.6706 108.234 72.8339C108.229 72.9832 109.918 72.8572 111.435 71.5553C112.965 70.2674 113.357 68.6202 113.213 68.6015H113.208Z" fill="#455A64"/>
<path d="M105.098 82.5818C105.037 83.2165 104.454 83.6878 103.792 83.6364C103.129 83.5851 102.644 83.0345 102.7 82.3999C102.76 81.7652 103.344 81.2939 104.006 81.3453C104.669 81.3966 105.159 81.9519 105.098 82.5818Z" fill="#263238"/>
<path d="M106.045 82.4745C105.877 82.6098 105.061 81.8259 103.773 81.6579C102.49 81.4759 101.463 82.0126 101.342 81.8399C101.281 81.7606 101.468 81.4993 101.92 81.2566C102.364 81.014 103.092 80.8133 103.89 80.9206C104.688 81.028 105.322 81.4106 105.672 81.7652C106.027 82.1199 106.125 82.4185 106.041 82.4792L106.045 82.4745Z" fill="#263238"/>
<path d="M93.4088 80.9581C93.3482 81.5927 92.7649 82.064 92.1023 82.0126C91.4396 81.9613 90.9544 81.4107 91.0103 80.7761C91.071 80.1414 91.6543 79.6701 92.3169 79.7215C92.9795 79.7728 93.4695 80.3281 93.4088 80.9581Z" fill="#263238"/>
<path d="M94.2441 80.9207C94.0762 81.056 93.2596 80.2674 91.9716 80.1041C90.6884 79.9221 89.6618 80.4587 89.5405 80.2861C89.4798 80.2067 89.6665 79.9454 90.1191 79.7028C90.5624 79.4601 91.2904 79.2595 92.0883 79.3668C92.8862 79.4741 93.5209 79.8568 93.8708 80.2114C94.2255 80.5661 94.3235 80.8647 94.2395 80.9254L94.2441 80.9207Z" fill="#263238"/>
<path d="M93.7496 77.3883C93.4976 77.6122 92.5317 76.9123 91.2344 76.791C89.9372 76.637 88.85 77.1223 88.6493 76.847C88.556 76.7163 88.7286 76.385 89.2046 76.0677C89.6712 75.7504 90.4692 75.4891 91.3604 75.5824C92.2517 75.6757 92.975 76.1004 93.367 76.511C93.7683 76.9216 93.8663 77.2809 93.7496 77.3929V77.3883Z" fill="#263238"/>
<path d="M105.961 79.5207C106.017 79.6747 105.798 79.9267 105.327 80.132C104.865 80.3373 104.151 80.454 103.381 80.3373C102.611 80.216 101.972 79.8847 101.594 79.5487C101.211 79.2128 101.08 78.9001 101.178 78.7741C101.402 78.5128 102.359 78.9654 103.572 79.1381C104.781 79.3434 105.831 79.2081 105.961 79.5254V79.5207Z" fill="#263238"/>
<path d="M96.8807 93.333C97.016 93.3424 97.1093 93.585 97.0907 93.8743C97.072 94.1636 96.9507 94.3923 96.8154 94.383C96.68 94.3736 96.5867 94.131 96.6054 93.8417C96.624 93.5524 96.7454 93.3237 96.8807 93.333Z" fill="#263238"/>
<path d="M77.9354 89.2735C77.9354 89.2735 77.9308 89.3995 77.8188 89.5861C77.7114 89.7728 77.4968 90.0248 77.1421 90.2021C76.7968 90.3841 76.2835 90.4727 75.7796 90.2814C75.2849 90.1041 74.8136 89.6748 74.6083 89.0915C74.4123 88.5035 74.5197 87.8876 74.7716 87.4303C75.0236 86.9637 75.4249 86.6697 75.7796 86.5157C76.1389 86.357 76.4609 86.3244 76.6708 86.329C76.8855 86.329 77.0022 86.3664 77.0022 86.3804C77.0022 86.427 76.5122 86.3477 75.8542 86.6697C75.5323 86.833 75.1823 87.113 74.9676 87.5329C74.753 87.9482 74.6643 88.4989 74.837 89.0122C75.0096 89.5208 75.4249 89.9034 75.8542 90.0714C76.2929 90.2487 76.7362 90.1881 77.0628 90.0434C77.7348 89.7401 77.8934 89.2362 77.9308 89.2688L77.9354 89.2735Z" fill="#455A64"/>
<path d="M83.101 121.233C83.101 121.233 85.7049 117.556 87.3381 115.489C89.3213 112.988 90.5018 110.827 90.5018 109.66V103.464C90.5018 103.464 92.9703 102.88 93.3203 105.685C93.6749 108.489 93.3203 109.194 93.3203 109.194C93.3203 109.194 103.68 102.218 104.384 102.722C105.621 103.613 103.278 105.475 103.278 105.475L96.9647 111.182L100.562 110.043C101.435 109.768 102.373 110.239 102.667 111.102C102.91 111.812 102.648 112.596 102.023 113.02L99.8952 114.863L100.968 114.434C101.762 114.117 102.667 114.457 103.05 115.218C103.358 115.829 103.25 116.567 102.784 117.066L100.842 119.133L101.752 118.648C102.34 118.335 103.068 118.568 103.362 119.156C103.61 119.651 103.474 120.253 103.04 120.598L91.4398 129.768L83.0964 121.233H83.101Z" fill="#FFBE9D"/>
<path d="M91.4443 129.763C91.4443 129.763 91.3976 129.721 91.2996 129.628C91.197 129.525 91.057 129.385 90.875 129.203C90.4924 128.82 89.9417 128.265 89.2278 127.547C87.7812 126.081 85.6814 123.954 83.0449 121.284L82.9982 121.238L83.0356 121.186C83.7962 120.113 84.6174 118.961 85.5134 117.743C85.9614 117.136 86.428 116.511 86.9133 115.876C87.4079 115.241 87.9119 114.602 88.3878 113.912C88.8685 113.221 89.3304 112.498 89.7271 111.718C90.1144 110.934 90.4784 110.109 90.3897 109.185C90.3897 107.346 90.3897 105.433 90.385 103.464V103.37L90.4737 103.356C91.1036 103.24 91.7803 103.31 92.3449 103.664C92.6249 103.846 92.8442 104.103 93.0262 104.378C93.1802 104.668 93.3015 104.98 93.3668 105.302C93.4928 105.946 93.5348 106.581 93.5768 107.239C93.5955 107.565 93.6001 107.897 93.5861 108.228C93.5628 108.564 93.5581 108.881 93.4275 109.245L93.2548 109.096C94.8554 108.023 96.5119 106.935 98.2245 105.853C99.0831 105.312 99.951 104.77 100.842 104.243C101.738 103.72 102.629 103.188 103.609 102.759C103.74 102.708 103.871 102.656 104.011 102.614C104.081 102.596 104.151 102.577 104.235 102.572C104.277 102.572 104.323 102.572 104.375 102.582C104.449 102.61 104.477 102.638 104.501 102.661C104.753 102.829 104.897 103.184 104.851 103.482C104.762 104.089 104.379 104.532 104.02 104.934C103.642 105.34 103.213 105.671 102.83 106.035C102.434 106.394 102.042 106.749 101.65 107.103C100.082 108.522 98.5418 109.908 97.0439 111.266L96.9272 111.065C97.6365 110.841 98.3365 110.622 99.0317 110.398C99.3771 110.286 99.727 110.179 100.068 110.071C100.24 110.02 100.408 109.959 100.586 109.913C100.768 109.861 100.964 109.838 101.15 109.847C101.92 109.871 102.611 110.444 102.797 111.168C103.003 111.891 102.685 112.703 102.079 113.104L102.088 113.095C101.365 113.72 100.656 114.336 99.9557 114.938L99.8437 114.756C100.194 114.616 100.544 114.476 100.884 114.341C101.244 114.192 101.659 114.164 102.032 114.266C102.788 114.467 103.334 115.204 103.311 115.96C103.311 116.333 103.18 116.697 102.956 116.987C102.723 117.267 102.489 117.495 102.256 117.747C101.794 118.237 101.342 118.718 100.898 119.189L100.786 119.04C101.113 118.867 101.44 118.695 101.762 118.527C102.116 118.359 102.536 118.377 102.872 118.55C103.213 118.718 103.455 119.049 103.53 119.413C103.605 119.777 103.511 120.16 103.292 120.444C103.18 120.589 103.035 120.692 102.909 120.794C102.779 120.897 102.648 121 102.522 121.098C102.266 121.298 102.014 121.499 101.766 121.695C101.267 122.087 100.786 122.465 100.32 122.829C98.4578 124.289 96.8479 125.549 95.5273 126.585C94.2161 127.607 93.1942 128.405 92.4895 128.956C92.1489 129.222 91.8829 129.422 91.7009 129.567C91.5236 129.702 91.4303 129.768 91.4303 129.768C91.4303 129.768 91.5236 129.684 91.7009 129.539C91.8876 129.39 92.1489 129.175 92.4895 128.9C93.1895 128.34 94.2068 127.523 95.5087 126.483C96.8152 125.437 98.4065 124.168 100.25 122.698C100.712 122.33 101.188 121.952 101.678 121.56C101.925 121.364 102.172 121.168 102.424 120.962C102.55 120.86 102.676 120.762 102.807 120.659C102.937 120.556 103.063 120.463 103.157 120.337C103.348 120.094 103.427 119.758 103.357 119.451C103.292 119.143 103.082 118.858 102.788 118.713C102.499 118.564 102.135 118.55 101.836 118.695C101.519 118.863 101.197 119.035 100.87 119.208L100.371 119.474L100.758 119.063C101.202 118.592 101.65 118.107 102.112 117.617C102.336 117.369 102.587 117.122 102.797 116.87C102.993 116.613 103.105 116.291 103.11 115.96C103.129 115.297 102.648 114.644 101.981 114.472C101.65 114.383 101.29 114.406 100.968 114.542C100.623 114.682 100.278 114.822 99.9277 114.961L99.3304 115.199L99.8157 114.78C100.511 114.178 101.22 113.562 101.944 112.932H101.948L101.953 112.922C102.485 112.568 102.76 111.858 102.578 111.228C102.415 110.594 101.808 110.095 101.136 110.076C100.805 110.048 100.483 110.183 100.133 110.29C99.7877 110.398 99.4424 110.51 99.0971 110.617C98.4018 110.836 97.7018 111.06 96.9926 111.284L96.4746 111.448L96.8759 111.084C98.3738 109.726 99.9137 108.335 101.482 106.917C101.874 106.562 102.27 106.207 102.667 105.848C103.059 105.48 103.479 105.153 103.838 104.766C104.188 104.383 104.538 103.94 104.603 103.454C104.631 103.216 104.547 102.988 104.342 102.848C104.314 102.778 104.193 102.815 104.067 102.848C103.945 102.88 103.819 102.932 103.693 102.983C102.746 103.398 101.846 103.93 100.959 104.448C100.072 104.976 99.2044 105.512 98.3458 106.053C96.6333 107.136 94.9767 108.219 93.3761 109.287L93.0775 109.488L93.2035 109.138C93.2968 108.877 93.3248 108.527 93.3388 108.214C93.3528 107.892 93.3482 107.57 93.3295 107.248C93.2922 106.609 93.2455 105.955 93.1288 105.349C93.0682 105.046 92.9562 104.761 92.8162 104.495C92.6529 104.243 92.4569 104.014 92.2096 103.856C91.7149 103.538 91.0756 103.468 90.511 103.576L90.5997 103.468C90.5997 105.442 90.5997 107.351 90.595 109.189C90.595 109.423 90.6044 109.642 90.581 109.885C90.553 110.118 90.5017 110.346 90.4317 110.566C90.2917 111.004 90.105 111.415 89.9044 111.812C89.4984 112.605 89.0271 113.333 88.5418 114.024C88.0612 114.719 87.5432 115.363 87.0533 115.993C86.5633 116.623 86.0967 117.243 85.6487 117.85C84.7481 119.063 83.9175 120.211 83.1569 121.28L83.1475 121.182C85.742 123.865 87.8139 125.997 89.2371 127.472C89.9417 128.205 90.4924 128.774 90.8703 129.17C91.0523 129.362 91.1923 129.506 91.2903 129.614C91.3836 129.716 91.435 129.772 91.435 129.772L91.4443 129.763Z" fill="#EB996E"/>
<path d="M91.4444 129.763L59.6481 171.741C54.8231 178.111 46.125 180.444 38.8969 176.986C33.6146 174.457 29.7415 169.147 32.98 158.218L63.4371 137.378L81.9485 119.511L91.4398 129.763H91.4444Z" fill="#E8505B"/>
<path d="M38.9013 176.986C38.9013 176.986 39.0179 177.042 39.2466 177.159C39.4752 177.28 39.8065 177.458 40.2405 177.686C41.1504 178.064 42.5177 178.629 44.3982 178.802C45.3315 178.871 46.3814 178.909 47.5107 178.746C48.08 178.699 48.6586 178.554 49.2652 178.438C49.5685 178.368 49.8672 178.27 50.1751 178.186C50.4878 178.106 50.7958 177.999 51.1084 177.878C52.3636 177.434 53.6609 176.823 54.9301 176.002C56.1994 175.19 57.4499 174.173 58.5139 172.871C60.6837 170.304 62.9282 167.374 65.35 164.243C67.7672 161.111 70.3243 157.738 73.0122 154.191C78.3784 147.089 84.244 139.254 90.3709 131.009C90.6975 130.57 91.0242 130.132 91.3462 129.693L91.3555 129.847C88.1031 126.329 84.9253 122.899 81.8689 119.59L82.0322 119.6C75.5506 124.947 69.5544 130.057 64.1135 134.607C58.6819 139.161 53.8102 143.16 49.6898 146.417C45.5741 149.679 42.2284 152.217 39.8952 153.921C38.738 154.784 37.8187 155.419 37.2074 155.862C36.9041 156.076 36.6708 156.24 36.5074 156.356C36.3488 156.468 36.2648 156.52 36.2648 156.52C36.2648 156.52 36.3395 156.454 36.4935 156.338C36.6521 156.216 36.8808 156.048 37.1794 155.824C37.7814 155.372 38.6913 154.723 39.8392 153.851C42.1537 152.129 45.4855 149.572 49.5872 146.296C53.6889 143.02 58.5465 139.012 63.9735 134.448C69.4004 129.889 75.392 124.775 81.8735 119.418L81.9622 119.348L82.0368 119.432C85.098 122.736 88.2757 126.17 91.5282 129.684L91.5982 129.758L91.5375 129.838C91.2155 130.276 90.8889 130.715 90.5622 131.154C84.4307 139.399 78.5604 147.229 73.1848 154.327C70.4923 157.873 67.9305 161.237 65.504 164.369C63.0729 167.495 60.8237 170.416 58.6399 172.983C57.5619 174.294 56.2927 175.316 55.0095 176.132C53.7262 176.954 52.415 177.565 51.1504 178.008C50.8378 178.125 50.5251 178.232 50.2078 178.312C49.8952 178.396 49.5918 178.494 49.2885 178.559C48.6772 178.676 48.0893 178.816 47.5153 178.862C46.3767 179.016 45.3175 178.979 44.3796 178.899C42.4897 178.708 41.1178 178.13 40.2125 177.738C39.7739 177.504 39.4472 177.313 39.2279 177.187C39.0086 177.061 38.8966 176.991 38.8966 176.991L38.9013 176.986Z" fill="#263238"/>
<path d="M63.0077 166.053C62.9891 166.081 62.6484 165.754 61.8971 165.414C61.1505 165.069 59.9466 164.831 58.4767 164.985C57.7441 165.055 56.9508 165.223 56.1202 165.475C55.2896 165.726 54.4263 166.081 53.5117 166.44C52.5971 166.8 51.6312 167.182 50.5906 167.462C49.55 167.738 48.4208 167.906 47.2729 167.784C46.1249 167.663 45.0517 167.304 44.0624 166.893C43.0685 166.482 42.1492 166.011 41.258 165.61C39.4894 164.784 37.7675 164.252 36.293 164.336C34.8184 164.401 33.6985 164.971 33.0825 165.503C32.4526 166.039 32.2613 166.478 32.2333 166.459C32.2239 166.459 32.2799 166.352 32.3919 166.16C32.5179 165.978 32.7046 165.708 33.0219 165.428C33.6332 164.863 34.7718 164.252 36.2836 164.163C37.8002 164.056 39.5641 164.588 41.3466 165.405C42.2472 165.806 43.1665 166.268 44.1511 166.674C45.131 167.08 46.1856 167.425 47.2962 167.542C48.4068 167.658 49.508 167.5 50.53 167.229C51.5566 166.958 52.5132 166.585 53.4278 166.23C54.3424 165.876 55.2103 165.526 56.0596 165.279C56.9042 165.031 57.7114 164.873 58.4581 164.807C59.956 164.672 61.1832 164.943 61.9298 165.325C62.6858 165.698 63.0031 166.048 63.0031 166.048L63.0077 166.053Z" fill="#FAFAFA"/>
<path d="M74.2441 151.975C74.2068 151.965 74.4308 151.695 74.3655 151.144C74.2955 150.617 73.8662 149.838 72.9609 149.436C72.5176 149.231 71.9903 149.096 71.4163 148.965C70.847 148.834 70.2171 148.68 69.6105 148.386C68.3832 147.817 67.254 146.833 66.2087 145.722C65.1588 144.607 64.2255 143.491 63.2269 142.637C62.2423 141.774 61.1924 141.191 60.2358 140.93C59.2839 140.659 58.4626 140.668 57.9213 140.771C57.3753 140.869 57.0907 141.004 57.0814 140.981C57.0814 140.972 57.1467 140.939 57.282 140.878C57.4173 140.818 57.6227 140.738 57.9026 140.682C58.4486 140.547 59.2979 140.51 60.2778 140.766C61.2624 141.009 62.359 141.597 63.3669 142.47C64.3888 143.333 65.3361 144.453 66.3767 145.559C67.4173 146.665 68.5185 147.626 69.6991 148.19C70.8657 148.769 72.1069 148.811 73.0262 149.287C73.9735 149.735 74.4028 150.575 74.4494 151.14C74.4728 151.429 74.4168 151.653 74.3515 151.788C74.2861 151.923 74.2395 151.984 74.2348 151.984L74.2441 151.975Z" fill="#FAFAFA"/>
<path d="M163.539 41.4198L162.148 41.5131L159.395 45.9415L159.582 48.718C159.582 48.718 157.44 48.9933 157.454 45.3442C157.463 41.6951 157.254 42.6377 157.254 42.6377C157.254 42.6377 152.69 42.9224 152.284 42.5537C151.99 42.2831 151.565 37.7614 151.351 35.3069C151.243 34.0703 151.925 32.8711 153.058 32.5025C153.217 32.4511 153.38 32.4138 153.544 32.4045C154.682 32.3298 160.557 32.8664 160.557 32.8664L162.96 32.7078L163.539 41.4292V41.4198Z" fill="#455A64"/>
<path d="M167.571 41.9144L166.082 32.4651L163.702 32.6237L164.323 41.9424L167.571 41.9144Z" fill="#455A64"/>
<path d="M130.982 49.908C130.982 49.908 131.052 49.9173 131.183 49.9546C131.248 49.9733 131.327 50.0013 131.416 50.0433C131.509 50.0806 131.612 50.132 131.719 50.202C132.158 50.4586 132.746 50.9859 133.105 51.8538C133.278 52.2831 133.395 52.7964 133.357 53.3471C133.315 53.8977 133.124 54.481 132.741 54.9756C132.373 55.4749 131.841 55.8902 131.211 56.1375C130.59 56.3942 129.858 56.4735 129.153 56.2962C128.453 56.1049 127.856 55.6756 127.44 55.1436C127.02 54.6163 126.759 53.991 126.684 53.3797C126.596 52.7638 126.717 52.1572 126.95 51.6625C127.193 51.1632 127.543 50.7759 127.907 50.4866C128.644 49.9126 129.419 49.74 129.928 49.7353C130.058 49.726 130.17 49.7353 130.268 49.7493C130.366 49.754 130.45 49.768 130.515 49.7867C130.646 49.8147 130.716 49.8333 130.711 49.8427C130.711 49.8706 130.431 49.796 129.932 49.8333C129.442 49.866 128.705 50.0573 128.014 50.6266C127.674 50.9112 127.352 51.2845 127.132 51.7512C126.922 52.2178 126.815 52.7778 126.904 53.3564C127.053 54.4903 127.907 55.7129 129.209 56.0675C130.515 56.3988 131.864 55.7596 132.555 54.845C132.914 54.3877 133.101 53.851 133.147 53.3377C133.189 52.8244 133.091 52.3345 132.937 51.9238C132.62 51.0932 132.074 50.5613 131.663 50.2906C131.248 50.0106 130.968 49.9406 130.977 49.9126L130.982 49.908Z" fill="#263238"/>
<path d="M121.271 58.2233C121.271 58.2233 121.458 58.2326 121.743 58.396C122.023 58.5546 122.405 58.8859 122.634 59.4366C122.746 59.7119 122.821 60.0385 122.797 60.3885C122.774 60.7385 122.648 61.1164 122.405 61.4337C121.939 62.0637 121.024 62.5117 120.105 62.283C119.19 62.0264 118.616 61.1864 118.523 60.4072C118.467 60.0105 118.546 59.6232 118.7 59.3059C118.854 58.9886 119.083 58.7413 119.316 58.5593C119.788 58.1953 120.282 58.0927 120.604 58.0927C120.931 58.0927 121.103 58.1673 121.099 58.1766C121.099 58.2 120.921 58.158 120.609 58.186C120.301 58.214 119.848 58.3353 119.424 58.6899C119.004 59.0306 118.63 59.6559 118.747 60.3792C118.84 61.0791 119.372 61.8304 120.17 62.0497C120.973 62.255 121.803 61.863 122.233 61.2984C122.69 60.7291 122.676 60.0012 122.475 59.4972C122.279 58.9793 121.948 58.6479 121.691 58.4706C121.435 58.2933 121.262 58.242 121.271 58.2186V58.2233Z" fill="#263238"/>
<path d="M135.415 35.6522C135.415 35.6522 135.429 35.5216 135.471 35.2649C135.513 35.0036 135.574 34.621 135.658 34.1263C135.7 33.8744 135.746 33.5944 135.798 33.2864C135.863 32.9784 135.966 32.6518 136.059 32.2925C136.157 31.9332 136.264 31.5505 136.376 31.1352C136.428 30.9252 136.498 30.7199 136.586 30.5099C136.67 30.3 136.754 30.0806 136.838 29.8567C137.473 28.0368 138.602 25.9276 140.254 23.7484C141.915 21.5786 144.211 19.3761 147.193 17.6262C147.566 17.4115 147.944 17.1922 148.327 16.9729C148.723 16.7769 149.134 16.5996 149.545 16.413C149.96 16.2356 150.361 16.0116 150.805 15.8717C151.243 15.7223 151.682 15.573 152.13 15.419C152.354 15.3444 152.578 15.265 152.802 15.1904C153.035 15.1344 153.268 15.083 153.502 15.0271C153.968 14.9151 154.444 14.8077 154.92 14.6957C155.401 14.5977 155.896 14.5558 156.39 14.4858C156.885 14.4344 157.38 14.3224 157.893 14.3271C158.91 14.3038 159.941 14.2198 160.987 14.3364C161.509 14.3784 162.041 14.3924 162.568 14.4624C163.096 14.5511 163.623 14.6444 164.155 14.7377C164.421 14.7891 164.692 14.8217 164.958 14.8871C165.219 14.9617 165.485 15.0317 165.746 15.1064C166.274 15.2604 166.81 15.391 167.337 15.5637C168.369 15.979 169.447 16.329 170.445 16.8936C170.702 17.0242 170.954 17.1549 171.211 17.2856C171.337 17.3509 171.467 17.4115 171.593 17.4862L171.957 17.7195C172.442 18.0322 172.932 18.3448 173.427 18.6621C173.903 18.9981 174.356 19.3807 174.822 19.74C175.051 19.9267 175.298 20.0947 175.513 20.3L176.161 20.9206C177.062 21.7139 177.818 22.6612 178.621 23.5804C178.975 24.0797 179.33 24.579 179.685 25.083L179.951 25.461L180.184 25.8623L180.646 26.6695L181.112 27.4815L181.504 28.3354L181.892 29.194L182.088 29.6233C182.144 29.7727 182.19 29.922 182.242 30.0713C182.447 30.6686 182.648 31.2706 182.858 31.8772C183.002 32.4978 183.152 33.1231 183.296 33.7484C183.791 36.2682 183.903 38.9 183.618 41.5225C183.264 44.1403 182.526 46.6648 181.444 48.9979C181.15 49.5719 180.86 50.1412 180.571 50.7058C180.226 51.2424 179.885 51.7791 179.54 52.311L179.283 52.7077L178.989 53.081L178.406 53.8229L177.823 54.5602L177.174 55.2368L176.53 55.9088L176.208 56.2401L175.858 56.5434C175.392 56.9447 174.925 57.346 174.463 57.7473C173.464 58.4519 172.503 59.1845 171.434 59.7398L170.66 60.1831C170.403 60.3325 170.123 60.4351 169.857 60.5611C169.316 60.7991 168.789 61.0604 168.243 61.2751C167.687 61.4617 167.137 61.6484 166.591 61.835L166.18 61.975C166.04 62.0123 165.9 62.0403 165.76 62.0777C165.48 62.143 165.2 62.2083 164.925 62.2737C163.819 62.5816 162.69 62.661 161.589 62.8196C161.033 62.8663 160.478 62.8616 159.932 62.8849C159.657 62.8943 159.386 62.8989 159.111 62.9083C158.84 62.9083 158.569 62.8756 158.299 62.8616C157.757 62.8243 157.221 62.7823 156.689 62.745C156.162 62.689 155.639 62.5723 155.121 62.4883C154.076 62.353 153.091 62.0217 152.111 61.7557C151.617 61.6437 151.159 61.415 150.693 61.2424C150.231 61.0511 149.759 60.8924 149.316 60.6824C148.882 60.4585 148.448 60.2391 148.019 60.0198C147.804 59.9125 147.594 59.8005 147.38 59.6932C147.179 59.5672 146.978 59.4365 146.782 59.3105C146.386 59.0539 145.994 58.8019 145.606 58.5546C145.214 58.3119 144.878 57.9993 144.514 57.7286C144.164 57.444 143.805 57.178 143.469 56.8934C143.152 56.5854 142.835 56.2868 142.522 55.9881C140.044 53.5756 138.35 50.8831 137.254 48.3773C136.171 45.8622 135.583 43.5477 135.401 41.6251C135.368 41.3872 135.34 41.1538 135.312 40.9299C135.28 40.7059 135.256 40.4866 135.261 40.2719C135.252 39.8473 135.238 39.446 135.228 39.0727C135.224 38.704 135.2 38.3587 135.21 38.0461C135.233 37.7334 135.256 37.4534 135.275 37.1968C135.317 36.6975 135.345 36.3149 135.368 36.0489C135.392 35.7922 135.41 35.6569 135.41 35.6569C135.41 35.6569 135.41 35.7922 135.396 36.0489C135.382 36.3149 135.359 36.6975 135.326 37.1968C135.312 37.4488 135.294 37.7334 135.27 38.0414C135.266 38.354 135.289 38.6947 135.298 39.0633C135.312 39.432 135.326 39.8333 135.34 40.2579C135.34 40.4726 135.364 40.6919 135.401 40.9159C135.434 41.1398 135.462 41.3732 135.494 41.6111C135.69 43.5197 136.288 45.8248 137.375 48.3167C138.472 50.8038 140.17 53.4683 142.639 55.8574C142.947 56.1514 143.264 56.4547 143.581 56.7534C143.917 57.038 144.272 57.304 144.622 57.5793C144.981 57.8453 145.317 58.158 145.709 58.3959C146.096 58.6432 146.484 58.8906 146.88 59.1425C147.076 59.2685 147.277 59.3945 147.478 59.5205C147.688 59.6278 147.898 59.7352 148.112 59.8425C148.537 60.0571 148.966 60.2765 149.4 60.4958C149.839 60.7011 150.305 60.8598 150.763 61.0464C151.229 61.2144 151.677 61.4384 152.172 61.5504C153.142 61.8117 154.118 62.1383 155.158 62.269C155.672 62.3483 156.185 62.465 156.712 62.521C157.24 62.5583 157.771 62.5956 158.308 62.633C158.574 62.647 158.845 62.6796 159.115 62.6796C159.386 62.6703 159.657 62.661 159.927 62.6563C160.469 62.633 161.019 62.6376 161.57 62.591C162.662 62.4323 163.782 62.353 164.874 62.045C165.149 61.9797 165.424 61.9143 165.704 61.849C165.844 61.8164 165.984 61.7884 166.12 61.7464L166.526 61.6064C167.067 61.4197 167.613 61.2377 168.163 61.0464C168.7 60.8318 169.227 60.5751 169.764 60.3371C170.03 60.2111 170.305 60.1085 170.562 59.9592L171.332 59.5159C172.386 58.9652 173.338 58.2373 174.328 57.5373C174.785 57.1407 175.247 56.744 175.709 56.3474L176.054 56.0488L176.371 55.7175L177.011 55.0502L177.65 54.3829L178.229 53.6549L178.807 52.9223L179.097 52.5537L179.353 52.1617C179.689 51.6344 180.03 51.1025 180.371 50.5752C180.66 50.0152 180.944 49.4506 181.234 48.8813C182.307 46.5761 183.035 44.075 183.385 41.4805C183.665 38.8813 183.558 36.2775 183.068 33.781C182.923 33.1604 182.778 32.5445 182.634 31.9285C182.428 31.3312 182.228 30.7339 182.027 30.1413C181.976 29.992 181.929 29.8427 181.873 29.698L181.682 29.2734L181.299 28.4241L180.912 27.5795L180.45 26.7769L179.993 25.9789L179.764 25.5823L179.498 25.209C179.143 24.7097 178.793 24.2151 178.443 23.7204C177.65 22.8058 176.903 21.8679 176.012 21.084L175.373 20.4727C175.163 20.2673 174.916 20.104 174.692 19.9174C174.23 19.5581 173.782 19.1801 173.31 18.8441C172.82 18.5315 172.335 18.2188 171.854 17.9108L171.495 17.6775C171.369 17.6075 171.243 17.5469 171.117 17.4815C170.865 17.3509 170.609 17.2249 170.357 17.0942C169.367 16.5343 168.299 16.1843 167.281 15.769C166.759 15.5917 166.227 15.4657 165.704 15.3117C165.443 15.237 165.182 15.167 164.92 15.0924C164.659 15.0271 164.388 14.9944 164.127 14.9431C163.6 14.8497 163.072 14.7611 162.554 14.6677C162.032 14.5977 161.505 14.5838 160.987 14.5371C159.951 14.4158 158.924 14.4998 157.916 14.5184C157.412 14.5091 156.918 14.6211 156.428 14.6724C155.938 14.7424 155.448 14.7844 154.972 14.8777C154.5 14.9897 154.029 15.097 153.562 15.2044C153.329 15.2604 153.1 15.3117 152.867 15.3677C152.643 15.4377 152.419 15.517 152.2 15.5917C151.757 15.741 151.318 15.8903 150.884 16.035C150.445 16.1703 150.049 16.3943 149.633 16.5669C149.227 16.7536 148.817 16.9262 148.425 17.1222C148.042 17.3416 147.669 17.5562 147.296 17.7662C144.328 19.4927 142.041 21.6719 140.375 23.8231C138.724 25.9836 137.585 28.0741 136.941 29.8847C136.852 30.1086 136.768 30.3233 136.684 30.5379C136.596 30.7479 136.521 30.9532 136.47 31.1586C136.353 31.5692 136.246 31.9518 136.143 32.3065C136.045 32.6611 135.938 32.9878 135.872 33.2911C135.816 33.5991 135.765 33.8744 135.723 34.1263C135.634 34.621 135.564 34.999 135.513 35.2603C135.466 35.5169 135.434 35.6476 135.434 35.6476L135.415 35.6522Z" fill="#263238"/>
<path d="M62.1259 43.6412C62.1306 43.6691 61.846 43.7065 61.4027 43.9305C60.9594 44.1498 60.3574 44.6117 59.9374 45.4004C59.7321 45.7923 59.5781 46.2636 59.5595 46.7769C59.5455 47.2902 59.6621 47.8455 59.9654 48.3448C60.5394 49.3341 61.7993 50.132 63.1385 49.9594C64.4731 49.7634 65.4717 48.6528 65.7563 47.5469C65.915 46.9869 65.8777 46.4176 65.7237 45.9277C65.565 45.4377 65.285 45.0271 64.9864 44.7051C64.3704 44.0611 63.6658 43.7811 63.1805 43.6878C62.6906 43.5898 62.4059 43.6318 62.4059 43.6038C62.4059 43.5945 62.4759 43.5852 62.6112 43.5712C62.6766 43.5618 62.7606 43.5572 62.8585 43.5665C62.9565 43.5665 63.0732 43.5712 63.1992 43.5945C63.7032 43.6598 64.4498 43.9258 65.1124 44.5837C65.439 44.9151 65.7423 45.3397 65.9197 45.8623C66.0923 46.385 66.139 47.0009 65.9757 47.6029C65.8263 48.2048 65.495 48.7928 65.0097 49.2641C64.5338 49.74 63.8898 50.0947 63.1712 50.202C62.4526 50.2907 61.734 50.1274 61.1507 49.796C60.558 49.4741 60.0821 48.9981 59.7741 48.4568C59.4568 47.9202 59.3308 47.3182 59.3588 46.7676C59.3868 46.217 59.5641 45.7223 59.7881 45.3164C60.2454 44.4998 60.894 44.0471 61.3607 43.8465C61.4773 43.7905 61.5846 43.7531 61.6826 43.7251C61.776 43.6925 61.8553 43.6738 61.9253 43.6645C62.0559 43.6411 62.1259 43.6318 62.1306 43.6412H62.1259Z" fill="#263238"/>
<path d="M70.9871 51.1725C70.9871 51.1725 70.8145 51.2238 70.5392 51.3732C70.2685 51.5178 69.8952 51.8071 69.6386 52.2971C69.3819 52.773 69.2793 53.4963 69.6619 54.117C70.0166 54.7282 70.7958 55.2182 71.6171 55.1109C72.4337 54.9896 73.0543 54.3083 73.2317 53.627C73.4323 52.927 73.1383 52.2598 72.765 51.8678C72.387 51.4665 71.9484 51.2845 71.6498 51.2238C71.3465 51.1585 71.1645 51.1772 71.1645 51.1538C71.1645 51.1445 71.3418 51.0932 71.6684 51.1305C71.9904 51.1678 72.4664 51.3312 72.891 51.7511C73.101 51.9611 73.297 52.2318 73.409 52.5677C73.521 52.9037 73.5536 53.3003 73.451 53.683C73.2643 54.4483 72.5924 55.2135 71.6544 55.3535C70.7118 55.4702 69.8626 54.9149 69.4706 54.2336C69.2653 53.8883 69.1906 53.501 69.2093 53.1464C69.2326 52.7917 69.3446 52.4791 69.4893 52.2178C69.7832 51.6998 70.2032 51.4151 70.5019 51.2892C70.8052 51.1632 70.9918 51.1678 70.9918 51.1772L70.9871 51.1725Z" fill="#263238"/>
<path d="M36.5543 25.5591H35.0471L31.7573 20.9768V17.967C31.7573 17.967 29.4288 17.8223 29.7041 21.7607C29.9794 25.6991 29.6808 24.6958 29.6808 24.6958C29.6808 24.6958 24.7345 24.7145 24.3238 25.1438C24.0252 25.4564 23.8899 30.3701 23.8386 33.0346C23.8106 34.3738 24.6365 35.6244 25.8824 35.9417C26.0597 35.9884 26.237 36.0117 26.4144 36.0117C27.6463 36.0117 33.9505 35.0084 33.9505 35.0084H36.5543V25.5544V25.5591Z" fill="#E8505B"/>
<path d="M40.8708 24.7332L39.9422 35.0411H37.3618V24.9385L40.8708 24.7332Z" fill="#E8505B"/>
<path d="M59.452 26.9917C59.452 26.9917 59.438 26.8471 59.4194 26.5671C59.4007 26.2824 59.3774 25.8671 59.3447 25.3212C59.3307 25.0458 59.312 24.7425 59.2934 24.4066C59.2607 24.0706 59.1861 23.7066 59.1301 23.31C59.0694 22.9133 58.9994 22.4887 58.9294 22.0361C58.9014 21.8074 58.8454 21.5741 58.7801 21.3408C58.7194 21.1028 58.6541 20.8602 58.5888 20.6082C58.1315 18.583 57.1842 16.1892 55.691 13.6507C54.1837 11.1215 52.0139 8.48037 49.0508 6.23587C48.6775 5.96056 48.3042 5.67591 47.9215 5.39593C47.5249 5.13461 47.1096 4.89663 46.6943 4.64465C46.489 4.51866 46.279 4.39267 46.069 4.26668C45.859 4.13602 45.649 4.01003 45.4204 3.90737C44.9724 3.69272 44.5198 3.47807 44.0671 3.25875C43.8385 3.15142 43.6098 3.03477 43.3765 2.93211C43.1385 2.84345 42.8959 2.75479 42.6532 2.66613C42.1679 2.48881 41.678 2.31148 41.1833 2.1295C40.684 1.96618 40.1614 1.85885 39.6435 1.71886C39.3821 1.65353 39.1255 1.58354 38.8595 1.51821C38.7289 1.48554 38.5982 1.44821 38.4675 1.42022L38.0662 1.35955C36.9883 1.20556 35.8964 0.98158 34.7671 0.976914C34.2025 0.958249 33.6379 0.902253 33.0639 0.911585C32.4946 0.939583 31.916 0.972248 31.3374 1.00025C31.0481 1.01891 30.7541 1.01891 30.4648 1.05624C30.1755 1.09824 29.8862 1.1449 29.5968 1.19157C29.0182 1.28956 28.4256 1.35489 27.8423 1.47621C26.6897 1.78886 25.4998 2.02217 24.3612 2.49814C24.0719 2.60546 23.7873 2.70812 23.4979 2.81545C23.3533 2.87144 23.2086 2.91811 23.064 2.97877L22.644 3.17942C22.084 3.45007 21.5241 3.72072 20.9595 3.99136C20.4088 4.29001 19.8815 4.63998 19.3356 4.96196C19.0696 5.13461 18.785 5.27927 18.5283 5.47059L17.7584 6.04455C16.6991 6.7725 15.7705 7.68243 14.7999 8.5597C14.3613 9.045 13.918 9.5303 13.4747 10.0203L13.1434 10.3889C13.0407 10.5196 12.9427 10.6549 12.8447 10.7855L12.2474 11.5835L11.6455 12.3861L11.1182 13.2447L10.5955 14.108L10.3342 14.5419C10.2549 14.6913 10.1849 14.8452 10.1102 14.9992C9.81626 15.6105 9.52228 16.2218 9.22364 16.8378C8.99032 17.4771 8.75234 18.121 8.51436 18.7696C7.66508 21.3874 7.20778 24.1686 7.17045 26.9964C7.20778 29.8288 7.66508 32.61 8.51436 35.2278C8.75234 35.8764 8.98566 36.5204 9.22364 37.1596C9.52228 37.7756 9.81626 38.3869 10.1102 38.9982L10.3342 39.4555L10.5955 39.8894L11.1182 40.7527L11.6455 41.6113L12.2474 42.4139L12.8447 43.2119L13.1434 43.6085L13.4747 43.9772C13.918 44.4671 14.3613 44.9524 14.7999 45.4377C15.7705 46.315 16.6991 47.2249 17.7584 47.9529L18.5283 48.5268C18.7803 48.7181 19.0696 48.8675 19.3356 49.0355C19.8815 49.3574 20.4088 49.7074 20.9595 50.0061C21.5241 50.2767 22.0887 50.552 22.644 50.818L23.064 51.0186C23.2086 51.0793 23.3533 51.126 23.4979 51.182C23.7873 51.2893 24.0766 51.392 24.3612 51.4993C25.4951 51.9706 26.6897 52.2086 27.8423 52.5212C28.4256 52.6425 29.0182 52.7079 29.5968 52.8059C29.8862 52.8525 30.1801 52.8945 30.4648 52.9412C30.7541 52.9785 31.0481 52.9785 31.3374 52.9972C31.916 53.0252 32.4946 53.0578 33.0639 53.0858C33.6332 53.0952 34.2025 53.0392 34.7671 53.0205C35.8964 53.0158 36.9883 52.7919 38.0662 52.6379L38.4675 52.5772C38.6029 52.5492 38.7289 52.5119 38.8595 52.4792C39.1208 52.4139 39.3821 52.3439 39.6435 52.2786C40.1614 52.1386 40.684 52.0312 41.1833 51.8679C41.678 51.6859 42.1679 51.5086 42.6532 51.3313C42.8959 51.2426 43.1385 51.154 43.3765 51.0653C43.6052 50.958 43.8385 50.846 44.0671 50.7387C44.5244 50.5193 44.9771 50.3047 45.4204 50.09C45.649 49.9921 45.859 49.8614 46.069 49.7307C46.279 49.6047 46.489 49.4788 46.6943 49.3528C47.1096 49.0961 47.5249 48.8581 47.9215 48.6015C48.3042 48.3168 48.6775 48.0369 49.0508 47.7616C52.0139 45.517 54.1837 42.8759 55.691 40.3467C55.8823 40.0294 56.0783 39.7261 56.2556 39.4181C56.4096 39.0962 56.5636 38.7835 56.7129 38.4756C56.8622 38.1676 57.0069 37.8643 57.1515 37.5703C57.2215 37.421 57.3009 37.2763 57.3615 37.127C57.4175 36.9777 57.4735 36.8237 57.5295 36.679C57.7488 36.0864 57.9588 35.5171 58.1595 34.9758C58.3461 34.4298 58.4534 33.8885 58.5934 33.3892C58.6588 33.1373 58.7241 32.8946 58.7847 32.6566C58.8501 32.4187 58.9061 32.19 58.9341 31.9614C59.0041 31.5087 59.0741 31.0794 59.1347 30.6874C59.1907 30.2908 59.2654 29.9268 59.298 29.5909C59.3167 29.2549 59.3354 28.9469 59.3494 28.6763C59.382 28.135 59.4054 27.7197 59.424 27.4303C59.4427 27.1504 59.4567 27.0057 59.4567 27.0057C59.4567 27.0057 59.4567 27.1504 59.4474 27.4303C59.4334 27.7197 59.4194 28.135 59.396 28.6763C59.382 28.9516 59.3727 29.2595 59.354 29.5955C59.3214 29.9315 59.256 30.2955 59.2 30.6968C59.1394 31.0934 59.0787 31.5227 59.0087 31.98C58.9854 32.2087 58.9294 32.442 58.8641 32.68C58.8034 32.9179 58.7427 33.1653 58.6774 33.4172C58.5421 33.9212 58.4348 34.4625 58.2528 35.0131C58.0568 35.5591 57.8468 36.1284 57.6322 36.7257C57.5762 36.875 57.5248 37.0243 57.4688 37.1783C57.4082 37.3276 57.3288 37.4723 57.2635 37.6216C57.1189 37.9203 56.9742 38.2236 56.8249 38.5362C56.6756 38.8489 56.5262 39.1615 56.3723 39.4881C56.1949 39.8008 55.9989 40.1088 55.8123 40.4261C54.3097 42.9739 52.1352 45.6384 49.1628 47.9062C48.7895 48.1862 48.4115 48.4708 48.0289 48.7555C47.6322 49.0168 47.2122 49.2594 46.7969 49.5161C46.587 49.6421 46.377 49.7727 46.167 49.8987C45.957 50.0294 45.747 50.16 45.5184 50.2627C45.0704 50.482 44.6131 50.7013 44.1558 50.9207C43.9271 51.028 43.6985 51.1446 43.4605 51.252C43.2179 51.3406 42.9752 51.4293 42.7326 51.5179C42.2426 51.6953 41.7526 51.8773 41.2533 52.0592C40.7494 52.2272 40.2267 52.3346 39.7041 52.4792C39.4428 52.5445 39.1815 52.6145 38.9155 52.6845C38.7849 52.7172 38.6542 52.7545 38.5189 52.7825L38.1129 52.8432C37.0256 53.0018 35.9291 53.2258 34.7858 53.2352C34.2165 53.2538 33.6472 53.3098 33.0733 53.3051C32.4993 53.2772 31.916 53.2492 31.3327 53.2165C31.0387 53.1978 30.7448 53.1978 30.4554 53.1605C30.1661 53.1185 29.8722 53.0718 29.5782 53.0252C28.9902 52.9272 28.3976 52.8618 27.8096 52.7405C26.6477 52.4279 25.4438 52.1946 24.3006 51.7186C24.0112 51.6113 23.7173 51.5039 23.428 51.4013C23.2833 51.3453 23.134 51.2986 22.9893 51.238L22.5693 51.0326C22.0047 50.762 21.4401 50.4867 20.8661 50.216C20.3108 49.9174 19.7742 49.5674 19.2236 49.2408C18.9529 49.0681 18.6683 48.9235 18.4116 48.7275L17.637 48.1489C16.5684 47.4162 15.6305 46.497 14.6506 45.615C14.2073 45.1251 13.7593 44.6351 13.3113 44.1405L12.9754 43.7718L12.6721 43.3705L12.0701 42.5633L11.4635 41.7513L10.9315 40.8834L10.3996 40.0108L10.1336 39.5721L9.90959 39.1102C9.61094 38.4942 9.3123 37.8736 9.01365 37.253C8.77567 36.6044 8.53769 35.9557 8.2997 35.3024C7.4411 32.6613 6.97913 29.8522 6.9418 26.9964C6.97913 24.1406 7.4411 21.3361 8.2997 18.6903C8.53769 18.037 8.77567 17.3884 9.01365 16.7398C9.3123 16.1192 9.61094 15.4985 9.90959 14.8826C9.98425 14.7286 10.0542 14.5746 10.1336 14.4206L10.3996 13.982L10.9315 13.1094L11.4635 12.2461L12.0701 11.4342L12.6721 10.6269C12.7747 10.4916 12.8727 10.3562 12.9754 10.2256L13.3113 9.85694C13.7593 9.36231 14.2073 8.87235 14.6506 8.38705C15.6305 7.50044 16.5684 6.58584 17.637 5.85323L18.4116 5.2746C18.6683 5.07862 18.9576 4.93396 19.2236 4.76131C19.7742 4.43467 20.3062 4.08469 20.8615 3.78605C21.4308 3.51073 22.0001 3.24008 22.5647 2.96944L22.9847 2.76878C23.1293 2.70812 23.2786 2.66146 23.4233 2.60546C23.7173 2.49814 24.0066 2.39081 24.2959 2.28815C25.4391 1.81219 26.6431 1.57887 27.805 1.26623C28.3929 1.1449 28.9902 1.07957 29.5735 0.98158C29.8675 0.934917 30.1615 0.89292 30.4508 0.846257C30.7448 0.808926 31.0387 0.808926 31.3281 0.790261C31.9113 0.762263 32.4946 0.734265 33.0686 0.7016C33.6425 0.692268 34.2165 0.748264 34.7811 0.771595C35.9197 0.780928 37.021 1.00491 38.1082 1.16357L38.5142 1.22423C38.6495 1.25223 38.7802 1.28956 38.9108 1.32222C39.1722 1.39222 39.4381 1.45755 39.6994 1.52754C40.2174 1.6722 40.7447 1.77952 41.2487 1.94751C41.748 2.1295 42.2379 2.31148 42.7279 2.48881C42.9706 2.57747 43.2132 2.66613 43.4558 2.75479C43.6892 2.86211 43.9178 2.9741 44.1511 3.0861C44.6084 3.31008 45.0657 3.5294 45.5137 3.74405C45.7424 3.84671 45.9523 3.97737 46.1623 4.10802C46.3723 4.23868 46.5823 4.36467 46.7923 4.49066C47.2076 4.74731 47.6275 4.98996 48.0242 5.25127C48.4068 5.53592 48.7848 5.82057 49.1581 6.10055C52.1306 8.36838 54.3097 11.0329 55.8076 13.5807C57.2962 16.1378 58.2341 18.5503 58.6774 20.5848C58.7427 20.8368 58.8034 21.0841 58.8641 21.3221C58.9294 21.5601 58.9807 21.7934 59.0087 22.0221C59.0787 22.4794 59.1394 22.9087 59.2 23.3053C59.256 23.7019 59.3214 24.0659 59.354 24.4066C59.368 24.7425 59.382 25.0505 59.396 25.3258C59.4194 25.8671 59.4334 26.2871 59.4474 26.5717C59.4567 26.8517 59.4567 26.9964 59.4567 26.9964L59.452 26.9917Z" fill="#263238"/>
<path d="M101.351 36.091C101.351 36.091 101.337 36.091 101.332 36.091C100.945 36.0817 100.642 35.7597 100.651 35.3724L100.81 29.1428C100.815 28.9235 100.922 28.7182 101.104 28.5922C101.281 28.4662 101.51 28.4289 101.72 28.4942C102.849 28.8442 104.123 28.6855 105.22 28.0556C106.237 27.4723 106.96 26.5484 107.203 25.5218C107.441 24.4998 107.207 23.3473 106.559 22.3533C105.863 21.2894 104.809 20.5568 103.67 20.3468C101.379 19.9222 98.864 21.4481 98.0661 23.7532C97.9401 24.1172 97.5388 24.3132 97.1748 24.1872C96.8108 24.0612 96.6148 23.6599 96.7408 23.2959C97.7581 20.3655 100.978 18.4289 103.922 18.9702C105.434 19.2502 106.82 20.2068 107.725 21.5881C108.579 22.8993 108.887 24.4485 108.561 25.8391C108.234 27.2436 107.268 28.4896 105.91 29.2688C104.753 29.9315 103.437 30.1881 102.186 30.0248L102.051 35.4097C102.042 35.7924 101.729 36.091 101.351 36.091Z" fill="#263238"/>
<path d="M102.434 39.1707C102.434 39.7354 101.976 40.1927 101.412 40.1927C100.847 40.1927 100.39 39.7354 100.39 39.1707C100.39 38.6061 100.847 38.1488 101.412 38.1488C101.976 38.1488 102.434 38.6061 102.434 39.1707Z" fill="#263238"/>
<path d="M24.7579 107.915C23.708 107.915 22.6721 107.612 21.8368 106.987C20.8569 106.249 20.2036 105.083 20.0496 103.776C19.9003 102.54 20.2362 101.326 20.9595 100.449C21.6921 99.5624 22.8261 99.0118 24.0626 98.9371C25.0519 98.8764 26.0225 99.1191 26.8298 99.6184L28.673 96.1233C28.855 95.7827 29.2749 95.652 29.6202 95.8293C29.9609 96.0113 30.0915 96.4313 29.9142 96.7766L27.6837 101.004C27.5811 101.2 27.3944 101.331 27.1797 101.368C26.9651 101.406 26.7411 101.336 26.5825 101.186C25.9572 100.594 25.0752 100.286 24.1513 100.342C23.2974 100.393 22.5274 100.762 22.0421 101.35C21.5568 101.938 21.3375 102.763 21.4402 103.622C21.5522 104.546 22.0001 105.367 22.6767 105.876C24.0206 106.884 26.2185 106.693 27.4737 105.456C27.749 105.185 28.1923 105.19 28.463 105.465C28.7336 105.741 28.729 106.184 28.4537 106.455C27.4691 107.42 26.1018 107.924 24.7533 107.924L24.7579 107.915Z" fill="#263238"/>
<path d="M29.8398 93.4775C30.0311 93.0902 30.5024 92.9315 30.8943 93.1229C31.2816 93.3142 31.4403 93.7855 31.249 94.1775C31.0577 94.5648 30.5864 94.7234 30.1991 94.5321C29.8118 94.3408 29.6531 93.8695 29.8444 93.4775H29.8398Z" fill="#263238"/>
<path d="M166.022 96.1373C165.807 96.1373 165.593 96.0346 165.453 95.848L162.653 91.9749C162.522 91.7976 162.485 91.569 162.55 91.359C162.615 91.149 162.774 90.981 162.979 90.9063C163.787 90.6124 164.459 89.9544 164.818 89.1005C165.149 88.3119 165.163 87.4626 164.851 86.7626C164.538 86.0674 163.894 85.5074 163.082 85.2181C162.205 84.9054 161.267 84.9474 160.516 85.3254C159.018 86.086 158.215 88.1392 158.761 89.8144C158.882 90.1831 158.682 90.575 158.313 90.6964C157.944 90.8177 157.552 90.617 157.431 90.2484C156.666 87.9152 157.762 85.1434 159.881 84.0748C160.973 83.5242 162.312 83.4589 163.549 83.8975C164.72 84.3128 165.663 85.1481 166.129 86.1887C166.6 87.2386 166.591 88.4985 166.11 89.6418C165.723 90.5564 165.079 91.317 164.277 91.8209L166.591 95.0267C166.82 95.3394 166.745 95.778 166.432 96.002C166.306 96.0906 166.166 96.1326 166.022 96.1326V96.1373Z" fill="#263238"/>
<path d="M168.444 97.2338C168.705 97.5791 168.64 98.0737 168.295 98.335C167.949 98.5964 167.459 98.531 167.193 98.1857C166.932 97.8404 166.997 97.3458 167.343 97.0845C167.688 96.8232 168.183 96.8885 168.444 97.2338Z" fill="#263238"/>
</g>
<defs>
<clipPath id="clip0_1661_1718">
<rect width="183.545" height="200" fill="white" transform="translate(0.227722 0.700562)"/>
</clipPath>
</defs>
</svg>
