<svg width="1410" height="25" viewBox="0 0 1410 25" fill="none" xmlns="http://www.w3.org/2000/svg">
<path fill-rule="evenodd" clip-rule="evenodd" d="M711.594 7.52711C711.041 7.52711 710.594 7.97482 710.594 8.52711C710.594 9.07939 711.041 9.52711 711.594 9.52711L868.364 9.5271C868.481 9.5271 868.598 9.50638 868.708 9.46589L889.053 2.00001L1409 2C1409.55 2 1410 1.55228 1410 1C1410 0.447715 1409.55 0 1409 0L888.876 8.49587e-06C888.758 8.49782e-06 888.641 0.0207299 888.531 0.061221L868.186 7.5271L711.594 7.52711ZM1 2.50875C0.447715 2.50875 0 2.95647 0 3.50875C0 4.06104 0.447715 4.50875 1 4.50875L222.783 4.50875L273.156 23.9563C273.271 24.0007 273.393 24.0234 273.516 24.0234L515.997 24.0234C516.119 24.0234 516.239 24.0013 516.353 23.958L559.403 7.57534L646.211 7.57534L683.4 21.7278C683.514 21.771 683.634 21.7932 683.756 21.7932L861.038 21.7932C861.59 21.7932 862.038 21.3455 862.038 20.7932C862.038 20.2409 861.59 19.7932 861.038 19.7932L683.94 19.7932L646.75 5.64072C646.637 5.59749 646.516 5.57534 646.395 5.57534L559.219 5.57534C559.097 5.57534 558.977 5.5975 558.863 5.64073L515.813 22.0234L273.703 22.0234L223.329 2.57586C223.214 2.5315 223.092 2.50875 222.969 2.50875L1 2.50875Z" fill="url(#paint0_linear_1599_1300)"/>
<defs>
<linearGradient id="paint0_linear_1599_1300" x1="-1.32559e-05" y1="3.01914" x2="625.699" y2="713.685" gradientUnits="userSpaceOnUse">
<stop stop-color="#DADADA"/>
<stop offset="0.983345" stop-color="white" stop-opacity="0"/>
</linearGradient>
</defs>
</svg>
